<?xml version="1.0" encoding="utf-8" standalone="no"?>
<!DOCTYPE svg PUBLIC "-//W3C//DTD SVG 1.1//EN"
  "http://www.w3.org/Graphics/SVG/1.1/DTD/svg11.dtd">
<svg xmlns:xlink="http://www.w3.org/1999/xlink" width="639.509844pt" height="383.560031pt" viewBox="0 0 639.509844 383.560031" xmlns="http://www.w3.org/2000/svg" version="1.1">
 <metadata>
  <rdf:RDF xmlns:dc="http://purl.org/dc/elements/1.1/" xmlns:cc="http://creativecommons.org/ns#" xmlns:rdf="http://www.w3.org/1999/02/22-rdf-syntax-ns#">
   <cc:Work>
    <dc:type rdf:resource="http://purl.org/dc/dcmitype/StillImage"/>
    <dc:date>2026-04-27T01:07:55.322734</dc:date>
    <dc:format>image/svg+xml</dc:format>
    <dc:creator>
     <cc:Agent>
      <dc:title>Matplotlib v3.10.5, https://matplotlib.org/</dc:title>
     </cc:Agent>
    </dc:creator>
   </cc:Work>
  </rdf:RDF>
 </metadata>
 <defs>
  <style type="text/css">*{stroke-linejoin: round; stroke-linecap: butt}</style>
 </defs>
 <g id="figure_1">
  <g id="patch_1">
   <path d="M 0 383.560031 
L 639.509844 383.560031 
L 639.509844 0 
L 0 0 
z
" style="fill: #ffffff"/>
  </g>
  <g id="axes_1">
   <g id="patch_2">
    <path d="M 29.204844 190.11 
L 632.309844 190.11 
L 632.309844 62.376 
L 29.204844 62.376 
z
" style="fill: #ffffff"/>
   </g>
   <g id="patch_3">
    <path d="M 56.618707 190.11 
L 76.100641 190.11 
L 76.100641 79.036957 
L 56.618707 79.036957 
z
" clip-path="url(#p7803d0f716)" style="stroke: #000000; stroke-linejoin: miter"/>
   </g>
   <g id="patch_4">
    <path d="M 84.450041 190.11 
L 103.931975 190.11 
L 103.931975 85.790071 
L 84.450041 85.790071 
z
" clip-path="url(#p7803d0f716)" style="stroke: #000000; stroke-linejoin: miter"/>
   </g>
   <g id="patch_5">
    <path d="M 112.281375 190.11 
L 131.763308 190.11 
L 131.763308 97.053248 
L 112.281375 97.053248 
z
" clip-path="url(#p7803d0f716)" style="stroke: #000000; stroke-linejoin: miter"/>
   </g>
   <g id="patch_6">
    <path d="M 140.112708 190.11 
L 159.594642 190.11 
L 159.594642 99.999675 
L 140.112708 99.999675 
z
" clip-path="url(#p7803d0f716)" style="stroke: #000000; stroke-linejoin: miter"/>
   </g>
   <g id="patch_7">
    <path d="M 167.944042 190.11 
L 187.425975 190.11 
L 187.425975 106.105691 
L 167.944042 106.105691 
z
" clip-path="url(#p7803d0f716)" style="stroke: #000000; stroke-linejoin: miter"/>
   </g>
   <g id="patch_8">
    <path d="M 195.775376 190.11 
L 215.257309 190.11 
L 215.257309 109.568919 
L 195.775376 109.568919 
z
" clip-path="url(#p7803d0f716)" style="stroke: #000000; stroke-linejoin: miter"/>
   </g>
   <g id="patch_9">
    <path d="M 223.606709 190.11 
L 243.088643 190.11 
L 243.088643 115.981833 
L 223.606709 115.981833 
z
" clip-path="url(#p7803d0f716)" style="stroke: #000000; stroke-linejoin: miter"/>
   </g>
   <g id="patch_10">
    <path d="M 251.438043 190.11 
L 270.919976 190.11 
L 270.919976 126.619542 
L 251.438043 126.619542 
z
" clip-path="url(#p7803d0f716)" style="stroke: #000000; stroke-linejoin: miter"/>
   </g>
   <g id="patch_11">
    <path d="M 279.269377 190.11 
L 298.75131 190.11 
L 298.75131 129.937631 
L 279.269377 129.937631 
z
" clip-path="url(#p7803d0f716)" style="stroke: #000000; stroke-linejoin: miter"/>
   </g>
   <g id="patch_12">
    <path d="M 307.10071 190.11 
L 326.582644 190.11 
L 326.582644 139.03721 
L 307.10071 139.03721 
z
" clip-path="url(#p7803d0f716)" style="stroke: #000000; stroke-linejoin: miter"/>
   </g>
   <g id="patch_13">
    <path d="M 334.932044 190.11 
L 354.413977 190.11 
L 354.413977 141.766328 
L 334.932044 141.766328 
z
" clip-path="url(#p7803d0f716)" style="stroke: #000000; stroke-linejoin: miter"/>
   </g>
   <g id="patch_14">
    <path d="M 362.763377 190.11 
L 382.245311 190.11 
L 382.245311 151.074815 
L 362.763377 151.074815 
z
" clip-path="url(#p7803d0f716)" style="stroke: #000000; stroke-linejoin: miter"/>
   </g>
   <g id="patch_15">
    <path d="M 390.594711 190.11 
L 410.076645 190.11 
L 410.076645 154.336291 
L 390.594711 154.336291 
z
" clip-path="url(#p7803d0f716)" style="stroke: #000000; stroke-linejoin: miter"/>
   </g>
   <g id="patch_16">
    <path d="M 418.426045 190.11 
L 437.907978 190.11 
L 437.907978 159.924916 
L 418.426045 159.924916 
z
" clip-path="url(#p7803d0f716)" style="stroke: #000000; stroke-linejoin: miter"/>
   </g>
   <g id="patch_17">
    <path d="M 446.257378 190.11 
L 465.739312 190.11 
L 465.739312 164.417562 
L 446.257378 164.417562 
z
" clip-path="url(#p7803d0f716)" style="stroke: #000000; stroke-linejoin: miter"/>
   </g>
   <g id="patch_18">
    <path d="M 474.088712 190.11 
L 493.570646 190.11 
L 493.570646 171.610736 
L 474.088712 171.610736 
z
" clip-path="url(#p7803d0f716)" style="stroke: #000000; stroke-linejoin: miter"/>
   </g>
   <g id="patch_19">
    <path d="M 501.920046 190.11 
L 521.401979 190.11 
L 521.401979 173.56083 
L 501.920046 173.56083 
z
" clip-path="url(#p7803d0f716)" style="stroke: #000000; stroke-linejoin: miter"/>
   </g>
   <g id="patch_20">
    <path d="M 529.751379 190.11 
L 549.233313 190.11 
L 549.233313 174.443921 
L 529.751379 174.443921 
z
" clip-path="url(#p7803d0f716)" style="stroke: #000000; stroke-linejoin: miter"/>
   </g>
   <g id="patch_21">
    <path d="M 557.582713 190.11 
L 577.064646 190.11 
L 577.064646 177.700372 
L 557.582713 177.700372 
z
" clip-path="url(#p7803d0f716)" style="stroke: #000000; stroke-linejoin: miter"/>
   </g>
   <g id="patch_22">
    <path d="M 585.414047 190.11 
L 604.89598 190.11 
L 604.89598 179.496648 
L 585.414047 179.496648 
z
" clip-path="url(#p7803d0f716)" style="stroke: #000000; stroke-linejoin: miter"/>
   </g>
   <g id="matplotlib.axis_1">
    <g id="xtick_1">
     <g id="line2d_1">
      <defs>
       <path id="m096c99579d" d="M 0 0 
L 0 -3.5 
" style="stroke: #000000; stroke-width: 0.6"/>
      </defs>
      <g>
       <use xlink:href="#m096c99579d" x="66.359674" y="190.11" style="stroke: #000000; stroke-width: 0.6"/>
      </g>
     </g>
    </g>
    <g id="xtick_2">
     <g id="line2d_2">
      <g>
       <use xlink:href="#m096c99579d" x="94.191008" y="190.11" style="stroke: #000000; stroke-width: 0.6"/>
      </g>
     </g>
    </g>
    <g id="xtick_3">
     <g id="line2d_3">
      <g>
       <use xlink:href="#m096c99579d" x="122.022341" y="190.11" style="stroke: #000000; stroke-width: 0.6"/>
      </g>
     </g>
    </g>
    <g id="xtick_4">
     <g id="line2d_4">
      <g>
       <use xlink:href="#m096c99579d" x="149.853675" y="190.11" style="stroke: #000000; stroke-width: 0.6"/>
      </g>
     </g>
    </g>
    <g id="xtick_5">
     <g id="line2d_5">
      <g>
       <use xlink:href="#m096c99579d" x="177.685009" y="190.11" style="stroke: #000000; stroke-width: 0.6"/>
      </g>
     </g>
    </g>
    <g id="xtick_6">
     <g id="line2d_6">
      <g>
       <use xlink:href="#m096c99579d" x="205.516342" y="190.11" style="stroke: #000000; stroke-width: 0.6"/>
      </g>
     </g>
    </g>
    <g id="xtick_7">
     <g id="line2d_7">
      <g>
       <use xlink:href="#m096c99579d" x="233.347676" y="190.11" style="stroke: #000000; stroke-width: 0.6"/>
      </g>
     </g>
    </g>
    <g id="xtick_8">
     <g id="line2d_8">
      <g>
       <use xlink:href="#m096c99579d" x="261.17901" y="190.11" style="stroke: #000000; stroke-width: 0.6"/>
      </g>
     </g>
    </g>
    <g id="xtick_9">
     <g id="line2d_9">
      <g>
       <use xlink:href="#m096c99579d" x="289.010343" y="190.11" style="stroke: #000000; stroke-width: 0.6"/>
      </g>
     </g>
    </g>
    <g id="xtick_10">
     <g id="line2d_10">
      <g>
       <use xlink:href="#m096c99579d" x="316.841677" y="190.11" style="stroke: #000000; stroke-width: 0.6"/>
      </g>
     </g>
    </g>
    <g id="xtick_11">
     <g id="line2d_11">
      <g>
       <use xlink:href="#m096c99579d" x="344.673011" y="190.11" style="stroke: #000000; stroke-width: 0.6"/>
      </g>
     </g>
    </g>
    <g id="xtick_12">
     <g id="line2d_12">
      <g>
       <use xlink:href="#m096c99579d" x="372.504344" y="190.11" style="stroke: #000000; stroke-width: 0.6"/>
      </g>
     </g>
    </g>
    <g id="xtick_13">
     <g id="line2d_13">
      <g>
       <use xlink:href="#m096c99579d" x="400.335678" y="190.11" style="stroke: #000000; stroke-width: 0.6"/>
      </g>
     </g>
    </g>
    <g id="xtick_14">
     <g id="line2d_14">
      <g>
       <use xlink:href="#m096c99579d" x="428.167011" y="190.11" style="stroke: #000000; stroke-width: 0.6"/>
      </g>
     </g>
    </g>
    <g id="xtick_15">
     <g id="line2d_15">
      <g>
       <use xlink:href="#m096c99579d" x="455.998345" y="190.11" style="stroke: #000000; stroke-width: 0.6"/>
      </g>
     </g>
    </g>
    <g id="xtick_16">
     <g id="line2d_16">
      <g>
       <use xlink:href="#m096c99579d" x="483.829679" y="190.11" style="stroke: #000000; stroke-width: 0.6"/>
      </g>
     </g>
    </g>
    <g id="xtick_17">
     <g id="line2d_17">
      <g>
       <use xlink:href="#m096c99579d" x="511.661012" y="190.11" style="stroke: #000000; stroke-width: 0.6"/>
      </g>
     </g>
    </g>
    <g id="xtick_18">
     <g id="line2d_18">
      <g>
       <use xlink:href="#m096c99579d" x="539.492346" y="190.11" style="stroke: #000000; stroke-width: 0.6"/>
      </g>
     </g>
    </g>
    <g id="xtick_19">
     <g id="line2d_19">
      <g>
       <use xlink:href="#m096c99579d" x="567.32368" y="190.11" style="stroke: #000000; stroke-width: 0.6"/>
      </g>
     </g>
    </g>
    <g id="xtick_20">
     <g id="line2d_20">
      <g>
       <use xlink:href="#m096c99579d" x="595.155013" y="190.11" style="stroke: #000000; stroke-width: 0.6"/>
      </g>
     </g>
    </g>
   </g>
   <g id="matplotlib.axis_2">
    <g id="ytick_1">
     <g id="line2d_21">
      <defs>
       <path id="m8c4251628e" d="M 0 0 
L 3.5 0 
" style="stroke: #000000; stroke-width: 0.6"/>
      </defs>
      <g>
       <use xlink:href="#m8c4251628e" x="29.204844" y="190.11" style="stroke: #000000; stroke-width: 0.6"/>
      </g>
     </g>
     <g id="text_1">
      <!-- 0 -->
      <g transform="translate(20.7 193.338047) scale(0.09 -0.09)">
       <defs>
        <path id="Helvetica-30" d="M 1731 4475 
Q 2600 4475 2988 3759 
Q 3288 3206 3288 2244 
Q 3288 1331 3016 734 
Q 2622 -122 1728 -122 
Q 922 -122 528 578 
Q 200 1163 200 2147 
Q 200 2909 397 3456 
Q 766 4475 1731 4475 
z
M 1725 391 
Q 2163 391 2422 778 
Q 2681 1166 2681 2222 
Q 2681 2984 2493 3476 
Q 2306 3969 1766 3969 
Q 1269 3969 1039 3501 
Q 809 3034 809 2125 
Q 809 1441 956 1025 
Q 1181 391 1725 391 
z
" transform="scale(0.015625)"/>
       </defs>
       <use xlink:href="#Helvetica-30"/>
      </g>
     </g>
    </g>
    <g id="ytick_2">
     <g id="line2d_22">
      <g>
       <use xlink:href="#m8c4251628e" x="29.204844" y="169.227147" style="stroke: #000000; stroke-width: 0.6"/>
      </g>
     </g>
     <g id="text_2">
      <!-- 1 -->
      <g transform="translate(20.7 172.455194) scale(0.09 -0.09)">
       <defs>
        <path id="Helvetica-31" d="M 613 3169 
L 613 3600 
Q 1222 3659 1462 3798 
Q 1703 3938 1822 4456 
L 2266 4456 
L 2266 0 
L 1666 0 
L 1666 3169 
L 613 3169 
z
" transform="scale(0.015625)"/>
       </defs>
       <use xlink:href="#Helvetica-31"/>
      </g>
     </g>
    </g>
    <g id="ytick_3">
     <g id="line2d_23">
      <g>
       <use xlink:href="#m8c4251628e" x="29.204844" y="148.344293" style="stroke: #000000; stroke-width: 0.6"/>
      </g>
     </g>
     <g id="text_3">
      <!-- 2 -->
      <g transform="translate(20.7 151.57234) scale(0.09 -0.09)">
       <defs>
        <path id="Helvetica-32" d="M 200 0 
Q 231 578 439 1006 
Q 647 1434 1250 1784 
L 1850 2131 
Q 2253 2366 2416 2531 
Q 2672 2791 2672 3125 
Q 2672 3516 2437 3745 
Q 2203 3975 1813 3975 
Q 1234 3975 1013 3538 
Q 894 3303 881 2888 
L 309 2888 
Q 319 3472 525 3841 
Q 891 4491 1816 4491 
Q 2584 4491 2939 4075 
Q 3294 3659 3294 3150 
Q 3294 2613 2916 2231 
Q 2697 2009 2131 1694 
L 1703 1456 
Q 1397 1288 1222 1134 
Q 909 863 828 531 
L 3272 531 
L 3272 0 
L 200 0 
z
" transform="scale(0.015625)"/>
       </defs>
       <use xlink:href="#Helvetica-32"/>
      </g>
     </g>
    </g>
    <g id="ytick_4">
     <g id="line2d_24">
      <g>
       <use xlink:href="#m8c4251628e" x="29.204844" y="127.46144" style="stroke: #000000; stroke-width: 0.6"/>
      </g>
     </g>
     <g id="text_4">
      <!-- 3 -->
      <g transform="translate(20.7 130.689487) scale(0.09 -0.09)">
       <defs>
        <path id="Helvetica-33" d="M 1663 -122 
Q 869 -122 511 314 
Q 153 750 153 1375 
L 741 1375 
Q 778 941 903 744 
Q 1122 391 1694 391 
Q 2138 391 2406 628 
Q 2675 866 2675 1241 
Q 2675 1703 2392 1887 
Q 2109 2072 1606 2072 
Q 1550 2072 1492 2070 
Q 1434 2069 1375 2066 
L 1375 2563 
Q 1463 2553 1522 2550 
Q 1581 2547 1650 2547 
Q 1966 2547 2169 2647 
Q 2525 2822 2525 3272 
Q 2525 3606 2287 3787 
Q 2050 3969 1734 3969 
Q 1172 3969 956 3594 
Q 838 3388 822 3006 
L 266 3006 
Q 266 3506 466 3856 
Q 809 4481 1675 4481 
Q 2359 4481 2734 4176 
Q 3109 3872 3109 3294 
Q 3109 2881 2888 2625 
Q 2750 2466 2531 2375 
Q 2884 2278 3082 2001 
Q 3281 1725 3281 1325 
Q 3281 684 2859 281 
Q 2438 -122 1663 -122 
z
" transform="scale(0.015625)"/>
       </defs>
       <use xlink:href="#Helvetica-33"/>
      </g>
     </g>
    </g>
    <g id="ytick_5">
     <g id="line2d_25">
      <g>
       <use xlink:href="#m8c4251628e" x="29.204844" y="106.578587" style="stroke: #000000; stroke-width: 0.6"/>
      </g>
     </g>
     <g id="text_5">
      <!-- 4 -->
      <g transform="translate(20.7 109.806634) scale(0.09 -0.09)">
       <defs>
        <path id="Helvetica-34" d="M 2116 1584 
L 2116 3613 
L 681 1584 
L 2116 1584 
z
M 2125 0 
L 2125 1094 
L 163 1094 
L 163 1644 
L 2213 4488 
L 2688 4488 
L 2688 1584 
L 3347 1584 
L 3347 1094 
L 2688 1094 
L 2688 0 
L 2125 0 
z
" transform="scale(0.015625)"/>
       </defs>
       <use xlink:href="#Helvetica-34"/>
      </g>
     </g>
    </g>
    <g id="ytick_6">
     <g id="line2d_26">
      <g>
       <use xlink:href="#m8c4251628e" x="29.204844" y="85.695733" style="stroke: #000000; stroke-width: 0.6"/>
      </g>
     </g>
     <g id="text_6">
      <!-- 5 -->
      <g transform="translate(20.7 88.92378) scale(0.09 -0.09)">
       <defs>
        <path id="Helvetica-35" d="M 791 1141 
Q 847 659 1238 475 
Q 1438 381 1700 381 
Q 2200 381 2440 700 
Q 2681 1019 2681 1406 
Q 2681 1875 2395 2131 
Q 2109 2388 1709 2388 
Q 1419 2388 1211 2275 
Q 1003 2163 856 1963 
L 369 1991 
L 709 4400 
L 3034 4400 
L 3034 3856 
L 1131 3856 
L 941 2613 
Q 1097 2731 1238 2791 
Q 1488 2894 1816 2894 
Q 2431 2894 2859 2497 
Q 3288 2100 3288 1491 
Q 3288 856 2895 371 
Q 2503 -113 1644 -113 
Q 1097 -113 676 195 
Q 256 503 206 1141 
L 791 1141 
z
" transform="scale(0.015625)"/>
       </defs>
       <use xlink:href="#Helvetica-35"/>
      </g>
     </g>
    </g>
    <g id="ytick_7">
     <g id="line2d_27">
      <g>
       <use xlink:href="#m8c4251628e" x="29.204844" y="64.81288" style="stroke: #000000; stroke-width: 0.6"/>
      </g>
     </g>
     <g id="text_7">
      <!-- 6 -->
      <g transform="translate(20.7 68.040927) scale(0.09 -0.09)">
       <defs>
        <path id="Helvetica-36" d="M 1872 4494 
Q 2622 4494 2917 4105 
Q 3213 3716 3213 3303 
L 2656 3303 
Q 2606 3569 2497 3719 
Q 2294 4000 1881 4000 
Q 1409 4000 1131 3564 
Q 853 3128 822 2316 
Q 1016 2600 1309 2741 
Q 1578 2866 1909 2866 
Q 2472 2866 2890 2506 
Q 3309 2147 3309 1434 
Q 3309 825 2912 354 
Q 2516 -116 1781 -116 
Q 1153 -116 697 361 
Q 241 838 241 1966 
Q 241 2800 444 3381 
Q 834 4494 1872 4494 
z
M 1831 384 
Q 2275 384 2495 682 
Q 2716 981 2716 1388 
Q 2716 1731 2519 2042 
Q 2322 2353 1803 2353 
Q 1441 2353 1167 2112 
Q 894 1872 894 1388 
Q 894 963 1142 673 
Q 1391 384 1831 384 
z
" transform="scale(0.015625)"/>
       </defs>
       <use xlink:href="#Helvetica-36"/>
      </g>
     </g>
    </g>
    <g id="text_8">
     <!-- eigenvalue  $\mu_i$ -->
     <g transform="translate(14.4 157.543) rotate(-90) scale(0.1 -0.1)">
      <defs>
       <path id="Helvetica-65" d="M 1806 3422 
Q 2163 3422 2497 3255 
Q 2831 3088 3006 2822 
Q 3175 2569 3231 2231 
Q 3281 2000 3281 1494 
L 828 1494 
Q 844 984 1069 676 
Q 1294 369 1766 369 
Q 2206 369 2469 659 
Q 2619 828 2681 1050 
L 3234 1050 
Q 3213 866 3089 639 
Q 2966 413 2813 269 
Q 2556 19 2178 -69 
Q 1975 -119 1719 -119 
Q 1094 -119 659 336 
Q 225 791 225 1609 
Q 225 2416 662 2919 
Q 1100 3422 1806 3422 
z
M 2703 1941 
Q 2669 2306 2544 2525 
Q 2313 2931 1772 2931 
Q 1384 2931 1121 2651 
Q 859 2372 844 1941 
L 2703 1941 
z
M 1753 3428 
L 1753 3428 
z
" transform="scale(0.015625)"/>
       <path id="Helvetica-69" d="M 413 3331 
L 984 3331 
L 984 0 
L 413 0 
L 413 3331 
z
M 413 4591 
L 984 4591 
L 984 3953 
L 413 3953 
L 413 4591 
z
" transform="scale(0.015625)"/>
       <path id="Helvetica-67" d="M 1594 3406 
Q 1988 3406 2281 3213 
Q 2441 3103 2606 2894 
L 2606 3316 
L 3125 3316 
L 3125 272 
Q 3125 -366 2938 -734 
Q 2588 -1416 1616 -1416 
Q 1075 -1416 706 -1173 
Q 338 -931 294 -416 
L 866 -416 
Q 906 -641 1028 -763 
Q 1219 -950 1628 -950 
Q 2275 -950 2475 -494 
Q 2594 -225 2584 466 
Q 2416 209 2178 84 
Q 1941 -41 1550 -41 
Q 1006 -41 598 345 
Q 191 731 191 1622 
Q 191 2463 602 2934 
Q 1013 3406 1594 3406 
z
M 2606 1688 
Q 2606 2309 2350 2609 
Q 2094 2909 1697 2909 
Q 1103 2909 884 2353 
Q 769 2056 769 1575 
Q 769 1009 998 714 
Q 1228 419 1616 419 
Q 2222 419 2469 966 
Q 2606 1275 2606 1688 
z
M 1659 3428 
L 1659 3428 
z
" transform="scale(0.015625)"/>
       <path id="Helvetica-6e" d="M 413 3347 
L 947 3347 
L 947 2872 
Q 1184 3166 1450 3294 
Q 1716 3422 2041 3422 
Q 2753 3422 3003 2925 
Q 3141 2653 3141 2147 
L 3141 0 
L 2569 0 
L 2569 2109 
Q 2569 2416 2478 2603 
Q 2328 2916 1934 2916 
Q 1734 2916 1606 2875 
Q 1375 2806 1200 2600 
Q 1059 2434 1017 2257 
Q 975 2081 975 1753 
L 975 0 
L 413 0 
L 413 3347 
z
M 1734 3428 
L 1734 3428 
z
" transform="scale(0.015625)"/>
       <path id="Helvetica-76" d="M 688 3347 
L 1581 622 
L 2516 3347 
L 3131 3347 
L 1869 0 
L 1269 0 
L 34 3347 
L 688 3347 
z
" transform="scale(0.015625)"/>
       <path id="Helvetica-61" d="M 844 891 
Q 844 647 1022 506 
Q 1200 366 1444 366 
Q 1741 366 2019 503 
Q 2488 731 2488 1250 
L 2488 1703 
Q 2384 1638 2221 1594 
Q 2059 1550 1903 1531 
L 1563 1488 
Q 1256 1447 1103 1359 
Q 844 1213 844 891 
z
M 2206 2028 
Q 2400 2053 2466 2191 
Q 2503 2266 2503 2406 
Q 2503 2694 2298 2823 
Q 2094 2953 1713 2953 
Q 1272 2953 1088 2716 
Q 984 2584 953 2325 
L 428 2325 
Q 444 2944 830 3186 
Q 1216 3428 1725 3428 
Q 2316 3428 2684 3203 
Q 3050 2978 3050 2503 
L 3050 575 
Q 3050 488 3086 434 
Q 3122 381 3238 381 
Q 3275 381 3322 386 
Q 3369 391 3422 400 
L 3422 -16 
Q 3291 -53 3222 -62 
Q 3153 -72 3034 -72 
Q 2744 -72 2613 134 
Q 2544 244 2516 444 
Q 2344 219 2022 53 
Q 1700 -113 1313 -113 
Q 847 -113 551 170 
Q 256 453 256 878 
Q 256 1344 547 1600 
Q 838 1856 1309 1916 
L 2206 2028 
z
M 1741 3428 
L 1741 3428 
z
" transform="scale(0.015625)"/>
       <path id="Helvetica-6c" d="M 428 4591 
L 991 4591 
L 991 0 
L 428 0 
L 428 4591 
z
" transform="scale(0.015625)"/>
       <path id="Helvetica-75" d="M 975 3347 
L 975 1125 
Q 975 869 1056 706 
Q 1206 406 1616 406 
Q 2203 406 2416 931 
Q 2531 1213 2531 1703 
L 2531 3347 
L 3094 3347 
L 3094 0 
L 2563 0 
L 2569 494 
Q 2459 303 2297 172 
Q 1975 -91 1516 -91 
Q 800 -91 541 388 
Q 400 644 400 1072 
L 400 3347 
L 975 3347 
z
M 1747 3428 
L 1747 3428 
z
" transform="scale(0.015625)"/>
       <path id="Helvetica-20" transform="scale(0.015625)"/>
       <path id="DejaVuSans-Oblique-3bc" d="M -84 -1331 
L 856 3500 
L 1434 3500 
L 1009 1322 
Q 997 1256 987 1175 
Q 978 1094 978 1013 
Q 978 722 1161 565 
Q 1344 409 1684 409 
Q 2147 409 2431 671 
Q 2716 934 2816 1459 
L 3213 3500 
L 3788 3500 
L 3266 809 
Q 3253 750 3248 706 
Q 3244 663 3244 628 
Q 3244 531 3283 486 
Q 3322 441 3406 441 
Q 3438 441 3492 456 
Q 3547 472 3647 513 
L 3559 50 
Q 3422 -19 3297 -55 
Q 3172 -91 3053 -91 
Q 2847 -91 2730 40 
Q 2613 172 2613 403 
Q 2438 153 2195 31 
Q 1953 -91 1625 -91 
Q 1334 -91 1117 43 
Q 900 178 831 397 
L 494 -1331 
L -84 -1331 
z
" transform="scale(0.015625)"/>
       <path id="DejaVuSans-Oblique-69" d="M 1172 4863 
L 1747 4863 
L 1606 4134 
L 1031 4134 
L 1172 4863 
z
M 909 3500 
L 1484 3500 
L 800 0 
L 225 0 
L 909 3500 
z
" transform="scale(0.015625)"/>
      </defs>
      <use xlink:href="#Helvetica-65" transform="translate(0 0.265625)"/>
      <use xlink:href="#Helvetica-69" transform="translate(55.615234 0.265625)"/>
      <use xlink:href="#Helvetica-67" transform="translate(77.832031 0.265625)"/>
      <use xlink:href="#Helvetica-65" transform="translate(133.447266 0.265625)"/>
      <use xlink:href="#Helvetica-6e" transform="translate(189.0625 0.265625)"/>
      <use xlink:href="#Helvetica-76" transform="translate(244.677734 0.265625)"/>
      <use xlink:href="#Helvetica-61" transform="translate(294.677734 0.265625)"/>
      <use xlink:href="#Helvetica-6c" transform="translate(350.292969 0.265625)"/>
      <use xlink:href="#Helvetica-75" transform="translate(372.509766 0.265625)"/>
      <use xlink:href="#Helvetica-65" transform="translate(428.125 0.265625)"/>
      <use xlink:href="#Helvetica-20" transform="translate(483.740234 0.265625)"/>
      <use xlink:href="#Helvetica-20" transform="translate(511.523438 0.265625)"/>
      <use xlink:href="#DejaVuSans-Oblique-3bc" transform="translate(539.306641 0.265625)"/>
      <use xlink:href="#DejaVuSans-Oblique-69" transform="translate(602.929688 -16.140625) scale(0.7)"/>
     </g>
    </g>
   </g>
   <g id="patch_23">
    <path d="M 29.204844 190.11 
L 29.204844 62.376 
" style="fill: none; stroke: #000000; stroke-width: 0.6; stroke-linejoin: miter; stroke-linecap: square"/>
   </g>
   <g id="patch_24">
    <path d="M 29.204844 190.11 
L 632.309844 190.11 
" style="fill: none; stroke: #000000; stroke-width: 0.6; stroke-linejoin: miter; stroke-linecap: square"/>
   </g>
   <g id="text_9">
    <!-- $H_{cl} = 2\,(I - J_{Cl})^{\top}(I - J_{Cl})$  is strictly PD -->
    <g transform="translate(473.458794 79.23738) scale(0.09 -0.09)">
     <defs>
      <path id="DejaVuSans-Oblique-48" d="M 1081 4666 
L 1716 4666 
L 1344 2753 
L 3634 2753 
L 4006 4666 
L 4641 4666 
L 3731 0 
L 3097 0 
L 3531 2222 
L 1241 2222 
L 806 0 
L 172 0 
L 1081 4666 
z
" transform="scale(0.015625)"/>
      <path id="DejaVuSans-Oblique-63" d="M 3431 3366 
L 3316 2797 
Q 3109 2947 2876 3022 
Q 2644 3097 2394 3097 
Q 2119 3097 1870 3000 
Q 1622 2903 1453 2725 
Q 1184 2453 1037 2087 
Q 891 1722 891 1331 
Q 891 859 1127 628 
Q 1363 397 1844 397 
Q 2081 397 2348 469 
Q 2616 541 2906 684 
L 2797 116 
Q 2547 13 2283 -39 
Q 2019 -91 1741 -91 
Q 1044 -91 669 257 
Q 294 606 294 1253 
Q 294 1797 489 2255 
Q 684 2713 1069 3078 
Q 1331 3328 1684 3456 
Q 2038 3584 2456 3584 
Q 2700 3584 2940 3529 
Q 3181 3475 3431 3366 
z
" transform="scale(0.015625)"/>
      <path id="DejaVuSans-Oblique-6c" d="M 1172 4863 
L 1747 4863 
L 800 0 
L 225 0 
L 1172 4863 
z
" transform="scale(0.015625)"/>
      <path id="DejaVuSans-3d" d="M 678 2906 
L 4684 2906 
L 4684 2381 
L 678 2381 
L 678 2906 
z
M 678 1631 
L 4684 1631 
L 4684 1100 
L 678 1100 
L 678 1631 
z
" transform="scale(0.015625)"/>
      <path id="DejaVuSans-32" d="M 1228 531 
L 3431 531 
L 3431 0 
L 469 0 
L 469 531 
Q 828 903 1448 1529 
Q 2069 2156 2228 2338 
Q 2531 2678 2651 2914 
Q 2772 3150 2772 3378 
Q 2772 3750 2511 3984 
Q 2250 4219 1831 4219 
Q 1534 4219 1204 4116 
Q 875 4013 500 3803 
L 500 4441 
Q 881 4594 1212 4672 
Q 1544 4750 1819 4750 
Q 2544 4750 2975 4387 
Q 3406 4025 3406 3419 
Q 3406 3131 3298 2873 
Q 3191 2616 2906 2266 
Q 2828 2175 2409 1742 
Q 1991 1309 1228 531 
z
" transform="scale(0.015625)"/>
      <path id="DejaVuSans-28" d="M 1984 4856 
Q 1566 4138 1362 3434 
Q 1159 2731 1159 2009 
Q 1159 1288 1364 580 
Q 1569 -128 1984 -844 
L 1484 -844 
Q 1016 -109 783 600 
Q 550 1309 550 2009 
Q 550 2706 781 3412 
Q 1013 4119 1484 4856 
L 1984 4856 
z
" transform="scale(0.015625)"/>
      <path id="DejaVuSans-Oblique-49" d="M 1081 4666 
L 1716 4666 
L 806 0 
L 172 0 
L 1081 4666 
z
" transform="scale(0.015625)"/>
      <path id="DejaVuSans-2212" d="M 678 2272 
L 4684 2272 
L 4684 1741 
L 678 1741 
L 678 2272 
z
" transform="scale(0.015625)"/>
      <path id="DejaVuSans-Oblique-4a" d="M 1069 4666 
L 1703 4666 
L 856 325 
Q 691 -522 298 -901 
Q -94 -1281 -800 -1281 
L -1050 -1281 
L -947 -750 
L -750 -750 
Q -328 -750 -109 -509 
Q 109 -269 225 325 
L 1069 4666 
z
" transform="scale(0.015625)"/>
      <path id="DejaVuSans-Oblique-43" d="M 4447 4306 
L 4319 3641 
Q 4019 3944 3683 4091 
Q 3347 4238 2956 4238 
Q 2422 4238 2017 3981 
Q 1613 3725 1319 3200 
Q 1131 2863 1032 2486 
Q 934 2109 934 1728 
Q 934 1091 1264 756 
Q 1594 422 2222 422 
Q 2656 422 3056 561 
Q 3456 700 3834 978 
L 3688 231 
Q 3316 72 2936 -9 
Q 2556 -91 2175 -91 
Q 1278 -91 773 396 
Q 269 884 269 1753 
Q 269 2309 461 2846 
Q 653 3384 1013 3828 
Q 1394 4300 1883 4525 
Q 2372 4750 3022 4750 
Q 3422 4750 3780 4639 
Q 4138 4528 4447 4306 
z
" transform="scale(0.015625)"/>
      <path id="DejaVuSans-29" d="M 513 4856 
L 1013 4856 
Q 1481 4119 1714 3412 
Q 1947 2706 1947 2009 
Q 1947 1309 1714 600 
Q 1481 -109 1013 -844 
L 513 -844 
Q 928 -128 1133 580 
Q 1338 1288 1338 2009 
Q 1338 2731 1133 3434 
Q 928 4138 513 4856 
z
" transform="scale(0.015625)"/>
      <path id="DejaVuSans-22a4" d="M 5028 4481 
L 5028 4084 
L 2988 4084 
L 2988 0 
L 2588 0 
L 2588 4084 
L 547 4084 
L 547 4481 
L 5028 4481 
z
" transform="scale(0.015625)"/>
      <path id="Helvetica-73" d="M 747 1050 
Q 772 769 888 619 
Q 1100 347 1625 347 
Q 1938 347 2175 483 
Q 2413 619 2413 903 
Q 2413 1119 2222 1231 
Q 2100 1300 1741 1391 
L 1294 1503 
Q 866 1609 663 1741 
Q 300 1969 300 2372 
Q 300 2847 642 3140 
Q 984 3434 1563 3434 
Q 2319 3434 2653 2991 
Q 2863 2709 2856 2384 
L 2325 2384 
Q 2309 2575 2191 2731 
Q 1997 2953 1519 2953 
Q 1200 2953 1036 2831 
Q 872 2709 872 2509 
Q 872 2291 1088 2159 
Q 1213 2081 1456 2022 
L 1828 1931 
Q 2434 1784 2641 1647 
Q 2969 1431 2969 969 
Q 2969 522 2630 197 
Q 2291 -128 1597 -128 
Q 850 -128 539 211 
Q 228 550 206 1050 
L 747 1050 
z
M 1578 3428 
L 1578 3428 
z
" transform="scale(0.015625)"/>
      <path id="Helvetica-74" d="M 525 4281 
L 1094 4281 
L 1094 3347 
L 1628 3347 
L 1628 2888 
L 1094 2888 
L 1094 703 
Q 1094 528 1213 469 
Q 1278 434 1431 434 
Q 1472 434 1519 436 
Q 1566 438 1628 444 
L 1628 0 
Q 1531 -28 1426 -40 
Q 1322 -53 1200 -53 
Q 806 -53 665 148 
Q 525 350 525 672 
L 525 2888 
L 72 2888 
L 72 3347 
L 525 3347 
L 525 4281 
z
" transform="scale(0.015625)"/>
      <path id="Helvetica-72" d="M 428 3347 
L 963 3347 
L 963 2769 
Q 1028 2938 1284 3180 
Q 1541 3422 1875 3422 
Q 1891 3422 1928 3419 
Q 1966 3416 2056 3406 
L 2056 2813 
Q 2006 2822 1964 2825 
Q 1922 2828 1872 2828 
Q 1447 2828 1219 2554 
Q 991 2281 991 1925 
L 991 0 
L 428 0 
L 428 3347 
z
" transform="scale(0.015625)"/>
      <path id="Helvetica-63" d="M 1703 3444 
Q 2269 3444 2623 3169 
Q 2978 2894 3050 2222 
L 2503 2222 
Q 2453 2531 2275 2736 
Q 2097 2941 1703 2941 
Q 1166 2941 934 2416 
Q 784 2075 784 1575 
Q 784 1072 996 728 
Q 1209 384 1666 384 
Q 2016 384 2220 598 
Q 2425 813 2503 1184 
L 3050 1184 
Q 2956 519 2581 211 
Q 2206 -97 1622 -97 
Q 966 -97 575 383 
Q 184 863 184 1581 
Q 184 2463 612 2953 
Q 1041 3444 1703 3444 
z
M 1616 3428 
L 1616 3428 
z
" transform="scale(0.015625)"/>
      <path id="Helvetica-79" d="M 2503 3347 
L 3125 3347 
Q 3006 3025 2597 1878 
Q 2291 1016 2084 472 
Q 1597 -809 1397 -1090 
Q 1197 -1372 709 -1372 
Q 591 -1372 527 -1362 
Q 463 -1353 369 -1328 
L 369 -816 
Q 516 -856 581 -865 
Q 647 -875 697 -875 
Q 853 -875 926 -823 
Q 1000 -772 1050 -697 
Q 1066 -672 1162 -440 
Q 1259 -209 1303 -97 
L 66 3347 
L 703 3347 
L 1600 622 
L 2503 3347 
z
M 1597 3428 
L 1597 3428 
z
" transform="scale(0.015625)"/>
      <path id="Helvetica-50" d="M 547 4591 
L 2613 4591 
Q 3225 4591 3600 4245 
Q 3975 3900 3975 3275 
Q 3975 2738 3640 2339 
Q 3306 1941 2613 1941 
L 1169 1941 
L 1169 0 
L 547 0 
L 547 4591 
z
M 3347 3272 
Q 3347 3778 2972 3959 
Q 2766 4056 2406 4056 
L 1169 4056 
L 1169 2466 
L 2406 2466 
Q 2825 2466 3086 2644 
Q 3347 2822 3347 3272 
z
" transform="scale(0.015625)"/>
      <path id="Helvetica-44" d="M 2250 531 
Q 2566 531 2769 597 
Q 3131 719 3363 1066 
Q 3547 1344 3628 1778 
Q 3675 2038 3675 2259 
Q 3675 3113 3336 3584 
Q 2997 4056 2244 4056 
L 1141 4056 
L 1141 531 
L 2250 531 
z
M 516 4591 
L 2375 4591 
Q 3322 4591 3844 3919 
Q 4309 3313 4309 2366 
Q 4309 1634 4034 1044 
Q 3550 0 2369 0 
L 516 0 
L 516 4591 
z
" transform="scale(0.015625)"/>
     </defs>
     <use xlink:href="#DejaVuSans-Oblique-48" transform="translate(0 0.707813)"/>
     <use xlink:href="#DejaVuSans-Oblique-63" transform="translate(75.195312 -15.698437) scale(0.7)"/>
     <use xlink:href="#DejaVuSans-Oblique-6c" transform="translate(113.681641 -15.698437) scale(0.7)"/>
     <use xlink:href="#DejaVuSans-3d" transform="translate(155.34668 0.707813)"/>
     <use xlink:href="#DejaVuSans-32" transform="translate(258.618164 0.707813)"/>
     <use xlink:href="#DejaVuSans-28" transform="translate(338.476887 0.707813)"/>
     <use xlink:href="#DejaVuSans-Oblique-49" transform="translate(377.490559 0.707813)"/>
     <use xlink:href="#DejaVuSans-2212" transform="translate(426.465168 0.707813)"/>
     <use xlink:href="#DejaVuSans-Oblique-4a" transform="translate(529.736653 0.707813)"/>
     <use xlink:href="#DejaVuSans-Oblique-43" transform="translate(559.22884 -15.698437) scale(0.7)"/>
     <use xlink:href="#DejaVuSans-Oblique-6c" transform="translate(608.105793 -15.698437) scale(0.7)"/>
     <use xlink:href="#DejaVuSans-29" transform="translate(630.288411 0.707813)"/>
     <use xlink:href="#DejaVuSans-22a4" transform="translate(683.896809 38.989063) scale(0.7)"/>
     <use xlink:href="#DejaVuSans-28" transform="translate(761.245442 0.707813)"/>
     <use xlink:href="#DejaVuSans-Oblique-49" transform="translate(800.259114 0.707813)"/>
     <use xlink:href="#DejaVuSans-2212" transform="translate(849.233723 0.707813)"/>
     <use xlink:href="#DejaVuSans-Oblique-4a" transform="translate(952.505208 0.707813)"/>
     <use xlink:href="#DejaVuSans-Oblique-43" transform="translate(981.997395 -15.698437) scale(0.7)"/>
     <use xlink:href="#DejaVuSans-Oblique-6c" transform="translate(1030.874348 -15.698437) scale(0.7)"/>
     <use xlink:href="#DejaVuSans-29" transform="translate(1053.056965 0.707813)"/>
     <use xlink:href="#Helvetica-20" transform="translate(1092.070637 0.707813)"/>
     <use xlink:href="#Helvetica-20" transform="translate(1119.85384 0.707813)"/>
     <use xlink:href="#Helvetica-69" transform="translate(1147.637043 0.707813)"/>
     <use xlink:href="#Helvetica-73" transform="translate(1169.85384 0.707813)"/>
     <use xlink:href="#Helvetica-20" transform="translate(1219.85384 0.707813)"/>
     <use xlink:href="#Helvetica-73" transform="translate(1247.637043 0.707813)"/>
     <use xlink:href="#Helvetica-74" transform="translate(1297.637043 0.707813)"/>
     <use xlink:href="#Helvetica-72" transform="translate(1325.420247 0.707813)"/>
     <use xlink:href="#Helvetica-69" transform="translate(1358.721028 0.707813)"/>
     <use xlink:href="#Helvetica-63" transform="translate(1380.937825 0.707813)"/>
     <use xlink:href="#Helvetica-74" transform="translate(1430.937825 0.707813)"/>
     <use xlink:href="#Helvetica-6c" transform="translate(1458.721028 0.707813)"/>
     <use xlink:href="#Helvetica-79" transform="translate(1480.937825 0.707813)"/>
     <use xlink:href="#Helvetica-20" transform="translate(1530.937825 0.707813)"/>
     <use xlink:href="#Helvetica-50" transform="translate(1558.721028 0.707813)"/>
     <use xlink:href="#Helvetica-44" transform="translate(1625.420247 0.707813)"/>
    </g>
   </g>
   <g id="text_10">
    <!-- (a)  Non-idempotent closure  ($\| J_{Cl}\|_{op} &lt; 1$):  20/20 strictly positive -->
    <g transform="translate(173.897344 56.376) scale(0.11 -0.11)">
     <defs>
      <path id="Helvetica-28" d="M 1894 4666 
Q 1403 3713 1256 3263 
Q 1034 2578 1034 1681 
Q 1034 775 1288 25 
Q 1444 -438 1903 -1306 
L 1525 -1306 
Q 1069 -594 959 -397 
Q 850 -200 722 138 
Q 547 600 478 1125 
Q 444 1397 444 1644 
Q 444 2569 734 3291 
Q 919 3750 1503 4666 
L 1894 4666 
z
" transform="scale(0.015625)"/>
      <path id="Helvetica-29" d="M 222 -1306 
Q 719 -338 863 106 
Q 1081 778 1081 1681 
Q 1081 2584 828 3334 
Q 672 3797 213 4666 
L 591 4666 
Q 1072 3897 1173 3717 
Q 1275 3538 1394 3222 
Q 1544 2831 1608 2450 
Q 1672 2069 1672 1716 
Q 1672 791 1378 66 
Q 1194 -400 613 -1306 
L 222 -1306 
z
" transform="scale(0.015625)"/>
      <path id="Helvetica-4e" d="M 488 4591 
L 1222 4591 
L 3541 872 
L 3541 4591 
L 4131 4591 
L 4131 0 
L 3434 0 
L 1081 3716 
L 1081 0 
L 488 0 
L 488 4591 
z
M 2269 4591 
L 2269 4591 
z
" transform="scale(0.015625)"/>
      <path id="Helvetica-6f" d="M 1741 363 
Q 2300 363 2508 786 
Q 2716 1209 2716 1728 
Q 2716 2197 2566 2491 
Q 2328 2953 1747 2953 
Q 1231 2953 997 2559 
Q 763 2166 763 1609 
Q 763 1075 997 719 
Q 1231 363 1741 363 
z
M 1763 3444 
Q 2409 3444 2856 3012 
Q 3303 2581 3303 1744 
Q 3303 934 2909 406 
Q 2516 -122 1688 -122 
Q 997 -122 590 345 
Q 184 813 184 1600 
Q 184 2444 612 2944 
Q 1041 3444 1763 3444 
z
M 1744 3428 
L 1744 3428 
z
" transform="scale(0.015625)"/>
      <path id="Helvetica-2d" d="M 266 2072 
L 1834 2072 
L 1834 1494 
L 266 1494 
L 266 2072 
z
" transform="scale(0.015625)"/>
      <path id="Helvetica-64" d="M 769 1634 
Q 769 1097 997 734 
Q 1225 372 1728 372 
Q 2119 372 2370 708 
Q 2622 1044 2622 1672 
Q 2622 2306 2362 2611 
Q 2103 2916 1722 2916 
Q 1297 2916 1033 2591 
Q 769 2266 769 1634 
z
M 1616 3406 
Q 2000 3406 2259 3244 
Q 2409 3150 2600 2916 
L 2600 4606 
L 3141 4606 
L 3141 0 
L 2634 0 
L 2634 466 
Q 2438 156 2169 18 
Q 1900 -119 1553 -119 
Q 994 -119 584 351 
Q 175 822 175 1603 
Q 175 2334 548 2870 
Q 922 3406 1616 3406 
z
" transform="scale(0.015625)"/>
      <path id="Helvetica-6d" d="M 413 3347 
L 969 3347 
L 969 2872 
Q 1169 3119 1331 3231 
Q 1609 3422 1963 3422 
Q 2363 3422 2606 3225 
Q 2744 3113 2856 2894 
Q 3044 3163 3297 3292 
Q 3550 3422 3866 3422 
Q 4541 3422 4784 2934 
Q 4916 2672 4916 2228 
L 4916 0 
L 4331 0 
L 4331 2325 
Q 4331 2659 4164 2784 
Q 3997 2909 3756 2909 
Q 3425 2909 3186 2687 
Q 2947 2466 2947 1947 
L 2947 0 
L 2375 0 
L 2375 2184 
Q 2375 2525 2294 2681 
Q 2166 2916 1816 2916 
Q 1497 2916 1236 2669 
Q 975 2422 975 1775 
L 975 0 
L 413 0 
L 413 3347 
z
" transform="scale(0.015625)"/>
      <path id="Helvetica-70" d="M 1825 378 
Q 2219 378 2480 708 
Q 2741 1038 2741 1694 
Q 2741 2094 2625 2381 
Q 2406 2934 1825 2934 
Q 1241 2934 1025 2350 
Q 909 2038 909 1556 
Q 909 1169 1025 897 
Q 1244 378 1825 378 
z
M 369 3331 
L 916 3331 
L 916 2888 
Q 1084 3116 1284 3241 
Q 1569 3428 1953 3428 
Q 2522 3428 2919 2992 
Q 3316 2556 3316 1747 
Q 3316 653 2744 184 
Q 2381 -113 1900 -113 
Q 1522 -113 1266 53 
Q 1116 147 931 375 
L 931 -1334 
L 369 -1334 
L 369 3331 
z
" transform="scale(0.015625)"/>
      <path id="DejaVuSans-2016" d="M 1344 4891 
L 1344 -1509 
L 813 -1509 
L 813 4891 
L 1344 4891 
z
M 2375 4891 
L 2375 -1509 
L 1844 -1509 
L 1844 4891 
L 2375 4891 
z
" transform="scale(0.015625)"/>
      <path id="DejaVuSans-Oblique-6f" d="M 1625 -91 
Q 1009 -91 651 289 
Q 294 669 294 1325 
Q 294 1706 417 2101 
Q 541 2497 738 2766 
Q 1047 3184 1428 3384 
Q 1809 3584 2291 3584 
Q 2888 3584 3255 3212 
Q 3622 2841 3622 2241 
Q 3622 1825 3500 1412 
Q 3378 1000 3181 728 
Q 2875 309 2494 109 
Q 2113 -91 1625 -91 
z
M 891 1344 
Q 891 869 1089 633 
Q 1288 397 1691 397 
Q 2269 397 2648 901 
Q 3028 1406 3028 2181 
Q 3028 2634 2825 2865 
Q 2622 3097 2228 3097 
Q 1903 3097 1650 2945 
Q 1397 2794 1197 2484 
Q 1050 2253 970 1956 
Q 891 1659 891 1344 
z
" transform="scale(0.015625)"/>
      <path id="DejaVuSans-Oblique-70" d="M 3175 2156 
Q 3175 2616 2975 2859 
Q 2775 3103 2400 3103 
Q 2144 3103 1911 2972 
Q 1678 2841 1497 2591 
Q 1319 2344 1212 1994 
Q 1106 1644 1106 1300 
Q 1106 863 1306 627 
Q 1506 391 1875 391 
Q 2147 391 2380 519 
Q 2613 647 2778 891 
Q 2956 1147 3065 1494 
Q 3175 1841 3175 2156 
z
M 1394 2969 
Q 1625 3272 1939 3428 
Q 2253 3584 2638 3584 
Q 3175 3584 3472 3232 
Q 3769 2881 3769 2247 
Q 3769 1728 3584 1258 
Q 3400 788 3053 416 
Q 2822 169 2531 39 
Q 2241 -91 1919 -91 
Q 1547 -91 1294 64 
Q 1041 219 916 525 
L 556 -1331 
L -19 -1331 
L 922 3500 
L 1497 3500 
L 1394 2969 
z
" transform="scale(0.015625)"/>
      <path id="DejaVuSans-3c" d="M 4684 3150 
L 1459 2003 
L 4684 863 
L 4684 294 
L 678 1747 
L 678 2266 
L 4684 3719 
L 4684 3150 
z
" transform="scale(0.015625)"/>
      <path id="DejaVuSans-31" d="M 794 531 
L 1825 531 
L 1825 4091 
L 703 3866 
L 703 4441 
L 1819 4666 
L 2450 4666 
L 2450 531 
L 3481 531 
L 3481 0 
L 794 0 
L 794 531 
z
" transform="scale(0.015625)"/>
      <path id="Helvetica-3a" d="M 709 3303 
L 1363 3303 
L 1363 2622 
L 709 2622 
L 709 3303 
z
M 709 681 
L 1363 681 
L 1363 0 
L 709 0 
L 709 681 
z
" transform="scale(0.015625)"/>
      <path id="Helvetica-2f" d="M 1456 4591 
L 1931 4591 
L 475 0 
L 0 0 
L 1456 4591 
z
" transform="scale(0.015625)"/>
     </defs>
     <use xlink:href="#Helvetica-28" transform="translate(0 0.578125)"/>
     <use xlink:href="#Helvetica-61" transform="translate(33.300781 0.578125)"/>
     <use xlink:href="#Helvetica-29" transform="translate(88.916016 0.578125)"/>
     <use xlink:href="#Helvetica-20" transform="translate(122.216797 0.578125)"/>
     <use xlink:href="#Helvetica-20" transform="translate(150 0.578125)"/>
     <use xlink:href="#Helvetica-4e" transform="translate(177.783203 0.578125)"/>
     <use xlink:href="#Helvetica-6f" transform="translate(250 0.578125)"/>
     <use xlink:href="#Helvetica-6e" transform="translate(305.615234 0.578125)"/>
     <use xlink:href="#Helvetica-2d" transform="translate(361.230469 0.578125)"/>
     <use xlink:href="#Helvetica-69" transform="translate(394.53125 0.578125)"/>
     <use xlink:href="#Helvetica-64" transform="translate(416.748047 0.578125)"/>
     <use xlink:href="#Helvetica-65" transform="translate(472.363281 0.578125)"/>
     <use xlink:href="#Helvetica-6d" transform="translate(527.978516 0.578125)"/>
     <use xlink:href="#Helvetica-70" transform="translate(611.279297 0.578125)"/>
     <use xlink:href="#Helvetica-6f" transform="translate(666.894531 0.578125)"/>
     <use xlink:href="#Helvetica-74" transform="translate(722.509766 0.578125)"/>
     <use xlink:href="#Helvetica-65" transform="translate(750.292969 0.578125)"/>
     <use xlink:href="#Helvetica-6e" transform="translate(805.908203 0.578125)"/>
     <use xlink:href="#Helvetica-74" transform="translate(861.523438 0.578125)"/>
     <use xlink:href="#Helvetica-20" transform="translate(889.306641 0.578125)"/>
     <use xlink:href="#Helvetica-63" transform="translate(917.089844 0.578125)"/>
     <use xlink:href="#Helvetica-6c" transform="translate(967.089844 0.578125)"/>
     <use xlink:href="#Helvetica-6f" transform="translate(989.306641 0.578125)"/>
     <use xlink:href="#Helvetica-73" transform="translate(1044.921875 0.578125)"/>
     <use xlink:href="#Helvetica-75" transform="translate(1094.921875 0.578125)"/>
     <use xlink:href="#Helvetica-72" transform="translate(1150.537109 0.578125)"/>
     <use xlink:href="#Helvetica-65" transform="translate(1183.837891 0.578125)"/>
     <use xlink:href="#Helvetica-20" transform="translate(1239.453125 0.578125)"/>
     <use xlink:href="#Helvetica-20" transform="translate(1267.236328 0.578125)"/>
     <use xlink:href="#Helvetica-28" transform="translate(1295.019531 0.578125)"/>
     <use xlink:href="#DejaVuSans-2016" transform="translate(1328.320312 0.578125)"/>
     <use xlink:href="#DejaVuSans-Oblique-4a" transform="translate(1378.320312 0.578125)"/>
     <use xlink:href="#DejaVuSans-Oblique-43" transform="translate(1407.8125 -15.828125) scale(0.7)"/>
     <use xlink:href="#DejaVuSans-Oblique-6c" transform="translate(1456.689453 -15.828125) scale(0.7)"/>
     <use xlink:href="#DejaVuSans-2016" transform="translate(1478.87207 0.578125)"/>
     <use xlink:href="#DejaVuSans-Oblique-6f" transform="translate(1529.829102 -15.828125) scale(0.7)"/>
     <use xlink:href="#DejaVuSans-Oblique-70" transform="translate(1572.65625 -15.828125) scale(0.7)"/>
     <use xlink:href="#DejaVuSans-3c" transform="translate(1639.306641 0.578125)"/>
     <use xlink:href="#DejaVuSans-31" transform="translate(1742.578125 0.578125)"/>
     <use xlink:href="#Helvetica-29" transform="translate(1806.201172 0.578125)"/>
     <use xlink:href="#Helvetica-3a" transform="translate(1839.501953 0.578125)"/>
     <use xlink:href="#Helvetica-20" transform="translate(1867.285156 0.578125)"/>
     <use xlink:href="#Helvetica-20" transform="translate(1895.068359 0.578125)"/>
     <use xlink:href="#Helvetica-32" transform="translate(1922.851562 0.578125)"/>
     <use xlink:href="#Helvetica-30" transform="translate(1978.466797 0.578125)"/>
     <use xlink:href="#Helvetica-2f" transform="translate(2034.082031 0.578125)"/>
     <use xlink:href="#Helvetica-32" transform="translate(2061.865234 0.578125)"/>
     <use xlink:href="#Helvetica-30" transform="translate(2117.480469 0.578125)"/>
     <use xlink:href="#Helvetica-20" transform="translate(2173.095703 0.578125)"/>
     <use xlink:href="#Helvetica-73" transform="translate(2200.878906 0.578125)"/>
     <use xlink:href="#Helvetica-74" transform="translate(2250.878906 0.578125)"/>
     <use xlink:href="#Helvetica-72" transform="translate(2278.662109 0.578125)"/>
     <use xlink:href="#Helvetica-69" transform="translate(2311.962891 0.578125)"/>
     <use xlink:href="#Helvetica-63" transform="translate(2334.179688 0.578125)"/>
     <use xlink:href="#Helvetica-74" transform="translate(2384.179688 0.578125)"/>
     <use xlink:href="#Helvetica-6c" transform="translate(2411.962891 0.578125)"/>
     <use xlink:href="#Helvetica-79" transform="translate(2434.179688 0.578125)"/>
     <use xlink:href="#Helvetica-20" transform="translate(2484.179688 0.578125)"/>
     <use xlink:href="#Helvetica-70" transform="translate(2511.962891 0.578125)"/>
     <use xlink:href="#Helvetica-6f" transform="translate(2567.578125 0.578125)"/>
     <use xlink:href="#Helvetica-73" transform="translate(2623.193359 0.578125)"/>
     <use xlink:href="#Helvetica-69" transform="translate(2673.193359 0.578125)"/>
     <use xlink:href="#Helvetica-74" transform="translate(2695.410156 0.578125)"/>
     <use xlink:href="#Helvetica-69" transform="translate(2723.193359 0.578125)"/>
     <use xlink:href="#Helvetica-76" transform="translate(2745.410156 0.578125)"/>
     <use xlink:href="#Helvetica-65" transform="translate(2795.410156 0.578125)"/>
    </g>
   </g>
  </g>
  <g id="axes_2">
   <g id="patch_25">
    <path d="M 29.204844 350.628 
L 632.309844 350.628 
L 632.309844 222.894 
L 29.204844 222.894 
z
" style="fill: #ffffff"/>
   </g>
   <g id="patch_26">
    <path d="M 56.618707 350.628 
L 76.100641 350.628 
L 76.100641 308.862293 
L 56.618707 308.862293 
z
" clip-path="url(#p84c6d3bfa7)" style="stroke: #000000; stroke-linejoin: miter"/>
   </g>
   <g id="patch_27">
    <path d="M 84.450041 350.628 
L 103.931975 350.628 
L 103.931975 308.862293 
L 84.450041 308.862293 
z
" clip-path="url(#p84c6d3bfa7)" style="stroke: #000000; stroke-linejoin: miter"/>
   </g>
   <g id="patch_28">
    <path d="M 112.281375 350.628 
L 131.763308 350.628 
L 131.763308 308.862293 
L 112.281375 308.862293 
z
" clip-path="url(#p84c6d3bfa7)" style="stroke: #000000; stroke-linejoin: miter"/>
   </g>
   <g id="patch_29">
    <path d="M 140.112708 350.628 
L 159.594642 350.628 
L 159.594642 308.862293 
L 140.112708 308.862293 
z
" clip-path="url(#p84c6d3bfa7)" style="stroke: #000000; stroke-linejoin: miter"/>
   </g>
   <g id="patch_30">
    <path d="M 167.944042 350.628 
L 187.425975 350.628 
L 187.425975 308.862293 
L 167.944042 308.862293 
z
" clip-path="url(#p84c6d3bfa7)" style="stroke: #000000; stroke-linejoin: miter"/>
   </g>
   <g id="patch_31">
    <path d="M 195.775376 350.628 
L 215.257309 350.628 
L 215.257309 308.862293 
L 195.775376 308.862293 
z
" clip-path="url(#p84c6d3bfa7)" style="stroke: #000000; stroke-linejoin: miter"/>
   </g>
   <g id="patch_32">
    <path d="M 223.606709 350.628 
L 243.088643 350.628 
L 243.088643 350.628 
L 223.606709 350.628 
z
" clip-path="url(#p84c6d3bfa7)" style="stroke: #000000; stroke-linejoin: miter"/>
   </g>
   <g id="patch_33">
    <path d="M 251.438043 350.628 
L 270.919976 350.628 
L 270.919976 350.628 
L 251.438043 350.628 
z
" clip-path="url(#p84c6d3bfa7)" style="stroke: #000000; stroke-linejoin: miter"/>
   </g>
   <g id="patch_34">
    <path d="M 279.269377 350.628 
L 298.75131 350.628 
L 298.75131 350.628 
L 279.269377 350.628 
z
" clip-path="url(#p84c6d3bfa7)" style="stroke: #000000; stroke-linejoin: miter"/>
   </g>
   <g id="patch_35">
    <path d="M 307.10071 350.628 
L 326.582644 350.628 
L 326.582644 350.628 
L 307.10071 350.628 
z
" clip-path="url(#p84c6d3bfa7)" style="stroke: #000000; stroke-linejoin: miter"/>
   </g>
   <g id="patch_36">
    <path d="M 334.932044 350.628 
L 354.413977 350.628 
L 354.413977 350.628 
L 334.932044 350.628 
z
" clip-path="url(#p84c6d3bfa7)" style="stroke: #000000; stroke-linejoin: miter"/>
   </g>
   <g id="patch_37">
    <path d="M 362.763377 350.628 
L 382.245311 350.628 
L 382.245311 350.628 
L 362.763377 350.628 
z
" clip-path="url(#p84c6d3bfa7)" style="stroke: #000000; stroke-linejoin: miter"/>
   </g>
   <g id="patch_38">
    <path d="M 390.594711 350.628 
L 410.076645 350.628 
L 410.076645 350.628 
L 390.594711 350.628 
z
" clip-path="url(#p84c6d3bfa7)" style="stroke: #000000; stroke-linejoin: miter"/>
   </g>
   <g id="patch_39">
    <path d="M 418.426045 350.628 
L 437.907978 350.628 
L 437.907978 350.628 
L 418.426045 350.628 
z
" clip-path="url(#p84c6d3bfa7)" style="stroke: #000000; stroke-linejoin: miter"/>
   </g>
   <g id="patch_40">
    <path d="M 446.257378 350.628 
L 465.739312 350.628 
L 465.739312 350.628 
L 446.257378 350.628 
z
" clip-path="url(#p84c6d3bfa7)" style="stroke: #000000; stroke-linejoin: miter"/>
   </g>
   <g id="patch_41">
    <path d="M 474.088712 350.628 
L 493.570646 350.628 
L 493.570646 350.628 
L 474.088712 350.628 
z
" clip-path="url(#p84c6d3bfa7)" style="stroke: #000000; stroke-linejoin: miter"/>
   </g>
   <g id="patch_42">
    <path d="M 501.920046 350.628 
L 521.401979 350.628 
L 521.401979 350.628 
L 501.920046 350.628 
z
" clip-path="url(#p84c6d3bfa7)" style="stroke: #000000; stroke-linejoin: miter"/>
   </g>
   <g id="patch_43">
    <path d="M 529.751379 350.628 
L 549.233313 350.628 
L 549.233313 350.628 
L 529.751379 350.628 
z
" clip-path="url(#p84c6d3bfa7)" style="stroke: #000000; stroke-linejoin: miter"/>
   </g>
   <g id="patch_44">
    <path d="M 557.582713 350.628 
L 577.064646 350.628 
L 577.064646 350.628 
L 557.582713 350.628 
z
" clip-path="url(#p84c6d3bfa7)" style="stroke: #000000; stroke-linejoin: miter"/>
   </g>
   <g id="patch_45">
    <path d="M 585.414047 350.628 
L 604.89598 350.628 
L 604.89598 350.628 
L 585.414047 350.628 
z
" clip-path="url(#p84c6d3bfa7)" style="stroke: #000000; stroke-linejoin: miter"/>
   </g>
   <g id="matplotlib.axis_3">
    <g id="xtick_21">
     <g id="line2d_28">
      <g>
       <use xlink:href="#m096c99579d" x="66.359674" y="350.628" style="stroke: #000000; stroke-width: 0.6"/>
      </g>
     </g>
     <g id="text_11">
      <!-- 1 -->
      <g transform="translate(63.857252 360.584094) scale(0.09 -0.09)">
       <use xlink:href="#Helvetica-31"/>
      </g>
     </g>
    </g>
    <g id="xtick_22">
     <g id="line2d_29">
      <g>
       <use xlink:href="#m096c99579d" x="94.191008" y="350.628" style="stroke: #000000; stroke-width: 0.6"/>
      </g>
     </g>
     <g id="text_12">
      <!-- 2 -->
      <g transform="translate(91.688586 360.584094) scale(0.09 -0.09)">
       <use xlink:href="#Helvetica-32"/>
      </g>
     </g>
    </g>
    <g id="xtick_23">
     <g id="line2d_30">
      <g>
       <use xlink:href="#m096c99579d" x="122.022341" y="350.628" style="stroke: #000000; stroke-width: 0.6"/>
      </g>
     </g>
     <g id="text_13">
      <!-- 3 -->
      <g transform="translate(119.51992 360.584094) scale(0.09 -0.09)">
       <use xlink:href="#Helvetica-33"/>
      </g>
     </g>
    </g>
    <g id="xtick_24">
     <g id="line2d_31">
      <g>
       <use xlink:href="#m096c99579d" x="149.853675" y="350.628" style="stroke: #000000; stroke-width: 0.6"/>
      </g>
     </g>
     <g id="text_14">
      <!-- 4 -->
      <g transform="translate(147.351253 360.584094) scale(0.09 -0.09)">
       <use xlink:href="#Helvetica-34"/>
      </g>
     </g>
    </g>
    <g id="xtick_25">
     <g id="line2d_32">
      <g>
       <use xlink:href="#m096c99579d" x="177.685009" y="350.628" style="stroke: #000000; stroke-width: 0.6"/>
      </g>
     </g>
     <g id="text_15">
      <!-- 5 -->
      <g transform="translate(175.182587 360.584094) scale(0.09 -0.09)">
       <use xlink:href="#Helvetica-35"/>
      </g>
     </g>
    </g>
    <g id="xtick_26">
     <g id="line2d_33">
      <g>
       <use xlink:href="#m096c99579d" x="205.516342" y="350.628" style="stroke: #000000; stroke-width: 0.6"/>
      </g>
     </g>
     <g id="text_16">
      <!-- 6 -->
      <g transform="translate(203.01392 360.584094) scale(0.09 -0.09)">
       <use xlink:href="#Helvetica-36"/>
      </g>
     </g>
    </g>
    <g id="xtick_27">
     <g id="line2d_34">
      <g>
       <use xlink:href="#m096c99579d" x="233.347676" y="350.628" style="stroke: #000000; stroke-width: 0.6"/>
      </g>
     </g>
     <g id="text_17">
      <!-- 7 -->
      <g transform="translate(230.845254 360.584094) scale(0.09 -0.09)">
       <defs>
        <path id="Helvetica-37" d="M 3347 4400 
L 3347 3909 
Q 3131 3700 2773 3181 
Q 2416 2663 2141 2063 
Q 1869 1478 1728 997 
Q 1638 688 1494 0 
L 872 0 
Q 1084 1281 1809 2550 
Q 2238 3294 2709 3834 
L 234 3834 
L 234 4400 
L 3347 4400 
z
" transform="scale(0.015625)"/>
       </defs>
       <use xlink:href="#Helvetica-37"/>
      </g>
     </g>
    </g>
    <g id="xtick_28">
     <g id="line2d_35">
      <g>
       <use xlink:href="#m096c99579d" x="261.17901" y="350.628" style="stroke: #000000; stroke-width: 0.6"/>
      </g>
     </g>
     <g id="text_18">
      <!-- 8 -->
      <g transform="translate(258.676588 360.584094) scale(0.09 -0.09)">
       <defs>
        <path id="Helvetica-38" d="M 1741 2600 
Q 2113 2600 2322 2808 
Q 2531 3016 2531 3303 
Q 2531 3553 2331 3762 
Q 2131 3972 1722 3972 
Q 1316 3972 1134 3762 
Q 953 3553 953 3272 
Q 953 2956 1187 2778 
Q 1422 2600 1741 2600 
z
M 1775 384 
Q 2166 384 2423 595 
Q 2681 806 2681 1225 
Q 2681 1659 2415 1884 
Q 2150 2109 1734 2109 
Q 1331 2109 1076 1879 
Q 822 1650 822 1244 
Q 822 894 1055 639 
Q 1288 384 1775 384 
z
M 975 2384 
Q 741 2484 609 2619 
Q 363 2869 363 3269 
Q 363 3769 725 4128 
Q 1088 4488 1753 4488 
Q 2397 4488 2762 4148 
Q 3128 3809 3128 3356 
Q 3128 2938 2916 2678 
Q 2797 2531 2547 2391 
Q 2825 2263 2984 2097 
Q 3281 1784 3281 1284 
Q 3281 694 2884 283 
Q 2488 -128 1763 -128 
Q 1109 -128 657 226 
Q 206 581 206 1256 
Q 206 1653 400 1942 
Q 594 2231 975 2384 
z
" transform="scale(0.015625)"/>
       </defs>
       <use xlink:href="#Helvetica-38"/>
      </g>
     </g>
    </g>
    <g id="xtick_29">
     <g id="line2d_36">
      <g>
       <use xlink:href="#m096c99579d" x="289.010343" y="350.628" style="stroke: #000000; stroke-width: 0.6"/>
      </g>
     </g>
     <g id="text_19">
      <!-- 9 -->
      <g transform="translate(286.507921 360.584094) scale(0.09 -0.09)">
       <defs>
        <path id="Helvetica-39" d="M 850 1081 
Q 875 616 1209 438 
Q 1381 344 1597 344 
Q 2000 344 2284 680 
Q 2569 1016 2688 2044 
Q 2500 1747 2223 1626 
Q 1947 1506 1628 1506 
Q 981 1506 604 1909 
Q 228 2313 228 2947 
Q 228 3556 600 4018 
Q 972 4481 1697 4481 
Q 2675 4481 3047 3600 
Q 3253 3116 3253 2388 
Q 3253 1566 3006 931 
Q 2597 -125 1619 -125 
Q 963 -125 622 219 
Q 281 563 281 1081 
L 850 1081 
z
M 1703 2000 
Q 2038 2000 2314 2220 
Q 2591 2441 2591 2991 
Q 2591 3484 2342 3726 
Q 2094 3969 1709 3969 
Q 1297 3969 1055 3692 
Q 813 3416 813 2953 
Q 813 2516 1025 2258 
Q 1238 2000 1703 2000 
z
" transform="scale(0.015625)"/>
       </defs>
       <use xlink:href="#Helvetica-39"/>
      </g>
     </g>
    </g>
    <g id="xtick_30">
     <g id="line2d_37">
      <g>
       <use xlink:href="#m096c99579d" x="316.841677" y="350.628" style="stroke: #000000; stroke-width: 0.6"/>
      </g>
     </g>
     <g id="text_20">
      <!-- 10 -->
      <g transform="translate(311.836833 360.584094) scale(0.09 -0.09)">
       <use xlink:href="#Helvetica-31"/>
       <use xlink:href="#Helvetica-30" transform="translate(55.615234 0)"/>
      </g>
     </g>
    </g>
    <g id="xtick_31">
     <g id="line2d_38">
      <g>
       <use xlink:href="#m096c99579d" x="344.673011" y="350.628" style="stroke: #000000; stroke-width: 0.6"/>
      </g>
     </g>
     <g id="text_21">
      <!-- 11 -->
      <g transform="translate(339.668167 360.584094) scale(0.09 -0.09)">
       <use xlink:href="#Helvetica-31"/>
       <use xlink:href="#Helvetica-31" transform="translate(55.615234 0)"/>
      </g>
     </g>
    </g>
    <g id="xtick_32">
     <g id="line2d_39">
      <g>
       <use xlink:href="#m096c99579d" x="372.504344" y="350.628" style="stroke: #000000; stroke-width: 0.6"/>
      </g>
     </g>
     <g id="text_22">
      <!-- 12 -->
      <g transform="translate(367.4995 360.584094) scale(0.09 -0.09)">
       <use xlink:href="#Helvetica-31"/>
       <use xlink:href="#Helvetica-32" transform="translate(55.615234 0)"/>
      </g>
     </g>
    </g>
    <g id="xtick_33">
     <g id="line2d_40">
      <g>
       <use xlink:href="#m096c99579d" x="400.335678" y="350.628" style="stroke: #000000; stroke-width: 0.6"/>
      </g>
     </g>
     <g id="text_23">
      <!-- 13 -->
      <g transform="translate(395.330834 360.584094) scale(0.09 -0.09)">
       <use xlink:href="#Helvetica-31"/>
       <use xlink:href="#Helvetica-33" transform="translate(55.615234 0)"/>
      </g>
     </g>
    </g>
    <g id="xtick_34">
     <g id="line2d_41">
      <g>
       <use xlink:href="#m096c99579d" x="428.167011" y="350.628" style="stroke: #000000; stroke-width: 0.6"/>
      </g>
     </g>
     <g id="text_24">
      <!-- 14 -->
      <g transform="translate(423.162168 360.584094) scale(0.09 -0.09)">
       <use xlink:href="#Helvetica-31"/>
       <use xlink:href="#Helvetica-34" transform="translate(55.615234 0)"/>
      </g>
     </g>
    </g>
    <g id="xtick_35">
     <g id="line2d_42">
      <g>
       <use xlink:href="#m096c99579d" x="455.998345" y="350.628" style="stroke: #000000; stroke-width: 0.6"/>
      </g>
     </g>
     <g id="text_25">
      <!-- 15 -->
      <g transform="translate(450.993501 360.584094) scale(0.09 -0.09)">
       <use xlink:href="#Helvetica-31"/>
       <use xlink:href="#Helvetica-35" transform="translate(55.615234 0)"/>
      </g>
     </g>
    </g>
    <g id="xtick_36">
     <g id="line2d_43">
      <g>
       <use xlink:href="#m096c99579d" x="483.829679" y="350.628" style="stroke: #000000; stroke-width: 0.6"/>
      </g>
     </g>
     <g id="text_26">
      <!-- 16 -->
      <g transform="translate(478.824835 360.584094) scale(0.09 -0.09)">
       <use xlink:href="#Helvetica-31"/>
       <use xlink:href="#Helvetica-36" transform="translate(55.615234 0)"/>
      </g>
     </g>
    </g>
    <g id="xtick_37">
     <g id="line2d_44">
      <g>
       <use xlink:href="#m096c99579d" x="511.661012" y="350.628" style="stroke: #000000; stroke-width: 0.6"/>
      </g>
     </g>
     <g id="text_27">
      <!-- 17 -->
      <g transform="translate(506.656169 360.584094) scale(0.09 -0.09)">
       <use xlink:href="#Helvetica-31"/>
       <use xlink:href="#Helvetica-37" transform="translate(55.615234 0)"/>
      </g>
     </g>
    </g>
    <g id="xtick_38">
     <g id="line2d_45">
      <g>
       <use xlink:href="#m096c99579d" x="539.492346" y="350.628" style="stroke: #000000; stroke-width: 0.6"/>
      </g>
     </g>
     <g id="text_28">
      <!-- 18 -->
      <g transform="translate(534.487502 360.584094) scale(0.09 -0.09)">
       <use xlink:href="#Helvetica-31"/>
       <use xlink:href="#Helvetica-38" transform="translate(55.615234 0)"/>
      </g>
     </g>
    </g>
    <g id="xtick_39">
     <g id="line2d_46">
      <g>
       <use xlink:href="#m096c99579d" x="567.32368" y="350.628" style="stroke: #000000; stroke-width: 0.6"/>
      </g>
     </g>
     <g id="text_29">
      <!-- 19 -->
      <g transform="translate(562.318836 360.584094) scale(0.09 -0.09)">
       <use xlink:href="#Helvetica-31"/>
       <use xlink:href="#Helvetica-39" transform="translate(55.615234 0)"/>
      </g>
     </g>
    </g>
    <g id="xtick_40">
     <g id="line2d_47">
      <g>
       <use xlink:href="#m096c99579d" x="595.155013" y="350.628" style="stroke: #000000; stroke-width: 0.6"/>
      </g>
     </g>
     <g id="text_30">
      <!-- 20 -->
      <g transform="translate(590.15017 360.584094) scale(0.09 -0.09)">
       <use xlink:href="#Helvetica-32"/>
       <use xlink:href="#Helvetica-30" transform="translate(55.615234 0)"/>
      </g>
     </g>
    </g>
    <g id="text_31">
     <!-- eigenvalue index  $i$ -->
     <g transform="translate(289.057344 374.060031) scale(0.1 -0.1)">
      <defs>
       <path id="Helvetica-78" d="M 94 3347 
L 822 3347 
L 1591 2169 
L 2369 3347 
L 3053 3331 
L 1925 1716 
L 3103 0 
L 2384 0 
L 1553 1256 
L 747 0 
L 34 0 
L 1213 1716 
L 94 3347 
z
" transform="scale(0.015625)"/>
      </defs>
      <use xlink:href="#Helvetica-65" transform="translate(0 0.015625)"/>
      <use xlink:href="#Helvetica-69" transform="translate(55.615234 0.015625)"/>
      <use xlink:href="#Helvetica-67" transform="translate(77.832031 0.015625)"/>
      <use xlink:href="#Helvetica-65" transform="translate(133.447266 0.015625)"/>
      <use xlink:href="#Helvetica-6e" transform="translate(189.0625 0.015625)"/>
      <use xlink:href="#Helvetica-76" transform="translate(244.677734 0.015625)"/>
      <use xlink:href="#Helvetica-61" transform="translate(294.677734 0.015625)"/>
      <use xlink:href="#Helvetica-6c" transform="translate(350.292969 0.015625)"/>
      <use xlink:href="#Helvetica-75" transform="translate(372.509766 0.015625)"/>
      <use xlink:href="#Helvetica-65" transform="translate(428.125 0.015625)"/>
      <use xlink:href="#Helvetica-20" transform="translate(483.740234 0.015625)"/>
      <use xlink:href="#Helvetica-69" transform="translate(511.523438 0.015625)"/>
      <use xlink:href="#Helvetica-6e" transform="translate(533.740234 0.015625)"/>
      <use xlink:href="#Helvetica-64" transform="translate(589.355469 0.015625)"/>
      <use xlink:href="#Helvetica-65" transform="translate(644.970703 0.015625)"/>
      <use xlink:href="#Helvetica-78" transform="translate(700.585938 0.015625)"/>
      <use xlink:href="#Helvetica-20" transform="translate(750.585938 0.015625)"/>
      <use xlink:href="#Helvetica-20" transform="translate(778.369141 0.015625)"/>
      <use xlink:href="#DejaVuSans-Oblique-69" transform="translate(806.152344 0.015625)"/>
     </g>
    </g>
   </g>
   <g id="matplotlib.axis_4">
    <g id="ytick_8">
     <g id="line2d_48">
      <g>
       <use xlink:href="#m8c4251628e" x="29.204844" y="350.628" style="stroke: #000000; stroke-width: 0.6"/>
      </g>
     </g>
     <g id="text_32">
      <!-- 0 -->
      <g transform="translate(20.7 353.856047) scale(0.09 -0.09)">
       <use xlink:href="#Helvetica-30"/>
      </g>
     </g>
    </g>
    <g id="ytick_9">
     <g id="line2d_49">
      <g>
       <use xlink:href="#m8c4251628e" x="29.204844" y="329.745147" style="stroke: #000000; stroke-width: 0.6"/>
      </g>
     </g>
     <g id="text_33">
      <!-- 1 -->
      <g transform="translate(20.7 332.973194) scale(0.09 -0.09)">
       <use xlink:href="#Helvetica-31"/>
      </g>
     </g>
    </g>
    <g id="ytick_10">
     <g id="line2d_50">
      <g>
       <use xlink:href="#m8c4251628e" x="29.204844" y="308.862293" style="stroke: #000000; stroke-width: 0.6"/>
      </g>
     </g>
     <g id="text_34">
      <!-- 2 -->
      <g transform="translate(20.7 312.09034) scale(0.09 -0.09)">
       <use xlink:href="#Helvetica-32"/>
      </g>
     </g>
    </g>
    <g id="ytick_11">
     <g id="line2d_51">
      <g>
       <use xlink:href="#m8c4251628e" x="29.204844" y="287.97944" style="stroke: #000000; stroke-width: 0.6"/>
      </g>
     </g>
     <g id="text_35">
      <!-- 3 -->
      <g transform="translate(20.7 291.207487) scale(0.09 -0.09)">
       <use xlink:href="#Helvetica-33"/>
      </g>
     </g>
    </g>
    <g id="ytick_12">
     <g id="line2d_52">
      <g>
       <use xlink:href="#m8c4251628e" x="29.204844" y="267.096587" style="stroke: #000000; stroke-width: 0.6"/>
      </g>
     </g>
     <g id="text_36">
      <!-- 4 -->
      <g transform="translate(20.7 270.324634) scale(0.09 -0.09)">
       <use xlink:href="#Helvetica-34"/>
      </g>
     </g>
    </g>
    <g id="ytick_13">
     <g id="line2d_53">
      <g>
       <use xlink:href="#m8c4251628e" x="29.204844" y="246.213733" style="stroke: #000000; stroke-width: 0.6"/>
      </g>
     </g>
     <g id="text_37">
      <!-- 5 -->
      <g transform="translate(20.7 249.44178) scale(0.09 -0.09)">
       <use xlink:href="#Helvetica-35"/>
      </g>
     </g>
    </g>
    <g id="ytick_14">
     <g id="line2d_54">
      <g>
       <use xlink:href="#m8c4251628e" x="29.204844" y="225.33088" style="stroke: #000000; stroke-width: 0.6"/>
      </g>
     </g>
     <g id="text_38">
      <!-- 6 -->
      <g transform="translate(20.7 228.558927) scale(0.09 -0.09)">
       <use xlink:href="#Helvetica-36"/>
      </g>
     </g>
    </g>
    <g id="text_39">
     <!-- eigenvalue  $\mu_i$ -->
     <g transform="translate(14.4 318.061) rotate(-90) scale(0.1 -0.1)">
      <use xlink:href="#Helvetica-65" transform="translate(0 0.265625)"/>
      <use xlink:href="#Helvetica-69" transform="translate(55.615234 0.265625)"/>
      <use xlink:href="#Helvetica-67" transform="translate(77.832031 0.265625)"/>
      <use xlink:href="#Helvetica-65" transform="translate(133.447266 0.265625)"/>
      <use xlink:href="#Helvetica-6e" transform="translate(189.0625 0.265625)"/>
      <use xlink:href="#Helvetica-76" transform="translate(244.677734 0.265625)"/>
      <use xlink:href="#Helvetica-61" transform="translate(294.677734 0.265625)"/>
      <use xlink:href="#Helvetica-6c" transform="translate(350.292969 0.265625)"/>
      <use xlink:href="#Helvetica-75" transform="translate(372.509766 0.265625)"/>
      <use xlink:href="#Helvetica-65" transform="translate(428.125 0.265625)"/>
      <use xlink:href="#Helvetica-20" transform="translate(483.740234 0.265625)"/>
      <use xlink:href="#Helvetica-20" transform="translate(511.523438 0.265625)"/>
      <use xlink:href="#DejaVuSans-Oblique-3bc" transform="translate(539.306641 0.265625)"/>
      <use xlink:href="#DejaVuSans-Oblique-69" transform="translate(602.929688 -16.140625) scale(0.7)"/>
     </g>
    </g>
   </g>
   <g id="patch_46">
    <path d="M 29.204844 350.628 
L 29.204844 222.894 
" style="fill: none; stroke: #000000; stroke-width: 0.6; stroke-linejoin: miter; stroke-linecap: square"/>
   </g>
   <g id="patch_47">
    <path d="M 29.204844 350.628 
L 632.309844 350.628 
" style="fill: none; stroke: #000000; stroke-width: 0.6; stroke-linejoin: miter; stroke-linecap: square"/>
   </g>
   <g id="PathCollection_1">
    <defs>
     <path id="m18a5252287" d="M -3.162278 3.162278 
L 3.162278 -3.162278 
M -3.162278 -3.162278 
L 3.162278 3.162278 
" style="stroke: #000000; stroke-width: 0.9"/>
    </defs>
    <g clip-path="url(#p84c6d3bfa7)">
     <use xlink:href="#m18a5252287" x="233.347676" y="348.07332" style="stroke: #000000; stroke-width: 0.9"/>
     <use xlink:href="#m18a5252287" x="261.17901" y="348.07332" style="stroke: #000000; stroke-width: 0.9"/>
     <use xlink:href="#m18a5252287" x="289.010343" y="348.07332" style="stroke: #000000; stroke-width: 0.9"/>
     <use xlink:href="#m18a5252287" x="316.841677" y="348.07332" style="stroke: #000000; stroke-width: 0.9"/>
     <use xlink:href="#m18a5252287" x="344.673011" y="348.07332" style="stroke: #000000; stroke-width: 0.9"/>
     <use xlink:href="#m18a5252287" x="372.504344" y="348.07332" style="stroke: #000000; stroke-width: 0.9"/>
     <use xlink:href="#m18a5252287" x="400.335678" y="348.07332" style="stroke: #000000; stroke-width: 0.9"/>
     <use xlink:href="#m18a5252287" x="428.167011" y="348.07332" style="stroke: #000000; stroke-width: 0.9"/>
     <use xlink:href="#m18a5252287" x="455.998345" y="348.07332" style="stroke: #000000; stroke-width: 0.9"/>
     <use xlink:href="#m18a5252287" x="483.829679" y="348.07332" style="stroke: #000000; stroke-width: 0.9"/>
     <use xlink:href="#m18a5252287" x="511.661012" y="348.07332" style="stroke: #000000; stroke-width: 0.9"/>
     <use xlink:href="#m18a5252287" x="539.492346" y="348.07332" style="stroke: #000000; stroke-width: 0.9"/>
     <use xlink:href="#m18a5252287" x="567.32368" y="348.07332" style="stroke: #000000; stroke-width: 0.9"/>
     <use xlink:href="#m18a5252287" x="595.155013" y="348.07332" style="stroke: #000000; stroke-width: 0.9"/>
    </g>
   </g>
   <g id="text_40">
    <!--   $k = 6$ zero eigenvalues  =  flat directions -->
    <g transform="translate(331.316345 335.7846) scale(0.09 -0.09)">
     <defs>
      <path id="DejaVuSans-Oblique-6b" d="M 1172 4863 
L 1747 4863 
L 1197 2028 
L 3169 3500 
L 3916 3500 
L 1716 1825 
L 3322 0 
L 2625 0 
L 1131 1709 
L 800 0 
L 225 0 
L 1172 4863 
z
" transform="scale(0.015625)"/>
      <path id="DejaVuSans-36" d="M 2113 2584 
Q 1688 2584 1439 2293 
Q 1191 2003 1191 1497 
Q 1191 994 1439 701 
Q 1688 409 2113 409 
Q 2538 409 2786 701 
Q 3034 994 3034 1497 
Q 3034 2003 2786 2293 
Q 2538 2584 2113 2584 
z
M 3366 4563 
L 3366 3988 
Q 3128 4100 2886 4159 
Q 2644 4219 2406 4219 
Q 1781 4219 1451 3797 
Q 1122 3375 1075 2522 
Q 1259 2794 1537 2939 
Q 1816 3084 2150 3084 
Q 2853 3084 3261 2657 
Q 3669 2231 3669 1497 
Q 3669 778 3244 343 
Q 2819 -91 2113 -91 
Q 1303 -91 875 529 
Q 447 1150 447 2328 
Q 447 3434 972 4092 
Q 1497 4750 2381 4750 
Q 2619 4750 2861 4703 
Q 3103 4656 3366 4563 
z
" transform="scale(0.015625)"/>
      <path id="Helvetica-7a" d="M 163 444 
L 2147 2844 
L 309 2844 
L 309 3347 
L 2903 3347 
L 2903 2888 
L 931 503 
L 2963 503 
L 2963 0 
L 163 0 
L 163 444 
z
M 1609 3428 
L 1609 3428 
z
" transform="scale(0.015625)"/>
      <path id="Helvetica-3d" d="M 3547 2569 
L 3547 2044 
L 288 2044 
L 288 2569 
L 3547 2569 
z
M 3547 1228 
L 3547 694 
L 288 694 
L 288 1228 
L 3547 1228 
z
" transform="scale(0.015625)"/>
      <path id="Helvetica-66" d="M 553 3856 
Q 566 4206 675 4369 
Q 872 4656 1434 4656 
Q 1488 4656 1544 4653 
Q 1600 4650 1672 4644 
L 1672 4131 
Q 1584 4138 1545 4139 
Q 1506 4141 1472 4141 
Q 1216 4141 1166 4008 
Q 1116 3875 1116 3331 
L 1672 3331 
L 1672 2888 
L 1109 2888 
L 1109 0 
L 553 0 
L 553 2888 
L 88 2888 
L 88 3331 
L 553 3331 
L 553 3856 
z
" transform="scale(0.015625)"/>
     </defs>
     <use xlink:href="#Helvetica-20" transform="translate(0 0.015625)"/>
     <use xlink:href="#Helvetica-20" transform="translate(27.783203 0.015625)"/>
     <use xlink:href="#DejaVuSans-Oblique-6b" transform="translate(55.566406 0.015625)"/>
     <use xlink:href="#DejaVuSans-3d" transform="translate(132.958984 0.015625)"/>
     <use xlink:href="#DejaVuSans-36" transform="translate(236.230469 0.015625)"/>
     <use xlink:href="#Helvetica-20" transform="translate(299.853516 0.015625)"/>
     <use xlink:href="#Helvetica-7a" transform="translate(327.636719 0.015625)"/>
     <use xlink:href="#Helvetica-65" transform="translate(377.636719 0.015625)"/>
     <use xlink:href="#Helvetica-72" transform="translate(433.251953 0.015625)"/>
     <use xlink:href="#Helvetica-6f" transform="translate(466.552734 0.015625)"/>
     <use xlink:href="#Helvetica-20" transform="translate(522.167969 0.015625)"/>
     <use xlink:href="#Helvetica-65" transform="translate(549.951172 0.015625)"/>
     <use xlink:href="#Helvetica-69" transform="translate(605.566406 0.015625)"/>
     <use xlink:href="#Helvetica-67" transform="translate(627.783203 0.015625)"/>
     <use xlink:href="#Helvetica-65" transform="translate(683.398438 0.015625)"/>
     <use xlink:href="#Helvetica-6e" transform="translate(739.013672 0.015625)"/>
     <use xlink:href="#Helvetica-76" transform="translate(794.628906 0.015625)"/>
     <use xlink:href="#Helvetica-61" transform="translate(844.628906 0.015625)"/>
     <use xlink:href="#Helvetica-6c" transform="translate(900.244141 0.015625)"/>
     <use xlink:href="#Helvetica-75" transform="translate(922.460938 0.015625)"/>
     <use xlink:href="#Helvetica-65" transform="translate(978.076172 0.015625)"/>
     <use xlink:href="#Helvetica-73" transform="translate(1033.691406 0.015625)"/>
     <use xlink:href="#Helvetica-20" transform="translate(1083.691406 0.015625)"/>
     <use xlink:href="#Helvetica-20" transform="translate(1111.474609 0.015625)"/>
     <use xlink:href="#Helvetica-3d" transform="translate(1139.257812 0.015625)"/>
     <use xlink:href="#Helvetica-20" transform="translate(1197.65625 0.015625)"/>
     <use xlink:href="#Helvetica-20" transform="translate(1225.439453 0.015625)"/>
     <use xlink:href="#Helvetica-66" transform="translate(1253.222656 0.015625)"/>
     <use xlink:href="#Helvetica-6c" transform="translate(1281.005859 0.015625)"/>
     <use xlink:href="#Helvetica-61" transform="translate(1303.222656 0.015625)"/>
     <use xlink:href="#Helvetica-74" transform="translate(1358.837891 0.015625)"/>
     <use xlink:href="#Helvetica-20" transform="translate(1386.621094 0.015625)"/>
     <use xlink:href="#Helvetica-64" transform="translate(1414.404297 0.015625)"/>
     <use xlink:href="#Helvetica-69" transform="translate(1470.019531 0.015625)"/>
     <use xlink:href="#Helvetica-72" transform="translate(1492.236328 0.015625)"/>
     <use xlink:href="#Helvetica-65" transform="translate(1525.537109 0.015625)"/>
     <use xlink:href="#Helvetica-63" transform="translate(1581.152344 0.015625)"/>
     <use xlink:href="#Helvetica-74" transform="translate(1631.152344 0.015625)"/>
     <use xlink:href="#Helvetica-69" transform="translate(1658.935547 0.015625)"/>
     <use xlink:href="#Helvetica-6f" transform="translate(1681.152344 0.015625)"/>
     <use xlink:href="#Helvetica-6e" transform="translate(1736.767578 0.015625)"/>
     <use xlink:href="#Helvetica-73" transform="translate(1792.382812 0.015625)"/>
    </g>
   </g>
   <g id="text_41">
    <!-- (b)  Idempotent closure  ($J_{Cl}^{2} = J_{Cl}$, range dim $= 14$):  14/20 positive,  6 zero -->
    <g transform="translate(148.432344 216.894) scale(0.11 -0.11)">
     <defs>
      <path id="Helvetica-62" d="M 369 4606 
L 916 4606 
L 916 2941 
Q 1100 3181 1356 3307 
Q 1613 3434 1913 3434 
Q 2538 3434 2927 3004 
Q 3316 2575 3316 1738 
Q 3316 944 2931 419 
Q 2547 -106 1866 -106 
Q 1484 -106 1222 78 
Q 1066 188 888 428 
L 888 0 
L 369 0 
L 369 4606 
z
M 1831 391 
Q 2288 391 2514 753 
Q 2741 1116 2741 1709 
Q 2741 2238 2514 2584 
Q 2288 2931 1847 2931 
Q 1463 2931 1173 2647 
Q 884 2363 884 1709 
Q 884 1238 1003 944 
Q 1225 391 1831 391 
z
" transform="scale(0.015625)"/>
      <path id="Helvetica-49" d="M 628 4591 
L 1256 4591 
L 1256 0 
L 628 0 
L 628 4591 
z
" transform="scale(0.015625)"/>
      <path id="Helvetica-2c" d="M 531 -653 
Q 747 -616 834 -350 
Q 881 -209 881 -78 
Q 881 -56 879 -39 
Q 878 -22 872 0 
L 531 0 
L 531 681 
L 1200 681 
L 1200 50 
Q 1200 -322 1050 -603 
Q 900 -884 531 -950 
L 531 -653 
z
" transform="scale(0.015625)"/>
      <path id="DejaVuSans-34" d="M 2419 4116 
L 825 1625 
L 2419 1625 
L 2419 4116 
z
M 2253 4666 
L 3047 4666 
L 3047 1625 
L 3713 1625 
L 3713 1100 
L 3047 1100 
L 3047 0 
L 2419 0 
L 2419 1100 
L 313 1100 
L 313 1709 
L 2253 4666 
z
" transform="scale(0.015625)"/>
     </defs>
     <use xlink:href="#Helvetica-28" transform="translate(0 0.701562)"/>
     <use xlink:href="#Helvetica-62" transform="translate(33.300781 0.701562)"/>
     <use xlink:href="#Helvetica-29" transform="translate(88.916016 0.701562)"/>
     <use xlink:href="#Helvetica-20" transform="translate(122.216797 0.701562)"/>
     <use xlink:href="#Helvetica-20" transform="translate(150 0.701562)"/>
     <use xlink:href="#Helvetica-49" transform="translate(177.783203 0.701562)"/>
     <use xlink:href="#Helvetica-64" transform="translate(205.566406 0.701562)"/>
     <use xlink:href="#Helvetica-65" transform="translate(261.181641 0.701562)"/>
     <use xlink:href="#Helvetica-6d" transform="translate(316.796875 0.701562)"/>
     <use xlink:href="#Helvetica-70" transform="translate(400.097656 0.701562)"/>
     <use xlink:href="#Helvetica-6f" transform="translate(455.712891 0.701562)"/>
     <use xlink:href="#Helvetica-74" transform="translate(511.328125 0.701562)"/>
     <use xlink:href="#Helvetica-65" transform="translate(539.111328 0.701562)"/>
     <use xlink:href="#Helvetica-6e" transform="translate(594.726562 0.701562)"/>
     <use xlink:href="#Helvetica-74" transform="translate(650.341797 0.701562)"/>
     <use xlink:href="#Helvetica-20" transform="translate(678.125 0.701562)"/>
     <use xlink:href="#Helvetica-63" transform="translate(705.908203 0.701562)"/>
     <use xlink:href="#Helvetica-6c" transform="translate(755.908203 0.701562)"/>
     <use xlink:href="#Helvetica-6f" transform="translate(778.125 0.701562)"/>
     <use xlink:href="#Helvetica-73" transform="translate(833.740234 0.701562)"/>
     <use xlink:href="#Helvetica-75" transform="translate(883.740234 0.701562)"/>
     <use xlink:href="#Helvetica-72" transform="translate(939.355469 0.701562)"/>
     <use xlink:href="#Helvetica-65" transform="translate(972.65625 0.701562)"/>
     <use xlink:href="#Helvetica-20" transform="translate(1028.271484 0.701562)"/>
     <use xlink:href="#Helvetica-20" transform="translate(1056.054688 0.701562)"/>
     <use xlink:href="#Helvetica-28" transform="translate(1083.837891 0.701562)"/>
     <use xlink:href="#DejaVuSans-Oblique-4a" transform="translate(1117.138672 0.701562)"/>
     <use xlink:href="#DejaVuSans-32" transform="translate(1153.64763 39.046875) scale(0.7)"/>
     <use xlink:href="#DejaVuSans-Oblique-43" transform="translate(1146.630859 -26.642188) scale(0.7)"/>
     <use xlink:href="#DejaVuSans-Oblique-6c" transform="translate(1195.507812 -26.642188) scale(0.7)"/>
     <use xlink:href="#DejaVuSans-3d" transform="translate(1237.172852 0.701562)"/>
     <use xlink:href="#DejaVuSans-Oblique-4a" transform="translate(1340.444336 0.701562)"/>
     <use xlink:href="#DejaVuSans-Oblique-43" transform="translate(1369.936523 -15.704688) scale(0.7)"/>
     <use xlink:href="#DejaVuSans-Oblique-6c" transform="translate(1418.813477 -15.704688) scale(0.7)"/>
     <use xlink:href="#Helvetica-2c" transform="translate(1440.996094 0.701562)"/>
     <use xlink:href="#Helvetica-20" transform="translate(1468.779297 0.701562)"/>
     <use xlink:href="#Helvetica-72" transform="translate(1496.5625 0.701562)"/>
     <use xlink:href="#Helvetica-61" transform="translate(1529.863281 0.701562)"/>
     <use xlink:href="#Helvetica-6e" transform="translate(1585.478516 0.701562)"/>
     <use xlink:href="#Helvetica-67" transform="translate(1641.09375 0.701562)"/>
     <use xlink:href="#Helvetica-65" transform="translate(1696.708984 0.701562)"/>
     <use xlink:href="#Helvetica-20" transform="translate(1752.324219 0.701562)"/>
     <use xlink:href="#Helvetica-64" transform="translate(1780.107422 0.701562)"/>
     <use xlink:href="#Helvetica-69" transform="translate(1835.722656 0.701562)"/>
     <use xlink:href="#Helvetica-6d" transform="translate(1857.939453 0.701562)"/>
     <use xlink:href="#Helvetica-20" transform="translate(1941.240234 0.701562)"/>
     <use xlink:href="#DejaVuSans-3d" transform="translate(1988.505859 0.701562)"/>
     <use xlink:href="#DejaVuSans-31" transform="translate(2091.777344 0.701562)"/>
     <use xlink:href="#DejaVuSans-34" transform="translate(2155.400391 0.701562)"/>
     <use xlink:href="#Helvetica-29" transform="translate(2219.023438 0.701562)"/>
     <use xlink:href="#Helvetica-3a" transform="translate(2252.324219 0.701562)"/>
     <use xlink:href="#Helvetica-20" transform="translate(2280.107422 0.701562)"/>
     <use xlink:href="#Helvetica-20" transform="translate(2307.890625 0.701562)"/>
     <use xlink:href="#Helvetica-31" transform="translate(2335.673828 0.701562)"/>
     <use xlink:href="#Helvetica-34" transform="translate(2391.289062 0.701562)"/>
     <use xlink:href="#Helvetica-2f" transform="translate(2446.904297 0.701562)"/>
     <use xlink:href="#Helvetica-32" transform="translate(2474.6875 0.701562)"/>
     <use xlink:href="#Helvetica-30" transform="translate(2530.302734 0.701562)"/>
     <use xlink:href="#Helvetica-20" transform="translate(2585.917969 0.701562)"/>
     <use xlink:href="#Helvetica-70" transform="translate(2613.701172 0.701562)"/>
     <use xlink:href="#Helvetica-6f" transform="translate(2669.316406 0.701562)"/>
     <use xlink:href="#Helvetica-73" transform="translate(2724.931641 0.701562)"/>
     <use xlink:href="#Helvetica-69" transform="translate(2774.931641 0.701562)"/>
     <use xlink:href="#Helvetica-74" transform="translate(2797.148438 0.701562)"/>
     <use xlink:href="#Helvetica-69" transform="translate(2824.931641 0.701562)"/>
     <use xlink:href="#Helvetica-76" transform="translate(2847.148438 0.701562)"/>
     <use xlink:href="#Helvetica-65" transform="translate(2897.148438 0.701562)"/>
     <use xlink:href="#Helvetica-2c" transform="translate(2952.763672 0.701562)"/>
     <use xlink:href="#Helvetica-20" transform="translate(2980.546875 0.701562)"/>
     <use xlink:href="#Helvetica-20" transform="translate(3008.330078 0.701562)"/>
     <use xlink:href="#Helvetica-36" transform="translate(3036.113281 0.701562)"/>
     <use xlink:href="#Helvetica-20" transform="translate(3091.728516 0.701562)"/>
     <use xlink:href="#Helvetica-7a" transform="translate(3119.511719 0.701562)"/>
     <use xlink:href="#Helvetica-65" transform="translate(3169.511719 0.701562)"/>
     <use xlink:href="#Helvetica-72" transform="translate(3225.126953 0.701562)"/>
     <use xlink:href="#Helvetica-6f" transform="translate(3258.427734 0.701562)"/>
    </g>
   </g>
  </g>
  <g id="text_42">
   <!-- Theorem T7-Enhanced  —  non-idempotent metastability advantage -->
   <g transform="translate(138.356094 15.83625) scale(0.12 -0.12)">
    <defs>
     <path id="Helvetica-54" d="M 3828 4591 
L 3828 4044 
L 2281 4044 
L 2281 0 
L 1650 0 
L 1650 4044 
L 103 4044 
L 103 4591 
L 3828 4591 
z
" transform="scale(0.015625)"/>
     <path id="Helvetica-68" d="M 413 4606 
L 975 4606 
L 975 2894 
Q 1175 3147 1334 3250 
Q 1606 3428 2013 3428 
Q 2741 3428 3000 2919 
Q 3141 2641 3141 2147 
L 3141 0 
L 2563 0 
L 2563 2109 
Q 2563 2478 2469 2650 
Q 2316 2925 1894 2925 
Q 1544 2925 1259 2684 
Q 975 2444 975 1775 
L 975 0 
L 413 0 
L 413 4606 
z
" transform="scale(0.015625)"/>
     <path id="Helvetica-45" d="M 547 4591 
L 3894 4591 
L 3894 4028 
L 1153 4028 
L 1153 2634 
L 3688 2634 
L 3688 2103 
L 1153 2103 
L 1153 547 
L 3941 547 
L 3941 0 
L 547 0 
L 547 4591 
z
M 2244 4591 
L 2244 4591 
z
" transform="scale(0.015625)"/>
     <path id="Helvetica-2014" d="M 753 2000 
L 5644 2000 
L 5644 1541 
L 753 1541 
L 753 2000 
z
" transform="scale(0.015625)"/>
    </defs>
    <use xlink:href="#Helvetica-54"/>
    <use xlink:href="#Helvetica-68" transform="translate(61.083984 0)"/>
    <use xlink:href="#Helvetica-65" transform="translate(116.699219 0)"/>
    <use xlink:href="#Helvetica-6f" transform="translate(172.314453 0)"/>
    <use xlink:href="#Helvetica-72" transform="translate(227.929688 0)"/>
    <use xlink:href="#Helvetica-65" transform="translate(261.230469 0)"/>
    <use xlink:href="#Helvetica-6d" transform="translate(316.845703 0)"/>
    <use xlink:href="#Helvetica-20" transform="translate(400.146484 0)"/>
    <use xlink:href="#Helvetica-54" transform="translate(427.929688 0)"/>
    <use xlink:href="#Helvetica-37" transform="translate(489.013672 0)"/>
    <use xlink:href="#Helvetica-2d" transform="translate(544.628906 0)"/>
    <use xlink:href="#Helvetica-45" transform="translate(577.929688 0)"/>
    <use xlink:href="#Helvetica-6e" transform="translate(644.628906 0)"/>
    <use xlink:href="#Helvetica-68" transform="translate(700.244141 0)"/>
    <use xlink:href="#Helvetica-61" transform="translate(755.859375 0)"/>
    <use xlink:href="#Helvetica-6e" transform="translate(811.474609 0)"/>
    <use xlink:href="#Helvetica-63" transform="translate(867.089844 0)"/>
    <use xlink:href="#Helvetica-65" transform="translate(917.089844 0)"/>
    <use xlink:href="#Helvetica-64" transform="translate(972.705078 0)"/>
    <use xlink:href="#Helvetica-20" transform="translate(1028.320312 0)"/>
    <use xlink:href="#Helvetica-20" transform="translate(1056.103516 0)"/>
    <use xlink:href="#Helvetica-2014" transform="translate(1083.886719 0)"/>
    <use xlink:href="#Helvetica-20" transform="translate(1183.886719 0)"/>
    <use xlink:href="#Helvetica-20" transform="translate(1211.669922 0)"/>
    <use xlink:href="#Helvetica-6e" transform="translate(1239.453125 0)"/>
    <use xlink:href="#Helvetica-6f" transform="translate(1295.068359 0)"/>
    <use xlink:href="#Helvetica-6e" transform="translate(1350.683594 0)"/>
    <use xlink:href="#Helvetica-2d" transform="translate(1406.298828 0)"/>
    <use xlink:href="#Helvetica-69" transform="translate(1439.599609 0)"/>
    <use xlink:href="#Helvetica-64" transform="translate(1461.816406 0)"/>
    <use xlink:href="#Helvetica-65" transform="translate(1517.431641 0)"/>
    <use xlink:href="#Helvetica-6d" transform="translate(1573.046875 0)"/>
    <use xlink:href="#Helvetica-70" transform="translate(1656.347656 0)"/>
    <use xlink:href="#Helvetica-6f" transform="translate(1711.962891 0)"/>
    <use xlink:href="#Helvetica-74" transform="translate(1767.578125 0)"/>
    <use xlink:href="#Helvetica-65" transform="translate(1795.361328 0)"/>
    <use xlink:href="#Helvetica-6e" transform="translate(1850.976562 0)"/>
    <use xlink:href="#Helvetica-74" transform="translate(1906.591797 0)"/>
    <use xlink:href="#Helvetica-20" transform="translate(1934.375 0)"/>
    <use xlink:href="#Helvetica-6d" transform="translate(1962.158203 0)"/>
    <use xlink:href="#Helvetica-65" transform="translate(2045.458984 0)"/>
    <use xlink:href="#Helvetica-74" transform="translate(2101.074219 0)"/>
    <use xlink:href="#Helvetica-61" transform="translate(2128.857422 0)"/>
    <use xlink:href="#Helvetica-73" transform="translate(2184.472656 0)"/>
    <use xlink:href="#Helvetica-74" transform="translate(2234.472656 0)"/>
    <use xlink:href="#Helvetica-61" transform="translate(2262.255859 0)"/>
    <use xlink:href="#Helvetica-62" transform="translate(2317.871094 0)"/>
    <use xlink:href="#Helvetica-69" transform="translate(2373.486328 0)"/>
    <use xlink:href="#Helvetica-6c" transform="translate(2395.703125 0)"/>
    <use xlink:href="#Helvetica-69" transform="translate(2417.919922 0)"/>
    <use xlink:href="#Helvetica-74" transform="translate(2440.136719 0)"/>
    <use xlink:href="#Helvetica-79" transform="translate(2467.919922 0)"/>
    <use xlink:href="#Helvetica-20" transform="translate(2517.919922 0)"/>
    <use xlink:href="#Helvetica-61" transform="translate(2545.703125 0)"/>
    <use xlink:href="#Helvetica-64" transform="translate(2601.318359 0)"/>
    <use xlink:href="#Helvetica-76" transform="translate(2656.933594 0)"/>
    <use xlink:href="#Helvetica-61" transform="translate(2706.933594 0)"/>
    <use xlink:href="#Helvetica-6e" transform="translate(2762.548828 0)"/>
    <use xlink:href="#Helvetica-74" transform="translate(2818.164062 0)"/>
    <use xlink:href="#Helvetica-61" transform="translate(2845.947266 0)"/>
    <use xlink:href="#Helvetica-67" transform="translate(2901.5625 0)"/>
    <use xlink:href="#Helvetica-65" transform="translate(2957.177734 0)"/>
   </g>
  </g>
 </g>
 <defs>
  <clipPath id="p7803d0f716">
   <rect x="29.204844" y="62.376" width="603.105" height="127.734"/>
  </clipPath>
  <clipPath id="p84c6d3bfa7">
   <rect x="29.204844" y="222.894" width="603.105" height="127.734"/>
  </clipPath>
 </defs>
</svg>
