<?xml version="1.0" encoding="utf-8" standalone="no"?>
<!DOCTYPE svg PUBLIC "-//W3C//DTD SVG 1.1//EN"
  "http://www.w3.org/Graphics/SVG/1.1/DTD/svg11.dtd">
<svg xmlns:xlink="http://www.w3.org/1999/xlink" width="531.938206pt" height="386.903356pt" viewBox="0 0 531.938206 386.903356" xmlns="http://www.w3.org/2000/svg" version="1.1">
 <metadata>
  <rdf:RDF xmlns:dc="http://purl.org/dc/elements/1.1/" xmlns:cc="http://creativecommons.org/ns#" xmlns:rdf="http://www.w3.org/1999/02/22-rdf-syntax-ns#">
   <cc:Work>
    <dc:type rdf:resource="http://purl.org/dc/dcmitype/StillImage"/>
    <dc:date>2026-04-27T01:07:54.534842</dc:date>
    <dc:format>image/svg+xml</dc:format>
    <dc:creator>
     <cc:Agent>
      <dc:title>Matplotlib v3.10.5, https://matplotlib.org/</dc:title>
     </cc:Agent>
    </dc:creator>
   </cc:Work>
  </rdf:RDF>
 </metadata>
 <defs>
  <style type="text/css">*{stroke-linejoin: round; stroke-linecap: butt}</style>
 </defs>
 <g id="figure_1">
  <g id="patch_1">
   <path d="M 0 386.903356 
L 531.938206 386.903356 
L 531.938206 0 
L 0 0 
z
" style="fill: #ffffff"/>
  </g>
  <g id="axes_1">
   <g id="patch_2">
    <path d="M 42.05 354.613513 
L 524.738206 354.613513 
L 524.738206 33.846312 
L 42.05 33.846312 
z
" style="fill: #ffffff"/>
   </g>
   <g id="matplotlib.axis_1">
    <g id="xtick_1">
     <g id="line2d_1">
      <path d="M 52.571756 354.613513 
L 52.571756 33.846312 
" clip-path="url(#pbf0265a452)" style="fill: none; stroke: #000000; stroke-opacity: 0.4; stroke-width: 0.3; stroke-linecap: square"/>
     </g>
     <g id="line2d_2">
      <defs>
       <path id="m5b83a28461" d="M 0 0 
L 0 -3.5 
" style="stroke: #000000; stroke-width: 0.6"/>
      </defs>
      <g>
       <use xlink:href="#m5b83a28461" x="52.571756" y="354.613513" style="stroke: #000000; stroke-width: 0.6"/>
      </g>
     </g>
     <g id="text_1">
      <!-- 0.2 -->
      <g transform="translate(46.316756 364.569606) scale(0.09 -0.09)">
       <defs>
        <path id="Helvetica-30" d="M 1731 4475 
Q 2600 4475 2988 3759 
Q 3288 3206 3288 2244 
Q 3288 1331 3016 734 
Q 2622 -122 1728 -122 
Q 922 -122 528 578 
Q 200 1163 200 2147 
Q 200 2909 397 3456 
Q 766 4475 1731 4475 
z
M 1725 391 
Q 2163 391 2422 778 
Q 2681 1166 2681 2222 
Q 2681 2984 2493 3476 
Q 2306 3969 1766 3969 
Q 1269 3969 1039 3501 
Q 809 3034 809 2125 
Q 809 1441 956 1025 
Q 1181 391 1725 391 
z
" transform="scale(0.015625)"/>
        <path id="Helvetica-2e" d="M 547 681 
L 1200 681 
L 1200 0 
L 547 0 
L 547 681 
z
" transform="scale(0.015625)"/>
        <path id="Helvetica-32" d="M 200 0 
Q 231 578 439 1006 
Q 647 1434 1250 1784 
L 1850 2131 
Q 2253 2366 2416 2531 
Q 2672 2791 2672 3125 
Q 2672 3516 2437 3745 
Q 2203 3975 1813 3975 
Q 1234 3975 1013 3538 
Q 894 3303 881 2888 
L 309 2888 
Q 319 3472 525 3841 
Q 891 4491 1816 4491 
Q 2584 4491 2939 4075 
Q 3294 3659 3294 3150 
Q 3294 2613 2916 2231 
Q 2697 2009 2131 1694 
L 1703 1456 
Q 1397 1288 1222 1134 
Q 909 863 828 531 
L 3272 531 
L 3272 0 
L 200 0 
z
" transform="scale(0.015625)"/>
       </defs>
       <use xlink:href="#Helvetica-30"/>
       <use xlink:href="#Helvetica-2e" transform="translate(55.615234 0)"/>
       <use xlink:href="#Helvetica-32" transform="translate(83.398438 0)"/>
      </g>
     </g>
    </g>
    <g id="xtick_2">
     <g id="line2d_3">
      <path d="M 129.512538 354.613513 
L 129.512538 33.846312 
" clip-path="url(#pbf0265a452)" style="fill: none; stroke: #000000; stroke-opacity: 0.4; stroke-width: 0.3; stroke-linecap: square"/>
     </g>
     <g id="line2d_4">
      <g>
       <use xlink:href="#m5b83a28461" x="129.512538" y="354.613513" style="stroke: #000000; stroke-width: 0.6"/>
      </g>
     </g>
     <g id="text_2">
      <!-- 0.3 -->
      <g transform="translate(123.257538 364.569606) scale(0.09 -0.09)">
       <defs>
        <path id="Helvetica-33" d="M 1663 -122 
Q 869 -122 511 314 
Q 153 750 153 1375 
L 741 1375 
Q 778 941 903 744 
Q 1122 391 1694 391 
Q 2138 391 2406 628 
Q 2675 866 2675 1241 
Q 2675 1703 2392 1887 
Q 2109 2072 1606 2072 
Q 1550 2072 1492 2070 
Q 1434 2069 1375 2066 
L 1375 2563 
Q 1463 2553 1522 2550 
Q 1581 2547 1650 2547 
Q 1966 2547 2169 2647 
Q 2525 2822 2525 3272 
Q 2525 3606 2287 3787 
Q 2050 3969 1734 3969 
Q 1172 3969 956 3594 
Q 838 3388 822 3006 
L 266 3006 
Q 266 3506 466 3856 
Q 809 4481 1675 4481 
Q 2359 4481 2734 4176 
Q 3109 3872 3109 3294 
Q 3109 2881 2888 2625 
Q 2750 2466 2531 2375 
Q 2884 2278 3082 2001 
Q 3281 1725 3281 1325 
Q 3281 684 2859 281 
Q 2438 -122 1663 -122 
z
" transform="scale(0.015625)"/>
       </defs>
       <use xlink:href="#Helvetica-30"/>
       <use xlink:href="#Helvetica-2e" transform="translate(55.615234 0)"/>
       <use xlink:href="#Helvetica-33" transform="translate(83.398438 0)"/>
      </g>
     </g>
    </g>
    <g id="xtick_3">
     <g id="line2d_5">
      <path d="M 206.453321 354.613513 
L 206.453321 33.846312 
" clip-path="url(#pbf0265a452)" style="fill: none; stroke: #000000; stroke-opacity: 0.4; stroke-width: 0.3; stroke-linecap: square"/>
     </g>
     <g id="line2d_6">
      <g>
       <use xlink:href="#m5b83a28461" x="206.453321" y="354.613513" style="stroke: #000000; stroke-width: 0.6"/>
      </g>
     </g>
     <g id="text_3">
      <!-- 0.4 -->
      <g transform="translate(200.198321 364.569606) scale(0.09 -0.09)">
       <defs>
        <path id="Helvetica-34" d="M 2116 1584 
L 2116 3613 
L 681 1584 
L 2116 1584 
z
M 2125 0 
L 2125 1094 
L 163 1094 
L 163 1644 
L 2213 4488 
L 2688 4488 
L 2688 1584 
L 3347 1584 
L 3347 1094 
L 2688 1094 
L 2688 0 
L 2125 0 
z
" transform="scale(0.015625)"/>
       </defs>
       <use xlink:href="#Helvetica-30"/>
       <use xlink:href="#Helvetica-2e" transform="translate(55.615234 0)"/>
       <use xlink:href="#Helvetica-34" transform="translate(83.398438 0)"/>
      </g>
     </g>
    </g>
    <g id="xtick_4">
     <g id="line2d_7">
      <path d="M 283.394103 354.613513 
L 283.394103 33.846312 
" clip-path="url(#pbf0265a452)" style="fill: none; stroke: #000000; stroke-opacity: 0.4; stroke-width: 0.3; stroke-linecap: square"/>
     </g>
     <g id="line2d_8">
      <g>
       <use xlink:href="#m5b83a28461" x="283.394103" y="354.613513" style="stroke: #000000; stroke-width: 0.6"/>
      </g>
     </g>
     <g id="text_4">
      <!-- 0.5 -->
      <g transform="translate(277.139103 364.569606) scale(0.09 -0.09)">
       <defs>
        <path id="Helvetica-35" d="M 791 1141 
Q 847 659 1238 475 
Q 1438 381 1700 381 
Q 2200 381 2440 700 
Q 2681 1019 2681 1406 
Q 2681 1875 2395 2131 
Q 2109 2388 1709 2388 
Q 1419 2388 1211 2275 
Q 1003 2163 856 1963 
L 369 1991 
L 709 4400 
L 3034 4400 
L 3034 3856 
L 1131 3856 
L 941 2613 
Q 1097 2731 1238 2791 
Q 1488 2894 1816 2894 
Q 2431 2894 2859 2497 
Q 3288 2100 3288 1491 
Q 3288 856 2895 371 
Q 2503 -113 1644 -113 
Q 1097 -113 676 195 
Q 256 503 206 1141 
L 791 1141 
z
" transform="scale(0.015625)"/>
       </defs>
       <use xlink:href="#Helvetica-30"/>
       <use xlink:href="#Helvetica-2e" transform="translate(55.615234 0)"/>
       <use xlink:href="#Helvetica-35" transform="translate(83.398438 0)"/>
      </g>
     </g>
    </g>
    <g id="xtick_5">
     <g id="line2d_9">
      <path d="M 360.334886 354.613513 
L 360.334886 33.846312 
" clip-path="url(#pbf0265a452)" style="fill: none; stroke: #000000; stroke-opacity: 0.4; stroke-width: 0.3; stroke-linecap: square"/>
     </g>
     <g id="line2d_10">
      <g>
       <use xlink:href="#m5b83a28461" x="360.334886" y="354.613513" style="stroke: #000000; stroke-width: 0.6"/>
      </g>
     </g>
     <g id="text_5">
      <!-- 0.6 -->
      <g transform="translate(354.079886 364.569606) scale(0.09 -0.09)">
       <defs>
        <path id="Helvetica-36" d="M 1872 4494 
Q 2622 4494 2917 4105 
Q 3213 3716 3213 3303 
L 2656 3303 
Q 2606 3569 2497 3719 
Q 2294 4000 1881 4000 
Q 1409 4000 1131 3564 
Q 853 3128 822 2316 
Q 1016 2600 1309 2741 
Q 1578 2866 1909 2866 
Q 2472 2866 2890 2506 
Q 3309 2147 3309 1434 
Q 3309 825 2912 354 
Q 2516 -116 1781 -116 
Q 1153 -116 697 361 
Q 241 838 241 1966 
Q 241 2800 444 3381 
Q 834 4494 1872 4494 
z
M 1831 384 
Q 2275 384 2495 682 
Q 2716 981 2716 1388 
Q 2716 1731 2519 2042 
Q 2322 2353 1803 2353 
Q 1441 2353 1167 2112 
Q 894 1872 894 1388 
Q 894 963 1142 673 
Q 1391 384 1831 384 
z
" transform="scale(0.015625)"/>
       </defs>
       <use xlink:href="#Helvetica-30"/>
       <use xlink:href="#Helvetica-2e" transform="translate(55.615234 0)"/>
       <use xlink:href="#Helvetica-36" transform="translate(83.398438 0)"/>
      </g>
     </g>
    </g>
    <g id="xtick_6">
     <g id="line2d_11">
      <path d="M 437.275668 354.613513 
L 437.275668 33.846312 
" clip-path="url(#pbf0265a452)" style="fill: none; stroke: #000000; stroke-opacity: 0.4; stroke-width: 0.3; stroke-linecap: square"/>
     </g>
     <g id="line2d_12">
      <g>
       <use xlink:href="#m5b83a28461" x="437.275668" y="354.613513" style="stroke: #000000; stroke-width: 0.6"/>
      </g>
     </g>
     <g id="text_6">
      <!-- 0.7 -->
      <g transform="translate(431.020668 364.569606) scale(0.09 -0.09)">
       <defs>
        <path id="Helvetica-37" d="M 3347 4400 
L 3347 3909 
Q 3131 3700 2773 3181 
Q 2416 2663 2141 2063 
Q 1869 1478 1728 997 
Q 1638 688 1494 0 
L 872 0 
Q 1084 1281 1809 2550 
Q 2238 3294 2709 3834 
L 234 3834 
L 234 4400 
L 3347 4400 
z
" transform="scale(0.015625)"/>
       </defs>
       <use xlink:href="#Helvetica-30"/>
       <use xlink:href="#Helvetica-2e" transform="translate(55.615234 0)"/>
       <use xlink:href="#Helvetica-37" transform="translate(83.398438 0)"/>
      </g>
     </g>
    </g>
    <g id="xtick_7">
     <g id="line2d_13">
      <path d="M 514.216451 354.613513 
L 514.216451 33.846312 
" clip-path="url(#pbf0265a452)" style="fill: none; stroke: #000000; stroke-opacity: 0.4; stroke-width: 0.3; stroke-linecap: square"/>
     </g>
     <g id="line2d_14">
      <g>
       <use xlink:href="#m5b83a28461" x="514.216451" y="354.613513" style="stroke: #000000; stroke-width: 0.6"/>
      </g>
     </g>
     <g id="text_7">
      <!-- 0.8 -->
      <g transform="translate(507.961451 364.569606) scale(0.09 -0.09)">
       <defs>
        <path id="Helvetica-38" d="M 1741 2600 
Q 2113 2600 2322 2808 
Q 2531 3016 2531 3303 
Q 2531 3553 2331 3762 
Q 2131 3972 1722 3972 
Q 1316 3972 1134 3762 
Q 953 3553 953 3272 
Q 953 2956 1187 2778 
Q 1422 2600 1741 2600 
z
M 1775 384 
Q 2166 384 2423 595 
Q 2681 806 2681 1225 
Q 2681 1659 2415 1884 
Q 2150 2109 1734 2109 
Q 1331 2109 1076 1879 
Q 822 1650 822 1244 
Q 822 894 1055 639 
Q 1288 384 1775 384 
z
M 975 2384 
Q 741 2484 609 2619 
Q 363 2869 363 3269 
Q 363 3769 725 4128 
Q 1088 4488 1753 4488 
Q 2397 4488 2762 4148 
Q 3128 3809 3128 3356 
Q 3128 2938 2916 2678 
Q 2797 2531 2547 2391 
Q 2825 2263 2984 2097 
Q 3281 1784 3281 1284 
Q 3281 694 2884 283 
Q 2488 -128 1763 -128 
Q 1109 -128 657 226 
Q 206 581 206 1256 
Q 206 1653 400 1942 
Q 594 2231 975 2384 
z
" transform="scale(0.015625)"/>
       </defs>
       <use xlink:href="#Helvetica-30"/>
       <use xlink:href="#Helvetica-2e" transform="translate(55.615234 0)"/>
       <use xlink:href="#Helvetica-38" transform="translate(83.398438 0)"/>
      </g>
     </g>
    </g>
    <g id="text_8">
     <!-- volume fraction  $c = m / n$ -->
     <g transform="translate(228.094103 377.618981) scale(0.1 -0.1)">
      <defs>
       <path id="Helvetica-76" d="M 688 3347 
L 1581 622 
L 2516 3347 
L 3131 3347 
L 1869 0 
L 1269 0 
L 34 3347 
L 688 3347 
z
" transform="scale(0.015625)"/>
       <path id="Helvetica-6f" d="M 1741 363 
Q 2300 363 2508 786 
Q 2716 1209 2716 1728 
Q 2716 2197 2566 2491 
Q 2328 2953 1747 2953 
Q 1231 2953 997 2559 
Q 763 2166 763 1609 
Q 763 1075 997 719 
Q 1231 363 1741 363 
z
M 1763 3444 
Q 2409 3444 2856 3012 
Q 3303 2581 3303 1744 
Q 3303 934 2909 406 
Q 2516 -122 1688 -122 
Q 997 -122 590 345 
Q 184 813 184 1600 
Q 184 2444 612 2944 
Q 1041 3444 1763 3444 
z
M 1744 3428 
L 1744 3428 
z
" transform="scale(0.015625)"/>
       <path id="Helvetica-6c" d="M 428 4591 
L 991 4591 
L 991 0 
L 428 0 
L 428 4591 
z
" transform="scale(0.015625)"/>
       <path id="Helvetica-75" d="M 975 3347 
L 975 1125 
Q 975 869 1056 706 
Q 1206 406 1616 406 
Q 2203 406 2416 931 
Q 2531 1213 2531 1703 
L 2531 3347 
L 3094 3347 
L 3094 0 
L 2563 0 
L 2569 494 
Q 2459 303 2297 172 
Q 1975 -91 1516 -91 
Q 800 -91 541 388 
Q 400 644 400 1072 
L 400 3347 
L 975 3347 
z
M 1747 3428 
L 1747 3428 
z
" transform="scale(0.015625)"/>
       <path id="Helvetica-6d" d="M 413 3347 
L 969 3347 
L 969 2872 
Q 1169 3119 1331 3231 
Q 1609 3422 1963 3422 
Q 2363 3422 2606 3225 
Q 2744 3113 2856 2894 
Q 3044 3163 3297 3292 
Q 3550 3422 3866 3422 
Q 4541 3422 4784 2934 
Q 4916 2672 4916 2228 
L 4916 0 
L 4331 0 
L 4331 2325 
Q 4331 2659 4164 2784 
Q 3997 2909 3756 2909 
Q 3425 2909 3186 2687 
Q 2947 2466 2947 1947 
L 2947 0 
L 2375 0 
L 2375 2184 
Q 2375 2525 2294 2681 
Q 2166 2916 1816 2916 
Q 1497 2916 1236 2669 
Q 975 2422 975 1775 
L 975 0 
L 413 0 
L 413 3347 
z
" transform="scale(0.015625)"/>
       <path id="Helvetica-65" d="M 1806 3422 
Q 2163 3422 2497 3255 
Q 2831 3088 3006 2822 
Q 3175 2569 3231 2231 
Q 3281 2000 3281 1494 
L 828 1494 
Q 844 984 1069 676 
Q 1294 369 1766 369 
Q 2206 369 2469 659 
Q 2619 828 2681 1050 
L 3234 1050 
Q 3213 866 3089 639 
Q 2966 413 2813 269 
Q 2556 19 2178 -69 
Q 1975 -119 1719 -119 
Q 1094 -119 659 336 
Q 225 791 225 1609 
Q 225 2416 662 2919 
Q 1100 3422 1806 3422 
z
M 2703 1941 
Q 2669 2306 2544 2525 
Q 2313 2931 1772 2931 
Q 1384 2931 1121 2651 
Q 859 2372 844 1941 
L 2703 1941 
z
M 1753 3428 
L 1753 3428 
z
" transform="scale(0.015625)"/>
       <path id="Helvetica-20" transform="scale(0.015625)"/>
       <path id="Helvetica-66" d="M 553 3856 
Q 566 4206 675 4369 
Q 872 4656 1434 4656 
Q 1488 4656 1544 4653 
Q 1600 4650 1672 4644 
L 1672 4131 
Q 1584 4138 1545 4139 
Q 1506 4141 1472 4141 
Q 1216 4141 1166 4008 
Q 1116 3875 1116 3331 
L 1672 3331 
L 1672 2888 
L 1109 2888 
L 1109 0 
L 553 0 
L 553 2888 
L 88 2888 
L 88 3331 
L 553 3331 
L 553 3856 
z
" transform="scale(0.015625)"/>
       <path id="Helvetica-72" d="M 428 3347 
L 963 3347 
L 963 2769 
Q 1028 2938 1284 3180 
Q 1541 3422 1875 3422 
Q 1891 3422 1928 3419 
Q 1966 3416 2056 3406 
L 2056 2813 
Q 2006 2822 1964 2825 
Q 1922 2828 1872 2828 
Q 1447 2828 1219 2554 
Q 991 2281 991 1925 
L 991 0 
L 428 0 
L 428 3347 
z
" transform="scale(0.015625)"/>
       <path id="Helvetica-61" d="M 844 891 
Q 844 647 1022 506 
Q 1200 366 1444 366 
Q 1741 366 2019 503 
Q 2488 731 2488 1250 
L 2488 1703 
Q 2384 1638 2221 1594 
Q 2059 1550 1903 1531 
L 1563 1488 
Q 1256 1447 1103 1359 
Q 844 1213 844 891 
z
M 2206 2028 
Q 2400 2053 2466 2191 
Q 2503 2266 2503 2406 
Q 2503 2694 2298 2823 
Q 2094 2953 1713 2953 
Q 1272 2953 1088 2716 
Q 984 2584 953 2325 
L 428 2325 
Q 444 2944 830 3186 
Q 1216 3428 1725 3428 
Q 2316 3428 2684 3203 
Q 3050 2978 3050 2503 
L 3050 575 
Q 3050 488 3086 434 
Q 3122 381 3238 381 
Q 3275 381 3322 386 
Q 3369 391 3422 400 
L 3422 -16 
Q 3291 -53 3222 -62 
Q 3153 -72 3034 -72 
Q 2744 -72 2613 134 
Q 2544 244 2516 444 
Q 2344 219 2022 53 
Q 1700 -113 1313 -113 
Q 847 -113 551 170 
Q 256 453 256 878 
Q 256 1344 547 1600 
Q 838 1856 1309 1916 
L 2206 2028 
z
M 1741 3428 
L 1741 3428 
z
" transform="scale(0.015625)"/>
       <path id="Helvetica-63" d="M 1703 3444 
Q 2269 3444 2623 3169 
Q 2978 2894 3050 2222 
L 2503 2222 
Q 2453 2531 2275 2736 
Q 2097 2941 1703 2941 
Q 1166 2941 934 2416 
Q 784 2075 784 1575 
Q 784 1072 996 728 
Q 1209 384 1666 384 
Q 2016 384 2220 598 
Q 2425 813 2503 1184 
L 3050 1184 
Q 2956 519 2581 211 
Q 2206 -97 1622 -97 
Q 966 -97 575 383 
Q 184 863 184 1581 
Q 184 2463 612 2953 
Q 1041 3444 1703 3444 
z
M 1616 3428 
L 1616 3428 
z
" transform="scale(0.015625)"/>
       <path id="Helvetica-74" d="M 525 4281 
L 1094 4281 
L 1094 3347 
L 1628 3347 
L 1628 2888 
L 1094 2888 
L 1094 703 
Q 1094 528 1213 469 
Q 1278 434 1431 434 
Q 1472 434 1519 436 
Q 1566 438 1628 444 
L 1628 0 
Q 1531 -28 1426 -40 
Q 1322 -53 1200 -53 
Q 806 -53 665 148 
Q 525 350 525 672 
L 525 2888 
L 72 2888 
L 72 3347 
L 525 3347 
L 525 4281 
z
" transform="scale(0.015625)"/>
       <path id="Helvetica-69" d="M 413 3331 
L 984 3331 
L 984 0 
L 413 0 
L 413 3331 
z
M 413 4591 
L 984 4591 
L 984 3953 
L 413 3953 
L 413 4591 
z
" transform="scale(0.015625)"/>
       <path id="Helvetica-6e" d="M 413 3347 
L 947 3347 
L 947 2872 
Q 1184 3166 1450 3294 
Q 1716 3422 2041 3422 
Q 2753 3422 3003 2925 
Q 3141 2653 3141 2147 
L 3141 0 
L 2569 0 
L 2569 2109 
Q 2569 2416 2478 2603 
Q 2328 2916 1934 2916 
Q 1734 2916 1606 2875 
Q 1375 2806 1200 2600 
Q 1059 2434 1017 2257 
Q 975 2081 975 1753 
L 975 0 
L 413 0 
L 413 3347 
z
M 1734 3428 
L 1734 3428 
z
" transform="scale(0.015625)"/>
       <path id="DejaVuSans-Oblique-63" d="M 3431 3366 
L 3316 2797 
Q 3109 2947 2876 3022 
Q 2644 3097 2394 3097 
Q 2119 3097 1870 3000 
Q 1622 2903 1453 2725 
Q 1184 2453 1037 2087 
Q 891 1722 891 1331 
Q 891 859 1127 628 
Q 1363 397 1844 397 
Q 2081 397 2348 469 
Q 2616 541 2906 684 
L 2797 116 
Q 2547 13 2283 -39 
Q 2019 -91 1741 -91 
Q 1044 -91 669 257 
Q 294 606 294 1253 
Q 294 1797 489 2255 
Q 684 2713 1069 3078 
Q 1331 3328 1684 3456 
Q 2038 3584 2456 3584 
Q 2700 3584 2940 3529 
Q 3181 3475 3431 3366 
z
" transform="scale(0.015625)"/>
       <path id="DejaVuSans-3d" d="M 678 2906 
L 4684 2906 
L 4684 2381 
L 678 2381 
L 678 2906 
z
M 678 1631 
L 4684 1631 
L 4684 1100 
L 678 1100 
L 678 1631 
z
" transform="scale(0.015625)"/>
       <path id="DejaVuSans-Oblique-6d" d="M 5747 2113 
L 5338 0 
L 4763 0 
L 5166 2094 
Q 5191 2228 5203 2325 
Q 5216 2422 5216 2491 
Q 5216 2772 5059 2928 
Q 4903 3084 4622 3084 
Q 4203 3084 3875 2770 
Q 3547 2456 3450 1953 
L 3066 0 
L 2491 0 
L 2900 2094 
Q 2925 2209 2937 2307 
Q 2950 2406 2950 2484 
Q 2950 2769 2794 2926 
Q 2638 3084 2363 3084 
Q 1938 3084 1609 2770 
Q 1281 2456 1184 1953 
L 800 0 
L 225 0 
L 909 3500 
L 1484 3500 
L 1375 2956 
Q 1609 3263 1923 3423 
Q 2238 3584 2597 3584 
Q 2978 3584 3223 3384 
Q 3469 3184 3519 2828 
Q 3781 3197 4126 3390 
Q 4472 3584 4856 3584 
Q 5306 3584 5551 3325 
Q 5797 3066 5797 2591 
Q 5797 2488 5784 2364 
Q 5772 2241 5747 2113 
z
" transform="scale(0.015625)"/>
       <path id="DejaVuSans-2f" d="M 1625 4666 
L 2156 4666 
L 531 -594 
L 0 -594 
L 1625 4666 
z
" transform="scale(0.015625)"/>
       <path id="DejaVuSans-Oblique-6e" d="M 3566 2113 
L 3156 0 
L 2578 0 
L 2988 2091 
Q 3016 2238 3031 2350 
Q 3047 2463 3047 2528 
Q 3047 2791 2881 2937 
Q 2716 3084 2419 3084 
Q 1956 3084 1622 2776 
Q 1288 2469 1184 1941 
L 800 0 
L 225 0 
L 903 3500 
L 1478 3500 
L 1363 2950 
Q 1603 3253 1940 3418 
Q 2278 3584 2650 3584 
Q 3113 3584 3367 3334 
Q 3622 3084 3622 2631 
Q 3622 2519 3608 2391 
Q 3594 2263 3566 2113 
z
" transform="scale(0.015625)"/>
      </defs>
      <use xlink:href="#Helvetica-76" transform="translate(0 0.09375)"/>
      <use xlink:href="#Helvetica-6f" transform="translate(50 0.09375)"/>
      <use xlink:href="#Helvetica-6c" transform="translate(105.615234 0.09375)"/>
      <use xlink:href="#Helvetica-75" transform="translate(127.832031 0.09375)"/>
      <use xlink:href="#Helvetica-6d" transform="translate(183.447266 0.09375)"/>
      <use xlink:href="#Helvetica-65" transform="translate(266.748047 0.09375)"/>
      <use xlink:href="#Helvetica-20" transform="translate(322.363281 0.09375)"/>
      <use xlink:href="#Helvetica-66" transform="translate(350.146484 0.09375)"/>
      <use xlink:href="#Helvetica-72" transform="translate(377.929688 0.09375)"/>
      <use xlink:href="#Helvetica-61" transform="translate(411.230469 0.09375)"/>
      <use xlink:href="#Helvetica-63" transform="translate(466.845703 0.09375)"/>
      <use xlink:href="#Helvetica-74" transform="translate(516.845703 0.09375)"/>
      <use xlink:href="#Helvetica-69" transform="translate(544.628906 0.09375)"/>
      <use xlink:href="#Helvetica-6f" transform="translate(566.845703 0.09375)"/>
      <use xlink:href="#Helvetica-6e" transform="translate(622.460938 0.09375)"/>
      <use xlink:href="#Helvetica-20" transform="translate(678.076172 0.09375)"/>
      <use xlink:href="#Helvetica-20" transform="translate(705.859375 0.09375)"/>
      <use xlink:href="#DejaVuSans-Oblique-63" transform="translate(733.642578 0.09375)"/>
      <use xlink:href="#DejaVuSans-3d" transform="translate(808.105469 0.09375)"/>
      <use xlink:href="#DejaVuSans-Oblique-6d" transform="translate(911.376953 0.09375)"/>
      <use xlink:href="#DejaVuSans-2f" transform="translate(1008.789062 0.09375)"/>
      <use xlink:href="#DejaVuSans-Oblique-6e" transform="translate(1042.480469 0.09375)"/>
     </g>
    </g>
   </g>
   <g id="matplotlib.axis_2">
    <g id="ytick_1">
     <g id="line2d_15">
      <path d="M 42.05 324.477141 
L 524.738206 324.477141 
" clip-path="url(#pbf0265a452)" style="fill: none; stroke: #000000; stroke-opacity: 0.4; stroke-width: 0.3; stroke-linecap: square"/>
     </g>
     <g id="line2d_16">
      <defs>
       <path id="m0e3f71c18c" d="M 0 0 
L 3.5 0 
" style="stroke: #000000; stroke-width: 0.6"/>
      </defs>
      <g>
       <use xlink:href="#m0e3f71c18c" x="42.05" y="324.477141" style="stroke: #000000; stroke-width: 0.6"/>
      </g>
     </g>
     <g id="text_9">
      <!-- $\mathdefault{10^{-1}}$ -->
      <g transform="translate(21 327.705188) scale(0.09 -0.09)">
       <defs>
        <path id="Helvetica-31" d="M 613 3169 
L 613 3600 
Q 1222 3659 1462 3798 
Q 1703 3938 1822 4456 
L 2266 4456 
L 2266 0 
L 1666 0 
L 1666 3169 
L 613 3169 
z
" transform="scale(0.015625)"/>
        <path id="Helvetica-2212" d="M 3547 1894 
L 3547 1369 
L 288 1369 
L 288 1894 
L 3547 1894 
z
" transform="scale(0.015625)"/>
       </defs>
       <use xlink:href="#Helvetica-31" transform="translate(0 0.654688)"/>
       <use xlink:href="#Helvetica-30" transform="translate(55.615234 0.654688)"/>
       <use xlink:href="#Helvetica-2212" transform="translate(112.145664 37.2625) scale(0.7)"/>
       <use xlink:href="#Helvetica-31" transform="translate(153.02457 37.2625) scale(0.7)"/>
      </g>
     </g>
    </g>
    <g id="ytick_2">
     <g id="line2d_17">
      <path d="M 42.05 224.366284 
L 524.738206 224.366284 
" clip-path="url(#pbf0265a452)" style="fill: none; stroke: #000000; stroke-opacity: 0.4; stroke-width: 0.3; stroke-linecap: square"/>
     </g>
     <g id="line2d_18">
      <g>
       <use xlink:href="#m0e3f71c18c" x="42.05" y="224.366284" style="stroke: #000000; stroke-width: 0.6"/>
      </g>
     </g>
     <g id="text_10">
      <!-- $\mathdefault{10^{0}}$ -->
      <g transform="translate(24.69 227.59433) scale(0.09 -0.09)">
       <use xlink:href="#Helvetica-31" transform="translate(0 0.446875)"/>
       <use xlink:href="#Helvetica-30" transform="translate(55.615234 0.446875)"/>
       <use xlink:href="#Helvetica-30" transform="translate(112.145664 37.054688) scale(0.7)"/>
      </g>
     </g>
    </g>
    <g id="ytick_3">
     <g id="line2d_19">
      <path d="M 42.05 124.255426 
L 524.738206 124.255426 
" clip-path="url(#pbf0265a452)" style="fill: none; stroke: #000000; stroke-opacity: 0.4; stroke-width: 0.3; stroke-linecap: square"/>
     </g>
     <g id="line2d_20">
      <g>
       <use xlink:href="#m0e3f71c18c" x="42.05" y="124.255426" style="stroke: #000000; stroke-width: 0.6"/>
      </g>
     </g>
     <g id="text_11">
      <!-- $\mathdefault{10^{1}}$ -->
      <g transform="translate(24.69 127.483473) scale(0.09 -0.09)">
       <use xlink:href="#Helvetica-31" transform="translate(0 0.654688)"/>
       <use xlink:href="#Helvetica-30" transform="translate(55.615234 0.654688)"/>
       <use xlink:href="#Helvetica-31" transform="translate(112.145664 37.2625) scale(0.7)"/>
      </g>
     </g>
    </g>
    <g id="ytick_4">
     <g id="line2d_21">
      <path d="M 42.05 354.613513 
L 524.738206 354.613513 
" clip-path="url(#pbf0265a452)" style="fill: none; stroke: #000000; stroke-opacity: 0.4; stroke-width: 0.3; stroke-linecap: square"/>
     </g>
     <g id="line2d_22">
      <defs>
       <path id="mfdd154147a" d="M 0 0 
L 2 0 
" style="stroke: #000000; stroke-width: 0.6"/>
      </defs>
      <g>
       <use xlink:href="#mfdd154147a" x="42.05" y="354.613513" style="stroke: #000000; stroke-width: 0.6"/>
      </g>
     </g>
    </g>
    <g id="ytick_5">
     <g id="line2d_23">
      <path d="M 42.05 346.68661 
L 524.738206 346.68661 
" clip-path="url(#pbf0265a452)" style="fill: none; stroke: #000000; stroke-opacity: 0.4; stroke-width: 0.3; stroke-linecap: square"/>
     </g>
     <g id="line2d_24">
      <g>
       <use xlink:href="#mfdd154147a" x="42.05" y="346.68661" style="stroke: #000000; stroke-width: 0.6"/>
      </g>
     </g>
    </g>
    <g id="ytick_6">
     <g id="line2d_25">
      <path d="M 42.05 339.984509 
L 524.738206 339.984509 
" clip-path="url(#pbf0265a452)" style="fill: none; stroke: #000000; stroke-opacity: 0.4; stroke-width: 0.3; stroke-linecap: square"/>
     </g>
     <g id="line2d_26">
      <g>
       <use xlink:href="#mfdd154147a" x="42.05" y="339.984509" style="stroke: #000000; stroke-width: 0.6"/>
      </g>
     </g>
    </g>
    <g id="ytick_7">
     <g id="line2d_27">
      <path d="M 42.05 334.178886 
L 524.738206 334.178886 
" clip-path="url(#pbf0265a452)" style="fill: none; stroke: #000000; stroke-opacity: 0.4; stroke-width: 0.3; stroke-linecap: square"/>
     </g>
     <g id="line2d_28">
      <g>
       <use xlink:href="#mfdd154147a" x="42.05" y="334.178886" style="stroke: #000000; stroke-width: 0.6"/>
      </g>
     </g>
    </g>
    <g id="ytick_8">
     <g id="line2d_29">
      <path d="M 42.05 329.057963 
L 524.738206 329.057963 
" clip-path="url(#pbf0265a452)" style="fill: none; stroke: #000000; stroke-opacity: 0.4; stroke-width: 0.3; stroke-linecap: square"/>
     </g>
     <g id="line2d_30">
      <g>
       <use xlink:href="#mfdd154147a" x="42.05" y="329.057963" style="stroke: #000000; stroke-width: 0.6"/>
      </g>
     </g>
    </g>
    <g id="ytick_9">
     <g id="line2d_31">
      <path d="M 42.05 294.34077 
L 524.738206 294.34077 
" clip-path="url(#pbf0265a452)" style="fill: none; stroke: #000000; stroke-opacity: 0.4; stroke-width: 0.3; stroke-linecap: square"/>
     </g>
     <g id="line2d_32">
      <g>
       <use xlink:href="#mfdd154147a" x="42.05" y="294.34077" style="stroke: #000000; stroke-width: 0.6"/>
      </g>
     </g>
    </g>
    <g id="ytick_10">
     <g id="line2d_33">
      <path d="M 42.05 276.712123 
L 524.738206 276.712123 
" clip-path="url(#pbf0265a452)" style="fill: none; stroke: #000000; stroke-opacity: 0.4; stroke-width: 0.3; stroke-linecap: square"/>
     </g>
     <g id="line2d_34">
      <g>
       <use xlink:href="#mfdd154147a" x="42.05" y="276.712123" style="stroke: #000000; stroke-width: 0.6"/>
      </g>
     </g>
    </g>
    <g id="ytick_11">
     <g id="line2d_35">
      <path d="M 42.05 264.204399 
L 524.738206 264.204399 
" clip-path="url(#pbf0265a452)" style="fill: none; stroke: #000000; stroke-opacity: 0.4; stroke-width: 0.3; stroke-linecap: square"/>
     </g>
     <g id="line2d_36">
      <g>
       <use xlink:href="#mfdd154147a" x="42.05" y="264.204399" style="stroke: #000000; stroke-width: 0.6"/>
      </g>
     </g>
    </g>
    <g id="ytick_12">
     <g id="line2d_37">
      <path d="M 42.05 254.502655 
L 524.738206 254.502655 
" clip-path="url(#pbf0265a452)" style="fill: none; stroke: #000000; stroke-opacity: 0.4; stroke-width: 0.3; stroke-linecap: square"/>
     </g>
     <g id="line2d_38">
      <g>
       <use xlink:href="#mfdd154147a" x="42.05" y="254.502655" style="stroke: #000000; stroke-width: 0.6"/>
      </g>
     </g>
    </g>
    <g id="ytick_13">
     <g id="line2d_39">
      <path d="M 42.05 246.575752 
L 524.738206 246.575752 
" clip-path="url(#pbf0265a452)" style="fill: none; stroke: #000000; stroke-opacity: 0.4; stroke-width: 0.3; stroke-linecap: square"/>
     </g>
     <g id="line2d_40">
      <g>
       <use xlink:href="#mfdd154147a" x="42.05" y="246.575752" style="stroke: #000000; stroke-width: 0.6"/>
      </g>
     </g>
    </g>
    <g id="ytick_14">
     <g id="line2d_41">
      <path d="M 42.05 239.873652 
L 524.738206 239.873652 
" clip-path="url(#pbf0265a452)" style="fill: none; stroke: #000000; stroke-opacity: 0.4; stroke-width: 0.3; stroke-linecap: square"/>
     </g>
     <g id="line2d_42">
      <g>
       <use xlink:href="#mfdd154147a" x="42.05" y="239.873652" style="stroke: #000000; stroke-width: 0.6"/>
      </g>
     </g>
    </g>
    <g id="ytick_15">
     <g id="line2d_43">
      <path d="M 42.05 234.068028 
L 524.738206 234.068028 
" clip-path="url(#pbf0265a452)" style="fill: none; stroke: #000000; stroke-opacity: 0.4; stroke-width: 0.3; stroke-linecap: square"/>
     </g>
     <g id="line2d_44">
      <g>
       <use xlink:href="#mfdd154147a" x="42.05" y="234.068028" style="stroke: #000000; stroke-width: 0.6"/>
      </g>
     </g>
    </g>
    <g id="ytick_16">
     <g id="line2d_45">
      <path d="M 42.05 228.947105 
L 524.738206 228.947105 
" clip-path="url(#pbf0265a452)" style="fill: none; stroke: #000000; stroke-opacity: 0.4; stroke-width: 0.3; stroke-linecap: square"/>
     </g>
     <g id="line2d_46">
      <g>
       <use xlink:href="#mfdd154147a" x="42.05" y="228.947105" style="stroke: #000000; stroke-width: 0.6"/>
      </g>
     </g>
    </g>
    <g id="ytick_17">
     <g id="line2d_47">
      <path d="M 42.05 194.229913 
L 524.738206 194.229913 
" clip-path="url(#pbf0265a452)" style="fill: none; stroke: #000000; stroke-opacity: 0.4; stroke-width: 0.3; stroke-linecap: square"/>
     </g>
     <g id="line2d_48">
      <g>
       <use xlink:href="#mfdd154147a" x="42.05" y="194.229913" style="stroke: #000000; stroke-width: 0.6"/>
      </g>
     </g>
    </g>
    <g id="ytick_18">
     <g id="line2d_49">
      <path d="M 42.05 176.601266 
L 524.738206 176.601266 
" clip-path="url(#pbf0265a452)" style="fill: none; stroke: #000000; stroke-opacity: 0.4; stroke-width: 0.3; stroke-linecap: square"/>
     </g>
     <g id="line2d_50">
      <g>
       <use xlink:href="#mfdd154147a" x="42.05" y="176.601266" style="stroke: #000000; stroke-width: 0.6"/>
      </g>
     </g>
    </g>
    <g id="ytick_19">
     <g id="line2d_51">
      <path d="M 42.05 164.093541 
L 524.738206 164.093541 
" clip-path="url(#pbf0265a452)" style="fill: none; stroke: #000000; stroke-opacity: 0.4; stroke-width: 0.3; stroke-linecap: square"/>
     </g>
     <g id="line2d_52">
      <g>
       <use xlink:href="#mfdd154147a" x="42.05" y="164.093541" style="stroke: #000000; stroke-width: 0.6"/>
      </g>
     </g>
    </g>
    <g id="ytick_20">
     <g id="line2d_53">
      <path d="M 42.05 154.391797 
L 524.738206 154.391797 
" clip-path="url(#pbf0265a452)" style="fill: none; stroke: #000000; stroke-opacity: 0.4; stroke-width: 0.3; stroke-linecap: square"/>
     </g>
     <g id="line2d_54">
      <g>
       <use xlink:href="#mfdd154147a" x="42.05" y="154.391797" style="stroke: #000000; stroke-width: 0.6"/>
      </g>
     </g>
    </g>
    <g id="ytick_21">
     <g id="line2d_55">
      <path d="M 42.05 146.464894 
L 524.738206 146.464894 
" clip-path="url(#pbf0265a452)" style="fill: none; stroke: #000000; stroke-opacity: 0.4; stroke-width: 0.3; stroke-linecap: square"/>
     </g>
     <g id="line2d_56">
      <g>
       <use xlink:href="#mfdd154147a" x="42.05" y="146.464894" style="stroke: #000000; stroke-width: 0.6"/>
      </g>
     </g>
    </g>
    <g id="ytick_22">
     <g id="line2d_57">
      <path d="M 42.05 139.762794 
L 524.738206 139.762794 
" clip-path="url(#pbf0265a452)" style="fill: none; stroke: #000000; stroke-opacity: 0.4; stroke-width: 0.3; stroke-linecap: square"/>
     </g>
     <g id="line2d_58">
      <g>
       <use xlink:href="#mfdd154147a" x="42.05" y="139.762794" style="stroke: #000000; stroke-width: 0.6"/>
      </g>
     </g>
    </g>
    <g id="ytick_23">
     <g id="line2d_59">
      <path d="M 42.05 133.95717 
L 524.738206 133.95717 
" clip-path="url(#pbf0265a452)" style="fill: none; stroke: #000000; stroke-opacity: 0.4; stroke-width: 0.3; stroke-linecap: square"/>
     </g>
     <g id="line2d_60">
      <g>
       <use xlink:href="#mfdd154147a" x="42.05" y="133.95717" style="stroke: #000000; stroke-width: 0.6"/>
      </g>
     </g>
    </g>
    <g id="ytick_24">
     <g id="line2d_61">
      <path d="M 42.05 128.836247 
L 524.738206 128.836247 
" clip-path="url(#pbf0265a452)" style="fill: none; stroke: #000000; stroke-opacity: 0.4; stroke-width: 0.3; stroke-linecap: square"/>
     </g>
     <g id="line2d_62">
      <g>
       <use xlink:href="#mfdd154147a" x="42.05" y="128.836247" style="stroke: #000000; stroke-width: 0.6"/>
      </g>
     </g>
    </g>
    <g id="ytick_25">
     <g id="line2d_63">
      <path d="M 42.05 94.119055 
L 524.738206 94.119055 
" clip-path="url(#pbf0265a452)" style="fill: none; stroke: #000000; stroke-opacity: 0.4; stroke-width: 0.3; stroke-linecap: square"/>
     </g>
     <g id="line2d_64">
      <g>
       <use xlink:href="#mfdd154147a" x="42.05" y="94.119055" style="stroke: #000000; stroke-width: 0.6"/>
      </g>
     </g>
    </g>
    <g id="ytick_26">
     <g id="line2d_65">
      <path d="M 42.05 76.490408 
L 524.738206 76.490408 
" clip-path="url(#pbf0265a452)" style="fill: none; stroke: #000000; stroke-opacity: 0.4; stroke-width: 0.3; stroke-linecap: square"/>
     </g>
     <g id="line2d_66">
      <g>
       <use xlink:href="#mfdd154147a" x="42.05" y="76.490408" style="stroke: #000000; stroke-width: 0.6"/>
      </g>
     </g>
    </g>
    <g id="ytick_27">
     <g id="line2d_67">
      <path d="M 42.05 63.982684 
L 524.738206 63.982684 
" clip-path="url(#pbf0265a452)" style="fill: none; stroke: #000000; stroke-opacity: 0.4; stroke-width: 0.3; stroke-linecap: square"/>
     </g>
     <g id="line2d_68">
      <g>
       <use xlink:href="#mfdd154147a" x="42.05" y="63.982684" style="stroke: #000000; stroke-width: 0.6"/>
      </g>
     </g>
    </g>
    <g id="ytick_28">
     <g id="line2d_69">
      <path d="M 42.05 54.280939 
L 524.738206 54.280939 
" clip-path="url(#pbf0265a452)" style="fill: none; stroke: #000000; stroke-opacity: 0.4; stroke-width: 0.3; stroke-linecap: square"/>
     </g>
     <g id="line2d_70">
      <g>
       <use xlink:href="#mfdd154147a" x="42.05" y="54.280939" style="stroke: #000000; stroke-width: 0.6"/>
      </g>
     </g>
    </g>
    <g id="ytick_29">
     <g id="line2d_71">
      <path d="M 42.05 46.354037 
L 524.738206 46.354037 
" clip-path="url(#pbf0265a452)" style="fill: none; stroke: #000000; stroke-opacity: 0.4; stroke-width: 0.3; stroke-linecap: square"/>
     </g>
     <g id="line2d_72">
      <g>
       <use xlink:href="#mfdd154147a" x="42.05" y="46.354037" style="stroke: #000000; stroke-width: 0.6"/>
      </g>
     </g>
    </g>
    <g id="ytick_30">
     <g id="line2d_73">
      <path d="M 42.05 39.651936 
L 524.738206 39.651936 
" clip-path="url(#pbf0265a452)" style="fill: none; stroke: #000000; stroke-opacity: 0.4; stroke-width: 0.3; stroke-linecap: square"/>
     </g>
     <g id="line2d_74">
      <g>
       <use xlink:href="#mfdd154147a" x="42.05" y="39.651936" style="stroke: #000000; stroke-width: 0.6"/>
      </g>
     </g>
    </g>
    <g id="ytick_31">
     <g id="line2d_75">
      <path d="M 42.05 33.846312 
L 524.738206 33.846312 
" clip-path="url(#pbf0265a452)" style="fill: none; stroke: #000000; stroke-opacity: 0.4; stroke-width: 0.3; stroke-linecap: square"/>
     </g>
     <g id="line2d_76">
      <g>
       <use xlink:href="#mfdd154147a" x="42.05" y="33.846312" style="stroke: #000000; stroke-width: 0.6"/>
      </g>
     </g>
    </g>
    <g id="text_12">
     <!-- phase-transition ratio  $\beta / \alpha$ -->
     <g transform="translate(14.9 251.879912) rotate(-90) scale(0.1 -0.1)">
      <defs>
       <path id="Helvetica-70" d="M 1825 378 
Q 2219 378 2480 708 
Q 2741 1038 2741 1694 
Q 2741 2094 2625 2381 
Q 2406 2934 1825 2934 
Q 1241 2934 1025 2350 
Q 909 2038 909 1556 
Q 909 1169 1025 897 
Q 1244 378 1825 378 
z
M 369 3331 
L 916 3331 
L 916 2888 
Q 1084 3116 1284 3241 
Q 1569 3428 1953 3428 
Q 2522 3428 2919 2992 
Q 3316 2556 3316 1747 
Q 3316 653 2744 184 
Q 2381 -113 1900 -113 
Q 1522 -113 1266 53 
Q 1116 147 931 375 
L 931 -1334 
L 369 -1334 
L 369 3331 
z
" transform="scale(0.015625)"/>
       <path id="Helvetica-68" d="M 413 4606 
L 975 4606 
L 975 2894 
Q 1175 3147 1334 3250 
Q 1606 3428 2013 3428 
Q 2741 3428 3000 2919 
Q 3141 2641 3141 2147 
L 3141 0 
L 2563 0 
L 2563 2109 
Q 2563 2478 2469 2650 
Q 2316 2925 1894 2925 
Q 1544 2925 1259 2684 
Q 975 2444 975 1775 
L 975 0 
L 413 0 
L 413 4606 
z
" transform="scale(0.015625)"/>
       <path id="Helvetica-73" d="M 747 1050 
Q 772 769 888 619 
Q 1100 347 1625 347 
Q 1938 347 2175 483 
Q 2413 619 2413 903 
Q 2413 1119 2222 1231 
Q 2100 1300 1741 1391 
L 1294 1503 
Q 866 1609 663 1741 
Q 300 1969 300 2372 
Q 300 2847 642 3140 
Q 984 3434 1563 3434 
Q 2319 3434 2653 2991 
Q 2863 2709 2856 2384 
L 2325 2384 
Q 2309 2575 2191 2731 
Q 1997 2953 1519 2953 
Q 1200 2953 1036 2831 
Q 872 2709 872 2509 
Q 872 2291 1088 2159 
Q 1213 2081 1456 2022 
L 1828 1931 
Q 2434 1784 2641 1647 
Q 2969 1431 2969 969 
Q 2969 522 2630 197 
Q 2291 -128 1597 -128 
Q 850 -128 539 211 
Q 228 550 206 1050 
L 747 1050 
z
M 1578 3428 
L 1578 3428 
z
" transform="scale(0.015625)"/>
       <path id="Helvetica-2d" d="M 266 2072 
L 1834 2072 
L 1834 1494 
L 266 1494 
L 266 2072 
z
" transform="scale(0.015625)"/>
       <path id="DejaVuSans-Oblique-3b2" d="M 872 216 
L 572 -1331 
L -6 -1331 
L 928 3478 
Q 1206 4903 2538 4903 
Q 3888 4903 3659 3700 
Q 3503 2844 2894 2531 
Q 3713 2250 3553 1416 
Q 3272 -69 1759 -66 
Q 1097 -63 872 216 
z
M 1019 966 
Q 1259 422 1875 425 
Q 2775 425 2966 1406 
Q 3138 2288 1675 2219 
L 1778 2750 
Q 2909 2731 3106 3750 
Q 3241 4438 2509 4434 
Q 1691 4434 1503 3459 
L 1019 966 
z
" transform="scale(0.015625)"/>
       <path id="DejaVuSans-Oblique-3b1" d="M 2619 1628 
L 2622 2350 
Q 2625 3088 2069 3091 
Q 1653 3094 1394 2747 
Q 1069 2319 959 1747 
Q 825 1059 994 731 
Q 1169 397 1547 397 
Q 1966 397 2319 1063 
L 2619 1628 
z
M 2166 3578 
Q 3141 3594 3128 2584 
Q 3128 2584 3616 3500 
L 4128 3500 
L 3119 1603 
L 3109 919 
Q 3109 766 3194 638 
Q 3291 488 3391 488 
L 3669 488 
L 3575 0 
L 3228 0 
Q 2934 0 2722 263 
Q 2622 394 2619 669 
Q 2416 334 2066 50 
Q 1900 -81 1453 -78 
Q 722 -72 456 397 
Q 184 884 353 1747 
Q 534 2675 1009 3097 
Q 1544 3569 2166 3578 
z
" transform="scale(0.015625)"/>
      </defs>
      <use xlink:href="#Helvetica-70" transform="translate(0 0.390625)"/>
      <use xlink:href="#Helvetica-68" transform="translate(55.615234 0.390625)"/>
      <use xlink:href="#Helvetica-61" transform="translate(111.230469 0.390625)"/>
      <use xlink:href="#Helvetica-73" transform="translate(166.845703 0.390625)"/>
      <use xlink:href="#Helvetica-65" transform="translate(216.845703 0.390625)"/>
      <use xlink:href="#Helvetica-2d" transform="translate(272.460938 0.390625)"/>
      <use xlink:href="#Helvetica-74" transform="translate(305.761719 0.390625)"/>
      <use xlink:href="#Helvetica-72" transform="translate(333.544922 0.390625)"/>
      <use xlink:href="#Helvetica-61" transform="translate(366.845703 0.390625)"/>
      <use xlink:href="#Helvetica-6e" transform="translate(422.460938 0.390625)"/>
      <use xlink:href="#Helvetica-73" transform="translate(478.076172 0.390625)"/>
      <use xlink:href="#Helvetica-69" transform="translate(528.076172 0.390625)"/>
      <use xlink:href="#Helvetica-74" transform="translate(550.292969 0.390625)"/>
      <use xlink:href="#Helvetica-69" transform="translate(578.076172 0.390625)"/>
      <use xlink:href="#Helvetica-6f" transform="translate(600.292969 0.390625)"/>
      <use xlink:href="#Helvetica-6e" transform="translate(655.908203 0.390625)"/>
      <use xlink:href="#Helvetica-20" transform="translate(711.523438 0.390625)"/>
      <use xlink:href="#Helvetica-72" transform="translate(739.306641 0.390625)"/>
      <use xlink:href="#Helvetica-61" transform="translate(772.607422 0.390625)"/>
      <use xlink:href="#Helvetica-74" transform="translate(828.222656 0.390625)"/>
      <use xlink:href="#Helvetica-69" transform="translate(856.005859 0.390625)"/>
      <use xlink:href="#Helvetica-6f" transform="translate(878.222656 0.390625)"/>
      <use xlink:href="#Helvetica-20" transform="translate(933.837891 0.390625)"/>
      <use xlink:href="#Helvetica-20" transform="translate(961.621094 0.390625)"/>
      <use xlink:href="#DejaVuSans-Oblique-3b2" transform="translate(989.404297 0.390625)"/>
      <use xlink:href="#DejaVuSans-2f" transform="translate(1053.222656 0.390625)"/>
      <use xlink:href="#DejaVuSans-Oblique-3b1" transform="translate(1086.914062 0.390625)"/>
     </g>
    </g>
   </g>
   <g id="line2d_77">
    <path d="M 65.132235 117.623397 
L 66.59218 131.46663 
L 68.052126 141.887857 
L 69.512072 150.236243 
L 70.972017 157.192911 
L 72.431963 163.15011 
L 73.891908 168.354511 
L 75.351854 172.971381 
L 76.8118 177.116873 
L 78.271745 180.87575 
L 81.191636 187.474066 
L 84.111528 193.124682 
L 87.031419 198.055906 
L 89.95131 202.422179 
L 92.871201 206.332861 
L 95.791093 209.868227 
L 98.710984 213.08894 
L 101.630875 216.041964 
L 104.550766 218.764394 
L 108.930603 222.479354 
L 113.31044 225.820048 
L 117.690277 228.846079 
L 122.070113 231.603624 
L 126.44995 234.129177 
L 132.289733 237.185603 
L 138.129515 239.93629 
L 143.969298 242.424167 
L 149.80908 244.683279 
L 155.648862 246.74105 
L 162.94859 249.063857 
L 170.248319 251.14218 
L 177.548047 253.004319 
L 186.30772 254.985469 
L 195.067394 256.719903 
L 203.827067 258.232905 
L 212.586741 259.54473 
L 222.80636 260.842491 
L 233.02598 261.908996 
L 243.245599 262.760071 
L 253.465218 263.407713 
L 265.144783 263.909891 
L 276.824348 264.166343 
L 288.503913 264.181382 
L 300.183478 263.955258 
L 311.863042 263.484174 
L 322.082662 262.864809 
L 332.302281 262.04345 
L 342.5219 261.008592 
L 352.741519 259.745003 
L 362.961139 258.232905 
L 371.720812 256.719903 
L 380.480486 254.985469 
L 389.24016 253.004319 
L 396.539888 251.14218 
L 403.839616 249.063857 
L 411.139344 246.74105 
L 416.979126 244.683279 
L 422.818909 242.424167 
L 428.658691 239.93629 
L 434.498474 237.185603 
L 440.338256 234.129177 
L 444.718093 231.603624 
L 449.09793 228.846079 
L 453.477766 225.820048 
L 457.857603 222.479354 
L 462.23744 218.764394 
L 465.157331 216.041964 
L 468.077223 213.08894 
L 470.997114 209.868227 
L 473.917005 206.332861 
L 476.836896 202.422179 
L 479.756787 198.055906 
L 482.676679 193.124682 
L 485.59657 187.474066 
L 487.056515 184.311762 
L 488.516461 180.87575 
L 489.976407 177.116873 
L 491.436352 172.971381 
L 492.896298 168.354511 
L 494.356243 163.15011 
L 495.816189 157.192911 
L 497.276135 150.236243 
L 498.73608 141.887857 
L 500.196026 131.46663 
L 501.655971 117.623397 
L 501.655971 117.623397 
" clip-path="url(#pbf0265a452)" style="fill: none; stroke-dasharray: 1.3,2.145; stroke-dashoffset: 0; stroke: #000000; stroke-width: 1.3"/>
   </g>
   <g id="line2d_78">
    <path d="M 65.132235 47.64891 
L 66.59218 61.492144 
L 68.052126 71.913371 
L 69.512072 80.261756 
L 70.972017 87.218424 
L 72.431963 93.175623 
L 73.891908 98.380024 
L 75.351854 102.996894 
L 76.8118 107.142387 
L 78.271745 110.901263 
L 81.191636 117.499579 
L 84.111528 123.150196 
L 87.031419 128.081419 
L 89.95131 132.447692 
L 92.871201 136.358375 
L 95.791093 139.89374 
L 98.710984 143.114453 
L 101.630875 146.067477 
L 104.550766 148.789908 
L 108.930603 152.504867 
L 113.31044 155.845561 
L 117.690277 158.871593 
L 122.070113 161.629137 
L 126.44995 164.154691 
L 132.289733 167.211117 
L 138.129515 169.961803 
L 143.969298 172.44968 
L 149.80908 174.708792 
L 155.648862 176.766563 
L 162.94859 179.08937 
L 170.248319 181.167694 
L 177.548047 183.029833 
L 186.30772 185.010983 
L 195.067394 186.745416 
L 203.827067 188.258418 
L 212.586741 189.570243 
L 222.80636 190.868005 
L 233.02598 191.934509 
L 243.245599 192.785584 
L 253.465218 193.433226 
L 265.144783 193.935405 
L 276.824348 194.191857 
L 288.503913 194.206895 
L 300.183478 193.980771 
L 311.863042 193.509687 
L 322.082662 192.890322 
L 332.302281 192.068963 
L 342.5219 191.034106 
L 352.741519 189.770516 
L 362.961139 188.258418 
L 371.720812 186.745416 
L 380.480486 185.010983 
L 389.24016 183.029833 
L 396.539888 181.167694 
L 403.839616 179.08937 
L 411.139344 176.766563 
L 416.979126 174.708792 
L 422.818909 172.44968 
L 428.658691 169.961803 
L 434.498474 167.211117 
L 440.338256 164.154691 
L 444.718093 161.629137 
L 449.09793 158.871593 
L 453.477766 155.845561 
L 457.857603 152.504867 
L 462.23744 148.789908 
L 465.157331 146.067477 
L 468.077223 143.114453 
L 470.997114 139.89374 
L 473.917005 136.358375 
L 476.836896 132.447692 
L 479.756787 128.081419 
L 482.676679 123.150196 
L 485.59657 117.499579 
L 487.056515 114.337275 
L 488.516461 110.901263 
L 489.976407 107.142387 
L 491.436352 102.996894 
L 492.896298 98.380024 
L 494.356243 93.175623 
L 495.816189 87.218424 
L 497.276135 80.261756 
L 498.73608 71.913371 
L 500.196026 61.492144 
L 501.655971 47.64891 
L 501.655971 47.64891 
" clip-path="url(#pbf0265a452)" style="fill: none; stroke-dasharray: 4.81,2.08; stroke-dashoffset: 0; stroke: #000000; stroke-width: 1.3"/>
   </g>
   <g id="line2d_79">
    <path d="M 65.132235 17.512539 
L 66.59218 31.355773 
L 68.052126 41.776999 
L 69.512072 50.125385 
L 70.972017 57.082053 
L 72.431963 63.039252 
L 73.891908 68.243653 
L 75.351854 72.860523 
L 76.8118 77.006015 
L 78.271745 80.764892 
L 81.191636 87.363208 
L 84.111528 93.013824 
L 87.031419 97.945048 
L 89.95131 102.311321 
L 92.871201 106.222003 
L 95.791093 109.757369 
L 98.710984 112.978082 
L 101.630875 115.931106 
L 104.550766 118.653537 
L 108.930603 122.368496 
L 113.31044 125.70919 
L 117.690277 128.735221 
L 122.070113 131.492766 
L 126.44995 134.01832 
L 132.289733 137.074746 
L 138.129515 139.825432 
L 143.969298 142.313309 
L 149.80908 144.572421 
L 155.648862 146.630192 
L 162.94859 148.952999 
L 170.248319 151.031322 
L 177.548047 152.893462 
L 186.30772 154.874612 
L 195.067394 156.609045 
L 203.827067 158.122047 
L 212.586741 159.433872 
L 222.80636 160.731633 
L 233.02598 161.798138 
L 243.245599 162.649213 
L 253.465218 163.296855 
L 265.144783 163.799033 
L 276.824348 164.055486 
L 288.503913 164.070524 
L 300.183478 163.8444 
L 311.863042 163.373316 
L 322.082662 162.753951 
L 332.302281 161.932592 
L 342.5219 160.897735 
L 352.741519 159.634145 
L 362.961139 158.122047 
L 371.720812 156.609045 
L 380.480486 154.874612 
L 389.24016 152.893462 
L 396.539888 151.031322 
L 403.839616 148.952999 
L 411.139344 146.630192 
L 416.979126 144.572421 
L 422.818909 142.313309 
L 428.658691 139.825432 
L 434.498474 137.074746 
L 440.338256 134.01832 
L 444.718093 131.492766 
L 449.09793 128.735221 
L 453.477766 125.70919 
L 457.857603 122.368496 
L 462.23744 118.653537 
L 465.157331 115.931106 
L 468.077223 112.978082 
L 470.997114 109.757369 
L 473.917005 106.222003 
L 476.836896 102.311321 
L 479.756787 97.945048 
L 482.676679 93.013824 
L 485.59657 87.363208 
L 487.056515 84.200904 
L 488.516461 80.764892 
L 489.976407 77.006015 
L 491.436352 72.860523 
L 492.896298 68.243653 
L 494.356243 63.039252 
L 495.816189 57.082053 
L 497.276135 50.125385 
L 498.73608 41.776999 
L 500.196026 31.355773 
L 501.655971 17.512539 
L 501.655971 17.512539 
" clip-path="url(#pbf0265a452)" style="fill: none; stroke: #000000; stroke-width: 1.3; stroke-linecap: square"/>
   </g>
   <g id="line2d_80">
    <path d="M 61.285196 354.613513 
L 61.285196 33.846312 
" clip-path="url(#pbf0265a452)" style="fill: none; stroke: #000000; stroke-opacity: 0.4; stroke-width: 0.5; stroke-linecap: square"/>
   </g>
   <g id="line2d_81">
    <path d="M 505.503011 354.613513 
L 505.503011 33.846312 
" clip-path="url(#pbf0265a452)" style="fill: none; stroke: #000000; stroke-opacity: 0.4; stroke-width: 0.5; stroke-linecap: square"/>
   </g>
   <g id="patch_3">
    <path d="M 42.05 354.613513 
L 42.05 33.846312 
" style="fill: none; stroke: #000000; stroke-width: 0.6; stroke-linejoin: miter; stroke-linecap: square"/>
   </g>
   <g id="patch_4">
    <path d="M 42.05 354.613513 
L 524.738206 354.613513 
" style="fill: none; stroke: #000000; stroke-width: 0.6; stroke-linejoin: miter; stroke-linecap: square"/>
   </g>
   <g id="text_13">
    <!-- NON-UNIFORM MINIMIZER -->
    <g transform="translate(219.791759 95.763783) scale(0.1 -0.1)">
     <defs>
      <path id="Helvetica-4e" d="M 488 4591 
L 1222 4591 
L 3541 872 
L 3541 4591 
L 4131 4591 
L 4131 0 
L 3434 0 
L 1081 3716 
L 1081 0 
L 488 0 
L 488 4591 
z
M 2269 4591 
L 2269 4591 
z
" transform="scale(0.015625)"/>
      <path id="Helvetica-4f" d="M 2469 4716 
Q 3684 4716 4269 3934 
Q 4725 3325 4725 2375 
Q 4725 1347 4203 666 
Q 3591 -134 2456 -134 
Q 1397 -134 791 566 
Q 250 1241 250 2272 
Q 250 3203 713 3866 
Q 1306 4716 2469 4716 
z
M 2531 422 
Q 3353 422 3720 1011 
Q 4088 1600 4088 2366 
Q 4088 3175 3664 3669 
Q 3241 4163 2506 4163 
Q 1794 4163 1344 3673 
Q 894 3184 894 2231 
Q 894 1469 1280 945 
Q 1666 422 2531 422 
z
M 2488 4716 
L 2488 4716 
z
" transform="scale(0.015625)"/>
      <path id="Helvetica-55" d="M 1163 4591 
L 1163 1753 
Q 1163 1253 1350 922 
Q 1628 422 2288 422 
Q 3078 422 3363 963 
Q 3516 1256 3516 1753 
L 3516 4591 
L 4147 4591 
L 4147 2013 
Q 4147 1166 3919 709 
Q 3500 -122 2338 -122 
Q 1175 -122 759 709 
Q 531 1166 531 2013 
L 531 4591 
L 1163 4591 
z
M 2341 4591 
L 2341 4591 
z
" transform="scale(0.015625)"/>
      <path id="Helvetica-49" d="M 628 4591 
L 1256 4591 
L 1256 0 
L 628 0 
L 628 4591 
z
" transform="scale(0.015625)"/>
      <path id="Helvetica-46" d="M 547 4591 
L 3731 4591 
L 3731 4028 
L 1169 4028 
L 1169 2634 
L 3422 2634 
L 3422 2088 
L 1169 2088 
L 1169 0 
L 547 0 
L 547 4591 
z
" transform="scale(0.015625)"/>
      <path id="Helvetica-52" d="M 2622 2488 
Q 3059 2488 3314 2663 
Q 3569 2838 3569 3294 
Q 3569 3784 3213 3963 
Q 3022 4056 2703 4056 
L 1184 4056 
L 1184 2488 
L 2622 2488 
z
M 563 4591 
L 2688 4591 
Q 3213 4591 3553 4438 
Q 4200 4144 4200 3353 
Q 4200 2941 4029 2678 
Q 3859 2416 3553 2256 
Q 3822 2147 3958 1969 
Q 4094 1791 4109 1391 
L 4131 775 
Q 4141 513 4175 384 
Q 4231 166 4375 103 
L 4375 0 
L 3613 0 
Q 3581 59 3562 153 
Q 3544 247 3531 516 
L 3494 1281 
Q 3472 1731 3159 1884 
Q 2981 1969 2600 1969 
L 1184 1969 
L 1184 0 
L 563 0 
L 563 4591 
z
" transform="scale(0.015625)"/>
      <path id="Helvetica-4d" d="M 472 4591 
L 1363 4591 
L 2681 709 
L 3991 4591 
L 4872 4591 
L 4872 0 
L 4281 0 
L 4281 2709 
Q 4281 2850 4287 3175 
Q 4294 3500 4294 3872 
L 2984 0 
L 2369 0 
L 1050 3872 
L 1050 3731 
Q 1050 3563 1058 3217 
Q 1066 2872 1066 2709 
L 1066 0 
L 472 0 
L 472 4591 
z
" transform="scale(0.015625)"/>
      <path id="Helvetica-5a" d="M 147 516 
L 2963 4044 
L 353 4044 
L 353 4591 
L 3763 4591 
L 3763 4056 
L 931 547 
L 3763 547 
L 3763 0 
L 147 0 
L 147 516 
z
M 2059 4591 
L 2059 4591 
z
" transform="scale(0.015625)"/>
      <path id="Helvetica-45" d="M 547 4591 
L 3894 4591 
L 3894 4028 
L 1153 4028 
L 1153 2634 
L 3688 2634 
L 3688 2103 
L 1153 2103 
L 1153 547 
L 3941 547 
L 3941 0 
L 547 0 
L 547 4591 
z
M 2244 4591 
L 2244 4591 
z
" transform="scale(0.015625)"/>
     </defs>
     <use xlink:href="#Helvetica-4e"/>
     <use xlink:href="#Helvetica-4f" transform="translate(72.216797 0)"/>
     <use xlink:href="#Helvetica-4e" transform="translate(150 0)"/>
     <use xlink:href="#Helvetica-2d" transform="translate(222.216797 0)"/>
     <use xlink:href="#Helvetica-55" transform="translate(255.517578 0)"/>
     <use xlink:href="#Helvetica-4e" transform="translate(327.734375 0)"/>
     <use xlink:href="#Helvetica-49" transform="translate(399.951172 0)"/>
     <use xlink:href="#Helvetica-46" transform="translate(427.734375 0)"/>
     <use xlink:href="#Helvetica-4f" transform="translate(488.818359 0)"/>
     <use xlink:href="#Helvetica-52" transform="translate(566.601562 0)"/>
     <use xlink:href="#Helvetica-4d" transform="translate(638.818359 0)"/>
     <use xlink:href="#Helvetica-20" transform="translate(722.119141 0)"/>
     <use xlink:href="#Helvetica-4d" transform="translate(749.902344 0)"/>
     <use xlink:href="#Helvetica-49" transform="translate(833.203125 0)"/>
     <use xlink:href="#Helvetica-4e" transform="translate(860.986328 0)"/>
     <use xlink:href="#Helvetica-49" transform="translate(933.203125 0)"/>
     <use xlink:href="#Helvetica-4d" transform="translate(960.986328 0)"/>
     <use xlink:href="#Helvetica-49" transform="translate(1044.287109 0)"/>
     <use xlink:href="#Helvetica-5a" transform="translate(1072.070312 0)"/>
     <use xlink:href="#Helvetica-45" transform="translate(1133.154297 0)"/>
     <use xlink:href="#Helvetica-52" transform="translate(1199.853516 0)"/>
    </g>
    <!-- (formation regime) -->
    <g transform="translate(242.552697 106.596908) scale(0.1 -0.1)">
     <defs>
      <path id="Helvetica-28" d="M 1894 4666 
Q 1403 3713 1256 3263 
Q 1034 2578 1034 1681 
Q 1034 775 1288 25 
Q 1444 -438 1903 -1306 
L 1525 -1306 
Q 1069 -594 959 -397 
Q 850 -200 722 138 
Q 547 600 478 1125 
Q 444 1397 444 1644 
Q 444 2569 734 3291 
Q 919 3750 1503 4666 
L 1894 4666 
z
" transform="scale(0.015625)"/>
      <path id="Helvetica-67" d="M 1594 3406 
Q 1988 3406 2281 3213 
Q 2441 3103 2606 2894 
L 2606 3316 
L 3125 3316 
L 3125 272 
Q 3125 -366 2938 -734 
Q 2588 -1416 1616 -1416 
Q 1075 -1416 706 -1173 
Q 338 -931 294 -416 
L 866 -416 
Q 906 -641 1028 -763 
Q 1219 -950 1628 -950 
Q 2275 -950 2475 -494 
Q 2594 -225 2584 466 
Q 2416 209 2178 84 
Q 1941 -41 1550 -41 
Q 1006 -41 598 345 
Q 191 731 191 1622 
Q 191 2463 602 2934 
Q 1013 3406 1594 3406 
z
M 2606 1688 
Q 2606 2309 2350 2609 
Q 2094 2909 1697 2909 
Q 1103 2909 884 2353 
Q 769 2056 769 1575 
Q 769 1009 998 714 
Q 1228 419 1616 419 
Q 2222 419 2469 966 
Q 2606 1275 2606 1688 
z
M 1659 3428 
L 1659 3428 
z
" transform="scale(0.015625)"/>
      <path id="Helvetica-29" d="M 222 -1306 
Q 719 -338 863 106 
Q 1081 778 1081 1681 
Q 1081 2584 828 3334 
Q 672 3797 213 4666 
L 591 4666 
Q 1072 3897 1173 3717 
Q 1275 3538 1394 3222 
Q 1544 2831 1608 2450 
Q 1672 2069 1672 1716 
Q 1672 791 1378 66 
Q 1194 -400 613 -1306 
L 222 -1306 
z
" transform="scale(0.015625)"/>
     </defs>
     <use xlink:href="#Helvetica-28"/>
     <use xlink:href="#Helvetica-66" transform="translate(33.300781 0)"/>
     <use xlink:href="#Helvetica-6f" transform="translate(61.083984 0)"/>
     <use xlink:href="#Helvetica-72" transform="translate(116.699219 0)"/>
     <use xlink:href="#Helvetica-6d" transform="translate(150 0)"/>
     <use xlink:href="#Helvetica-61" transform="translate(233.300781 0)"/>
     <use xlink:href="#Helvetica-74" transform="translate(288.916016 0)"/>
     <use xlink:href="#Helvetica-69" transform="translate(316.699219 0)"/>
     <use xlink:href="#Helvetica-6f" transform="translate(338.916016 0)"/>
     <use xlink:href="#Helvetica-6e" transform="translate(394.53125 0)"/>
     <use xlink:href="#Helvetica-20" transform="translate(450.146484 0)"/>
     <use xlink:href="#Helvetica-72" transform="translate(477.929688 0)"/>
     <use xlink:href="#Helvetica-65" transform="translate(511.230469 0)"/>
     <use xlink:href="#Helvetica-67" transform="translate(566.845703 0)"/>
     <use xlink:href="#Helvetica-69" transform="translate(622.460938 0)"/>
     <use xlink:href="#Helvetica-6d" transform="translate(644.677734 0)"/>
     <use xlink:href="#Helvetica-65" transform="translate(727.978516 0)"/>
     <use xlink:href="#Helvetica-29" transform="translate(783.59375 0)"/>
    </g>
   </g>
   <g id="text_14">
    <!-- UNIFORM MINIMIZER -->
    <g transform="translate(232.567541 296.075811) scale(0.1 -0.1)">
     <use xlink:href="#Helvetica-55"/>
     <use xlink:href="#Helvetica-4e" transform="translate(72.216797 0)"/>
     <use xlink:href="#Helvetica-49" transform="translate(144.433594 0)"/>
     <use xlink:href="#Helvetica-46" transform="translate(172.216797 0)"/>
     <use xlink:href="#Helvetica-4f" transform="translate(233.300781 0)"/>
     <use xlink:href="#Helvetica-52" transform="translate(311.083984 0)"/>
     <use xlink:href="#Helvetica-4d" transform="translate(383.300781 0)"/>
     <use xlink:href="#Helvetica-20" transform="translate(466.601562 0)"/>
     <use xlink:href="#Helvetica-4d" transform="translate(494.384766 0)"/>
     <use xlink:href="#Helvetica-49" transform="translate(577.685547 0)"/>
     <use xlink:href="#Helvetica-4e" transform="translate(605.46875 0)"/>
     <use xlink:href="#Helvetica-49" transform="translate(677.685547 0)"/>
     <use xlink:href="#Helvetica-4d" transform="translate(705.46875 0)"/>
     <use xlink:href="#Helvetica-49" transform="translate(788.769531 0)"/>
     <use xlink:href="#Helvetica-5a" transform="translate(816.552734 0)"/>
     <use xlink:href="#Helvetica-45" transform="translate(877.636719 0)"/>
     <use xlink:href="#Helvetica-52" transform="translate(944.335938 0)"/>
    </g>
    <!-- (no formation, below threshold) -->
    <g transform="translate(214.476134 306.856436) scale(0.1 -0.1)">
     <defs>
      <path id="Helvetica-2c" d="M 531 -653 
Q 747 -616 834 -350 
Q 881 -209 881 -78 
Q 881 -56 879 -39 
Q 878 -22 872 0 
L 531 0 
L 531 681 
L 1200 681 
L 1200 50 
Q 1200 -322 1050 -603 
Q 900 -884 531 -950 
L 531 -653 
z
" transform="scale(0.015625)"/>
      <path id="Helvetica-62" d="M 369 4606 
L 916 4606 
L 916 2941 
Q 1100 3181 1356 3307 
Q 1613 3434 1913 3434 
Q 2538 3434 2927 3004 
Q 3316 2575 3316 1738 
Q 3316 944 2931 419 
Q 2547 -106 1866 -106 
Q 1484 -106 1222 78 
Q 1066 188 888 428 
L 888 0 
L 369 0 
L 369 4606 
z
M 1831 391 
Q 2288 391 2514 753 
Q 2741 1116 2741 1709 
Q 2741 2238 2514 2584 
Q 2288 2931 1847 2931 
Q 1463 2931 1173 2647 
Q 884 2363 884 1709 
Q 884 1238 1003 944 
Q 1225 391 1831 391 
z
" transform="scale(0.015625)"/>
      <path id="Helvetica-77" d="M 672 3347 
L 1316 709 
L 1969 3347 
L 2600 3347 
L 3256 725 
L 3941 3347 
L 4503 3347 
L 3531 0 
L 2947 0 
L 2266 2591 
L 1606 0 
L 1022 0 
L 56 3347 
L 672 3347 
z
" transform="scale(0.015625)"/>
      <path id="Helvetica-64" d="M 769 1634 
Q 769 1097 997 734 
Q 1225 372 1728 372 
Q 2119 372 2370 708 
Q 2622 1044 2622 1672 
Q 2622 2306 2362 2611 
Q 2103 2916 1722 2916 
Q 1297 2916 1033 2591 
Q 769 2266 769 1634 
z
M 1616 3406 
Q 2000 3406 2259 3244 
Q 2409 3150 2600 2916 
L 2600 4606 
L 3141 4606 
L 3141 0 
L 2634 0 
L 2634 466 
Q 2438 156 2169 18 
Q 1900 -119 1553 -119 
Q 994 -119 584 351 
Q 175 822 175 1603 
Q 175 2334 548 2870 
Q 922 3406 1616 3406 
z
" transform="scale(0.015625)"/>
     </defs>
     <use xlink:href="#Helvetica-28"/>
     <use xlink:href="#Helvetica-6e" transform="translate(33.300781 0)"/>
     <use xlink:href="#Helvetica-6f" transform="translate(88.916016 0)"/>
     <use xlink:href="#Helvetica-20" transform="translate(144.53125 0)"/>
     <use xlink:href="#Helvetica-66" transform="translate(172.314453 0)"/>
     <use xlink:href="#Helvetica-6f" transform="translate(200.097656 0)"/>
     <use xlink:href="#Helvetica-72" transform="translate(255.712891 0)"/>
     <use xlink:href="#Helvetica-6d" transform="translate(289.013672 0)"/>
     <use xlink:href="#Helvetica-61" transform="translate(372.314453 0)"/>
     <use xlink:href="#Helvetica-74" transform="translate(427.929688 0)"/>
     <use xlink:href="#Helvetica-69" transform="translate(455.712891 0)"/>
     <use xlink:href="#Helvetica-6f" transform="translate(477.929688 0)"/>
     <use xlink:href="#Helvetica-6e" transform="translate(533.544922 0)"/>
     <use xlink:href="#Helvetica-2c" transform="translate(589.160156 0)"/>
     <use xlink:href="#Helvetica-20" transform="translate(616.943359 0)"/>
     <use xlink:href="#Helvetica-62" transform="translate(644.726562 0)"/>
     <use xlink:href="#Helvetica-65" transform="translate(700.341797 0)"/>
     <use xlink:href="#Helvetica-6c" transform="translate(755.957031 0)"/>
     <use xlink:href="#Helvetica-6f" transform="translate(778.173828 0)"/>
     <use xlink:href="#Helvetica-77" transform="translate(833.789062 0)"/>
     <use xlink:href="#Helvetica-20" transform="translate(906.005859 0)"/>
     <use xlink:href="#Helvetica-74" transform="translate(933.789062 0)"/>
     <use xlink:href="#Helvetica-68" transform="translate(961.572266 0)"/>
     <use xlink:href="#Helvetica-72" transform="translate(1017.1875 0)"/>
     <use xlink:href="#Helvetica-65" transform="translate(1050.488281 0)"/>
     <use xlink:href="#Helvetica-73" transform="translate(1106.103516 0)"/>
     <use xlink:href="#Helvetica-68" transform="translate(1156.103516 0)"/>
     <use xlink:href="#Helvetica-6f" transform="translate(1211.71875 0)"/>
     <use xlink:href="#Helvetica-6c" transform="translate(1267.333984 0)"/>
     <use xlink:href="#Helvetica-64" transform="translate(1289.550781 0)"/>
     <use xlink:href="#Helvetica-29" transform="translate(1345.166016 0)"/>
    </g>
   </g>
   <g id="text_15">
    <!-- $c_-$ -->
    <g transform="translate(54.085196 37.567561) scale(0.1 -0.1)">
     <defs>
      <path id="DejaVuSans-2212" d="M 678 2272 
L 4684 2272 
L 4684 1741 
L 678 1741 
L 678 2272 
z
" transform="scale(0.015625)"/>
     </defs>
     <use xlink:href="#DejaVuSans-Oblique-63"/>
     <use xlink:href="#DejaVuSans-2212" transform="translate(68.618164 -16.40625) scale(0.7)"/>
    </g>
   </g>
   <g id="text_16">
    <!-- $c_+$ -->
    <g transform="translate(498.303011 37.567561) scale(0.1 -0.1)">
     <defs>
      <path id="DejaVuSans-2b" d="M 2944 4013 
L 2944 2272 
L 4684 2272 
L 4684 1741 
L 2944 1741 
L 2944 0 
L 2419 0 
L 2419 1741 
L 678 1741 
L 678 2272 
L 2419 2272 
L 2419 4013 
L 2944 4013 
z
" transform="scale(0.015625)"/>
     </defs>
     <use xlink:href="#DejaVuSans-Oblique-63"/>
     <use xlink:href="#DejaVuSans-2b" transform="translate(68.618164 -16.40625) scale(0.7)"/>
    </g>
   </g>
   <g id="text_17">
    <!-- Phase transition threshold  (Theorem T8-Core) -->
    <g transform="translate(169.382541 15.2575) scale(0.11 -0.11)">
     <defs>
      <path id="Helvetica-50" d="M 547 4591 
L 2613 4591 
Q 3225 4591 3600 4245 
Q 3975 3900 3975 3275 
Q 3975 2738 3640 2339 
Q 3306 1941 2613 1941 
L 1169 1941 
L 1169 0 
L 547 0 
L 547 4591 
z
M 3347 3272 
Q 3347 3778 2972 3959 
Q 2766 4056 2406 4056 
L 1169 4056 
L 1169 2466 
L 2406 2466 
Q 2825 2466 3086 2644 
Q 3347 2822 3347 3272 
z
" transform="scale(0.015625)"/>
      <path id="Helvetica-54" d="M 3828 4591 
L 3828 4044 
L 2281 4044 
L 2281 0 
L 1650 0 
L 1650 4044 
L 103 4044 
L 103 4591 
L 3828 4591 
z
" transform="scale(0.015625)"/>
      <path id="Helvetica-43" d="M 2422 4716 
Q 3294 4716 3775 4256 
Q 4256 3797 4309 3213 
L 3703 3213 
Q 3600 3656 3292 3915 
Q 2984 4175 2428 4175 
Q 1750 4175 1333 3698 
Q 916 3222 916 2238 
Q 916 1431 1292 929 
Q 1669 428 2416 428 
Q 3103 428 3463 956 
Q 3653 1234 3747 1688 
L 4353 1688 
Q 4272 963 3816 472 
Q 3269 -119 2341 -119 
Q 1541 -119 997 366 
Q 281 1006 281 2344 
Q 281 3359 819 4009 
Q 1400 4716 2422 4716 
z
M 2297 4716 
L 2297 4716 
z
" transform="scale(0.015625)"/>
     </defs>
     <use xlink:href="#Helvetica-50"/>
     <use xlink:href="#Helvetica-68" transform="translate(66.699219 0)"/>
     <use xlink:href="#Helvetica-61" transform="translate(122.314453 0)"/>
     <use xlink:href="#Helvetica-73" transform="translate(177.929688 0)"/>
     <use xlink:href="#Helvetica-65" transform="translate(227.929688 0)"/>
     <use xlink:href="#Helvetica-20" transform="translate(283.544922 0)"/>
     <use xlink:href="#Helvetica-74" transform="translate(311.328125 0)"/>
     <use xlink:href="#Helvetica-72" transform="translate(339.111328 0)"/>
     <use xlink:href="#Helvetica-61" transform="translate(372.412109 0)"/>
     <use xlink:href="#Helvetica-6e" transform="translate(428.027344 0)"/>
     <use xlink:href="#Helvetica-73" transform="translate(483.642578 0)"/>
     <use xlink:href="#Helvetica-69" transform="translate(533.642578 0)"/>
     <use xlink:href="#Helvetica-74" transform="translate(555.859375 0)"/>
     <use xlink:href="#Helvetica-69" transform="translate(583.642578 0)"/>
     <use xlink:href="#Helvetica-6f" transform="translate(605.859375 0)"/>
     <use xlink:href="#Helvetica-6e" transform="translate(661.474609 0)"/>
     <use xlink:href="#Helvetica-20" transform="translate(717.089844 0)"/>
     <use xlink:href="#Helvetica-74" transform="translate(744.873047 0)"/>
     <use xlink:href="#Helvetica-68" transform="translate(772.65625 0)"/>
     <use xlink:href="#Helvetica-72" transform="translate(828.271484 0)"/>
     <use xlink:href="#Helvetica-65" transform="translate(861.572266 0)"/>
     <use xlink:href="#Helvetica-73" transform="translate(917.1875 0)"/>
     <use xlink:href="#Helvetica-68" transform="translate(967.1875 0)"/>
     <use xlink:href="#Helvetica-6f" transform="translate(1022.802734 0)"/>
     <use xlink:href="#Helvetica-6c" transform="translate(1078.417969 0)"/>
     <use xlink:href="#Helvetica-64" transform="translate(1100.634766 0)"/>
     <use xlink:href="#Helvetica-20" transform="translate(1156.25 0)"/>
     <use xlink:href="#Helvetica-20" transform="translate(1184.033203 0)"/>
     <use xlink:href="#Helvetica-28" transform="translate(1211.816406 0)"/>
     <use xlink:href="#Helvetica-54" transform="translate(1245.117188 0)"/>
     <use xlink:href="#Helvetica-68" transform="translate(1306.201172 0)"/>
     <use xlink:href="#Helvetica-65" transform="translate(1361.816406 0)"/>
     <use xlink:href="#Helvetica-6f" transform="translate(1417.431641 0)"/>
     <use xlink:href="#Helvetica-72" transform="translate(1473.046875 0)"/>
     <use xlink:href="#Helvetica-65" transform="translate(1506.347656 0)"/>
     <use xlink:href="#Helvetica-6d" transform="translate(1561.962891 0)"/>
     <use xlink:href="#Helvetica-20" transform="translate(1645.263672 0)"/>
     <use xlink:href="#Helvetica-54" transform="translate(1673.046875 0)"/>
     <use xlink:href="#Helvetica-38" transform="translate(1734.130859 0)"/>
     <use xlink:href="#Helvetica-2d" transform="translate(1789.746094 0)"/>
     <use xlink:href="#Helvetica-43" transform="translate(1823.046875 0)"/>
     <use xlink:href="#Helvetica-6f" transform="translate(1895.263672 0)"/>
     <use xlink:href="#Helvetica-72" transform="translate(1950.878906 0)"/>
     <use xlink:href="#Helvetica-65" transform="translate(1984.179688 0)"/>
     <use xlink:href="#Helvetica-29" transform="translate(2039.794922 0)"/>
    </g>
    <!-- $\beta/\alpha  &gt;  4\lambda_2 / |W^{\prime\prime}(c)|$  (spectral universality on connected graphs) -->
    <g transform="translate(129.394103 27.846312) scale(0.11 -0.11)">
     <defs>
      <path id="DejaVuSans-3e" d="M 678 3150 
L 678 3719 
L 4684 2266 
L 4684 1747 
L 678 294 
L 678 863 
L 3897 2003 
L 678 3150 
z
" transform="scale(0.015625)"/>
      <path id="DejaVuSans-34" d="M 2419 4116 
L 825 1625 
L 2419 1625 
L 2419 4116 
z
M 2253 4666 
L 3047 4666 
L 3047 1625 
L 3713 1625 
L 3713 1100 
L 3047 1100 
L 3047 0 
L 2419 0 
L 2419 1100 
L 313 1100 
L 313 1709 
L 2253 4666 
z
" transform="scale(0.015625)"/>
      <path id="DejaVuSans-Oblique-3bb" d="M 2350 4316 
L 3125 0 
L 2516 0 
L 2038 2588 
L 328 0 
L -281 0 
L 1903 3356 
L 1794 3975 
Q 1725 4369 1391 4369 
L 1091 4369 
L 1184 4863 
L 1550 4856 
Q 2253 4847 2350 4316 
z
" transform="scale(0.015625)"/>
      <path id="DejaVuSans-32" d="M 1228 531 
L 3431 531 
L 3431 0 
L 469 0 
L 469 531 
Q 828 903 1448 1529 
Q 2069 2156 2228 2338 
Q 2531 2678 2651 2914 
Q 2772 3150 2772 3378 
Q 2772 3750 2511 3984 
Q 2250 4219 1831 4219 
Q 1534 4219 1204 4116 
Q 875 4013 500 3803 
L 500 4441 
Q 881 4594 1212 4672 
Q 1544 4750 1819 4750 
Q 2544 4750 2975 4387 
Q 3406 4025 3406 3419 
Q 3406 3131 3298 2873 
Q 3191 2616 2906 2266 
Q 2828 2175 2409 1742 
Q 1991 1309 1228 531 
z
" transform="scale(0.015625)"/>
      <path id="DejaVuSans-7c" d="M 1344 4891 
L 1344 -1509 
L 813 -1509 
L 813 4891 
L 1344 4891 
z
" transform="scale(0.015625)"/>
      <path id="DejaVuSans-Oblique-57" d="M 616 4666 
L 1228 4666 
L 1453 697 
L 3213 4666 
L 3916 4666 
L 4147 697 
L 5888 4666 
L 6528 4666 
L 4453 0 
L 3659 0 
L 3444 3891 
L 1697 0 
L 903 0 
L 616 4666 
z
" transform="scale(0.015625)"/>
      <path id="Cmsy10-30" d="M 225 347 
Q 184 359 184 409 
L 966 3316 
Q 1003 3434 1093 3506 
Q 1184 3578 1300 3578 
Q 1450 3578 1564 3479 
Q 1678 3381 1678 3231 
Q 1678 3166 1644 3084 
L 488 319 
Q 466 275 428 275 
Q 394 275 320 306 
Q 247 338 225 347 
z
" transform="scale(0.015625)"/>
      <path id="DejaVuSans-28" d="M 1984 4856 
Q 1566 4138 1362 3434 
Q 1159 2731 1159 2009 
Q 1159 1288 1364 580 
Q 1569 -128 1984 -844 
L 1484 -844 
Q 1016 -109 783 600 
Q 550 1309 550 2009 
Q 550 2706 781 3412 
Q 1013 4119 1484 4856 
L 1984 4856 
z
" transform="scale(0.015625)"/>
      <path id="DejaVuSans-29" d="M 513 4856 
L 1013 4856 
Q 1481 4119 1714 3412 
Q 1947 2706 1947 2009 
Q 1947 1309 1714 600 
Q 1481 -109 1013 -844 
L 513 -844 
Q 928 -128 1133 580 
Q 1338 1288 1338 2009 
Q 1338 2731 1133 3434 
Q 928 4138 513 4856 
z
" transform="scale(0.015625)"/>
      <path id="Helvetica-79" d="M 2503 3347 
L 3125 3347 
Q 3006 3025 2597 1878 
Q 2291 1016 2084 472 
Q 1597 -809 1397 -1090 
Q 1197 -1372 709 -1372 
Q 591 -1372 527 -1362 
Q 463 -1353 369 -1328 
L 369 -816 
Q 516 -856 581 -865 
Q 647 -875 697 -875 
Q 853 -875 926 -823 
Q 1000 -772 1050 -697 
Q 1066 -672 1162 -440 
Q 1259 -209 1303 -97 
L 66 3347 
L 703 3347 
L 1600 622 
L 2503 3347 
z
M 1597 3428 
L 1597 3428 
z
" transform="scale(0.015625)"/>
     </defs>
     <use xlink:href="#DejaVuSans-Oblique-3b2" transform="translate(0 0.584375)"/>
     <use xlink:href="#DejaVuSans-2f" transform="translate(63.818359 0.584375)"/>
     <use xlink:href="#DejaVuSans-Oblique-3b1" transform="translate(97.509766 0.584375)"/>
     <use xlink:href="#DejaVuSans-3e" transform="translate(182.910156 0.584375)"/>
     <use xlink:href="#DejaVuSans-34" transform="translate(286.181641 0.584375)"/>
     <use xlink:href="#DejaVuSans-Oblique-3bb" transform="translate(349.804688 0.584375)"/>
     <use xlink:href="#DejaVuSans-32" transform="translate(408.984375 -15.821875) scale(0.7)"/>
     <use xlink:href="#DejaVuSans-2f" transform="translate(456.254883 0.584375)"/>
     <use xlink:href="#DejaVuSans-7c" transform="translate(489.946289 0.584375)"/>
     <use xlink:href="#DejaVuSans-Oblique-57" transform="translate(523.637695 0.584375)"/>
     <use xlink:href="#Cmsy10-30" transform="translate(629.531419 38.865625) scale(0.7)"/>
     <use xlink:href="#Cmsy10-30" transform="translate(648.774583 38.865625) scale(0.7)"/>
     <use xlink:href="#DejaVuSans-28" transform="translate(670.752122 0.584375)"/>
     <use xlink:href="#DejaVuSans-Oblique-63" transform="translate(709.765794 0.584375)"/>
     <use xlink:href="#DejaVuSans-29" transform="translate(764.746263 0.584375)"/>
     <use xlink:href="#DejaVuSans-7c" transform="translate(803.759935 0.584375)"/>
     <use xlink:href="#Helvetica-20" transform="translate(837.451341 0.584375)"/>
     <use xlink:href="#Helvetica-20" transform="translate(865.234544 0.584375)"/>
     <use xlink:href="#Helvetica-28" transform="translate(893.017747 0.584375)"/>
     <use xlink:href="#Helvetica-73" transform="translate(926.318529 0.584375)"/>
     <use xlink:href="#Helvetica-70" transform="translate(976.318529 0.584375)"/>
     <use xlink:href="#Helvetica-65" transform="translate(1031.933763 0.584375)"/>
     <use xlink:href="#Helvetica-63" transform="translate(1087.548997 0.584375)"/>
     <use xlink:href="#Helvetica-74" transform="translate(1137.548997 0.584375)"/>
     <use xlink:href="#Helvetica-72" transform="translate(1165.332201 0.584375)"/>
     <use xlink:href="#Helvetica-61" transform="translate(1198.632982 0.584375)"/>
     <use xlink:href="#Helvetica-6c" transform="translate(1254.248216 0.584375)"/>
     <use xlink:href="#Helvetica-20" transform="translate(1276.465013 0.584375)"/>
     <use xlink:href="#Helvetica-75" transform="translate(1304.248216 0.584375)"/>
     <use xlink:href="#Helvetica-6e" transform="translate(1359.863451 0.584375)"/>
     <use xlink:href="#Helvetica-69" transform="translate(1415.478685 0.584375)"/>
     <use xlink:href="#Helvetica-76" transform="translate(1437.695482 0.584375)"/>
     <use xlink:href="#Helvetica-65" transform="translate(1487.695482 0.584375)"/>
     <use xlink:href="#Helvetica-72" transform="translate(1543.310716 0.584375)"/>
     <use xlink:href="#Helvetica-73" transform="translate(1576.611497 0.584375)"/>
     <use xlink:href="#Helvetica-61" transform="translate(1626.611497 0.584375)"/>
     <use xlink:href="#Helvetica-6c" transform="translate(1682.226732 0.584375)"/>
     <use xlink:href="#Helvetica-69" transform="translate(1704.443529 0.584375)"/>
     <use xlink:href="#Helvetica-74" transform="translate(1726.660326 0.584375)"/>
     <use xlink:href="#Helvetica-79" transform="translate(1754.443529 0.584375)"/>
     <use xlink:href="#Helvetica-20" transform="translate(1804.443529 0.584375)"/>
     <use xlink:href="#Helvetica-6f" transform="translate(1832.226732 0.584375)"/>
     <use xlink:href="#Helvetica-6e" transform="translate(1887.841966 0.584375)"/>
     <use xlink:href="#Helvetica-20" transform="translate(1943.457201 0.584375)"/>
     <use xlink:href="#Helvetica-63" transform="translate(1971.240404 0.584375)"/>
     <use xlink:href="#Helvetica-6f" transform="translate(2021.240404 0.584375)"/>
     <use xlink:href="#Helvetica-6e" transform="translate(2076.855638 0.584375)"/>
     <use xlink:href="#Helvetica-6e" transform="translate(2132.470872 0.584375)"/>
     <use xlink:href="#Helvetica-65" transform="translate(2188.086107 0.584375)"/>
     <use xlink:href="#Helvetica-63" transform="translate(2243.701341 0.584375)"/>
     <use xlink:href="#Helvetica-74" transform="translate(2293.701341 0.584375)"/>
     <use xlink:href="#Helvetica-65" transform="translate(2321.484544 0.584375)"/>
     <use xlink:href="#Helvetica-64" transform="translate(2377.099779 0.584375)"/>
     <use xlink:href="#Helvetica-20" transform="translate(2432.715013 0.584375)"/>
     <use xlink:href="#Helvetica-67" transform="translate(2460.498216 0.584375)"/>
     <use xlink:href="#Helvetica-72" transform="translate(2516.113451 0.584375)"/>
     <use xlink:href="#Helvetica-61" transform="translate(2549.414232 0.584375)"/>
     <use xlink:href="#Helvetica-70" transform="translate(2605.029466 0.584375)"/>
     <use xlink:href="#Helvetica-68" transform="translate(2660.644701 0.584375)"/>
     <use xlink:href="#Helvetica-73" transform="translate(2716.259935 0.584375)"/>
     <use xlink:href="#Helvetica-29" transform="translate(2766.259935 0.584375)"/>
    </g>
   </g>
   <g id="legend_1">
    <g id="patch_5">
     <path d="M 193.799103 81.276312 
L 372.989103 81.276312 
L 372.989103 38.346312 
L 193.799103 38.346312 
z
" style="fill: #ffffff; stroke: #000000; stroke-linejoin: miter"/>
    </g>
    <g id="line2d_82">
     <path d="M 197.399103 45.636312 
L 206.399103 45.636312 
L 215.399103 45.636312 
" style="fill: none; stroke-dasharray: 1.3,2.145; stroke-dashoffset: 0; stroke: #000000; stroke-width: 1.3"/>
    </g>
    <g id="text_18">
     <!-- dense grid graph,  $\lambda_2 = 0.10$ -->
     <g transform="translate(222.599103 48.786312) scale(0.09 -0.09)">
      <defs>
       <path id="DejaVuSans-30" d="M 2034 4250 
Q 1547 4250 1301 3770 
Q 1056 3291 1056 2328 
Q 1056 1369 1301 889 
Q 1547 409 2034 409 
Q 2525 409 2770 889 
Q 3016 1369 3016 2328 
Q 3016 3291 2770 3770 
Q 2525 4250 2034 4250 
z
M 2034 4750 
Q 2819 4750 3233 4129 
Q 3647 3509 3647 2328 
Q 3647 1150 3233 529 
Q 2819 -91 2034 -91 
Q 1250 -91 836 529 
Q 422 1150 422 2328 
Q 422 3509 836 4129 
Q 1250 4750 2034 4750 
z
" transform="scale(0.015625)"/>
       <path id="DejaVuSans-2e" d="M 684 794 
L 1344 794 
L 1344 0 
L 684 0 
L 684 794 
z
" transform="scale(0.015625)"/>
       <path id="DejaVuSans-31" d="M 794 531 
L 1825 531 
L 1825 4091 
L 703 3866 
L 703 4441 
L 1819 4666 
L 2450 4666 
L 2450 531 
L 3481 531 
L 3481 0 
L 794 0 
L 794 531 
z
" transform="scale(0.015625)"/>
      </defs>
      <use xlink:href="#Helvetica-64" transform="translate(0 0.015625)"/>
      <use xlink:href="#Helvetica-65" transform="translate(55.615234 0.015625)"/>
      <use xlink:href="#Helvetica-6e" transform="translate(111.230469 0.015625)"/>
      <use xlink:href="#Helvetica-73" transform="translate(166.845703 0.015625)"/>
      <use xlink:href="#Helvetica-65" transform="translate(216.845703 0.015625)"/>
      <use xlink:href="#Helvetica-20" transform="translate(272.460938 0.015625)"/>
      <use xlink:href="#Helvetica-67" transform="translate(300.244141 0.015625)"/>
      <use xlink:href="#Helvetica-72" transform="translate(355.859375 0.015625)"/>
      <use xlink:href="#Helvetica-69" transform="translate(389.160156 0.015625)"/>
      <use xlink:href="#Helvetica-64" transform="translate(411.376953 0.015625)"/>
      <use xlink:href="#Helvetica-20" transform="translate(466.992188 0.015625)"/>
      <use xlink:href="#Helvetica-67" transform="translate(494.775391 0.015625)"/>
      <use xlink:href="#Helvetica-72" transform="translate(550.390625 0.015625)"/>
      <use xlink:href="#Helvetica-61" transform="translate(583.691406 0.015625)"/>
      <use xlink:href="#Helvetica-70" transform="translate(639.306641 0.015625)"/>
      <use xlink:href="#Helvetica-68" transform="translate(694.921875 0.015625)"/>
      <use xlink:href="#Helvetica-2c" transform="translate(750.537109 0.015625)"/>
      <use xlink:href="#Helvetica-20" transform="translate(778.320312 0.015625)"/>
      <use xlink:href="#Helvetica-20" transform="translate(806.103516 0.015625)"/>
      <use xlink:href="#DejaVuSans-Oblique-3bb" transform="translate(833.886719 0.015625)"/>
      <use xlink:href="#DejaVuSans-32" transform="translate(893.066406 -16.390625) scale(0.7)"/>
      <use xlink:href="#DejaVuSans-3d" transform="translate(959.819336 0.015625)"/>
      <use xlink:href="#DejaVuSans-30" transform="translate(1063.09082 0.015625)"/>
      <use xlink:href="#DejaVuSans-2e" transform="translate(1126.713867 0.015625)"/>
      <use xlink:href="#DejaVuSans-31" transform="translate(1158.500977 0.015625)"/>
      <use xlink:href="#DejaVuSans-30" transform="translate(1222.124023 0.015625)"/>
     </g>
    </g>
    <g id="line2d_83">
     <path d="M 197.399103 59.046312 
L 206.399103 59.046312 
L 215.399103 59.046312 
" style="fill: none; stroke-dasharray: 4.81,2.08; stroke-dashoffset: 0; stroke: #000000; stroke-width: 1.3"/>
    </g>
    <g id="text_19">
     <!-- bounded-diameter graph,  $\lambda_2 = 0.50$ -->
     <g transform="translate(222.599103 62.196312) scale(0.09 -0.09)">
      <defs>
       <path id="DejaVuSans-35" d="M 691 4666 
L 3169 4666 
L 3169 4134 
L 1269 4134 
L 1269 2991 
Q 1406 3038 1543 3061 
Q 1681 3084 1819 3084 
Q 2600 3084 3056 2656 
Q 3513 2228 3513 1497 
Q 3513 744 3044 326 
Q 2575 -91 1722 -91 
Q 1428 -91 1123 -41 
Q 819 9 494 109 
L 494 744 
Q 775 591 1075 516 
Q 1375 441 1709 441 
Q 2250 441 2565 725 
Q 2881 1009 2881 1497 
Q 2881 1984 2565 2268 
Q 2250 2553 1709 2553 
Q 1456 2553 1204 2497 
Q 953 2441 691 2322 
L 691 4666 
z
" transform="scale(0.015625)"/>
      </defs>
      <use xlink:href="#Helvetica-62" transform="translate(0 0.015625)"/>
      <use xlink:href="#Helvetica-6f" transform="translate(55.615234 0.015625)"/>
      <use xlink:href="#Helvetica-75" transform="translate(111.230469 0.015625)"/>
      <use xlink:href="#Helvetica-6e" transform="translate(166.845703 0.015625)"/>
      <use xlink:href="#Helvetica-64" transform="translate(222.460938 0.015625)"/>
      <use xlink:href="#Helvetica-65" transform="translate(278.076172 0.015625)"/>
      <use xlink:href="#Helvetica-64" transform="translate(333.691406 0.015625)"/>
      <use xlink:href="#Helvetica-2d" transform="translate(389.306641 0.015625)"/>
      <use xlink:href="#Helvetica-64" transform="translate(422.607422 0.015625)"/>
      <use xlink:href="#Helvetica-69" transform="translate(478.222656 0.015625)"/>
      <use xlink:href="#Helvetica-61" transform="translate(500.439453 0.015625)"/>
      <use xlink:href="#Helvetica-6d" transform="translate(556.054688 0.015625)"/>
      <use xlink:href="#Helvetica-65" transform="translate(639.355469 0.015625)"/>
      <use xlink:href="#Helvetica-74" transform="translate(694.970703 0.015625)"/>
      <use xlink:href="#Helvetica-65" transform="translate(722.753906 0.015625)"/>
      <use xlink:href="#Helvetica-72" transform="translate(778.369141 0.015625)"/>
      <use xlink:href="#Helvetica-20" transform="translate(811.669922 0.015625)"/>
      <use xlink:href="#Helvetica-67" transform="translate(839.453125 0.015625)"/>
      <use xlink:href="#Helvetica-72" transform="translate(895.068359 0.015625)"/>
      <use xlink:href="#Helvetica-61" transform="translate(928.369141 0.015625)"/>
      <use xlink:href="#Helvetica-70" transform="translate(983.984375 0.015625)"/>
      <use xlink:href="#Helvetica-68" transform="translate(1039.599609 0.015625)"/>
      <use xlink:href="#Helvetica-2c" transform="translate(1095.214844 0.015625)"/>
      <use xlink:href="#Helvetica-20" transform="translate(1122.998047 0.015625)"/>
      <use xlink:href="#Helvetica-20" transform="translate(1150.78125 0.015625)"/>
      <use xlink:href="#DejaVuSans-Oblique-3bb" transform="translate(1178.564453 0.015625)"/>
      <use xlink:href="#DejaVuSans-32" transform="translate(1237.744141 -16.390625) scale(0.7)"/>
      <use xlink:href="#DejaVuSans-3d" transform="translate(1304.49707 0.015625)"/>
      <use xlink:href="#DejaVuSans-30" transform="translate(1407.768555 0.015625)"/>
      <use xlink:href="#DejaVuSans-2e" transform="translate(1471.391602 0.015625)"/>
      <use xlink:href="#DejaVuSans-35" transform="translate(1503.178711 0.015625)"/>
      <use xlink:href="#DejaVuSans-30" transform="translate(1566.801758 0.015625)"/>
     </g>
    </g>
    <g id="line2d_84">
     <path d="M 197.399103 72.456312 
L 206.399103 72.456312 
L 215.399103 72.456312 
" style="fill: none; stroke: #000000; stroke-width: 1.3; stroke-linecap: square"/>
    </g>
    <g id="text_20">
     <!-- expander graph,  $\lambda_2 = 1.00$ -->
     <g transform="translate(222.599103 75.606312) scale(0.09 -0.09)">
      <defs>
       <path id="Helvetica-78" d="M 94 3347 
L 822 3347 
L 1591 2169 
L 2369 3347 
L 3053 3331 
L 1925 1716 
L 3103 0 
L 2384 0 
L 1553 1256 
L 747 0 
L 34 0 
L 1213 1716 
L 94 3347 
z
" transform="scale(0.015625)"/>
      </defs>
      <use xlink:href="#Helvetica-65" transform="translate(0 0.015625)"/>
      <use xlink:href="#Helvetica-78" transform="translate(55.615234 0.015625)"/>
      <use xlink:href="#Helvetica-70" transform="translate(105.615234 0.015625)"/>
      <use xlink:href="#Helvetica-61" transform="translate(161.230469 0.015625)"/>
      <use xlink:href="#Helvetica-6e" transform="translate(216.845703 0.015625)"/>
      <use xlink:href="#Helvetica-64" transform="translate(272.460938 0.015625)"/>
      <use xlink:href="#Helvetica-65" transform="translate(328.076172 0.015625)"/>
      <use xlink:href="#Helvetica-72" transform="translate(383.691406 0.015625)"/>
      <use xlink:href="#Helvetica-20" transform="translate(416.992188 0.015625)"/>
      <use xlink:href="#Helvetica-67" transform="translate(444.775391 0.015625)"/>
      <use xlink:href="#Helvetica-72" transform="translate(500.390625 0.015625)"/>
      <use xlink:href="#Helvetica-61" transform="translate(533.691406 0.015625)"/>
      <use xlink:href="#Helvetica-70" transform="translate(589.306641 0.015625)"/>
      <use xlink:href="#Helvetica-68" transform="translate(644.921875 0.015625)"/>
      <use xlink:href="#Helvetica-2c" transform="translate(700.537109 0.015625)"/>
      <use xlink:href="#Helvetica-20" transform="translate(728.320312 0.015625)"/>
      <use xlink:href="#Helvetica-20" transform="translate(756.103516 0.015625)"/>
      <use xlink:href="#DejaVuSans-Oblique-3bb" transform="translate(783.886719 0.015625)"/>
      <use xlink:href="#DejaVuSans-32" transform="translate(843.066406 -16.390625) scale(0.7)"/>
      <use xlink:href="#DejaVuSans-3d" transform="translate(909.819336 0.015625)"/>
      <use xlink:href="#DejaVuSans-31" transform="translate(1013.09082 0.015625)"/>
      <use xlink:href="#DejaVuSans-2e" transform="translate(1076.713867 0.015625)"/>
      <use xlink:href="#DejaVuSans-30" transform="translate(1108.500977 0.015625)"/>
      <use xlink:href="#DejaVuSans-30" transform="translate(1172.124023 0.015625)"/>
     </g>
    </g>
   </g>
  </g>
 </g>
 <defs>
  <clipPath id="pbf0265a452">
   <rect x="42.05" y="33.846312" width="482.688206" height="320.7672"/>
  </clipPath>
 </defs>
</svg>
