<?xml version="1.0" encoding="utf-8" standalone="no"?>
<!DOCTYPE svg PUBLIC "-//W3C//DTD SVG 1.1//EN"
  "http://www.w3.org/Graphics/SVG/1.1/DTD/svg11.dtd">
<svg xmlns:xlink="http://www.w3.org/1999/xlink" width="489.658903pt" height="493.809844pt" viewBox="0 0 489.658903 493.809844" xmlns="http://www.w3.org/2000/svg" version="1.1">
 <metadata>
  <rdf:RDF xmlns:dc="http://purl.org/dc/elements/1.1/" xmlns:cc="http://creativecommons.org/ns#" xmlns:rdf="http://www.w3.org/1999/02/22-rdf-syntax-ns#">
   <cc:Work>
    <dc:type rdf:resource="http://purl.org/dc/dcmitype/StillImage"/>
    <dc:date>2026-04-27T01:07:56.066377</dc:date>
    <dc:format>image/svg+xml</dc:format>
    <dc:creator>
     <cc:Agent>
      <dc:title>Matplotlib v3.10.5, https://matplotlib.org/</dc:title>
     </cc:Agent>
    </dc:creator>
   </cc:Work>
  </rdf:RDF>
 </metadata>
 <defs>
  <style type="text/css">*{stroke-linejoin: round; stroke-linecap: butt}</style>
 </defs>
 <g id="figure_1">
  <g id="patch_1">
   <path d="M 0 493.809844 
L 489.658903 493.809844 
L 489.658903 0 
L 0 0 
z
" style="fill: #ffffff"/>
  </g>
  <g id="axes_1">
   <g id="patch_2">
    <path d="M 36.467813 461.52 
L 464.327813 461.52 
L 464.327813 33.66 
L 36.467813 33.66 
z
" style="fill: #ffffff"/>
   </g>
   <g id="patch_3">
    <path d="M 55.915994 442.071818 
L 444.879631 442.071818 
L 55.915994 53.108182 
L 55.915994 442.071818 
z
" clip-path="url(#p8f517abf51)" style="fill: none; stroke: #000000; stroke-width: 1.2; stroke-linejoin: miter"/>
   </g>
   <g id="matplotlib.axis_1">
    <g id="xtick_1">
     <g id="line2d_1">
      <defs>
       <path id="m30a33f1570" d="M 0 0 
L 0 -3.5 
" style="stroke: #000000; stroke-width: 0.6"/>
      </defs>
      <g>
       <use xlink:href="#m30a33f1570" x="55.915994" y="461.52" style="stroke: #000000; stroke-width: 0.6"/>
      </g>
     </g>
     <g id="text_1">
      <!-- 0.0 -->
      <g transform="translate(49.660994 471.476094) scale(0.09 -0.09)">
       <defs>
        <path id="Helvetica-30" d="M 1731 4475 
Q 2600 4475 2988 3759 
Q 3288 3206 3288 2244 
Q 3288 1331 3016 734 
Q 2622 -122 1728 -122 
Q 922 -122 528 578 
Q 200 1163 200 2147 
Q 200 2909 397 3456 
Q 766 4475 1731 4475 
z
M 1725 391 
Q 2163 391 2422 778 
Q 2681 1166 2681 2222 
Q 2681 2984 2493 3476 
Q 2306 3969 1766 3969 
Q 1269 3969 1039 3501 
Q 809 3034 809 2125 
Q 809 1441 956 1025 
Q 1181 391 1725 391 
z
" transform="scale(0.015625)"/>
        <path id="Helvetica-2e" d="M 547 681 
L 1200 681 
L 1200 0 
L 547 0 
L 547 681 
z
" transform="scale(0.015625)"/>
       </defs>
       <use xlink:href="#Helvetica-30"/>
       <use xlink:href="#Helvetica-2e" transform="translate(55.615234 0)"/>
       <use xlink:href="#Helvetica-30" transform="translate(83.398438 0)"/>
      </g>
     </g>
    </g>
    <g id="xtick_2">
     <g id="line2d_2">
      <g>
       <use xlink:href="#m30a33f1570" x="133.708722" y="461.52" style="stroke: #000000; stroke-width: 0.6"/>
      </g>
     </g>
     <g id="text_2">
      <!-- 0.2 -->
      <g transform="translate(127.453722 471.476094) scale(0.09 -0.09)">
       <defs>
        <path id="Helvetica-32" d="M 200 0 
Q 231 578 439 1006 
Q 647 1434 1250 1784 
L 1850 2131 
Q 2253 2366 2416 2531 
Q 2672 2791 2672 3125 
Q 2672 3516 2437 3745 
Q 2203 3975 1813 3975 
Q 1234 3975 1013 3538 
Q 894 3303 881 2888 
L 309 2888 
Q 319 3472 525 3841 
Q 891 4491 1816 4491 
Q 2584 4491 2939 4075 
Q 3294 3659 3294 3150 
Q 3294 2613 2916 2231 
Q 2697 2009 2131 1694 
L 1703 1456 
Q 1397 1288 1222 1134 
Q 909 863 828 531 
L 3272 531 
L 3272 0 
L 200 0 
z
" transform="scale(0.015625)"/>
       </defs>
       <use xlink:href="#Helvetica-30"/>
       <use xlink:href="#Helvetica-2e" transform="translate(55.615234 0)"/>
       <use xlink:href="#Helvetica-32" transform="translate(83.398438 0)"/>
      </g>
     </g>
    </g>
    <g id="xtick_3">
     <g id="line2d_3">
      <g>
       <use xlink:href="#m30a33f1570" x="211.501449" y="461.52" style="stroke: #000000; stroke-width: 0.6"/>
      </g>
     </g>
     <g id="text_3">
      <!-- 0.4 -->
      <g transform="translate(205.246449 471.476094) scale(0.09 -0.09)">
       <defs>
        <path id="Helvetica-34" d="M 2116 1584 
L 2116 3613 
L 681 1584 
L 2116 1584 
z
M 2125 0 
L 2125 1094 
L 163 1094 
L 163 1644 
L 2213 4488 
L 2688 4488 
L 2688 1584 
L 3347 1584 
L 3347 1094 
L 2688 1094 
L 2688 0 
L 2125 0 
z
" transform="scale(0.015625)"/>
       </defs>
       <use xlink:href="#Helvetica-30"/>
       <use xlink:href="#Helvetica-2e" transform="translate(55.615234 0)"/>
       <use xlink:href="#Helvetica-34" transform="translate(83.398438 0)"/>
      </g>
     </g>
    </g>
    <g id="xtick_4">
     <g id="line2d_4">
      <g>
       <use xlink:href="#m30a33f1570" x="289.294176" y="461.52" style="stroke: #000000; stroke-width: 0.6"/>
      </g>
     </g>
     <g id="text_4">
      <!-- 0.6 -->
      <g transform="translate(283.039176 471.476094) scale(0.09 -0.09)">
       <defs>
        <path id="Helvetica-36" d="M 1872 4494 
Q 2622 4494 2917 4105 
Q 3213 3716 3213 3303 
L 2656 3303 
Q 2606 3569 2497 3719 
Q 2294 4000 1881 4000 
Q 1409 4000 1131 3564 
Q 853 3128 822 2316 
Q 1016 2600 1309 2741 
Q 1578 2866 1909 2866 
Q 2472 2866 2890 2506 
Q 3309 2147 3309 1434 
Q 3309 825 2912 354 
Q 2516 -116 1781 -116 
Q 1153 -116 697 361 
Q 241 838 241 1966 
Q 241 2800 444 3381 
Q 834 4494 1872 4494 
z
M 1831 384 
Q 2275 384 2495 682 
Q 2716 981 2716 1388 
Q 2716 1731 2519 2042 
Q 2322 2353 1803 2353 
Q 1441 2353 1167 2112 
Q 894 1872 894 1388 
Q 894 963 1142 673 
Q 1391 384 1831 384 
z
" transform="scale(0.015625)"/>
       </defs>
       <use xlink:href="#Helvetica-30"/>
       <use xlink:href="#Helvetica-2e" transform="translate(55.615234 0)"/>
       <use xlink:href="#Helvetica-36" transform="translate(83.398438 0)"/>
      </g>
     </g>
    </g>
    <g id="xtick_5">
     <g id="line2d_5">
      <g>
       <use xlink:href="#m30a33f1570" x="367.086903" y="461.52" style="stroke: #000000; stroke-width: 0.6"/>
      </g>
     </g>
     <g id="text_5">
      <!-- 0.8 -->
      <g transform="translate(360.831903 471.476094) scale(0.09 -0.09)">
       <defs>
        <path id="Helvetica-38" d="M 1741 2600 
Q 2113 2600 2322 2808 
Q 2531 3016 2531 3303 
Q 2531 3553 2331 3762 
Q 2131 3972 1722 3972 
Q 1316 3972 1134 3762 
Q 953 3553 953 3272 
Q 953 2956 1187 2778 
Q 1422 2600 1741 2600 
z
M 1775 384 
Q 2166 384 2423 595 
Q 2681 806 2681 1225 
Q 2681 1659 2415 1884 
Q 2150 2109 1734 2109 
Q 1331 2109 1076 1879 
Q 822 1650 822 1244 
Q 822 894 1055 639 
Q 1288 384 1775 384 
z
M 975 2384 
Q 741 2484 609 2619 
Q 363 2869 363 3269 
Q 363 3769 725 4128 
Q 1088 4488 1753 4488 
Q 2397 4488 2762 4148 
Q 3128 3809 3128 3356 
Q 3128 2938 2916 2678 
Q 2797 2531 2547 2391 
Q 2825 2263 2984 2097 
Q 3281 1784 3281 1284 
Q 3281 694 2884 283 
Q 2488 -128 1763 -128 
Q 1109 -128 657 226 
Q 206 581 206 1256 
Q 206 1653 400 1942 
Q 594 2231 975 2384 
z
" transform="scale(0.015625)"/>
       </defs>
       <use xlink:href="#Helvetica-30"/>
       <use xlink:href="#Helvetica-2e" transform="translate(55.615234 0)"/>
       <use xlink:href="#Helvetica-38" transform="translate(83.398438 0)"/>
      </g>
     </g>
    </g>
    <g id="xtick_6">
     <g id="line2d_6">
      <g>
       <use xlink:href="#m30a33f1570" x="444.879631" y="461.52" style="stroke: #000000; stroke-width: 0.6"/>
      </g>
     </g>
     <g id="text_6">
      <!-- 1.0 -->
      <g transform="translate(438.624631 471.476094) scale(0.09 -0.09)">
       <defs>
        <path id="Helvetica-31" d="M 613 3169 
L 613 3600 
Q 1222 3659 1462 3798 
Q 1703 3938 1822 4456 
L 2266 4456 
L 2266 0 
L 1666 0 
L 1666 3169 
L 613 3169 
z
" transform="scale(0.015625)"/>
       </defs>
       <use xlink:href="#Helvetica-31"/>
       <use xlink:href="#Helvetica-2e" transform="translate(55.615234 0)"/>
       <use xlink:href="#Helvetica-30" transform="translate(83.398438 0)"/>
      </g>
     </g>
    </g>
    <g id="text_7">
     <!-- $u_1$ -->
     <g transform="translate(244.847813 484.525469) scale(0.1 -0.1)">
      <defs>
       <path id="DejaVuSans-Oblique-75" d="M 428 1388 
L 838 3500 
L 1416 3500 
L 1006 1409 
Q 975 1256 961 1147 
Q 947 1038 947 966 
Q 947 700 1109 554 
Q 1272 409 1569 409 
Q 2031 409 2368 721 
Q 2706 1034 2809 1563 
L 3194 3500 
L 3769 3500 
L 3091 0 
L 2516 0 
L 2631 550 
Q 2388 244 2052 76 
Q 1716 -91 1338 -91 
Q 878 -91 622 161 
Q 366 413 366 863 
Q 366 956 381 1097 
Q 397 1238 428 1388 
z
" transform="scale(0.015625)"/>
       <path id="DejaVuSans-31" d="M 794 531 
L 1825 531 
L 1825 4091 
L 703 3866 
L 703 4441 
L 1819 4666 
L 2450 4666 
L 2450 531 
L 3481 531 
L 3481 0 
L 794 0 
L 794 531 
z
" transform="scale(0.015625)"/>
      </defs>
      <use xlink:href="#DejaVuSans-Oblique-75" transform="translate(0 0.3125)"/>
      <use xlink:href="#DejaVuSans-31" transform="translate(63.378906 -16.09375) scale(0.7)"/>
     </g>
    </g>
   </g>
   <g id="matplotlib.axis_2">
    <g id="ytick_1">
     <g id="line2d_7">
      <defs>
       <path id="meef2c418d3" d="M 0 0 
L 3.5 0 
" style="stroke: #000000; stroke-width: 0.6"/>
      </defs>
      <g>
       <use xlink:href="#meef2c418d3" x="36.467813" y="442.071818" style="stroke: #000000; stroke-width: 0.6"/>
      </g>
     </g>
     <g id="text_8">
      <!-- 0.0 -->
      <g transform="translate(20.457813 445.299865) scale(0.09 -0.09)">
       <use xlink:href="#Helvetica-30"/>
       <use xlink:href="#Helvetica-2e" transform="translate(55.615234 0)"/>
       <use xlink:href="#Helvetica-30" transform="translate(83.398438 0)"/>
      </g>
     </g>
    </g>
    <g id="ytick_2">
     <g id="line2d_8">
      <g>
       <use xlink:href="#meef2c418d3" x="36.467813" y="364.279091" style="stroke: #000000; stroke-width: 0.6"/>
      </g>
     </g>
     <g id="text_9">
      <!-- 0.2 -->
      <g transform="translate(20.457813 367.507138) scale(0.09 -0.09)">
       <use xlink:href="#Helvetica-30"/>
       <use xlink:href="#Helvetica-2e" transform="translate(55.615234 0)"/>
       <use xlink:href="#Helvetica-32" transform="translate(83.398438 0)"/>
      </g>
     </g>
    </g>
    <g id="ytick_3">
     <g id="line2d_9">
      <g>
       <use xlink:href="#meef2c418d3" x="36.467813" y="286.486364" style="stroke: #000000; stroke-width: 0.6"/>
      </g>
     </g>
     <g id="text_10">
      <!-- 0.4 -->
      <g transform="translate(20.457813 289.714411) scale(0.09 -0.09)">
       <use xlink:href="#Helvetica-30"/>
       <use xlink:href="#Helvetica-2e" transform="translate(55.615234 0)"/>
       <use xlink:href="#Helvetica-34" transform="translate(83.398438 0)"/>
      </g>
     </g>
    </g>
    <g id="ytick_4">
     <g id="line2d_10">
      <g>
       <use xlink:href="#meef2c418d3" x="36.467813" y="208.693636" style="stroke: #000000; stroke-width: 0.6"/>
      </g>
     </g>
     <g id="text_11">
      <!-- 0.6 -->
      <g transform="translate(20.457813 211.921683) scale(0.09 -0.09)">
       <use xlink:href="#Helvetica-30"/>
       <use xlink:href="#Helvetica-2e" transform="translate(55.615234 0)"/>
       <use xlink:href="#Helvetica-36" transform="translate(83.398438 0)"/>
      </g>
     </g>
    </g>
    <g id="ytick_5">
     <g id="line2d_11">
      <g>
       <use xlink:href="#meef2c418d3" x="36.467813" y="130.900909" style="stroke: #000000; stroke-width: 0.6"/>
      </g>
     </g>
     <g id="text_12">
      <!-- 0.8 -->
      <g transform="translate(20.457813 134.128956) scale(0.09 -0.09)">
       <use xlink:href="#Helvetica-30"/>
       <use xlink:href="#Helvetica-2e" transform="translate(55.615234 0)"/>
       <use xlink:href="#Helvetica-38" transform="translate(83.398438 0)"/>
      </g>
     </g>
    </g>
    <g id="ytick_6">
     <g id="line2d_12">
      <g>
       <use xlink:href="#meef2c418d3" x="36.467813" y="53.108182" style="stroke: #000000; stroke-width: 0.6"/>
      </g>
     </g>
     <g id="text_13">
      <!-- 1.0 -->
      <g transform="translate(20.457813 56.336229) scale(0.09 -0.09)">
       <use xlink:href="#Helvetica-31"/>
       <use xlink:href="#Helvetica-2e" transform="translate(55.615234 0)"/>
       <use xlink:href="#Helvetica-30" transform="translate(83.398438 0)"/>
      </g>
     </g>
    </g>
    <g id="text_14">
     <!-- $u_2$ -->
     <g transform="translate(14.373438 253.14) rotate(-90) scale(0.1 -0.1)">
      <defs>
       <path id="DejaVuSans-32" d="M 1228 531 
L 3431 531 
L 3431 0 
L 469 0 
L 469 531 
Q 828 903 1448 1529 
Q 2069 2156 2228 2338 
Q 2531 2678 2651 2914 
Q 2772 3150 2772 3378 
Q 2772 3750 2511 3984 
Q 2250 4219 1831 4219 
Q 1534 4219 1204 4116 
Q 875 4013 500 3803 
L 500 4441 
Q 881 4594 1212 4672 
Q 1544 4750 1819 4750 
Q 2544 4750 2975 4387 
Q 3406 4025 3406 3419 
Q 3406 3131 3298 2873 
Q 3191 2616 2906 2266 
Q 2828 2175 2409 1742 
Q 1991 1309 1228 531 
z
" transform="scale(0.015625)"/>
      </defs>
      <use xlink:href="#DejaVuSans-Oblique-75" transform="translate(0 0.3125)"/>
      <use xlink:href="#DejaVuSans-32" transform="translate(63.378906 -16.09375) scale(0.7)"/>
     </g>
    </g>
   </g>
   <g id="QuadContourSet_1">
    <path d="M 97.07332 400.914492 
L 97.07332 400.914492 
L 97.07332 400.914492 
L 97.07332 400.914492 
L 97.07332 400.914492 
z
" clip-path="url(#p8f517abf51)" style="fill: none; stroke: #000000; stroke-opacity: 0.6; stroke-width: 0.6"/>
    <path d="M 105.701523 441.682855 
L 102.390933 441.084781 
L 98.845858 440.214491 
L 95.300783 439.077046 
L 91.755708 437.681729 
L 91.02412 437.349574 
M 78.712899 429.899664 
L 75.80287 427.498056 
L 72.125941 423.95748 
L 68.986729 420.412405 
L 66.940183 417.766942 
L 65.078935 415.094792 
L 62.939528 411.549717 
L 61.11085 408.004642 
L 59.569525 404.459567 
L 58.077495 400.17403 
L 57.309955 397.369417 
L 56.554478 393.824342 
L 56.304958 392.28629 
M 380.362843 441.682855 
L 377.134243 441.176593 
L 371.81663 440.060921 
L 368.271555 439.1185 
L 362.953943 437.462003 
L 357.63633 435.517382 
L 352.318718 433.302022 
L 347.459532 431.04763 
L 341.683493 428.059773 
L 337.544244 425.730017 
L 331.791135 422.184942 
L 327.64068 419.386248 
M 316.16829 410.466937 
L 313.322893 407.922801 
L 309.738917 404.459567 
L 306.232743 400.734812 
L 303.346588 397.369417 
L 300.600592 393.824342 
L 298.144267 390.279267 
L 295.597518 386.048 
L 293.824981 382.630791 
L 292.48359 379.644043 
L 291.171655 376.098968 
L 290.16058 372.553893 
L 289.47104 369.008818 
L 289.132423 365.463743 
L 289.196594 361.918668 
L 289.404586 360.14613 
L 289.748802 358.373593 
L 290.279906 356.515528 
L 290.945889 354.828518 
L 292.052443 352.769579 
L 293.106007 351.283443 
L 294.767633 349.510905 
L 295.597518 348.813666 
L 297.370056 347.573897 
L 299.142593 346.653583 
L 300.915131 345.930402 
L 302.687668 345.413353 
L 304.460206 345.031625 
L 308.005281 344.613528 
L 311.550356 344.574405 
L 315.095431 344.837397 
L 318.640506 345.343604 
L 322.185581 346.051895 
L 327.503193 347.471656 
L 331.048268 348.621448 
L 334.593343 349.907161 
L 339.910955 352.09656 
L 345.228568 354.561508 
L 350.54618 357.308867 
L 355.863793 360.312315 
L 361.333657 363.691205 
L 366.615168 367.23628 
L 372.826766 371.791491 
M 399.883291 398.848016 
L 401.949767 401.844222 
L 403.722305 404.63531 
L 405.625247 408.004642 
L 406.16064 409.075821 
M 410.512782 423.474318 
L 410.551888 423.95748 
L 410.557442 425.730017 
L 410.406944 427.502555 
L 410.080003 429.275092 
L 409.553677 431.04763 
L 408.78103 432.820167 
L 407.26738 435.128547 
L 405.494842 436.983318 
L 403.722305 438.349499 
L 400.821715 439.910317 
L 400.17723 440.18178 
L 398.404692 440.798037 
L 394.859617 441.66016 
L 394.715187 441.682855 
M 56.304958 377.920993 
L 56.628301 376.098968 
L 57.47358 372.553893 
L 58.638222 369.008818 
L 60.164845 365.463743 
L 62.127752 361.918668 
L 63.395108 359.986948 
L 65.167645 357.672815 
L 67.791313 354.828518 
L 69.729483 353.05598 
L 71.979024 351.283443 
L 72.257795 351.076477 
L 74.694986 349.510905 
L 77.575408 347.968619 
L 79.347945 347.189996 
L 82.89302 345.960308 
L 86.438095 345.132938 
L 89.98317 344.668653 
L 93.528245 344.543521 
L 97.07332 344.738956 
L 100.618395 345.241121 
L 104.16347 346.040431 
L 107.708545 347.12898 
L 111.25362 348.503118 
L 114.798695 350.160842 
L 118.34377 352.10353 
L 121.888845 354.336576 
L 125.43392 356.870973 
L 129.466121 360.14613 
L 132.52407 362.932748 
L 134.725936 365.124831 
M 143.993573 376.625057 
L 145.884283 379.644043 
L 147.82697 383.189118 
L 149.484694 386.734193 
L 150.858832 390.279267 
L 152.021982 394.124817 
L 152.746691 397.369417 
L 153.248857 400.914492 
L 153.444291 404.459567 
L 153.31916 408.004642 
L 152.854875 411.549717 
L 152.021982 415.112247 
L 150.797817 418.639867 
L 150.019194 420.412405 
L 148.476907 423.292826 
L 148.086637 423.95748 
L 146.70437 426.008789 
L 144.931832 428.25833 
L 143.159295 430.196499 
L 141.386757 431.885831 
L 139.61422 433.374983 
L 137.841682 434.7022 
L 134.296607 436.897529 
L 130.751532 438.633821 
L 127.206457 439.985819 
L 123.661382 440.972259 
L 120.06682 441.682855 
M 126.196321 125.161046 
L 129.571882 129.716257 
L 133.231677 135.03387 
L 133.729872 135.79187 
M 141.330594 148.655748 
L 143.426305 152.759245 
L 145.891253 158.076857 
L 147.381826 161.621932 
L 149.366365 166.939544 
L 150.516156 170.484619 
L 151.935918 175.802232 
L 152.644208 179.347307 
L 153.150416 182.892382 
L 153.413407 186.437457 
L 153.374284 189.982532 
L 152.956187 193.527607 
L 152.57446 195.300144 
L 152.021982 197.172006 
L 151.33423 198.845219 
L 150.249445 200.888008 
L 148.476907 203.220179 
L 146.70437 204.881805 
L 144.931832 206.119023 
L 143.159295 207.041923 
L 141.386757 207.739303 
L 139.61422 208.23901 
L 137.841682 208.583226 
L 136.069145 208.791218 
L 132.52407 208.85539 
L 128.978995 208.516772 
L 125.43392 207.827233 
L 121.888845 206.816158 
L 118.34377 205.504223 
L 114.798695 203.901789 
L 111.25362 202.014399 
L 107.708545 199.843545 
L 103.749907 197.072682 
L 100.618395 194.641224 
L 97.07332 191.598366 
L 93.490107 188.209994 
L 89.98317 184.578846 
L 86.438095 180.569239 
L 82.59468 175.802232 
L 79.347945 171.42163 
L 75.80287 166.196678 
L 72.257795 160.443569 
L 68.975085 154.531782 
L 66.940183 150.52828 
L 64.685791 145.669095 
L 62.470431 140.351482 
L 60.52581 135.03387 
L 59.386102 131.488795 
L 57.926891 126.171182 
L 56.811219 120.85357 
L 56.304958 117.624969 
M 56.304958 103.272626 
L 56.701758 101.355658 
L 57.189775 99.58312 
L 58.077495 97.166098 
L 58.615032 96.038045 
L 59.850033 93.953427 
L 61.62257 91.827235 
L 62.382139 91.147445 
M 75.751643 87.575244 
L 75.80287 87.57939 
L 79.347945 88.217196 
L 82.89302 89.253554 
L 86.601854 90.720433 
L 90.224139 92.49297 
L 93.528245 94.369598 
L 97.07332 96.660642 
L 99.139796 98.104521 
L 99.139796 98.104521 
" clip-path="url(#p8f517abf51)" style="fill: none; stroke: #000000; stroke-opacity: 0.6; stroke-width: 0.6"/>
    <path d="M 74.560573 441.682855 
L 72.217839 439.910317 
L 69.661988 437.801878 
M 59.369272 427.358496 
L 56.304958 423.42724 
M 333.681803 441.682855 
L 325.730656 438.131629 
L 316.867968 433.865192 
L 309.777818 430.243191 
L 301.382071 425.730017 
L 288.507368 418.319738 
L 279.644681 412.910979 
L 270.781994 407.262305 
L 263.691844 402.592357 
L 250.869036 393.824342 
L 250.115791 393.287245 
M 238.26904 384.94486 
L 233.247654 381.41658 
L 228.241094 377.993203 
L 226.468556 376.829026 
L 221.150944 373.734153 
L 219.378407 372.923258 
L 217.605869 372.30916 
L 215.833332 371.976664 
L 214.060794 372.106572 
L 212.288257 372.912458 
L 210.515719 374.655721 
L 208.559513 377.871505 
L 206.881392 381.41658 
L 200.104608 397.369417 
L 194.820197 408.004642 
L 190.657577 415.094792 
L 187.472732 419.859055 
L 185.700194 422.32566 
L 183.072582 425.730017 
L 180.074898 429.275092 
L 176.775765 432.820167 
L 173.113016 436.365242 
L 168.994936 439.910317 
L 166.725033 441.682855 
M 426.298427 425.263152 
L 426.300761 425.273761 
M 426.271097 440.342629 
L 425.843841 441.682855 
M 56.304958 331.26278 
L 59.850033 326.869697 
L 63.465772 322.922843 
L 67.101223 319.377768 
L 71.15762 315.832693 
L 74.030333 313.515981 
L 78.128757 310.515081 
L 81.120483 308.471736 
L 86.438095 305.177553 
L 91.755708 302.211964 
L 98.845858 298.693812 
L 109.481082 294.062808 
L 118.34377 290.279098 
L 120.518634 289.244631 
L 123.332092 287.472093 
L 125.075354 285.699556 
L 125.88124 283.927018 
L 126.011149 282.154481 
L 125.678653 280.381943 
L 124.253659 276.836868 
L 121.158787 271.519256 
L 115.135358 262.656569 
L 113.026157 259.695746 
L 111.25362 257.17753 
L 99.475856 240.31947 
M 91.200833 227.942836 
L 83.977995 216.570594 
L 79.347945 208.955975 
L 72.257795 196.605741 
L 66.815726 186.437457 
L 62.382574 177.574769 
L 59.049795 170.484619 
L 56.304958 164.306009 
M 168.510203 167.474928 
L 173.292432 176.36945 
L 175.010194 179.707842 
M 181.541421 193.243009 
L 184.825814 200.617757 
L 187.815039 207.707907 
L 191.319939 216.570594 
L 194.588023 225.433281 
L 198.206455 236.068506 
L 202.071694 248.476269 
L 208.472022 269.746719 
L 209.750148 273.291794 
L 211.305001 276.836868 
L 212.288257 278.620362 
L 214.060794 281.225095 
L 215.833332 283.123672 
L 217.605869 284.570681 
L 219.378407 285.70586 
L 221.150944 286.682811 
L 224.696019 288.237664 
L 230.013631 290.109079 
L 238.90723 292.789706 
L 260.146769 299.214647 
L 267.522281 301.652393 
L 277.872144 305.33173 
L 288.507368 309.454954 
L 297.370056 313.161998 
L 304.460206 316.315377 
L 313.322893 320.509034 
L 321.618363 324.695381 
L 328.25724 328.240456 
L 330.512885 329.47761 
M 56.304958 72.143971 
L 58.151945 71.561489 
M 72.191479 71.573715 
L 72.724661 71.689386 
M 193.20738 340.591463 
L 196.335419 342.638917 
L 198.107957 343.550159 
L 199.880494 344.214378 
L 201.653032 344.464132 
L 203.425569 344.050338 
L 205.198107 342.409255 
L 206.067013 340.648218 
L 206.970644 338.038389 
L 207.508408 335.330605 
L 207.976775 331.785531 
L 208.246661 328.240456 
L 208.356514 322.922843 
L 208.156042 317.605231 
L 207.849261 314.060156 
L 207.383765 310.515081 
L 206.702123 306.970006 
L 205.700625 303.424931 
L 205.02793 301.652393 
L 204.165734 299.879856 
L 203.051954 298.107318 
L 201.536901 296.334781 
L 199.343743 294.562243 
L 198.107957 293.822079 
L 195.927427 292.789706 
L 192.790344 291.741278 
L 189.245269 290.908339 
L 185.700194 290.349507 
L 182.155119 289.966926 
L 176.837507 289.664529 
L 171.519894 289.668055 
L 167.974819 289.85418 
L 164.429745 290.217033 
L 160.88467 290.808105 
L 159.112132 291.265069 
L 157.339595 291.9208 
L 155.567057 292.799165 
L 153.937475 294.562243 
L 153.52368 296.334781 
L 153.79452 298.157894 
L 154.437653 299.879856 
L 155.567057 301.982139 
L 157.339595 304.69413 
L 157.670603 305.197468 
L 160.394347 308.742543 
L 166.529682 315.832693 
L 171.537463 321.150306 
L 176.855756 326.467918 
L 181.990855 331.30648 
L 181.990855 331.30648 
" clip-path="url(#p8f517abf51)" style="fill: none; stroke: #000000; stroke-opacity: 0.6; stroke-width: 0.6"/>
    <path d="M 61.304498 441.682855 
L 57.689984 438.13778 
L 56.304958 436.683315 
M 296.432713 441.682855 
L 288.507368 438.947129 
L 281.346157 436.623922 
M 267.653605 432.786362 
L 263.691844 431.876102 
L 258.374231 430.871776 
L 253.056619 430.124819 
L 249.511544 429.803686 
L 245.966469 429.636864 
L 242.421394 429.636206 
L 238.876319 429.81429 
L 235.331244 430.184344 
L 231.786169 430.76015 
L 228.241094 431.533477 
L 224.696019 432.516036 
L 219.378407 434.356451 
L 214.060794 436.596899 
L 208.743182 439.160441 
L 203.973076 441.682855 
M 439.178929 438.143654 
L 439.107074 441.682855 
M 56.304958 294.014736 
L 58.827371 289.244631 
L 61.62257 283.394525 
L 62.929472 280.381943 
L 64.906012 275.064331 
L 65.991534 271.519256 
L 66.940183 267.58485 
L 67.542163 264.429106 
L 68.013342 260.884031 
L 68.28572 257.338956 
L 68.372818 253.793881 
L 68.28755 250.248806 
L 68.042137 246.703731 
L 67.398653 241.386119 
L 66.473475 236.068506 
L 65.365807 231.005614 
M 61.288005 216.397932 
L 58.439601 207.707907 
L 56.304958 201.5551 
M 206.566667 205.531392 
L 211.536554 213.025519 
L 213.359387 215.702903 
M 221.963181 227.815799 
L 226.910037 234.295969 
L 231.786169 240.293953 
L 235.793906 244.931194 
L 240.690668 250.248806 
L 245.966469 255.588252 
L 251.597973 260.884031 
L 256.601694 265.278492 
L 262.02196 269.746719 
L 267.236919 273.823479 
L 274.327069 279.062007 
L 283.189756 285.248948 
L 292.052443 291.159995 
L 292.45642 291.421145 
M 56.304958 58.880738 
L 59.844158 58.808883 
L 59.844158 58.808883 
" clip-path="url(#p8f517abf51)" style="fill: none; stroke: #000000; stroke-opacity: 0.6; stroke-width: 0.6"/>
    <path clip-path="url(#p8f517abf51)" style="fill: none; stroke: #000000; stroke-opacity: 0.6; stroke-width: 0.6"/>
    <path clip-path="url(#p8f517abf51)" style="fill: none; stroke: #000000; stroke-opacity: 0.6; stroke-width: 0.6"/>
    <path clip-path="url(#p8f517abf51)" style="fill: none; stroke: #000000; stroke-opacity: 0.6; stroke-width: 0.6"/>
    <path clip-path="url(#p8f517abf51)" style="fill: none; stroke: #000000; stroke-opacity: 0.6; stroke-width: 0.6"/>
    <path clip-path="url(#p8f517abf51)" style="fill: none; stroke: #000000; stroke-opacity: 0.6; stroke-width: 0.6"/>
    <path clip-path="url(#p8f517abf51)" style="fill: none; stroke: #000000; stroke-opacity: 0.6; stroke-width: 0.6"/>
    <path clip-path="url(#p8f517abf51)" style="fill: none; stroke: #000000; stroke-opacity: 0.6; stroke-width: 0.6"/>
    <path clip-path="url(#p8f517abf51)" style="fill: none; stroke: #000000; stroke-opacity: 0.6; stroke-width: 0.6"/>
   </g>
   <g id="line2d_13">
    <path d="M 172.605085 228.141818 
L 93.311792 148.848525 
L 93.311792 148.848525 
" clip-path="url(#p8f517abf51)" style="fill: none; stroke: #000000; stroke-linecap: square"/>
   </g>
   <g id="line2d_14">
    <defs>
     <path id="m80e019e4b0" d="M 0 2 
C 0.530406 2 1.03916 1.789267 1.414214 1.414214 
C 1.789267 1.03916 2 0.530406 2 0 
C 2 -0.530406 1.789267 -1.03916 1.414214 -1.414214 
C 1.03916 -1.789267 0.530406 -2 0 -2 
C -0.530406 -2 -1.03916 -1.789267 -1.414214 -1.414214 
C -1.789267 -1.03916 -2 -0.530406 -2 0 
C -2 0.530406 -1.789267 1.03916 -1.414214 1.414214 
C -1.03916 1.789267 -0.530406 2 0 2 
z
" style="stroke: #000000; stroke-width: 0.7"/>
    </defs>
    <g clip-path="url(#p8f517abf51)">
     <use xlink:href="#m80e019e4b0" x="172.605085" y="228.141818" style="fill: #ffffff; stroke: #000000; stroke-width: 0.7"/>
    </g>
   </g>
   <g id="line2d_15">
    <defs>
     <path id="mb44edab823" d="M -2.5 2.5 
L 2.5 2.5 
L 2.5 -2.5 
L -2.5 -2.5 
z
" style="stroke: #000000; stroke-linejoin: miter"/>
    </defs>
    <g clip-path="url(#p8f517abf51)">
     <use xlink:href="#mb44edab823" x="93.311792" y="148.848525" style="stroke: #000000; stroke-linejoin: miter"/>
    </g>
   </g>
   <g id="line2d_16">
    <path d="M 269.845994 325.382727 
L 349.139288 404.676021 
L 349.139288 404.676021 
" clip-path="url(#p8f517abf51)" style="fill: none; stroke: #000000; stroke-linecap: square"/>
   </g>
   <g id="line2d_17">
    <g clip-path="url(#p8f517abf51)">
     <use xlink:href="#m80e019e4b0" x="269.845994" y="325.382727" style="fill: #ffffff; stroke: #000000; stroke-width: 0.7"/>
    </g>
   </g>
   <g id="line2d_18">
    <g clip-path="url(#p8f517abf51)">
     <use xlink:href="#mb44edab823" x="349.139288" y="404.676021" style="stroke: #000000; stroke-linejoin: miter"/>
    </g>
   </g>
   <g id="line2d_19">
    <path d="M 172.605085 325.382727 
L 172.605085 325.382727 
" clip-path="url(#p8f517abf51)" style="fill: none; stroke: #000000; stroke-linecap: square"/>
   </g>
   <g id="line2d_20">
    <g clip-path="url(#p8f517abf51)">
     <use xlink:href="#m80e019e4b0" x="172.605085" y="325.382727" style="fill: #ffffff; stroke: #000000; stroke-width: 0.7"/>
    </g>
   </g>
   <g id="line2d_21">
    <g clip-path="url(#p8f517abf51)">
     <use xlink:href="#mb44edab823" x="172.605085" y="325.382727" style="stroke: #000000; stroke-linejoin: miter"/>
    </g>
   </g>
   <g id="line2d_22">
    <path d="M 133.708722 189.245455 
L 93.311792 148.848525 
L 93.311792 148.848525 
" clip-path="url(#p8f517abf51)" style="fill: none; stroke: #000000; stroke-linecap: square"/>
   </g>
   <g id="line2d_23">
    <g clip-path="url(#p8f517abf51)">
     <use xlink:href="#m80e019e4b0" x="133.708722" y="189.245455" style="fill: #ffffff; stroke: #000000; stroke-width: 0.7"/>
    </g>
   </g>
   <g id="line2d_24">
    <g clip-path="url(#p8f517abf51)">
     <use xlink:href="#mb44edab823" x="93.311792" y="148.848525" style="stroke: #000000; stroke-linejoin: miter"/>
    </g>
   </g>
   <g id="line2d_25">
    <path d="M 308.742358 364.279091 
L 349.139288 404.676021 
L 349.139288 404.676021 
" clip-path="url(#p8f517abf51)" style="fill: none; stroke: #000000; stroke-linecap: square"/>
   </g>
   <g id="line2d_26">
    <g clip-path="url(#p8f517abf51)">
     <use xlink:href="#m80e019e4b0" x="308.742358" y="364.279091" style="fill: #ffffff; stroke: #000000; stroke-width: 0.7"/>
    </g>
   </g>
   <g id="line2d_27">
    <g clip-path="url(#p8f517abf51)">
     <use xlink:href="#mb44edab823" x="349.139288" y="404.676021" style="stroke: #000000; stroke-linejoin: miter"/>
    </g>
   </g>
   <g id="line2d_28">
    <defs>
     <path id="m0e163a0502" d="M 0 -5 
L -1.12257 -1.545085 
L -4.755283 -1.545085 
L -1.816356 0.59017 
L -2.938926 4.045085 
L -0 1.90983 
L 2.938926 4.045085 
L 1.816356 0.59017 
L 4.755283 -1.545085 
L 1.12257 -1.545085 
z
" style="stroke: #000000; stroke-width: 0.8; stroke-linejoin: bevel"/>
    </defs>
    <g clip-path="url(#p8f517abf51)">
     <use xlink:href="#m0e163a0502" x="185.57054" y="312.417273" style="fill: #ffffff; stroke: #000000; stroke-width: 0.8; stroke-linejoin: bevel"/>
    </g>
   </g>
   <g id="line2d_29"/>
   <g id="line2d_30"/>
   <g id="line2d_31"/>
   <g id="line2d_32"/>
   <g id="patch_4">
    <path d="M 36.467813 461.52 
L 36.467813 33.66 
" style="fill: none; stroke: #000000; stroke-width: 0.6; stroke-linejoin: miter; stroke-linecap: square"/>
   </g>
   <g id="patch_5">
    <path d="M 36.467813 461.52 
L 464.327813 461.52 
" style="fill: none; stroke: #000000; stroke-width: 0.6; stroke-linejoin: miter; stroke-linecap: square"/>
   </g>
   <g id="text_15">
    <!-- $u_3 = 1$ -->
    <g transform="translate(18.336722 457.024528) scale(0.1 -0.1)">
     <defs>
      <path id="DejaVuSans-33" d="M 2597 2516 
Q 3050 2419 3304 2112 
Q 3559 1806 3559 1356 
Q 3559 666 3084 287 
Q 2609 -91 1734 -91 
Q 1441 -91 1130 -33 
Q 819 25 488 141 
L 488 750 
Q 750 597 1062 519 
Q 1375 441 1716 441 
Q 2309 441 2620 675 
Q 2931 909 2931 1356 
Q 2931 1769 2642 2001 
Q 2353 2234 1838 2234 
L 1294 2234 
L 1294 2753 
L 1863 2753 
Q 2328 2753 2575 2939 
Q 2822 3125 2822 3475 
Q 2822 3834 2567 4026 
Q 2313 4219 1838 4219 
Q 1578 4219 1281 4162 
Q 984 4106 628 3988 
L 628 4550 
Q 988 4650 1302 4700 
Q 1616 4750 1894 4750 
Q 2613 4750 3031 4423 
Q 3450 4097 3450 3541 
Q 3450 3153 3228 2886 
Q 3006 2619 2597 2516 
z
" transform="scale(0.015625)"/>
      <path id="DejaVuSans-3d" d="M 678 2906 
L 4684 2906 
L 4684 2381 
L 678 2381 
L 678 2906 
z
M 678 1631 
L 4684 1631 
L 4684 1100 
L 678 1100 
L 678 1631 
z
" transform="scale(0.015625)"/>
     </defs>
     <use xlink:href="#DejaVuSans-Oblique-75" transform="translate(0 0.09375)"/>
     <use xlink:href="#DejaVuSans-33" transform="translate(63.378906 -16.3125) scale(0.7)"/>
     <use xlink:href="#DejaVuSans-3d" transform="translate(130.131836 0.09375)"/>
     <use xlink:href="#DejaVuSans-31" transform="translate(233.40332 0.09375)"/>
    </g>
   </g>
   <g id="text_16">
    <!-- $u_1 = 1$ -->
    <g transform="translate(452.658903 457.024528) scale(0.1 -0.1)">
     <use xlink:href="#DejaVuSans-Oblique-75" transform="translate(0 0.09375)"/>
     <use xlink:href="#DejaVuSans-31" transform="translate(63.378906 -16.3125) scale(0.7)"/>
     <use xlink:href="#DejaVuSans-3d" transform="translate(130.131836 0.09375)"/>
     <use xlink:href="#DejaVuSans-31" transform="translate(233.40332 0.09375)"/>
    </g>
   </g>
   <g id="text_17">
    <!-- $u_2 = 1$ -->
    <g transform="translate(18.336722 43.244534) scale(0.1 -0.1)">
     <use xlink:href="#DejaVuSans-Oblique-75" transform="translate(0 0.09375)"/>
     <use xlink:href="#DejaVuSans-32" transform="translate(63.378906 -16.3125) scale(0.7)"/>
     <use xlink:href="#DejaVuSans-3d" transform="translate(130.131836 0.09375)"/>
     <use xlink:href="#DejaVuSans-31" transform="translate(233.40332 0.09375)"/>
    </g>
   </g>
   <g id="text_18">
    <!-- uniform $u \equiv c$ -->
    <g transform="translate(193.349813 296.0135) scale(0.08 -0.08)">
     <defs>
      <path id="Helvetica-75" d="M 975 3347 
L 975 1125 
Q 975 869 1056 706 
Q 1206 406 1616 406 
Q 2203 406 2416 931 
Q 2531 1213 2531 1703 
L 2531 3347 
L 3094 3347 
L 3094 0 
L 2563 0 
L 2569 494 
Q 2459 303 2297 172 
Q 1975 -91 1516 -91 
Q 800 -91 541 388 
Q 400 644 400 1072 
L 400 3347 
L 975 3347 
z
M 1747 3428 
L 1747 3428 
z
" transform="scale(0.015625)"/>
      <path id="Helvetica-6e" d="M 413 3347 
L 947 3347 
L 947 2872 
Q 1184 3166 1450 3294 
Q 1716 3422 2041 3422 
Q 2753 3422 3003 2925 
Q 3141 2653 3141 2147 
L 3141 0 
L 2569 0 
L 2569 2109 
Q 2569 2416 2478 2603 
Q 2328 2916 1934 2916 
Q 1734 2916 1606 2875 
Q 1375 2806 1200 2600 
Q 1059 2434 1017 2257 
Q 975 2081 975 1753 
L 975 0 
L 413 0 
L 413 3347 
z
M 1734 3428 
L 1734 3428 
z
" transform="scale(0.015625)"/>
      <path id="Helvetica-69" d="M 413 3331 
L 984 3331 
L 984 0 
L 413 0 
L 413 3331 
z
M 413 4591 
L 984 4591 
L 984 3953 
L 413 3953 
L 413 4591 
z
" transform="scale(0.015625)"/>
      <path id="Helvetica-66" d="M 553 3856 
Q 566 4206 675 4369 
Q 872 4656 1434 4656 
Q 1488 4656 1544 4653 
Q 1600 4650 1672 4644 
L 1672 4131 
Q 1584 4138 1545 4139 
Q 1506 4141 1472 4141 
Q 1216 4141 1166 4008 
Q 1116 3875 1116 3331 
L 1672 3331 
L 1672 2888 
L 1109 2888 
L 1109 0 
L 553 0 
L 553 2888 
L 88 2888 
L 88 3331 
L 553 3331 
L 553 3856 
z
" transform="scale(0.015625)"/>
      <path id="Helvetica-6f" d="M 1741 363 
Q 2300 363 2508 786 
Q 2716 1209 2716 1728 
Q 2716 2197 2566 2491 
Q 2328 2953 1747 2953 
Q 1231 2953 997 2559 
Q 763 2166 763 1609 
Q 763 1075 997 719 
Q 1231 363 1741 363 
z
M 1763 3444 
Q 2409 3444 2856 3012 
Q 3303 2581 3303 1744 
Q 3303 934 2909 406 
Q 2516 -122 1688 -122 
Q 997 -122 590 345 
Q 184 813 184 1600 
Q 184 2444 612 2944 
Q 1041 3444 1763 3444 
z
M 1744 3428 
L 1744 3428 
z
" transform="scale(0.015625)"/>
      <path id="Helvetica-72" d="M 428 3347 
L 963 3347 
L 963 2769 
Q 1028 2938 1284 3180 
Q 1541 3422 1875 3422 
Q 1891 3422 1928 3419 
Q 1966 3416 2056 3406 
L 2056 2813 
Q 2006 2822 1964 2825 
Q 1922 2828 1872 2828 
Q 1447 2828 1219 2554 
Q 991 2281 991 1925 
L 991 0 
L 428 0 
L 428 3347 
z
" transform="scale(0.015625)"/>
      <path id="Helvetica-6d" d="M 413 3347 
L 969 3347 
L 969 2872 
Q 1169 3119 1331 3231 
Q 1609 3422 1963 3422 
Q 2363 3422 2606 3225 
Q 2744 3113 2856 2894 
Q 3044 3163 3297 3292 
Q 3550 3422 3866 3422 
Q 4541 3422 4784 2934 
Q 4916 2672 4916 2228 
L 4916 0 
L 4331 0 
L 4331 2325 
Q 4331 2659 4164 2784 
Q 3997 2909 3756 2909 
Q 3425 2909 3186 2687 
Q 2947 2466 2947 1947 
L 2947 0 
L 2375 0 
L 2375 2184 
Q 2375 2525 2294 2681 
Q 2166 2916 1816 2916 
Q 1497 2916 1236 2669 
Q 975 2422 975 1775 
L 975 0 
L 413 0 
L 413 3347 
z
" transform="scale(0.015625)"/>
      <path id="Helvetica-20" transform="scale(0.015625)"/>
      <path id="DejaVuSans-2261" d="M 678 2272 
L 4684 2272 
L 4684 1741 
L 678 1741 
L 678 2272 
z
M 678 3438 
L 4684 3438 
L 4684 2906 
L 678 2906 
L 678 3438 
z
M 678 1106 
L 4684 1106 
L 4684 575 
L 678 575 
L 678 1106 
z
" transform="scale(0.015625)"/>
      <path id="DejaVuSans-Oblique-63" d="M 3431 3366 
L 3316 2797 
Q 3109 2947 2876 3022 
Q 2644 3097 2394 3097 
Q 2119 3097 1870 3000 
Q 1622 2903 1453 2725 
Q 1184 2453 1037 2087 
Q 891 1722 891 1331 
Q 891 859 1127 628 
Q 1363 397 1844 397 
Q 2081 397 2348 469 
Q 2616 541 2906 684 
L 2797 116 
Q 2547 13 2283 -39 
Q 2019 -91 1741 -91 
Q 1044 -91 669 257 
Q 294 606 294 1253 
Q 294 1797 489 2255 
Q 684 2713 1069 3078 
Q 1331 3328 1684 3456 
Q 2038 3584 2456 3584 
Q 2700 3584 2940 3529 
Q 3181 3475 3431 3366 
z
" transform="scale(0.015625)"/>
     </defs>
     <use xlink:href="#Helvetica-75" transform="translate(0 0.25)"/>
     <use xlink:href="#Helvetica-6e" transform="translate(55.615234 0.25)"/>
     <use xlink:href="#Helvetica-69" transform="translate(111.230469 0.25)"/>
     <use xlink:href="#Helvetica-66" transform="translate(133.447266 0.25)"/>
     <use xlink:href="#Helvetica-6f" transform="translate(161.230469 0.25)"/>
     <use xlink:href="#Helvetica-72" transform="translate(216.845703 0.25)"/>
     <use xlink:href="#Helvetica-6d" transform="translate(250.146484 0.25)"/>
     <use xlink:href="#Helvetica-20" transform="translate(333.447266 0.25)"/>
     <use xlink:href="#DejaVuSans-Oblique-75" transform="translate(361.230469 0.25)"/>
     <use xlink:href="#DejaVuSans-2261" transform="translate(444.091797 0.25)"/>
     <use xlink:href="#DejaVuSans-Oblique-63" transform="translate(547.363281 0.25)"/>
    </g>
    <!-- (saddle) -->
    <g transform="translate(193.349813 304.638) scale(0.08 -0.08)">
     <defs>
      <path id="Helvetica-28" d="M 1894 4666 
Q 1403 3713 1256 3263 
Q 1034 2578 1034 1681 
Q 1034 775 1288 25 
Q 1444 -438 1903 -1306 
L 1525 -1306 
Q 1069 -594 959 -397 
Q 850 -200 722 138 
Q 547 600 478 1125 
Q 444 1397 444 1644 
Q 444 2569 734 3291 
Q 919 3750 1503 4666 
L 1894 4666 
z
" transform="scale(0.015625)"/>
      <path id="Helvetica-73" d="M 747 1050 
Q 772 769 888 619 
Q 1100 347 1625 347 
Q 1938 347 2175 483 
Q 2413 619 2413 903 
Q 2413 1119 2222 1231 
Q 2100 1300 1741 1391 
L 1294 1503 
Q 866 1609 663 1741 
Q 300 1969 300 2372 
Q 300 2847 642 3140 
Q 984 3434 1563 3434 
Q 2319 3434 2653 2991 
Q 2863 2709 2856 2384 
L 2325 2384 
Q 2309 2575 2191 2731 
Q 1997 2953 1519 2953 
Q 1200 2953 1036 2831 
Q 872 2709 872 2509 
Q 872 2291 1088 2159 
Q 1213 2081 1456 2022 
L 1828 1931 
Q 2434 1784 2641 1647 
Q 2969 1431 2969 969 
Q 2969 522 2630 197 
Q 2291 -128 1597 -128 
Q 850 -128 539 211 
Q 228 550 206 1050 
L 747 1050 
z
M 1578 3428 
L 1578 3428 
z
" transform="scale(0.015625)"/>
      <path id="Helvetica-61" d="M 844 891 
Q 844 647 1022 506 
Q 1200 366 1444 366 
Q 1741 366 2019 503 
Q 2488 731 2488 1250 
L 2488 1703 
Q 2384 1638 2221 1594 
Q 2059 1550 1903 1531 
L 1563 1488 
Q 1256 1447 1103 1359 
Q 844 1213 844 891 
z
M 2206 2028 
Q 2400 2053 2466 2191 
Q 2503 2266 2503 2406 
Q 2503 2694 2298 2823 
Q 2094 2953 1713 2953 
Q 1272 2953 1088 2716 
Q 984 2584 953 2325 
L 428 2325 
Q 444 2944 830 3186 
Q 1216 3428 1725 3428 
Q 2316 3428 2684 3203 
Q 3050 2978 3050 2503 
L 3050 575 
Q 3050 488 3086 434 
Q 3122 381 3238 381 
Q 3275 381 3322 386 
Q 3369 391 3422 400 
L 3422 -16 
Q 3291 -53 3222 -62 
Q 3153 -72 3034 -72 
Q 2744 -72 2613 134 
Q 2544 244 2516 444 
Q 2344 219 2022 53 
Q 1700 -113 1313 -113 
Q 847 -113 551 170 
Q 256 453 256 878 
Q 256 1344 547 1600 
Q 838 1856 1309 1916 
L 2206 2028 
z
M 1741 3428 
L 1741 3428 
z
" transform="scale(0.015625)"/>
      <path id="Helvetica-64" d="M 769 1634 
Q 769 1097 997 734 
Q 1225 372 1728 372 
Q 2119 372 2370 708 
Q 2622 1044 2622 1672 
Q 2622 2306 2362 2611 
Q 2103 2916 1722 2916 
Q 1297 2916 1033 2591 
Q 769 2266 769 1634 
z
M 1616 3406 
Q 2000 3406 2259 3244 
Q 2409 3150 2600 2916 
L 2600 4606 
L 3141 4606 
L 3141 0 
L 2634 0 
L 2634 466 
Q 2438 156 2169 18 
Q 1900 -119 1553 -119 
Q 994 -119 584 351 
Q 175 822 175 1603 
Q 175 2334 548 2870 
Q 922 3406 1616 3406 
z
" transform="scale(0.015625)"/>
      <path id="Helvetica-6c" d="M 428 4591 
L 991 4591 
L 991 0 
L 428 0 
L 428 4591 
z
" transform="scale(0.015625)"/>
      <path id="Helvetica-65" d="M 1806 3422 
Q 2163 3422 2497 3255 
Q 2831 3088 3006 2822 
Q 3175 2569 3231 2231 
Q 3281 2000 3281 1494 
L 828 1494 
Q 844 984 1069 676 
Q 1294 369 1766 369 
Q 2206 369 2469 659 
Q 2619 828 2681 1050 
L 3234 1050 
Q 3213 866 3089 639 
Q 2966 413 2813 269 
Q 2556 19 2178 -69 
Q 1975 -119 1719 -119 
Q 1094 -119 659 336 
Q 225 791 225 1609 
Q 225 2416 662 2919 
Q 1100 3422 1806 3422 
z
M 2703 1941 
Q 2669 2306 2544 2525 
Q 2313 2931 1772 2931 
Q 1384 2931 1121 2651 
Q 859 2372 844 1941 
L 2703 1941 
z
M 1753 3428 
L 1753 3428 
z
" transform="scale(0.015625)"/>
      <path id="Helvetica-29" d="M 222 -1306 
Q 719 -338 863 106 
Q 1081 778 1081 1681 
Q 1081 2584 828 3334 
Q 672 3797 213 4666 
L 591 4666 
Q 1072 3897 1173 3717 
Q 1275 3538 1394 3222 
Q 1544 2831 1608 2450 
Q 1672 2069 1672 1716 
Q 1672 791 1378 66 
Q 1194 -400 613 -1306 
L 222 -1306 
z
" transform="scale(0.015625)"/>
     </defs>
     <use xlink:href="#Helvetica-28"/>
     <use xlink:href="#Helvetica-73" transform="translate(33.300781 0)"/>
     <use xlink:href="#Helvetica-61" transform="translate(83.300781 0)"/>
     <use xlink:href="#Helvetica-64" transform="translate(138.916016 0)"/>
     <use xlink:href="#Helvetica-64" transform="translate(194.53125 0)"/>
     <use xlink:href="#Helvetica-6c" transform="translate(250.146484 0)"/>
     <use xlink:href="#Helvetica-65" transform="translate(272.363281 0)"/>
     <use xlink:href="#Helvetica-29" transform="translate(327.978516 0)"/>
    </g>
   </g>
   <g id="text_19">
    <!-- Theorem T14  —  projected gradient flow on  $\Sigma_m$ -->
    <g transform="translate(132.257813 15.23) scale(0.11 -0.11)">
     <defs>
      <path id="Helvetica-54" d="M 3828 4591 
L 3828 4044 
L 2281 4044 
L 2281 0 
L 1650 0 
L 1650 4044 
L 103 4044 
L 103 4591 
L 3828 4591 
z
" transform="scale(0.015625)"/>
      <path id="Helvetica-68" d="M 413 4606 
L 975 4606 
L 975 2894 
Q 1175 3147 1334 3250 
Q 1606 3428 2013 3428 
Q 2741 3428 3000 2919 
Q 3141 2641 3141 2147 
L 3141 0 
L 2563 0 
L 2563 2109 
Q 2563 2478 2469 2650 
Q 2316 2925 1894 2925 
Q 1544 2925 1259 2684 
Q 975 2444 975 1775 
L 975 0 
L 413 0 
L 413 4606 
z
" transform="scale(0.015625)"/>
      <path id="DejaVuSansDisplay-2014" d="M 313 1978 
L 6088 1978 
L 6088 1528 
L 313 1528 
L 313 1978 
z
" transform="scale(0.015625)"/>
      <path id="Helvetica-70" d="M 1825 378 
Q 2219 378 2480 708 
Q 2741 1038 2741 1694 
Q 2741 2094 2625 2381 
Q 2406 2934 1825 2934 
Q 1241 2934 1025 2350 
Q 909 2038 909 1556 
Q 909 1169 1025 897 
Q 1244 378 1825 378 
z
M 369 3331 
L 916 3331 
L 916 2888 
Q 1084 3116 1284 3241 
Q 1569 3428 1953 3428 
Q 2522 3428 2919 2992 
Q 3316 2556 3316 1747 
Q 3316 653 2744 184 
Q 2381 -113 1900 -113 
Q 1522 -113 1266 53 
Q 1116 147 931 375 
L 931 -1334 
L 369 -1334 
L 369 3331 
z
" transform="scale(0.015625)"/>
      <path id="Helvetica-6a" d="M 975 3941 
L 413 3941 
L 413 4591 
L 975 4591 
L 975 3941 
z
M -119 -847 
Q 259 -834 336 -779 
Q 413 -725 413 -438 
L 413 3331 
L 975 3331 
L 975 -497 
Q 975 -863 856 -1044 
Q 659 -1350 109 -1350 
Q 69 -1350 23 -1347 
Q -22 -1344 -119 -1334 
L -119 -847 
z
" transform="scale(0.015625)"/>
      <path id="Helvetica-63" d="M 1703 3444 
Q 2269 3444 2623 3169 
Q 2978 2894 3050 2222 
L 2503 2222 
Q 2453 2531 2275 2736 
Q 2097 2941 1703 2941 
Q 1166 2941 934 2416 
Q 784 2075 784 1575 
Q 784 1072 996 728 
Q 1209 384 1666 384 
Q 2016 384 2220 598 
Q 2425 813 2503 1184 
L 3050 1184 
Q 2956 519 2581 211 
Q 2206 -97 1622 -97 
Q 966 -97 575 383 
Q 184 863 184 1581 
Q 184 2463 612 2953 
Q 1041 3444 1703 3444 
z
M 1616 3428 
L 1616 3428 
z
" transform="scale(0.015625)"/>
      <path id="Helvetica-74" d="M 525 4281 
L 1094 4281 
L 1094 3347 
L 1628 3347 
L 1628 2888 
L 1094 2888 
L 1094 703 
Q 1094 528 1213 469 
Q 1278 434 1431 434 
Q 1472 434 1519 436 
Q 1566 438 1628 444 
L 1628 0 
Q 1531 -28 1426 -40 
Q 1322 -53 1200 -53 
Q 806 -53 665 148 
Q 525 350 525 672 
L 525 2888 
L 72 2888 
L 72 3347 
L 525 3347 
L 525 4281 
z
" transform="scale(0.015625)"/>
      <path id="Helvetica-67" d="M 1594 3406 
Q 1988 3406 2281 3213 
Q 2441 3103 2606 2894 
L 2606 3316 
L 3125 3316 
L 3125 272 
Q 3125 -366 2938 -734 
Q 2588 -1416 1616 -1416 
Q 1075 -1416 706 -1173 
Q 338 -931 294 -416 
L 866 -416 
Q 906 -641 1028 -763 
Q 1219 -950 1628 -950 
Q 2275 -950 2475 -494 
Q 2594 -225 2584 466 
Q 2416 209 2178 84 
Q 1941 -41 1550 -41 
Q 1006 -41 598 345 
Q 191 731 191 1622 
Q 191 2463 602 2934 
Q 1013 3406 1594 3406 
z
M 2606 1688 
Q 2606 2309 2350 2609 
Q 2094 2909 1697 2909 
Q 1103 2909 884 2353 
Q 769 2056 769 1575 
Q 769 1009 998 714 
Q 1228 419 1616 419 
Q 2222 419 2469 966 
Q 2606 1275 2606 1688 
z
M 1659 3428 
L 1659 3428 
z
" transform="scale(0.015625)"/>
      <path id="Helvetica-77" d="M 672 3347 
L 1316 709 
L 1969 3347 
L 2600 3347 
L 3256 725 
L 3941 3347 
L 4503 3347 
L 3531 0 
L 2947 0 
L 2266 2591 
L 1606 0 
L 1022 0 
L 56 3347 
L 672 3347 
z
" transform="scale(0.015625)"/>
      <path id="DejaVuSans-3a3" d="M 1353 531 
L 3634 531 
L 3634 0 
L 628 0 
L 628 531 
L 2125 2481 
L 628 4134 
L 628 4666 
L 3578 4666 
L 3578 4134 
L 1353 4134 
L 2850 2494 
L 1353 531 
z
" transform="scale(0.015625)"/>
      <path id="DejaVuSans-Oblique-6d" d="M 5747 2113 
L 5338 0 
L 4763 0 
L 5166 2094 
Q 5191 2228 5203 2325 
Q 5216 2422 5216 2491 
Q 5216 2772 5059 2928 
Q 4903 3084 4622 3084 
Q 4203 3084 3875 2770 
Q 3547 2456 3450 1953 
L 3066 0 
L 2491 0 
L 2900 2094 
Q 2925 2209 2937 2307 
Q 2950 2406 2950 2484 
Q 2950 2769 2794 2926 
Q 2638 3084 2363 3084 
Q 1938 3084 1609 2770 
Q 1281 2456 1184 1953 
L 800 0 
L 225 0 
L 909 3500 
L 1484 3500 
L 1375 2956 
Q 1609 3263 1923 3423 
Q 2238 3584 2597 3584 
Q 2978 3584 3223 3384 
Q 3469 3184 3519 2828 
Q 3781 3197 4126 3390 
Q 4472 3584 4856 3584 
Q 5306 3584 5551 3325 
Q 5797 3066 5797 2591 
Q 5797 2488 5784 2364 
Q 5772 2241 5747 2113 
z
" transform="scale(0.015625)"/>
     </defs>
     <use xlink:href="#Helvetica-54" transform="translate(0 0.09375)"/>
     <use xlink:href="#Helvetica-68" transform="translate(61.083984 0.09375)"/>
     <use xlink:href="#Helvetica-65" transform="translate(116.699219 0.09375)"/>
     <use xlink:href="#Helvetica-6f" transform="translate(172.314453 0.09375)"/>
     <use xlink:href="#Helvetica-72" transform="translate(227.929688 0.09375)"/>
     <use xlink:href="#Helvetica-65" transform="translate(261.230469 0.09375)"/>
     <use xlink:href="#Helvetica-6d" transform="translate(316.845703 0.09375)"/>
     <use xlink:href="#Helvetica-20" transform="translate(400.146484 0.09375)"/>
     <use xlink:href="#Helvetica-54" transform="translate(427.929688 0.09375)"/>
     <use xlink:href="#Helvetica-31" transform="translate(489.013672 0.09375)"/>
     <use xlink:href="#Helvetica-34" transform="translate(544.628906 0.09375)"/>
     <use xlink:href="#Helvetica-20" transform="translate(600.244141 0.09375)"/>
     <use xlink:href="#Helvetica-20" transform="translate(628.027344 0.09375)"/>
     <use xlink:href="#DejaVuSansDisplay-2014" transform="translate(655.810547 0.09375)"/>
     <use xlink:href="#Helvetica-20" transform="translate(755.810547 0.09375)"/>
     <use xlink:href="#Helvetica-20" transform="translate(783.59375 0.09375)"/>
     <use xlink:href="#Helvetica-70" transform="translate(811.376953 0.09375)"/>
     <use xlink:href="#Helvetica-72" transform="translate(866.992188 0.09375)"/>
     <use xlink:href="#Helvetica-6f" transform="translate(900.292969 0.09375)"/>
     <use xlink:href="#Helvetica-6a" transform="translate(955.908203 0.09375)"/>
     <use xlink:href="#Helvetica-65" transform="translate(978.125 0.09375)"/>
     <use xlink:href="#Helvetica-63" transform="translate(1033.740234 0.09375)"/>
     <use xlink:href="#Helvetica-74" transform="translate(1083.740234 0.09375)"/>
     <use xlink:href="#Helvetica-65" transform="translate(1111.523438 0.09375)"/>
     <use xlink:href="#Helvetica-64" transform="translate(1167.138672 0.09375)"/>
     <use xlink:href="#Helvetica-20" transform="translate(1222.753906 0.09375)"/>
     <use xlink:href="#Helvetica-67" transform="translate(1250.537109 0.09375)"/>
     <use xlink:href="#Helvetica-72" transform="translate(1306.152344 0.09375)"/>
     <use xlink:href="#Helvetica-61" transform="translate(1339.453125 0.09375)"/>
     <use xlink:href="#Helvetica-64" transform="translate(1395.068359 0.09375)"/>
     <use xlink:href="#Helvetica-69" transform="translate(1450.683594 0.09375)"/>
     <use xlink:href="#Helvetica-65" transform="translate(1472.900391 0.09375)"/>
     <use xlink:href="#Helvetica-6e" transform="translate(1528.515625 0.09375)"/>
     <use xlink:href="#Helvetica-74" transform="translate(1584.130859 0.09375)"/>
     <use xlink:href="#Helvetica-20" transform="translate(1611.914062 0.09375)"/>
     <use xlink:href="#Helvetica-66" transform="translate(1639.697266 0.09375)"/>
     <use xlink:href="#Helvetica-6c" transform="translate(1667.480469 0.09375)"/>
     <use xlink:href="#Helvetica-6f" transform="translate(1689.697266 0.09375)"/>
     <use xlink:href="#Helvetica-77" transform="translate(1745.3125 0.09375)"/>
     <use xlink:href="#Helvetica-20" transform="translate(1817.529297 0.09375)"/>
     <use xlink:href="#Helvetica-6f" transform="translate(1845.3125 0.09375)"/>
     <use xlink:href="#Helvetica-6e" transform="translate(1900.927734 0.09375)"/>
     <use xlink:href="#Helvetica-20" transform="translate(1956.542969 0.09375)"/>
     <use xlink:href="#Helvetica-20" transform="translate(1984.326172 0.09375)"/>
     <use xlink:href="#DejaVuSans-3a3" transform="translate(2012.109375 0.09375)"/>
     <use xlink:href="#DejaVuSans-Oblique-6d" transform="translate(2076.25 -16.3125) scale(0.7)"/>
    </g>
    <!-- (simplex with $n = 3$, $m = 1$;  double-well + smoothness energy) -->
    <g transform="translate(96.177813 27.66) scale(0.11 -0.11)">
     <defs>
      <path id="Helvetica-78" d="M 94 3347 
L 822 3347 
L 1591 2169 
L 2369 3347 
L 3053 3331 
L 1925 1716 
L 3103 0 
L 2384 0 
L 1553 1256 
L 747 0 
L 34 0 
L 1213 1716 
L 94 3347 
z
" transform="scale(0.015625)"/>
      <path id="DejaVuSans-Oblique-6e" d="M 3566 2113 
L 3156 0 
L 2578 0 
L 2988 2091 
Q 3016 2238 3031 2350 
Q 3047 2463 3047 2528 
Q 3047 2791 2881 2937 
Q 2716 3084 2419 3084 
Q 1956 3084 1622 2776 
Q 1288 2469 1184 1941 
L 800 0 
L 225 0 
L 903 3500 
L 1478 3500 
L 1363 2950 
Q 1603 3253 1940 3418 
Q 2278 3584 2650 3584 
Q 3113 3584 3367 3334 
Q 3622 3084 3622 2631 
Q 3622 2519 3608 2391 
Q 3594 2263 3566 2113 
z
" transform="scale(0.015625)"/>
      <path id="Helvetica-2c" d="M 531 -653 
Q 747 -616 834 -350 
Q 881 -209 881 -78 
Q 881 -56 879 -39 
Q 878 -22 872 0 
L 531 0 
L 531 681 
L 1200 681 
L 1200 50 
Q 1200 -322 1050 -603 
Q 900 -884 531 -950 
L 531 -653 
z
" transform="scale(0.015625)"/>
      <path id="Helvetica-3b" d="M 709 -653 
Q 928 -613 1013 -363 
Q 1056 -231 1056 -75 
Q 1056 -59 1054 -48 
Q 1053 -38 1050 0 
L 709 0 
L 709 681 
L 1375 681 
L 1375 50 
Q 1375 -284 1278 -509 
Q 1116 -878 709 -950 
L 709 -653 
z
M 709 3303 
L 1375 3303 
L 1375 2622 
L 709 2622 
L 709 3303 
z
" transform="scale(0.015625)"/>
      <path id="Helvetica-62" d="M 369 4606 
L 916 4606 
L 916 2941 
Q 1100 3181 1356 3307 
Q 1613 3434 1913 3434 
Q 2538 3434 2927 3004 
Q 3316 2575 3316 1738 
Q 3316 944 2931 419 
Q 2547 -106 1866 -106 
Q 1484 -106 1222 78 
Q 1066 188 888 428 
L 888 0 
L 369 0 
L 369 4606 
z
M 1831 391 
Q 2288 391 2514 753 
Q 2741 1116 2741 1709 
Q 2741 2238 2514 2584 
Q 2288 2931 1847 2931 
Q 1463 2931 1173 2647 
Q 884 2363 884 1709 
Q 884 1238 1003 944 
Q 1225 391 1831 391 
z
" transform="scale(0.015625)"/>
      <path id="Helvetica-2d" d="M 266 2072 
L 1834 2072 
L 1834 1494 
L 266 1494 
L 266 2072 
z
" transform="scale(0.015625)"/>
      <path id="Helvetica-2b" d="M 288 1369 
L 288 1894 
L 1650 1894 
L 1650 3266 
L 2184 3266 
L 2184 1894 
L 3547 1894 
L 3547 1369 
L 2184 1369 
L 2184 0 
L 1650 0 
L 1650 1369 
L 288 1369 
z
" transform="scale(0.015625)"/>
      <path id="Helvetica-79" d="M 2503 3347 
L 3125 3347 
Q 3006 3025 2597 1878 
Q 2291 1016 2084 472 
Q 1597 -809 1397 -1090 
Q 1197 -1372 709 -1372 
Q 591 -1372 527 -1362 
Q 463 -1353 369 -1328 
L 369 -816 
Q 516 -856 581 -865 
Q 647 -875 697 -875 
Q 853 -875 926 -823 
Q 1000 -772 1050 -697 
Q 1066 -672 1162 -440 
Q 1259 -209 1303 -97 
L 66 3347 
L 703 3347 
L 1600 622 
L 2503 3347 
z
M 1597 3428 
L 1597 3428 
z
" transform="scale(0.015625)"/>
     </defs>
     <use xlink:href="#Helvetica-28" transform="translate(0 0.78125)"/>
     <use xlink:href="#Helvetica-73" transform="translate(33.300781 0.78125)"/>
     <use xlink:href="#Helvetica-69" transform="translate(83.300781 0.78125)"/>
     <use xlink:href="#Helvetica-6d" transform="translate(105.517578 0.78125)"/>
     <use xlink:href="#Helvetica-70" transform="translate(188.818359 0.78125)"/>
     <use xlink:href="#Helvetica-6c" transform="translate(244.433594 0.78125)"/>
     <use xlink:href="#Helvetica-65" transform="translate(266.650391 0.78125)"/>
     <use xlink:href="#Helvetica-78" transform="translate(322.265625 0.78125)"/>
     <use xlink:href="#Helvetica-20" transform="translate(372.265625 0.78125)"/>
     <use xlink:href="#Helvetica-77" transform="translate(400.048828 0.78125)"/>
     <use xlink:href="#Helvetica-69" transform="translate(472.265625 0.78125)"/>
     <use xlink:href="#Helvetica-74" transform="translate(494.482422 0.78125)"/>
     <use xlink:href="#Helvetica-68" transform="translate(522.265625 0.78125)"/>
     <use xlink:href="#Helvetica-20" transform="translate(577.880859 0.78125)"/>
     <use xlink:href="#DejaVuSans-Oblique-6e" transform="translate(605.664062 0.78125)"/>
     <use xlink:href="#DejaVuSans-3d" transform="translate(688.525391 0.78125)"/>
     <use xlink:href="#DejaVuSans-33" transform="translate(791.796875 0.78125)"/>
     <use xlink:href="#Helvetica-2c" transform="translate(855.419922 0.78125)"/>
     <use xlink:href="#Helvetica-20" transform="translate(883.203125 0.78125)"/>
     <use xlink:href="#DejaVuSans-Oblique-6d" transform="translate(910.986328 0.78125)"/>
     <use xlink:href="#DejaVuSans-3d" transform="translate(1027.880859 0.78125)"/>
     <use xlink:href="#DejaVuSans-31" transform="translate(1131.152344 0.78125)"/>
     <use xlink:href="#Helvetica-3b" transform="translate(1194.775391 0.78125)"/>
     <use xlink:href="#Helvetica-20" transform="translate(1222.558594 0.78125)"/>
     <use xlink:href="#Helvetica-20" transform="translate(1250.341797 0.78125)"/>
     <use xlink:href="#Helvetica-64" transform="translate(1278.125 0.78125)"/>
     <use xlink:href="#Helvetica-6f" transform="translate(1333.740234 0.78125)"/>
     <use xlink:href="#Helvetica-75" transform="translate(1389.355469 0.78125)"/>
     <use xlink:href="#Helvetica-62" transform="translate(1444.970703 0.78125)"/>
     <use xlink:href="#Helvetica-6c" transform="translate(1500.585938 0.78125)"/>
     <use xlink:href="#Helvetica-65" transform="translate(1522.802734 0.78125)"/>
     <use xlink:href="#Helvetica-2d" transform="translate(1578.417969 0.78125)"/>
     <use xlink:href="#Helvetica-77" transform="translate(1611.71875 0.78125)"/>
     <use xlink:href="#Helvetica-65" transform="translate(1683.935547 0.78125)"/>
     <use xlink:href="#Helvetica-6c" transform="translate(1739.550781 0.78125)"/>
     <use xlink:href="#Helvetica-6c" transform="translate(1761.767578 0.78125)"/>
     <use xlink:href="#Helvetica-20" transform="translate(1783.984375 0.78125)"/>
     <use xlink:href="#Helvetica-2b" transform="translate(1811.767578 0.78125)"/>
     <use xlink:href="#Helvetica-20" transform="translate(1870.166016 0.78125)"/>
     <use xlink:href="#Helvetica-73" transform="translate(1897.949219 0.78125)"/>
     <use xlink:href="#Helvetica-6d" transform="translate(1947.949219 0.78125)"/>
     <use xlink:href="#Helvetica-6f" transform="translate(2031.25 0.78125)"/>
     <use xlink:href="#Helvetica-6f" transform="translate(2086.865234 0.78125)"/>
     <use xlink:href="#Helvetica-74" transform="translate(2142.480469 0.78125)"/>
     <use xlink:href="#Helvetica-68" transform="translate(2170.263672 0.78125)"/>
     <use xlink:href="#Helvetica-6e" transform="translate(2225.878906 0.78125)"/>
     <use xlink:href="#Helvetica-65" transform="translate(2281.494141 0.78125)"/>
     <use xlink:href="#Helvetica-73" transform="translate(2337.109375 0.78125)"/>
     <use xlink:href="#Helvetica-73" transform="translate(2387.109375 0.78125)"/>
     <use xlink:href="#Helvetica-20" transform="translate(2437.109375 0.78125)"/>
     <use xlink:href="#Helvetica-65" transform="translate(2464.892578 0.78125)"/>
     <use xlink:href="#Helvetica-6e" transform="translate(2520.507812 0.78125)"/>
     <use xlink:href="#Helvetica-65" transform="translate(2576.123047 0.78125)"/>
     <use xlink:href="#Helvetica-72" transform="translate(2631.738281 0.78125)"/>
     <use xlink:href="#Helvetica-67" transform="translate(2665.039062 0.78125)"/>
     <use xlink:href="#Helvetica-79" transform="translate(2720.654297 0.78125)"/>
     <use xlink:href="#Helvetica-29" transform="translate(2770.654297 0.78125)"/>
    </g>
   </g>
   <g id="text_20">
    <g clip-path="url(#p8f517abf51)">
     <!-- 1.63 -->
     <g style="opacity: 0.6" transform="translate(78.827152 432.488425) rotate(-330.695127) scale(0.06 -0.06)">
      <defs>
       <path id="Helvetica-33" d="M 1663 -122 
Q 869 -122 511 314 
Q 153 750 153 1375 
L 741 1375 
Q 778 941 903 744 
Q 1122 391 1694 391 
Q 2138 391 2406 628 
Q 2675 866 2675 1241 
Q 2675 1703 2392 1887 
Q 2109 2072 1606 2072 
Q 1550 2072 1492 2070 
Q 1434 2069 1375 2066 
L 1375 2563 
Q 1463 2553 1522 2550 
Q 1581 2547 1650 2547 
Q 1966 2547 2169 2647 
Q 2525 2822 2525 3272 
Q 2525 3606 2287 3787 
Q 2050 3969 1734 3969 
Q 1172 3969 956 3594 
Q 838 3388 822 3006 
L 266 3006 
Q 266 3506 466 3856 
Q 809 4481 1675 4481 
Q 2359 4481 2734 4176 
Q 3109 3872 3109 3294 
Q 3109 2881 2888 2625 
Q 2750 2466 2531 2375 
Q 2884 2278 3082 2001 
Q 3281 1725 3281 1325 
Q 3281 684 2859 281 
Q 2438 -122 1663 -122 
z
" transform="scale(0.015625)"/>
      </defs>
      <use xlink:href="#Helvetica-31"/>
      <use xlink:href="#Helvetica-2e" transform="translate(55.615234 0)"/>
      <use xlink:href="#Helvetica-36" transform="translate(83.398438 0)"/>
      <use xlink:href="#Helvetica-33" transform="translate(139.013672 0)"/>
     </g>
    </g>
   </g>
   <g id="text_21">
    <g clip-path="url(#p8f517abf51)">
     <!-- 1.63 -->
     <g style="opacity: 0.6" transform="translate(316.162075 412.92206) rotate(-324.242227) scale(0.06 -0.06)">
      <use xlink:href="#Helvetica-31"/>
      <use xlink:href="#Helvetica-2e" transform="translate(55.615234 0)"/>
      <use xlink:href="#Helvetica-36" transform="translate(83.398438 0)"/>
      <use xlink:href="#Helvetica-33" transform="translate(139.013672 0)"/>
     </g>
    </g>
   </g>
   <g id="text_22">
    <g clip-path="url(#p8f517abf51)">
     <!-- 1.63 -->
     <g style="opacity: 0.6" transform="translate(405.746407 410.978318) rotate(-288.42261) scale(0.06 -0.06)">
      <use xlink:href="#Helvetica-31"/>
      <use xlink:href="#Helvetica-2e" transform="translate(55.615234 0)"/>
      <use xlink:href="#Helvetica-36" transform="translate(83.398438 0)"/>
      <use xlink:href="#Helvetica-33" transform="translate(139.013672 0)"/>
     </g>
    </g>
   </g>
   <g id="text_23">
    <g clip-path="url(#p8f517abf51)">
     <!-- 1.63 -->
     <g style="opacity: 0.6" transform="translate(134.629656 367.23542) rotate(-311.034971) scale(0.06 -0.06)">
      <use xlink:href="#Helvetica-31"/>
      <use xlink:href="#Helvetica-2e" transform="translate(55.615234 0)"/>
      <use xlink:href="#Helvetica-36" transform="translate(83.398438 0)"/>
      <use xlink:href="#Helvetica-33" transform="translate(139.013672 0)"/>
     </g>
    </g>
   </g>
   <g id="text_24">
    <g clip-path="url(#p8f517abf51)">
     <!-- 1.63 -->
     <g style="opacity: 0.6" transform="translate(133.251617 138.019671) rotate(-302.49096) scale(0.06 -0.06)">
      <use xlink:href="#Helvetica-31"/>
      <use xlink:href="#Helvetica-2e" transform="translate(55.615234 0)"/>
      <use xlink:href="#Helvetica-36" transform="translate(83.398438 0)"/>
      <use xlink:href="#Helvetica-33" transform="translate(139.013672 0)"/>
     </g>
    </g>
   </g>
   <g id="text_25">
    <g clip-path="url(#p8f517abf51)">
     <!-- 1.63 -->
     <g style="opacity: 0.6" transform="translate(63.386147 90.744007) rotate(-13.378842) scale(0.06 -0.06)">
      <use xlink:href="#Helvetica-31"/>
      <use xlink:href="#Helvetica-2e" transform="translate(55.615234 0)"/>
      <use xlink:href="#Helvetica-36" transform="translate(83.398438 0)"/>
      <use xlink:href="#Helvetica-33" transform="translate(139.013672 0)"/>
     </g>
    </g>
   </g>
   <g id="text_26">
    <g clip-path="url(#p8f517abf51)">
     <!-- 1.77 -->
     <g style="opacity: 0.6" transform="translate(59.008832 429.929843) rotate(-316.727821) scale(0.06 -0.06)">
      <defs>
       <path id="Helvetica-37" d="M 3347 4400 
L 3347 3909 
Q 3131 3700 2773 3181 
Q 2416 2663 2141 2063 
Q 1869 1478 1728 997 
Q 1638 688 1494 0 
L 872 0 
Q 1084 1281 1809 2550 
Q 2238 3294 2709 3834 
L 234 3834 
L 234 4400 
L 3347 4400 
z
" transform="scale(0.015625)"/>
      </defs>
      <use xlink:href="#Helvetica-31"/>
      <use xlink:href="#Helvetica-2e" transform="translate(55.615234 0)"/>
      <use xlink:href="#Helvetica-37" transform="translate(83.398438 0)"/>
      <use xlink:href="#Helvetica-37" transform="translate(139.013672 0)"/>
     </g>
    </g>
   </g>
   <g id="text_27">
    <g clip-path="url(#p8f517abf51)">
     <!-- 1.77 -->
     <g style="opacity: 0.6" transform="translate(238.474564 387.188331) rotate(-326.744153) scale(0.06 -0.06)">
      <use xlink:href="#Helvetica-31"/>
      <use xlink:href="#Helvetica-2e" transform="translate(55.615234 0)"/>
      <use xlink:href="#Helvetica-37" transform="translate(83.398438 0)"/>
      <use xlink:href="#Helvetica-37" transform="translate(139.013672 0)"/>
     </g>
    </g>
   </g>
   <g id="text_28">
    <g clip-path="url(#p8f517abf51)">
     <!-- 1.77 -->
     <g style="opacity: 0.6" transform="translate(425.682121 426.990216) rotate(-270.309413) scale(0.06 -0.06)">
      <use xlink:href="#Helvetica-31"/>
      <use xlink:href="#Helvetica-2e" transform="translate(55.615234 0)"/>
      <use xlink:href="#Helvetica-37" transform="translate(83.398438 0)"/>
      <use xlink:href="#Helvetica-37" transform="translate(139.013672 0)"/>
     </g>
    </g>
   </g>
   <g id="text_29">
    <g clip-path="url(#p8f517abf51)">
     <!-- 1.77 -->
     <g style="opacity: 0.6" transform="translate(90.648465 230.316925) rotate(-305.78366) scale(0.06 -0.06)">
      <use xlink:href="#Helvetica-31"/>
      <use xlink:href="#Helvetica-2e" transform="translate(55.615234 0)"/>
      <use xlink:href="#Helvetica-37" transform="translate(83.398438 0)"/>
      <use xlink:href="#Helvetica-37" transform="translate(139.013672 0)"/>
     </g>
    </g>
   </g>
   <g id="text_30">
    <g clip-path="url(#p8f517abf51)">
     <!-- 1.77 -->
     <g style="opacity: 0.6" transform="translate(174.293405 181.963827) rotate(-297.500412) scale(0.06 -0.06)">
      <use xlink:href="#Helvetica-31"/>
      <use xlink:href="#Helvetica-2e" transform="translate(55.615234 0)"/>
      <use xlink:href="#Helvetica-37" transform="translate(83.398438 0)"/>
      <use xlink:href="#Helvetica-37" transform="translate(139.013672 0)"/>
     </g>
    </g>
   </g>
   <g id="text_31">
    <g clip-path="url(#p8f517abf51)">
     <!-- 1.77 -->
     <g style="opacity: 0.6" transform="translate(59.320326 72.239196) rotate(-359.656893) scale(0.06 -0.06)">
      <use xlink:href="#Helvetica-31"/>
      <use xlink:href="#Helvetica-2e" transform="translate(55.615234 0)"/>
      <use xlink:href="#Helvetica-37" transform="translate(83.398438 0)"/>
      <use xlink:href="#Helvetica-37" transform="translate(139.013672 0)"/>
     </g>
    </g>
   </g>
   <g id="text_32">
    <g clip-path="url(#p8f517abf51)">
     <!-- 1.77 -->
     <g style="opacity: 0.6" transform="translate(181.921095 333.763247) rotate(-322.26658) scale(0.06 -0.06)">
      <use xlink:href="#Helvetica-31"/>
      <use xlink:href="#Helvetica-2e" transform="translate(55.615234 0)"/>
      <use xlink:href="#Helvetica-37" transform="translate(83.398438 0)"/>
      <use xlink:href="#Helvetica-37" transform="translate(139.013672 0)"/>
     </g>
    </g>
   </g>
   <g id="text_33">
    <g clip-path="url(#p8f517abf51)">
     <!-- 1.92 -->
     <g style="opacity: 0.6" transform="translate(268.49223 434.595165) rotate(-345.368601) scale(0.06 -0.06)">
      <defs>
       <path id="Helvetica-39" d="M 850 1081 
Q 875 616 1209 438 
Q 1381 344 1597 344 
Q 2000 344 2284 680 
Q 2569 1016 2688 2044 
Q 2500 1747 2223 1626 
Q 1947 1506 1628 1506 
Q 981 1506 604 1909 
Q 228 2313 228 2947 
Q 228 3556 600 4018 
Q 972 4481 1697 4481 
Q 2675 4481 3047 3600 
Q 3253 3116 3253 2388 
Q 3253 1566 3006 931 
Q 2597 -125 1619 -125 
Q 963 -125 622 219 
Q 281 563 281 1081 
L 850 1081 
z
M 1703 2000 
Q 2038 2000 2314 2220 
Q 2591 2441 2591 2991 
Q 2591 3484 2342 3726 
Q 2094 3969 1709 3969 
Q 1297 3969 1055 3692 
Q 813 3416 813 2953 
Q 813 2516 1025 2258 
Q 1238 2000 1703 2000 
z
" transform="scale(0.015625)"/>
      </defs>
      <use xlink:href="#Helvetica-31"/>
      <use xlink:href="#Helvetica-2e" transform="translate(55.615234 0)"/>
      <use xlink:href="#Helvetica-39" transform="translate(83.398438 0)"/>
      <use xlink:href="#Helvetica-32" transform="translate(139.013672 0)"/>
     </g>
    </g>
   </g>
   <g id="text_34">
    <g clip-path="url(#p8f517abf51)">
     <!-- 1.92 -->
     <g style="opacity: 0.6" transform="translate(60.303524 218.51374) rotate(-286.815024) scale(0.06 -0.06)">
      <use xlink:href="#Helvetica-31"/>
      <use xlink:href="#Helvetica-2e" transform="translate(55.615234 0)"/>
      <use xlink:href="#Helvetica-39" transform="translate(83.398438 0)"/>
      <use xlink:href="#Helvetica-32" transform="translate(139.013672 0)"/>
     </g>
    </g>
   </g>
   <g id="text_35">
    <g clip-path="url(#p8f517abf51)">
     <!-- 1.92 -->
     <g style="opacity: 0.6" transform="translate(212.845739 218.096058) rotate(-307.419327) scale(0.06 -0.06)">
      <use xlink:href="#Helvetica-31"/>
      <use xlink:href="#Helvetica-2e" transform="translate(55.615234 0)"/>
      <use xlink:href="#Helvetica-39" transform="translate(83.398438 0)"/>
      <use xlink:href="#Helvetica-32" transform="translate(139.013672 0)"/>
     </g>
    </g>
   </g>
   <g id="legend_1">
    <g id="patch_6">
     <path d="M 351.052813 86.135 
L 460.327812 86.135 
L 460.327812 37.66 
L 351.052813 37.66 
z
" style="fill: #ffffff; stroke: #000000; stroke-linejoin: miter"/>
    </g>
    <g id="line2d_33">
     <g>
      <use xlink:href="#m80e019e4b0" x="362.252813" y="43.9125" style="fill: #ffffff; stroke: #000000; stroke-width: 0.7"/>
     </g>
    </g>
    <g id="text_36">
     <!-- initial $u^{(0)}$ -->
     <g transform="translate(376.652812 46.7125) scale(0.08 -0.08)">
      <defs>
       <path id="DejaVuSans-28" d="M 1984 4856 
Q 1566 4138 1362 3434 
Q 1159 2731 1159 2009 
Q 1159 1288 1364 580 
Q 1569 -128 1984 -844 
L 1484 -844 
Q 1016 -109 783 600 
Q 550 1309 550 2009 
Q 550 2706 781 3412 
Q 1013 4119 1484 4856 
L 1984 4856 
z
" transform="scale(0.015625)"/>
       <path id="DejaVuSans-30" d="M 2034 4250 
Q 1547 4250 1301 3770 
Q 1056 3291 1056 2328 
Q 1056 1369 1301 889 
Q 1547 409 2034 409 
Q 2525 409 2770 889 
Q 3016 1369 3016 2328 
Q 3016 3291 2770 3770 
Q 2525 4250 2034 4250 
z
M 2034 4750 
Q 2819 4750 3233 4129 
Q 3647 3509 3647 2328 
Q 3647 1150 3233 529 
Q 2819 -91 2034 -91 
Q 1250 -91 836 529 
Q 422 1150 422 2328 
Q 422 3509 836 4129 
Q 1250 4750 2034 4750 
z
" transform="scale(0.015625)"/>
       <path id="DejaVuSans-29" d="M 513 4856 
L 1013 4856 
Q 1481 4119 1714 3412 
Q 1947 2706 1947 2009 
Q 1947 1309 1714 600 
Q 1481 -109 1013 -844 
L 513 -844 
Q 928 -128 1133 580 
Q 1338 1288 1338 2009 
Q 1338 2731 1133 3434 
Q 928 4138 513 4856 
z
" transform="scale(0.015625)"/>
      </defs>
      <use xlink:href="#Helvetica-69" transform="translate(0 0.60625)"/>
      <use xlink:href="#Helvetica-6e" transform="translate(22.216797 0.60625)"/>
      <use xlink:href="#Helvetica-69" transform="translate(77.832031 0.60625)"/>
      <use xlink:href="#Helvetica-74" transform="translate(100.048828 0.60625)"/>
      <use xlink:href="#Helvetica-69" transform="translate(127.832031 0.60625)"/>
      <use xlink:href="#Helvetica-61" transform="translate(150.048828 0.60625)"/>
      <use xlink:href="#Helvetica-6c" transform="translate(205.664062 0.60625)"/>
      <use xlink:href="#Helvetica-20" transform="translate(227.880859 0.60625)"/>
      <use xlink:href="#DejaVuSans-Oblique-75" transform="translate(255.664062 0.60625)"/>
      <use xlink:href="#DejaVuSans-28" transform="translate(323.509115 38.8875) scale(0.7)"/>
      <use xlink:href="#DejaVuSans-30" transform="translate(350.818685 38.8875) scale(0.7)"/>
      <use xlink:href="#DejaVuSans-29" transform="translate(395.354818 38.8875) scale(0.7)"/>
     </g>
    </g>
    <g id="line2d_34">
     <g>
      <use xlink:href="#mb44edab823" x="362.252813" y="55.4125" style="stroke: #000000; stroke-linejoin: miter"/>
     </g>
    </g>
    <g id="text_37">
     <!-- endpoint  (critical) -->
     <g transform="translate(376.652812 58.2125) scale(0.08 -0.08)">
      <use xlink:href="#Helvetica-65"/>
      <use xlink:href="#Helvetica-6e" transform="translate(55.615234 0)"/>
      <use xlink:href="#Helvetica-64" transform="translate(111.230469 0)"/>
      <use xlink:href="#Helvetica-70" transform="translate(166.845703 0)"/>
      <use xlink:href="#Helvetica-6f" transform="translate(222.460938 0)"/>
      <use xlink:href="#Helvetica-69" transform="translate(278.076172 0)"/>
      <use xlink:href="#Helvetica-6e" transform="translate(300.292969 0)"/>
      <use xlink:href="#Helvetica-74" transform="translate(355.908203 0)"/>
      <use xlink:href="#Helvetica-20" transform="translate(383.691406 0)"/>
      <use xlink:href="#Helvetica-20" transform="translate(411.474609 0)"/>
      <use xlink:href="#Helvetica-28" transform="translate(439.257812 0)"/>
      <use xlink:href="#Helvetica-63" transform="translate(472.558594 0)"/>
      <use xlink:href="#Helvetica-72" transform="translate(522.558594 0)"/>
      <use xlink:href="#Helvetica-69" transform="translate(555.859375 0)"/>
      <use xlink:href="#Helvetica-74" transform="translate(578.076172 0)"/>
      <use xlink:href="#Helvetica-69" transform="translate(605.859375 0)"/>
      <use xlink:href="#Helvetica-63" transform="translate(628.076172 0)"/>
      <use xlink:href="#Helvetica-61" transform="translate(678.076172 0)"/>
      <use xlink:href="#Helvetica-6c" transform="translate(733.691406 0)"/>
      <use xlink:href="#Helvetica-29" transform="translate(755.908203 0)"/>
     </g>
    </g>
    <g id="line2d_35">
     <defs>
      <path id="m5a99e0442b" d="M 0 -4 
L -0.898056 -1.236068 
L -3.804226 -1.236068 
L -1.453085 0.472136 
L -2.351141 3.236068 
L -0 1.527864 
L 2.351141 3.236068 
L 1.453085 0.472136 
L 3.804226 -1.236068 
L 0.898056 -1.236068 
z
" style="stroke: #000000; stroke-width: 0.8; stroke-linejoin: bevel"/>
     </defs>
     <g>
      <use xlink:href="#m5a99e0442b" x="362.252813" y="66.8775" style="fill: #ffffff; stroke: #000000; stroke-width: 0.8; stroke-linejoin: bevel"/>
     </g>
    </g>
    <g id="text_38">
     <!-- uniform field  (saddle) -->
     <g transform="translate(376.652812 69.6775) scale(0.08 -0.08)">
      <use xlink:href="#Helvetica-75"/>
      <use xlink:href="#Helvetica-6e" transform="translate(55.615234 0)"/>
      <use xlink:href="#Helvetica-69" transform="translate(111.230469 0)"/>
      <use xlink:href="#Helvetica-66" transform="translate(133.447266 0)"/>
      <use xlink:href="#Helvetica-6f" transform="translate(161.230469 0)"/>
      <use xlink:href="#Helvetica-72" transform="translate(216.845703 0)"/>
      <use xlink:href="#Helvetica-6d" transform="translate(250.146484 0)"/>
      <use xlink:href="#Helvetica-20" transform="translate(333.447266 0)"/>
      <use xlink:href="#Helvetica-66" transform="translate(361.230469 0)"/>
      <use xlink:href="#Helvetica-69" transform="translate(389.013672 0)"/>
      <use xlink:href="#Helvetica-65" transform="translate(411.230469 0)"/>
      <use xlink:href="#Helvetica-6c" transform="translate(466.845703 0)"/>
      <use xlink:href="#Helvetica-64" transform="translate(489.0625 0)"/>
      <use xlink:href="#Helvetica-20" transform="translate(544.677734 0)"/>
      <use xlink:href="#Helvetica-20" transform="translate(572.460938 0)"/>
      <use xlink:href="#Helvetica-28" transform="translate(600.244141 0)"/>
      <use xlink:href="#Helvetica-73" transform="translate(633.544922 0)"/>
      <use xlink:href="#Helvetica-61" transform="translate(683.544922 0)"/>
      <use xlink:href="#Helvetica-64" transform="translate(739.160156 0)"/>
      <use xlink:href="#Helvetica-64" transform="translate(794.775391 0)"/>
      <use xlink:href="#Helvetica-6c" transform="translate(850.390625 0)"/>
      <use xlink:href="#Helvetica-65" transform="translate(872.607422 0)"/>
      <use xlink:href="#Helvetica-29" transform="translate(928.222656 0)"/>
     </g>
    </g>
    <g id="line2d_36">
     <path d="M 354.252813 78.365 
L 362.252813 78.365 
L 370.252813 78.365 
" style="fill: none; stroke: #000000; stroke-linecap: square"/>
    </g>
    <g id="text_39">
     <!-- gradient flow trajectory -->
     <g transform="translate(376.652812 81.165) scale(0.08 -0.08)">
      <use xlink:href="#Helvetica-67"/>
      <use xlink:href="#Helvetica-72" transform="translate(55.615234 0)"/>
      <use xlink:href="#Helvetica-61" transform="translate(88.916016 0)"/>
      <use xlink:href="#Helvetica-64" transform="translate(144.53125 0)"/>
      <use xlink:href="#Helvetica-69" transform="translate(200.146484 0)"/>
      <use xlink:href="#Helvetica-65" transform="translate(222.363281 0)"/>
      <use xlink:href="#Helvetica-6e" transform="translate(277.978516 0)"/>
      <use xlink:href="#Helvetica-74" transform="translate(333.59375 0)"/>
      <use xlink:href="#Helvetica-20" transform="translate(361.376953 0)"/>
      <use xlink:href="#Helvetica-66" transform="translate(389.160156 0)"/>
      <use xlink:href="#Helvetica-6c" transform="translate(416.943359 0)"/>
      <use xlink:href="#Helvetica-6f" transform="translate(439.160156 0)"/>
      <use xlink:href="#Helvetica-77" transform="translate(494.775391 0)"/>
      <use xlink:href="#Helvetica-20" transform="translate(566.992188 0)"/>
      <use xlink:href="#Helvetica-74" transform="translate(594.775391 0)"/>
      <use xlink:href="#Helvetica-72" transform="translate(622.558594 0)"/>
      <use xlink:href="#Helvetica-61" transform="translate(655.859375 0)"/>
      <use xlink:href="#Helvetica-6a" transform="translate(711.474609 0)"/>
      <use xlink:href="#Helvetica-65" transform="translate(733.691406 0)"/>
      <use xlink:href="#Helvetica-63" transform="translate(789.306641 0)"/>
      <use xlink:href="#Helvetica-74" transform="translate(839.306641 0)"/>
      <use xlink:href="#Helvetica-6f" transform="translate(867.089844 0)"/>
      <use xlink:href="#Helvetica-72" transform="translate(922.705078 0)"/>
      <use xlink:href="#Helvetica-79" transform="translate(956.005859 0)"/>
     </g>
    </g>
   </g>
  </g>
 </g>
 <defs>
  <clipPath id="p8f517abf51">
   <rect x="36.467813" y="33.66" width="427.86" height="427.86"/>
  </clipPath>
 </defs>
</svg>
