<?xml version="1.0" encoding="utf-8" standalone="no"?>
<!DOCTYPE svg PUBLIC "-//W3C//DTD SVG 1.1//EN"
  "http://www.w3.org/Graphics/SVG/1.1/DTD/svg11.dtd">
<svg xmlns:xlink="http://www.w3.org/1999/xlink" width="782.734062pt" height="338.632031pt" viewBox="0 0 782.734062 338.632031" xmlns="http://www.w3.org/2000/svg" version="1.1">
 <metadata>
  <rdf:RDF xmlns:dc="http://purl.org/dc/elements/1.1/" xmlns:cc="http://creativecommons.org/ns#" xmlns:rdf="http://www.w3.org/1999/02/22-rdf-syntax-ns#">
   <cc:Work>
    <dc:type rdf:resource="http://purl.org/dc/dcmitype/StillImage"/>
    <dc:date>2026-04-27T01:07:56.808081</dc:date>
    <dc:format>image/svg+xml</dc:format>
    <dc:creator>
     <cc:Agent>
      <dc:title>Matplotlib v3.10.5, https://matplotlib.org/</dc:title>
     </cc:Agent>
    </dc:creator>
   </cc:Work>
  </rdf:RDF>
 </metadata>
 <defs>
  <style type="text/css">*{stroke-linejoin: round; stroke-linecap: butt}</style>
 </defs>
 <g id="figure_1">
  <g id="patch_1">
   <path d="M 0 338.632031 
L 782.734062 338.632031 
L 782.734062 0 
L 0 0 
z
" style="fill: #ffffff"/>
  </g>
  <g id="axes_1">
   <g id="patch_2">
    <path d="M 42.266563 305.7 
L 382.189063 305.7 
L 382.189063 82.572 
L 42.266563 82.572 
z
" style="fill: #ffffff"/>
   </g>
   <g id="FillBetweenPolyCollection_1">
    <defs>
     <path id="me0057dd4d7" d="M 42.266563 -222.405214 
L 42.266563 -213.496761 
L 43.118499 -212.715946 
L 43.970435 -211.93513 
L 44.822371 -211.154314 
L 45.674307 -210.373499 
L 46.526243 -209.592683 
L 47.378179 -208.811867 
L 48.230115 -208.031052 
L 49.082051 -207.250236 
L 49.933987 -206.46942 
L 50.785923 -205.688604 
L 51.637859 -204.907789 
L 52.489796 -204.126973 
L 53.341732 -203.346157 
L 54.193668 -202.565342 
L 55.045604 -201.784526 
L 55.89754 -201.00371 
L 56.749476 -200.222895 
L 57.601412 -199.442079 
L 58.453348 -198.661263 
L 59.305284 -197.880448 
L 60.15722 -197.099632 
L 61.009156 -196.318816 
L 61.861093 -195.538001 
L 62.713029 -194.757185 
L 63.564965 -193.976369 
L 64.416901 -193.195553 
L 65.268837 -192.414738 
L 66.120773 -191.633922 
L 66.972709 -190.853106 
L 67.824645 -190.072291 
L 68.676581 -189.291475 
L 69.528517 -188.510659 
L 70.380453 -187.729844 
L 71.23239 -186.949028 
L 72.084326 -186.168212 
L 72.936262 -185.387397 
L 73.788198 -184.606581 
L 74.640134 -183.825765 
L 75.49207 -183.044949 
L 76.344006 -182.264134 
L 77.195942 -181.483318 
L 78.047878 -180.702502 
L 78.899814 -179.921687 
L 79.75175 -179.140871 
L 80.603687 -178.360055 
L 81.455623 -177.57924 
L 82.307559 -176.798424 
L 83.159495 -176.017608 
L 84.011431 -175.236793 
L 84.863367 -174.455977 
L 85.715303 -173.675161 
L 86.567239 -172.894346 
L 87.419175 -172.11353 
L 88.271111 -171.332714 
L 89.123047 -170.551898 
L 89.974984 -169.771083 
L 90.82692 -168.990267 
L 91.678856 -168.209451 
L 92.530792 -167.428636 
L 93.382728 -166.64782 
L 94.234664 -165.867004 
L 95.0866 -165.086189 
L 95.938536 -164.305373 
L 96.790472 -163.524557 
L 97.642408 -162.743742 
L 98.494344 -161.962926 
L 99.346281 -161.18211 
L 100.198217 -160.401294 
L 101.050153 -159.620479 
L 101.902089 -158.839663 
L 102.754025 -158.058847 
L 103.605961 -157.278032 
L 104.457897 -156.497216 
L 105.309833 -155.7164 
L 106.161769 -154.935585 
L 107.013705 -154.154769 
L 107.865641 -153.373953 
L 108.717578 -152.593138 
L 109.569514 -151.812322 
L 110.42145 -151.031506 
L 111.273386 -150.250691 
L 112.125322 -149.469875 
L 112.977258 -148.689059 
L 113.829194 -147.908243 
L 114.68113 -147.127428 
L 115.533066 -146.346612 
L 116.385002 -145.565796 
L 117.236938 -144.784981 
L 118.088875 -144.004165 
L 118.940811 -143.223349 
L 119.792747 -142.442534 
L 120.644683 -141.661718 
L 121.496619 -140.880902 
L 122.348555 -140.100087 
L 123.200491 -139.319271 
L 124.052427 -138.538455 
L 124.904363 -137.757639 
L 125.756299 -136.976824 
L 126.608235 -136.196008 
L 127.460172 -135.415192 
L 128.312108 -134.634377 
L 129.164044 -133.853561 
L 130.01598 -133.072745 
L 130.867916 -132.29193 
L 131.719852 -131.511114 
L 132.571788 -130.730298 
L 133.423724 -129.949483 
L 134.27566 -129.168667 
L 135.127596 -128.387851 
L 135.979532 -127.607035 
L 136.831469 -126.82622 
L 137.683405 -126.045404 
L 138.535341 -125.264588 
L 139.387277 -124.483773 
L 140.239213 -123.702957 
L 141.091149 -122.922141 
L 141.943085 -122.141326 
L 142.795021 -121.36051 
L 143.646957 -120.579694 
L 144.498893 -119.798879 
L 145.350829 -119.018063 
L 146.202766 -118.237247 
L 147.054702 -117.456432 
L 147.906638 -116.675616 
L 148.758574 -115.8948 
L 149.61051 -115.113984 
L 150.462446 -114.333169 
L 151.314382 -113.552353 
L 152.166318 -112.771537 
L 153.018254 -111.990722 
L 153.87019 -111.209906 
L 154.722126 -110.42909 
L 155.574063 -109.648275 
L 156.425999 -108.867459 
L 157.277935 -108.086643 
L 158.129871 -107.305828 
L 158.981807 -106.525012 
L 159.833743 -105.744196 
L 160.685679 -104.96338 
L 161.537615 -104.182565 
L 162.389551 -103.401749 
L 163.241487 -102.620933 
L 164.093423 -101.840118 
L 164.945359 -101.059302 
L 165.797296 -100.278486 
L 166.649232 -99.497671 
L 167.501168 -98.716855 
L 168.353104 -97.936039 
L 169.20504 -97.155224 
L 170.056976 -96.374408 
L 170.908912 -95.593592 
L 171.760848 -94.812777 
L 172.612784 -94.031961 
L 173.46472 -93.251145 
L 174.316656 -92.470329 
L 175.168593 -91.689514 
L 176.020529 -90.908698 
L 176.872465 -90.127882 
L 177.724401 -89.347067 
L 178.576337 -88.566251 
L 179.428273 -87.785435 
L 180.280209 -87.00462 
L 181.132145 -86.223804 
L 181.984081 -85.442988 
L 182.836017 -84.662173 
L 183.687953 -83.881357 
L 184.53989 -83.100541 
L 185.391826 -82.319725 
L 186.243762 -81.53891 
L 187.095698 -80.758094 
L 187.947634 -79.977278 
L 188.79957 -79.196463 
L 189.651506 -78.415647 
L 190.503442 -77.634831 
L 191.355378 -76.854016 
L 192.207314 -76.0732 
L 193.05925 -75.292384 
L 193.911187 -74.511569 
L 194.763123 -73.730753 
L 195.615059 -72.949937 
L 196.466995 -72.169122 
L 197.318931 -71.388306 
L 198.170867 -70.60749 
L 199.022803 -69.826674 
L 199.874739 -69.045859 
L 200.726675 -68.265043 
L 201.578611 -67.484227 
L 202.430547 -66.703412 
L 203.282484 -65.922596 
L 204.13442 -65.14178 
L 204.986356 -64.360965 
L 205.838292 -63.580149 
L 206.690228 -62.799333 
L 207.542164 -62.018518 
L 208.3941 -61.237702 
L 209.246036 -60.456886 
L 210.097972 -59.67607 
L 210.949908 -58.895255 
L 211.801844 -58.114439 
L 212.653781 -58.114439 
L 213.505717 -58.895255 
L 214.357653 -59.67607 
L 215.209589 -60.456886 
L 216.061525 -61.237702 
L 216.913461 -62.018518 
L 217.765397 -62.799333 
L 218.617333 -63.580149 
L 219.469269 -64.360965 
L 220.321205 -65.14178 
L 221.173141 -65.922596 
L 222.025078 -66.703412 
L 222.877014 -67.484227 
L 223.72895 -68.265043 
L 224.580886 -69.045859 
L 225.432822 -69.826674 
L 226.284758 -70.60749 
L 227.136694 -71.388306 
L 227.98863 -72.169122 
L 228.840566 -72.949937 
L 229.692502 -73.730753 
L 230.544438 -74.511569 
L 231.396375 -75.292384 
L 232.248311 -76.0732 
L 233.100247 -76.854016 
L 233.952183 -77.634831 
L 234.804119 -78.415647 
L 235.656055 -79.196463 
L 236.507991 -79.977278 
L 237.359927 -80.758094 
L 238.211863 -81.53891 
L 239.063799 -82.319725 
L 239.915735 -83.100541 
L 240.767672 -83.881357 
L 241.619608 -84.662173 
L 242.471544 -85.442988 
L 243.32348 -86.223804 
L 244.175416 -87.00462 
L 245.027352 -87.785435 
L 245.879288 -88.566251 
L 246.731224 -89.347067 
L 247.58316 -90.127882 
L 248.435096 -90.908698 
L 249.287032 -91.689514 
L 250.138969 -92.470329 
L 250.990905 -93.251145 
L 251.842841 -94.031961 
L 252.694777 -94.812777 
L 253.546713 -95.593592 
L 254.398649 -96.374408 
L 255.250585 -97.155224 
L 256.102521 -97.936039 
L 256.954457 -98.716855 
L 257.806393 -99.497671 
L 258.658329 -100.278486 
L 259.510266 -101.059302 
L 260.362202 -101.840118 
L 261.214138 -102.620933 
L 262.066074 -103.401749 
L 262.91801 -104.182565 
L 263.769946 -104.96338 
L 264.621882 -105.744196 
L 265.473818 -106.525012 
L 266.325754 -107.305828 
L 267.17769 -108.086643 
L 268.029626 -108.867459 
L 268.881563 -109.648275 
L 269.733499 -110.42909 
L 270.585435 -111.209906 
L 271.437371 -111.990722 
L 272.289307 -112.771537 
L 273.141243 -113.552353 
L 273.993179 -114.333169 
L 274.845115 -115.113984 
L 275.697051 -115.8948 
L 276.548987 -116.675616 
L 277.400923 -117.456432 
L 278.252859 -118.237247 
L 279.104796 -119.018063 
L 279.956732 -119.798879 
L 280.808668 -120.579694 
L 281.660604 -121.36051 
L 282.51254 -122.141326 
L 283.364476 -122.922141 
L 284.216412 -123.702957 
L 285.068348 -124.483773 
L 285.920284 -125.264588 
L 286.77222 -126.045404 
L 287.624156 -126.82622 
L 288.476093 -127.607035 
L 289.328029 -128.387851 
L 290.179965 -129.168667 
L 291.031901 -129.949483 
L 291.883837 -130.730298 
L 292.735773 -131.511114 
L 293.587709 -132.29193 
L 294.439645 -133.072745 
L 295.291581 -133.853561 
L 296.143517 -134.634377 
L 296.995453 -135.415192 
L 297.84739 -136.196008 
L 298.699326 -136.976824 
L 299.551262 -137.757639 
L 300.403198 -138.538455 
L 301.255134 -139.319271 
L 302.10707 -140.100087 
L 302.959006 -140.880902 
L 303.810942 -141.661718 
L 304.662878 -142.442534 
L 305.514814 -143.223349 
L 306.36675 -144.004165 
L 307.218687 -144.784981 
L 308.070623 -145.565796 
L 308.922559 -146.346612 
L 309.774495 -147.127428 
L 310.626431 -147.908243 
L 311.478367 -148.689059 
L 312.330303 -149.469875 
L 313.182239 -150.250691 
L 314.034175 -151.031506 
L 314.886111 -151.812322 
L 315.738047 -152.593138 
L 316.589984 -153.373953 
L 317.44192 -154.154769 
L 318.293856 -154.935585 
L 319.145792 -155.7164 
L 319.997728 -156.497216 
L 320.849664 -157.278032 
L 321.7016 -158.058847 
L 322.553536 -158.839663 
L 323.405472 -159.620479 
L 324.257408 -160.401294 
L 325.109344 -161.18211 
L 325.961281 -161.962926 
L 326.813217 -162.743742 
L 327.665153 -163.524557 
L 328.517089 -164.305373 
L 329.369025 -165.086189 
L 330.220961 -165.867004 
L 331.072897 -166.64782 
L 331.924833 -167.428636 
L 332.776769 -168.209451 
L 333.628705 -168.990267 
L 334.480641 -169.771083 
L 335.332578 -170.551898 
L 336.184514 -171.332714 
L 337.03645 -172.11353 
L 337.888386 -172.894346 
L 338.740322 -173.675161 
L 339.592258 -174.455977 
L 340.444194 -175.236793 
L 341.29613 -176.017608 
L 342.148066 -176.798424 
L 343.000002 -177.57924 
L 343.851938 -178.360055 
L 344.703875 -179.140871 
L 345.555811 -179.921687 
L 346.407747 -180.702502 
L 347.259683 -181.483318 
L 348.111619 -182.264134 
L 348.963555 -183.044949 
L 349.815491 -183.825765 
L 350.667427 -184.606581 
L 351.519363 -185.387397 
L 352.371299 -186.168212 
L 353.223235 -186.949028 
L 354.075172 -187.729844 
L 354.927108 -188.510659 
L 355.779044 -189.291475 
L 356.63098 -190.072291 
L 357.482916 -190.853106 
L 358.334852 -191.633922 
L 359.186788 -192.414738 
L 360.038724 -193.195553 
L 360.89066 -193.976369 
L 361.742596 -194.757185 
L 362.594532 -195.538001 
L 363.446469 -196.318816 
L 364.298405 -197.099632 
L 365.150341 -197.880448 
L 366.002277 -198.661263 
L 366.854213 -199.442079 
L 367.706149 -200.222895 
L 368.558085 -201.00371 
L 369.410021 -201.784526 
L 370.261957 -202.565342 
L 371.113893 -203.346157 
L 371.965829 -204.126973 
L 372.817766 -204.907789 
L 373.669702 -205.688604 
L 374.521638 -206.46942 
L 375.373574 -207.250236 
L 376.22551 -208.031052 
L 377.077446 -208.811867 
L 377.929382 -209.592683 
L 378.781318 -210.373499 
L 379.633254 -211.154314 
L 380.48519 -211.93513 
L 381.337126 -212.715946 
L 382.189063 -213.496761 
L 382.189063 -222.405214 
L 382.189063 -222.405214 
L 381.337126 -221.623865 
L 380.48519 -220.842499 
L 379.633254 -220.061116 
L 378.781318 -219.279714 
L 377.929382 -218.498293 
L 377.077446 -217.716853 
L 376.22551 -216.935393 
L 375.373574 -216.153913 
L 374.521638 -215.372411 
L 373.669702 -214.590887 
L 372.817766 -213.809341 
L 371.965829 -213.027771 
L 371.113893 -212.246177 
L 370.261957 -211.464559 
L 369.410021 -210.682914 
L 368.558085 -209.901243 
L 367.706149 -209.119545 
L 366.854213 -208.337818 
L 366.002277 -207.556062 
L 365.150341 -206.774277 
L 364.298405 -205.99246 
L 363.446469 -205.210611 
L 362.594532 -204.428729 
L 361.742596 -203.646813 
L 360.89066 -202.864861 
L 360.038724 -202.082874 
L 359.186788 -201.300849 
L 358.334852 -200.518785 
L 357.482916 -199.736681 
L 356.63098 -198.954536 
L 355.779044 -198.172349 
L 354.927108 -197.390117 
L 354.075172 -196.607841 
L 353.223235 -195.825517 
L 352.371299 -195.043145 
L 351.519363 -194.260724 
L 350.667427 -193.478251 
L 349.815491 -192.695725 
L 348.963555 -191.913145 
L 348.111619 -191.130508 
L 347.259683 -190.347812 
L 346.407747 -189.565057 
L 345.555811 -188.782239 
L 344.703875 -187.999358 
L 343.851938 -187.21641 
L 343.000002 -186.433394 
L 342.148066 -185.650308 
L 341.29613 -184.867149 
L 340.444194 -184.083915 
L 339.592258 -183.300604 
L 338.740322 -182.517213 
L 337.888386 -181.733739 
L 337.03645 -180.95018 
L 336.184514 -180.166534 
L 335.332578 -179.382797 
L 334.480641 -178.598967 
L 333.628705 -177.81504 
L 332.776769 -177.031014 
L 331.924833 -176.246884 
L 331.072897 -175.462649 
L 330.220961 -174.678305 
L 329.369025 -173.893847 
L 328.517089 -173.109273 
L 327.665153 -172.324579 
L 326.813217 -171.539761 
L 325.961281 -170.754814 
L 325.109344 -169.969736 
L 324.257408 -169.184521 
L 323.405472 -168.399165 
L 322.553536 -167.613664 
L 321.7016 -166.828013 
L 320.849664 -166.042208 
L 319.997728 -165.256243 
L 319.145792 -164.470113 
L 318.293856 -163.683813 
L 317.44192 -162.897337 
L 316.589984 -162.110681 
L 315.738047 -161.323837 
L 314.886111 -160.536801 
L 314.034175 -159.749565 
L 313.182239 -158.962125 
L 312.330303 -158.174472 
L 311.478367 -157.3866 
L 310.626431 -156.598503 
L 309.774495 -155.810173 
L 308.922559 -155.021602 
L 308.070623 -154.232783 
L 307.218687 -153.443708 
L 306.36675 -152.654369 
L 305.514814 -151.864757 
L 304.662878 -151.074864 
L 303.810942 -150.28468 
L 302.959006 -149.494197 
L 302.10707 -148.703404 
L 301.255134 -147.912292 
L 300.403198 -147.12085 
L 299.551262 -146.329069 
L 298.699326 -145.536937 
L 297.84739 -144.744442 
L 296.995453 -143.951574 
L 296.143517 -143.158321 
L 295.291581 -142.364669 
L 294.439645 -141.570606 
L 293.587709 -140.77612 
L 292.735773 -139.981197 
L 291.883837 -139.185822 
L 291.031901 -138.389981 
L 290.179965 -137.593659 
L 289.328029 -136.796842 
L 288.476093 -135.999512 
L 287.624156 -135.201654 
L 286.77222 -134.40325 
L 285.920284 -133.604284 
L 285.068348 -132.804737 
L 284.216412 -132.004591 
L 283.364476 -131.203827 
L 282.51254 -130.402424 
L 281.660604 -129.600362 
L 280.808668 -128.797621 
L 279.956732 -127.994178 
L 279.104796 -127.190011 
L 278.252859 -126.385097 
L 277.400923 -125.579411 
L 276.548987 -124.772931 
L 275.697051 -123.965628 
L 274.845115 -123.157479 
L 273.993179 -122.348455 
L 273.141243 -121.538528 
L 272.289307 -120.72767 
L 271.437371 -119.915851 
L 270.585435 -119.10304 
L 269.733499 -118.289205 
L 268.881563 -117.474313 
L 268.029626 -116.658332 
L 267.17769 -115.841225 
L 266.325754 -115.022957 
L 265.473818 -114.20349 
L 264.621882 -113.382787 
L 263.769946 -112.560808 
L 262.91801 -111.737511 
L 262.066074 -110.912856 
L 261.214138 -110.086798 
L 260.362202 -109.259292 
L 259.510266 -108.430292 
L 258.658329 -107.599751 
L 257.806393 -106.767618 
L 256.954457 -105.933844 
L 256.102521 -105.098375 
L 255.250585 -104.261157 
L 254.398649 -103.422135 
L 253.546713 -102.581251 
L 252.694777 -101.738444 
L 251.842841 -100.893654 
L 250.990905 -100.046818 
L 250.138969 -99.197868 
L 249.287032 -98.346739 
L 248.435096 -97.49336 
L 247.58316 -96.63766 
L 246.731224 -95.779563 
L 245.879288 -94.918993 
L 245.027352 -94.055872 
L 244.175416 -93.190118 
L 243.32348 -92.321645 
L 242.471544 -91.450369 
L 241.619608 -90.576197 
L 240.767672 -89.699039 
L 239.915735 -88.818798 
L 239.063799 -87.935376 
L 238.211863 -87.048671 
L 237.359927 -86.158578 
L 236.507991 -85.264988 
L 235.656055 -84.367791 
L 234.804119 -83.466869 
L 233.952183 -82.562105 
L 233.100247 -81.653374 
L 232.248311 -80.740552 
L 231.396375 -79.823505 
L 230.544438 -78.902099 
L 229.692502 -77.976195 
L 228.840566 -77.045649 
L 227.98863 -76.110313 
L 227.136694 -75.170032 
L 226.284758 -74.224649 
L 225.432822 -73.274 
L 224.580886 -72.317918 
L 223.72895 -71.356228 
L 222.877014 -70.38875 
L 222.025078 -69.4153 
L 221.173141 -68.435687 
L 220.321205 -67.449713 
L 219.469269 -66.457174 
L 218.617333 -65.457862 
L 217.765397 -64.451558 
L 216.913461 -63.43804 
L 216.061525 -62.417076 
L 215.209589 -61.388428 
L 214.357653 -60.351851 
L 213.505717 -59.307091 
L 212.653781 -58.253885 
L 211.801844 -58.253885 
L 210.949908 -59.307091 
L 210.097972 -60.351851 
L 209.246036 -61.388428 
L 208.3941 -62.417076 
L 207.542164 -63.43804 
L 206.690228 -64.451558 
L 205.838292 -65.457862 
L 204.986356 -66.457174 
L 204.13442 -67.449713 
L 203.282484 -68.435687 
L 202.430547 -69.4153 
L 201.578611 -70.38875 
L 200.726675 -71.356228 
L 199.874739 -72.317918 
L 199.022803 -73.274 
L 198.170867 -74.224649 
L 197.318931 -75.170032 
L 196.466995 -76.110313 
L 195.615059 -77.045649 
L 194.763123 -77.976195 
L 193.911187 -78.902099 
L 193.05925 -79.823505 
L 192.207314 -80.740552 
L 191.355378 -81.653374 
L 190.503442 -82.562105 
L 189.651506 -83.466869 
L 188.79957 -84.367791 
L 187.947634 -85.264988 
L 187.095698 -86.158578 
L 186.243762 -87.048671 
L 185.391826 -87.935376 
L 184.53989 -88.818798 
L 183.687953 -89.699039 
L 182.836017 -90.576197 
L 181.984081 -91.450369 
L 181.132145 -92.321645 
L 180.280209 -93.190118 
L 179.428273 -94.055872 
L 178.576337 -94.918993 
L 177.724401 -95.779563 
L 176.872465 -96.63766 
L 176.020529 -97.49336 
L 175.168593 -98.346739 
L 174.316656 -99.197868 
L 173.46472 -100.046818 
L 172.612784 -100.893654 
L 171.760848 -101.738444 
L 170.908912 -102.581251 
L 170.056976 -103.422135 
L 169.20504 -104.261157 
L 168.353104 -105.098375 
L 167.501168 -105.933844 
L 166.649232 -106.767618 
L 165.797296 -107.599751 
L 164.945359 -108.430292 
L 164.093423 -109.259292 
L 163.241487 -110.086798 
L 162.389551 -110.912856 
L 161.537615 -111.737511 
L 160.685679 -112.560808 
L 159.833743 -113.382787 
L 158.981807 -114.20349 
L 158.129871 -115.022957 
L 157.277935 -115.841225 
L 156.425999 -116.658332 
L 155.574063 -117.474313 
L 154.722126 -118.289205 
L 153.87019 -119.10304 
L 153.018254 -119.915851 
L 152.166318 -120.72767 
L 151.314382 -121.538528 
L 150.462446 -122.348455 
L 149.61051 -123.157479 
L 148.758574 -123.965628 
L 147.906638 -124.772931 
L 147.054702 -125.579411 
L 146.202766 -126.385097 
L 145.350829 -127.190011 
L 144.498893 -127.994178 
L 143.646957 -128.797621 
L 142.795021 -129.600362 
L 141.943085 -130.402424 
L 141.091149 -131.203827 
L 140.239213 -132.004591 
L 139.387277 -132.804737 
L 138.535341 -133.604284 
L 137.683405 -134.40325 
L 136.831469 -135.201654 
L 135.979532 -135.999512 
L 135.127596 -136.796842 
L 134.27566 -137.593659 
L 133.423724 -138.389981 
L 132.571788 -139.185822 
L 131.719852 -139.981197 
L 130.867916 -140.77612 
L 130.01598 -141.570606 
L 129.164044 -142.364669 
L 128.312108 -143.158321 
L 127.460172 -143.951574 
L 126.608235 -144.744442 
L 125.756299 -145.536937 
L 124.904363 -146.329069 
L 124.052427 -147.12085 
L 123.200491 -147.912292 
L 122.348555 -148.703404 
L 121.496619 -149.494197 
L 120.644683 -150.28468 
L 119.792747 -151.074864 
L 118.940811 -151.864757 
L 118.088875 -152.654369 
L 117.236938 -153.443708 
L 116.385002 -154.232783 
L 115.533066 -155.021602 
L 114.68113 -155.810173 
L 113.829194 -156.598503 
L 112.977258 -157.3866 
L 112.125322 -158.174472 
L 111.273386 -158.962125 
L 110.42145 -159.749565 
L 109.569514 -160.536801 
L 108.717578 -161.323837 
L 107.865641 -162.110681 
L 107.013705 -162.897337 
L 106.161769 -163.683813 
L 105.309833 -164.470113 
L 104.457897 -165.256243 
L 103.605961 -166.042208 
L 102.754025 -166.828013 
L 101.902089 -167.613664 
L 101.050153 -168.399165 
L 100.198217 -169.184521 
L 99.346281 -169.969736 
L 98.494344 -170.754814 
L 97.642408 -171.539761 
L 96.790472 -172.324579 
L 95.938536 -173.109273 
L 95.0866 -173.893847 
L 94.234664 -174.678305 
L 93.382728 -175.462649 
L 92.530792 -176.246884 
L 91.678856 -177.031014 
L 90.82692 -177.81504 
L 89.974984 -178.598967 
L 89.123047 -179.382797 
L 88.271111 -180.166534 
L 87.419175 -180.95018 
L 86.567239 -181.733739 
L 85.715303 -182.517213 
L 84.863367 -183.300604 
L 84.011431 -184.083915 
L 83.159495 -184.867149 
L 82.307559 -185.650308 
L 81.455623 -186.433394 
L 80.603687 -187.21641 
L 79.75175 -187.999358 
L 78.899814 -188.782239 
L 78.047878 -189.565057 
L 77.195942 -190.347812 
L 76.344006 -191.130508 
L 75.49207 -191.913145 
L 74.640134 -192.695725 
L 73.788198 -193.478251 
L 72.936262 -194.260724 
L 72.084326 -195.043145 
L 71.23239 -195.825517 
L 70.380453 -196.607841 
L 69.528517 -197.390117 
L 68.676581 -198.172349 
L 67.824645 -198.954536 
L 66.972709 -199.736681 
L 66.120773 -200.518785 
L 65.268837 -201.300849 
L 64.416901 -202.082874 
L 63.564965 -202.864861 
L 62.713029 -203.646813 
L 61.861093 -204.428729 
L 61.009156 -205.210611 
L 60.15722 -205.99246 
L 59.305284 -206.774277 
L 58.453348 -207.556062 
L 57.601412 -208.337818 
L 56.749476 -209.119545 
L 55.89754 -209.901243 
L 55.045604 -210.682914 
L 54.193668 -211.464559 
L 53.341732 -212.246177 
L 52.489796 -213.027771 
L 51.637859 -213.809341 
L 50.785923 -214.590887 
L 49.933987 -215.372411 
L 49.082051 -216.153913 
L 48.230115 -216.935393 
L 47.378179 -217.716853 
L 46.526243 -218.498293 
L 45.674307 -219.279714 
L 44.822371 -220.061116 
L 43.970435 -220.842499 
L 43.118499 -221.623865 
L 42.266563 -222.405214 
z
" style="stroke: #000000; stroke-opacity: 0.06"/>
    </defs>
    <g clip-path="url(#pf5fbbdd107)">
     <use xlink:href="#me0057dd4d7" x="0" y="338.632031" style="fill-opacity: 0.06; stroke: #000000; stroke-opacity: 0.06"/>
    </g>
   </g>
   <g id="matplotlib.axis_1">
    <g id="xtick_1">
     <g id="line2d_1">
      <defs>
       <path id="m24f4bfdf72" d="M 0 0 
L 0 -3.5 
" style="stroke: #000000; stroke-width: 0.6"/>
      </defs>
      <g>
       <use xlink:href="#m24f4bfdf72" x="42.266563" y="305.7" style="stroke: #000000; stroke-width: 0.6"/>
      </g>
     </g>
     <g id="text_1">
      <!-- $-\pi$ -->
      <g transform="translate(35.786563 315.656094) scale(0.09 -0.09)">
       <defs>
        <path id="DejaVuSans-2212" d="M 678 2272 
L 4684 2272 
L 4684 1741 
L 678 1741 
L 678 2272 
z
" transform="scale(0.015625)"/>
        <path id="DejaVuSans-Oblique-3c0" d="M 584 3500 
L 3938 3500 
L 3825 2925 
L 3384 2925 
L 2966 775 
Q 2922 550 2981 450 
Q 3038 353 3209 353 
Q 3256 353 3325 363 
Q 3397 369 3419 372 
L 3338 -44 
Q 3222 -84 3103 -103 
Q 2981 -122 2866 -122 
Q 2491 -122 2388 81 
Q 2284 288 2391 838 
L 2797 2925 
L 1506 2925 
L 938 0 
L 350 0 
L 919 2925 
L 472 2925 
L 584 3500 
z
" transform="scale(0.015625)"/>
       </defs>
       <use xlink:href="#DejaVuSans-2212" transform="translate(0 0.3125)"/>
       <use xlink:href="#DejaVuSans-Oblique-3c0" transform="translate(83.789062 0.3125)"/>
      </g>
     </g>
    </g>
    <g id="xtick_2">
     <g id="line2d_2">
      <g>
       <use xlink:href="#m24f4bfdf72" x="127.247188" y="305.7" style="stroke: #000000; stroke-width: 0.6"/>
      </g>
     </g>
     <g id="text_2">
      <!-- $-\pi/2$ -->
      <g transform="translate(116.537188 315.656094) scale(0.09 -0.09)">
       <defs>
        <path id="DejaVuSans-2f" d="M 1625 4666 
L 2156 4666 
L 531 -594 
L 0 -594 
L 1625 4666 
z
" transform="scale(0.015625)"/>
        <path id="DejaVuSans-32" d="M 1228 531 
L 3431 531 
L 3431 0 
L 469 0 
L 469 531 
Q 828 903 1448 1529 
Q 2069 2156 2228 2338 
Q 2531 2678 2651 2914 
Q 2772 3150 2772 3378 
Q 2772 3750 2511 3984 
Q 2250 4219 1831 4219 
Q 1534 4219 1204 4116 
Q 875 4013 500 3803 
L 500 4441 
Q 881 4594 1212 4672 
Q 1544 4750 1819 4750 
Q 2544 4750 2975 4387 
Q 3406 4025 3406 3419 
Q 3406 3131 3298 2873 
Q 3191 2616 2906 2266 
Q 2828 2175 2409 1742 
Q 1991 1309 1228 531 
z
" transform="scale(0.015625)"/>
       </defs>
       <use xlink:href="#DejaVuSans-2212" transform="translate(0 0.78125)"/>
       <use xlink:href="#DejaVuSans-Oblique-3c0" transform="translate(83.789062 0.78125)"/>
       <use xlink:href="#DejaVuSans-2f" transform="translate(143.994141 0.78125)"/>
       <use xlink:href="#DejaVuSans-32" transform="translate(174.060547 0.78125)"/>
      </g>
     </g>
    </g>
    <g id="xtick_3">
     <g id="line2d_3">
      <g>
       <use xlink:href="#m24f4bfdf72" x="212.227813" y="305.7" style="stroke: #000000; stroke-width: 0.6"/>
      </g>
     </g>
     <g id="text_3">
      <!-- $\Gamma$ -->
      <g transform="translate(209.707813 315.656094) scale(0.09 -0.09)">
       <defs>
        <path id="DejaVuSans-393" d="M 628 0 
L 628 4666 
L 3531 4666 
L 3531 4134 
L 1259 4134 
L 1259 0 
L 628 0 
z
" transform="scale(0.015625)"/>
       </defs>
       <use xlink:href="#DejaVuSans-393" transform="translate(0 0.09375)"/>
      </g>
     </g>
    </g>
    <g id="xtick_4">
     <g id="line2d_4">
      <g>
       <use xlink:href="#m24f4bfdf72" x="297.208438" y="305.7" style="stroke: #000000; stroke-width: 0.6"/>
      </g>
     </g>
     <g id="text_4">
      <!-- $\pi/2$ -->
      <g transform="translate(290.278438 315.656094) scale(0.09 -0.09)">
       <use xlink:href="#DejaVuSans-Oblique-3c0" transform="translate(0 0.78125)"/>
       <use xlink:href="#DejaVuSans-2f" transform="translate(60.205078 0.78125)"/>
       <use xlink:href="#DejaVuSans-32" transform="translate(90.271484 0.78125)"/>
      </g>
     </g>
    </g>
    <g id="xtick_5">
     <g id="line2d_5">
      <g>
       <use xlink:href="#m24f4bfdf72" x="382.189063" y="305.7" style="stroke: #000000; stroke-width: 0.6"/>
      </g>
     </g>
     <g id="text_5">
      <!-- $\pi$ -->
      <g transform="translate(379.444063 315.656094) scale(0.09 -0.09)">
       <use xlink:href="#DejaVuSans-Oblique-3c0" transform="translate(0 0.3125)"/>
      </g>
     </g>
    </g>
    <g id="text_6">
     <!-- wavevector  $k$  (along high-symmetry path) -->
     <g transform="translate(117.627813 329.132031) scale(0.1 -0.1)">
      <defs>
       <path id="Helvetica-77" d="M 672 3347 
L 1316 709 
L 1969 3347 
L 2600 3347 
L 3256 725 
L 3941 3347 
L 4503 3347 
L 3531 0 
L 2947 0 
L 2266 2591 
L 1606 0 
L 1022 0 
L 56 3347 
L 672 3347 
z
" transform="scale(0.015625)"/>
       <path id="Helvetica-61" d="M 844 891 
Q 844 647 1022 506 
Q 1200 366 1444 366 
Q 1741 366 2019 503 
Q 2488 731 2488 1250 
L 2488 1703 
Q 2384 1638 2221 1594 
Q 2059 1550 1903 1531 
L 1563 1488 
Q 1256 1447 1103 1359 
Q 844 1213 844 891 
z
M 2206 2028 
Q 2400 2053 2466 2191 
Q 2503 2266 2503 2406 
Q 2503 2694 2298 2823 
Q 2094 2953 1713 2953 
Q 1272 2953 1088 2716 
Q 984 2584 953 2325 
L 428 2325 
Q 444 2944 830 3186 
Q 1216 3428 1725 3428 
Q 2316 3428 2684 3203 
Q 3050 2978 3050 2503 
L 3050 575 
Q 3050 488 3086 434 
Q 3122 381 3238 381 
Q 3275 381 3322 386 
Q 3369 391 3422 400 
L 3422 -16 
Q 3291 -53 3222 -62 
Q 3153 -72 3034 -72 
Q 2744 -72 2613 134 
Q 2544 244 2516 444 
Q 2344 219 2022 53 
Q 1700 -113 1313 -113 
Q 847 -113 551 170 
Q 256 453 256 878 
Q 256 1344 547 1600 
Q 838 1856 1309 1916 
L 2206 2028 
z
M 1741 3428 
L 1741 3428 
z
" transform="scale(0.015625)"/>
       <path id="Helvetica-76" d="M 688 3347 
L 1581 622 
L 2516 3347 
L 3131 3347 
L 1869 0 
L 1269 0 
L 34 3347 
L 688 3347 
z
" transform="scale(0.015625)"/>
       <path id="Helvetica-65" d="M 1806 3422 
Q 2163 3422 2497 3255 
Q 2831 3088 3006 2822 
Q 3175 2569 3231 2231 
Q 3281 2000 3281 1494 
L 828 1494 
Q 844 984 1069 676 
Q 1294 369 1766 369 
Q 2206 369 2469 659 
Q 2619 828 2681 1050 
L 3234 1050 
Q 3213 866 3089 639 
Q 2966 413 2813 269 
Q 2556 19 2178 -69 
Q 1975 -119 1719 -119 
Q 1094 -119 659 336 
Q 225 791 225 1609 
Q 225 2416 662 2919 
Q 1100 3422 1806 3422 
z
M 2703 1941 
Q 2669 2306 2544 2525 
Q 2313 2931 1772 2931 
Q 1384 2931 1121 2651 
Q 859 2372 844 1941 
L 2703 1941 
z
M 1753 3428 
L 1753 3428 
z
" transform="scale(0.015625)"/>
       <path id="Helvetica-63" d="M 1703 3444 
Q 2269 3444 2623 3169 
Q 2978 2894 3050 2222 
L 2503 2222 
Q 2453 2531 2275 2736 
Q 2097 2941 1703 2941 
Q 1166 2941 934 2416 
Q 784 2075 784 1575 
Q 784 1072 996 728 
Q 1209 384 1666 384 
Q 2016 384 2220 598 
Q 2425 813 2503 1184 
L 3050 1184 
Q 2956 519 2581 211 
Q 2206 -97 1622 -97 
Q 966 -97 575 383 
Q 184 863 184 1581 
Q 184 2463 612 2953 
Q 1041 3444 1703 3444 
z
M 1616 3428 
L 1616 3428 
z
" transform="scale(0.015625)"/>
       <path id="Helvetica-74" d="M 525 4281 
L 1094 4281 
L 1094 3347 
L 1628 3347 
L 1628 2888 
L 1094 2888 
L 1094 703 
Q 1094 528 1213 469 
Q 1278 434 1431 434 
Q 1472 434 1519 436 
Q 1566 438 1628 444 
L 1628 0 
Q 1531 -28 1426 -40 
Q 1322 -53 1200 -53 
Q 806 -53 665 148 
Q 525 350 525 672 
L 525 2888 
L 72 2888 
L 72 3347 
L 525 3347 
L 525 4281 
z
" transform="scale(0.015625)"/>
       <path id="Helvetica-6f" d="M 1741 363 
Q 2300 363 2508 786 
Q 2716 1209 2716 1728 
Q 2716 2197 2566 2491 
Q 2328 2953 1747 2953 
Q 1231 2953 997 2559 
Q 763 2166 763 1609 
Q 763 1075 997 719 
Q 1231 363 1741 363 
z
M 1763 3444 
Q 2409 3444 2856 3012 
Q 3303 2581 3303 1744 
Q 3303 934 2909 406 
Q 2516 -122 1688 -122 
Q 997 -122 590 345 
Q 184 813 184 1600 
Q 184 2444 612 2944 
Q 1041 3444 1763 3444 
z
M 1744 3428 
L 1744 3428 
z
" transform="scale(0.015625)"/>
       <path id="Helvetica-72" d="M 428 3347 
L 963 3347 
L 963 2769 
Q 1028 2938 1284 3180 
Q 1541 3422 1875 3422 
Q 1891 3422 1928 3419 
Q 1966 3416 2056 3406 
L 2056 2813 
Q 2006 2822 1964 2825 
Q 1922 2828 1872 2828 
Q 1447 2828 1219 2554 
Q 991 2281 991 1925 
L 991 0 
L 428 0 
L 428 3347 
z
" transform="scale(0.015625)"/>
       <path id="Helvetica-20" transform="scale(0.015625)"/>
       <path id="DejaVuSans-Oblique-6b" d="M 1172 4863 
L 1747 4863 
L 1197 2028 
L 3169 3500 
L 3916 3500 
L 1716 1825 
L 3322 0 
L 2625 0 
L 1131 1709 
L 800 0 
L 225 0 
L 1172 4863 
z
" transform="scale(0.015625)"/>
       <path id="Helvetica-28" d="M 1894 4666 
Q 1403 3713 1256 3263 
Q 1034 2578 1034 1681 
Q 1034 775 1288 25 
Q 1444 -438 1903 -1306 
L 1525 -1306 
Q 1069 -594 959 -397 
Q 850 -200 722 138 
Q 547 600 478 1125 
Q 444 1397 444 1644 
Q 444 2569 734 3291 
Q 919 3750 1503 4666 
L 1894 4666 
z
" transform="scale(0.015625)"/>
       <path id="Helvetica-6c" d="M 428 4591 
L 991 4591 
L 991 0 
L 428 0 
L 428 4591 
z
" transform="scale(0.015625)"/>
       <path id="Helvetica-6e" d="M 413 3347 
L 947 3347 
L 947 2872 
Q 1184 3166 1450 3294 
Q 1716 3422 2041 3422 
Q 2753 3422 3003 2925 
Q 3141 2653 3141 2147 
L 3141 0 
L 2569 0 
L 2569 2109 
Q 2569 2416 2478 2603 
Q 2328 2916 1934 2916 
Q 1734 2916 1606 2875 
Q 1375 2806 1200 2600 
Q 1059 2434 1017 2257 
Q 975 2081 975 1753 
L 975 0 
L 413 0 
L 413 3347 
z
M 1734 3428 
L 1734 3428 
z
" transform="scale(0.015625)"/>
       <path id="Helvetica-67" d="M 1594 3406 
Q 1988 3406 2281 3213 
Q 2441 3103 2606 2894 
L 2606 3316 
L 3125 3316 
L 3125 272 
Q 3125 -366 2938 -734 
Q 2588 -1416 1616 -1416 
Q 1075 -1416 706 -1173 
Q 338 -931 294 -416 
L 866 -416 
Q 906 -641 1028 -763 
Q 1219 -950 1628 -950 
Q 2275 -950 2475 -494 
Q 2594 -225 2584 466 
Q 2416 209 2178 84 
Q 1941 -41 1550 -41 
Q 1006 -41 598 345 
Q 191 731 191 1622 
Q 191 2463 602 2934 
Q 1013 3406 1594 3406 
z
M 2606 1688 
Q 2606 2309 2350 2609 
Q 2094 2909 1697 2909 
Q 1103 2909 884 2353 
Q 769 2056 769 1575 
Q 769 1009 998 714 
Q 1228 419 1616 419 
Q 2222 419 2469 966 
Q 2606 1275 2606 1688 
z
M 1659 3428 
L 1659 3428 
z
" transform="scale(0.015625)"/>
       <path id="Helvetica-68" d="M 413 4606 
L 975 4606 
L 975 2894 
Q 1175 3147 1334 3250 
Q 1606 3428 2013 3428 
Q 2741 3428 3000 2919 
Q 3141 2641 3141 2147 
L 3141 0 
L 2563 0 
L 2563 2109 
Q 2563 2478 2469 2650 
Q 2316 2925 1894 2925 
Q 1544 2925 1259 2684 
Q 975 2444 975 1775 
L 975 0 
L 413 0 
L 413 4606 
z
" transform="scale(0.015625)"/>
       <path id="Helvetica-69" d="M 413 3331 
L 984 3331 
L 984 0 
L 413 0 
L 413 3331 
z
M 413 4591 
L 984 4591 
L 984 3953 
L 413 3953 
L 413 4591 
z
" transform="scale(0.015625)"/>
       <path id="Helvetica-2d" d="M 266 2072 
L 1834 2072 
L 1834 1494 
L 266 1494 
L 266 2072 
z
" transform="scale(0.015625)"/>
       <path id="Helvetica-73" d="M 747 1050 
Q 772 769 888 619 
Q 1100 347 1625 347 
Q 1938 347 2175 483 
Q 2413 619 2413 903 
Q 2413 1119 2222 1231 
Q 2100 1300 1741 1391 
L 1294 1503 
Q 866 1609 663 1741 
Q 300 1969 300 2372 
Q 300 2847 642 3140 
Q 984 3434 1563 3434 
Q 2319 3434 2653 2991 
Q 2863 2709 2856 2384 
L 2325 2384 
Q 2309 2575 2191 2731 
Q 1997 2953 1519 2953 
Q 1200 2953 1036 2831 
Q 872 2709 872 2509 
Q 872 2291 1088 2159 
Q 1213 2081 1456 2022 
L 1828 1931 
Q 2434 1784 2641 1647 
Q 2969 1431 2969 969 
Q 2969 522 2630 197 
Q 2291 -128 1597 -128 
Q 850 -128 539 211 
Q 228 550 206 1050 
L 747 1050 
z
M 1578 3428 
L 1578 3428 
z
" transform="scale(0.015625)"/>
       <path id="Helvetica-79" d="M 2503 3347 
L 3125 3347 
Q 3006 3025 2597 1878 
Q 2291 1016 2084 472 
Q 1597 -809 1397 -1090 
Q 1197 -1372 709 -1372 
Q 591 -1372 527 -1362 
Q 463 -1353 369 -1328 
L 369 -816 
Q 516 -856 581 -865 
Q 647 -875 697 -875 
Q 853 -875 926 -823 
Q 1000 -772 1050 -697 
Q 1066 -672 1162 -440 
Q 1259 -209 1303 -97 
L 66 3347 
L 703 3347 
L 1600 622 
L 2503 3347 
z
M 1597 3428 
L 1597 3428 
z
" transform="scale(0.015625)"/>
       <path id="Helvetica-6d" d="M 413 3347 
L 969 3347 
L 969 2872 
Q 1169 3119 1331 3231 
Q 1609 3422 1963 3422 
Q 2363 3422 2606 3225 
Q 2744 3113 2856 2894 
Q 3044 3163 3297 3292 
Q 3550 3422 3866 3422 
Q 4541 3422 4784 2934 
Q 4916 2672 4916 2228 
L 4916 0 
L 4331 0 
L 4331 2325 
Q 4331 2659 4164 2784 
Q 3997 2909 3756 2909 
Q 3425 2909 3186 2687 
Q 2947 2466 2947 1947 
L 2947 0 
L 2375 0 
L 2375 2184 
Q 2375 2525 2294 2681 
Q 2166 2916 1816 2916 
Q 1497 2916 1236 2669 
Q 975 2422 975 1775 
L 975 0 
L 413 0 
L 413 3347 
z
" transform="scale(0.015625)"/>
       <path id="Helvetica-70" d="M 1825 378 
Q 2219 378 2480 708 
Q 2741 1038 2741 1694 
Q 2741 2094 2625 2381 
Q 2406 2934 1825 2934 
Q 1241 2934 1025 2350 
Q 909 2038 909 1556 
Q 909 1169 1025 897 
Q 1244 378 1825 378 
z
M 369 3331 
L 916 3331 
L 916 2888 
Q 1084 3116 1284 3241 
Q 1569 3428 1953 3428 
Q 2522 3428 2919 2992 
Q 3316 2556 3316 1747 
Q 3316 653 2744 184 
Q 2381 -113 1900 -113 
Q 1522 -113 1266 53 
Q 1116 147 931 375 
L 931 -1334 
L 369 -1334 
L 369 3331 
z
" transform="scale(0.015625)"/>
       <path id="Helvetica-29" d="M 222 -1306 
Q 719 -338 863 106 
Q 1081 778 1081 1681 
Q 1081 2584 828 3334 
Q 672 3797 213 4666 
L 591 4666 
Q 1072 3897 1173 3717 
Q 1275 3538 1394 3222 
Q 1544 2831 1608 2450 
Q 1672 2069 1672 1716 
Q 1672 791 1378 66 
Q 1194 -400 613 -1306 
L 222 -1306 
z
" transform="scale(0.015625)"/>
      </defs>
      <use xlink:href="#Helvetica-77" transform="translate(0 0.015625)"/>
      <use xlink:href="#Helvetica-61" transform="translate(72.216797 0.015625)"/>
      <use xlink:href="#Helvetica-76" transform="translate(127.832031 0.015625)"/>
      <use xlink:href="#Helvetica-65" transform="translate(177.832031 0.015625)"/>
      <use xlink:href="#Helvetica-76" transform="translate(233.447266 0.015625)"/>
      <use xlink:href="#Helvetica-65" transform="translate(283.447266 0.015625)"/>
      <use xlink:href="#Helvetica-63" transform="translate(339.0625 0.015625)"/>
      <use xlink:href="#Helvetica-74" transform="translate(389.0625 0.015625)"/>
      <use xlink:href="#Helvetica-6f" transform="translate(416.845703 0.015625)"/>
      <use xlink:href="#Helvetica-72" transform="translate(472.460938 0.015625)"/>
      <use xlink:href="#Helvetica-20" transform="translate(505.761719 0.015625)"/>
      <use xlink:href="#Helvetica-20" transform="translate(533.544922 0.015625)"/>
      <use xlink:href="#DejaVuSans-Oblique-6b" transform="translate(561.328125 0.015625)"/>
      <use xlink:href="#Helvetica-20" transform="translate(619.238281 0.015625)"/>
      <use xlink:href="#Helvetica-20" transform="translate(647.021484 0.015625)"/>
      <use xlink:href="#Helvetica-28" transform="translate(674.804688 0.015625)"/>
      <use xlink:href="#Helvetica-61" transform="translate(708.105469 0.015625)"/>
      <use xlink:href="#Helvetica-6c" transform="translate(763.720703 0.015625)"/>
      <use xlink:href="#Helvetica-6f" transform="translate(785.9375 0.015625)"/>
      <use xlink:href="#Helvetica-6e" transform="translate(841.552734 0.015625)"/>
      <use xlink:href="#Helvetica-67" transform="translate(897.167969 0.015625)"/>
      <use xlink:href="#Helvetica-20" transform="translate(952.783203 0.015625)"/>
      <use xlink:href="#Helvetica-68" transform="translate(980.566406 0.015625)"/>
      <use xlink:href="#Helvetica-69" transform="translate(1036.181641 0.015625)"/>
      <use xlink:href="#Helvetica-67" transform="translate(1058.398438 0.015625)"/>
      <use xlink:href="#Helvetica-68" transform="translate(1114.013672 0.015625)"/>
      <use xlink:href="#Helvetica-2d" transform="translate(1169.628906 0.015625)"/>
      <use xlink:href="#Helvetica-73" transform="translate(1202.929688 0.015625)"/>
      <use xlink:href="#Helvetica-79" transform="translate(1252.929688 0.015625)"/>
      <use xlink:href="#Helvetica-6d" transform="translate(1302.929688 0.015625)"/>
      <use xlink:href="#Helvetica-6d" transform="translate(1386.230469 0.015625)"/>
      <use xlink:href="#Helvetica-65" transform="translate(1469.53125 0.015625)"/>
      <use xlink:href="#Helvetica-74" transform="translate(1525.146484 0.015625)"/>
      <use xlink:href="#Helvetica-72" transform="translate(1552.929688 0.015625)"/>
      <use xlink:href="#Helvetica-79" transform="translate(1586.230469 0.015625)"/>
      <use xlink:href="#Helvetica-20" transform="translate(1636.230469 0.015625)"/>
      <use xlink:href="#Helvetica-70" transform="translate(1664.013672 0.015625)"/>
      <use xlink:href="#Helvetica-61" transform="translate(1719.628906 0.015625)"/>
      <use xlink:href="#Helvetica-74" transform="translate(1775.244141 0.015625)"/>
      <use xlink:href="#Helvetica-68" transform="translate(1803.027344 0.015625)"/>
      <use xlink:href="#Helvetica-29" transform="translate(1858.642578 0.015625)"/>
     </g>
    </g>
   </g>
   <g id="matplotlib.axis_2">
    <g id="ytick_1">
     <g id="line2d_6">
      <defs>
       <path id="m2beeea14d1" d="M 0 0 
L 3.5 0 
" style="stroke: #000000; stroke-width: 0.6"/>
      </defs>
      <g>
       <use xlink:href="#m2beeea14d1" x="42.266563" y="305.7" style="stroke: #000000; stroke-width: 0.6"/>
      </g>
     </g>
     <g id="text_7">
      <!-- −0.5 -->
      <g transform="translate(21 308.928047) scale(0.09 -0.09)">
       <defs>
        <path id="Helvetica-2212" d="M 3547 1894 
L 3547 1369 
L 288 1369 
L 288 1894 
L 3547 1894 
z
" transform="scale(0.015625)"/>
        <path id="Helvetica-30" d="M 1731 4475 
Q 2600 4475 2988 3759 
Q 3288 3206 3288 2244 
Q 3288 1331 3016 734 
Q 2622 -122 1728 -122 
Q 922 -122 528 578 
Q 200 1163 200 2147 
Q 200 2909 397 3456 
Q 766 4475 1731 4475 
z
M 1725 391 
Q 2163 391 2422 778 
Q 2681 1166 2681 2222 
Q 2681 2984 2493 3476 
Q 2306 3969 1766 3969 
Q 1269 3969 1039 3501 
Q 809 3034 809 2125 
Q 809 1441 956 1025 
Q 1181 391 1725 391 
z
" transform="scale(0.015625)"/>
        <path id="Helvetica-2e" d="M 547 681 
L 1200 681 
L 1200 0 
L 547 0 
L 547 681 
z
" transform="scale(0.015625)"/>
        <path id="Helvetica-35" d="M 791 1141 
Q 847 659 1238 475 
Q 1438 381 1700 381 
Q 2200 381 2440 700 
Q 2681 1019 2681 1406 
Q 2681 1875 2395 2131 
Q 2109 2388 1709 2388 
Q 1419 2388 1211 2275 
Q 1003 2163 856 1963 
L 369 1991 
L 709 4400 
L 3034 4400 
L 3034 3856 
L 1131 3856 
L 941 2613 
Q 1097 2731 1238 2791 
Q 1488 2894 1816 2894 
Q 2431 2894 2859 2497 
Q 3288 2100 3288 1491 
Q 3288 856 2895 371 
Q 2503 -113 1644 -113 
Q 1097 -113 676 195 
Q 256 503 206 1141 
L 791 1141 
z
" transform="scale(0.015625)"/>
       </defs>
       <use xlink:href="#Helvetica-2212"/>
       <use xlink:href="#Helvetica-30" transform="translate(58.398438 0)"/>
       <use xlink:href="#Helvetica-2e" transform="translate(114.013672 0)"/>
       <use xlink:href="#Helvetica-35" transform="translate(141.796875 0)"/>
      </g>
     </g>
    </g>
    <g id="ytick_2">
     <g id="line2d_7">
      <g>
       <use xlink:href="#m2beeea14d1" x="42.266563" y="280.908" style="stroke: #000000; stroke-width: 0.6"/>
      </g>
     </g>
     <g id="text_8">
      <!-- 0.0 -->
      <g transform="translate(26.256563 284.136047) scale(0.09 -0.09)">
       <use xlink:href="#Helvetica-30"/>
       <use xlink:href="#Helvetica-2e" transform="translate(55.615234 0)"/>
       <use xlink:href="#Helvetica-30" transform="translate(83.398438 0)"/>
      </g>
     </g>
    </g>
    <g id="ytick_3">
     <g id="line2d_8">
      <g>
       <use xlink:href="#m2beeea14d1" x="42.266563" y="256.116" style="stroke: #000000; stroke-width: 0.6"/>
      </g>
     </g>
     <g id="text_9">
      <!-- 0.5 -->
      <g transform="translate(26.256563 259.344047) scale(0.09 -0.09)">
       <use xlink:href="#Helvetica-30"/>
       <use xlink:href="#Helvetica-2e" transform="translate(55.615234 0)"/>
       <use xlink:href="#Helvetica-35" transform="translate(83.398438 0)"/>
      </g>
     </g>
    </g>
    <g id="ytick_4">
     <g id="line2d_9">
      <g>
       <use xlink:href="#m2beeea14d1" x="42.266563" y="231.324" style="stroke: #000000; stroke-width: 0.6"/>
      </g>
     </g>
     <g id="text_10">
      <!-- 1.0 -->
      <g transform="translate(26.256563 234.552047) scale(0.09 -0.09)">
       <defs>
        <path id="Helvetica-31" d="M 613 3169 
L 613 3600 
Q 1222 3659 1462 3798 
Q 1703 3938 1822 4456 
L 2266 4456 
L 2266 0 
L 1666 0 
L 1666 3169 
L 613 3169 
z
" transform="scale(0.015625)"/>
       </defs>
       <use xlink:href="#Helvetica-31"/>
       <use xlink:href="#Helvetica-2e" transform="translate(55.615234 0)"/>
       <use xlink:href="#Helvetica-30" transform="translate(83.398438 0)"/>
      </g>
     </g>
    </g>
    <g id="ytick_5">
     <g id="line2d_10">
      <g>
       <use xlink:href="#m2beeea14d1" x="42.266563" y="206.532" style="stroke: #000000; stroke-width: 0.6"/>
      </g>
     </g>
     <g id="text_11">
      <!-- 1.5 -->
      <g transform="translate(26.256563 209.760047) scale(0.09 -0.09)">
       <use xlink:href="#Helvetica-31"/>
       <use xlink:href="#Helvetica-2e" transform="translate(55.615234 0)"/>
       <use xlink:href="#Helvetica-35" transform="translate(83.398438 0)"/>
      </g>
     </g>
    </g>
    <g id="ytick_6">
     <g id="line2d_11">
      <g>
       <use xlink:href="#m2beeea14d1" x="42.266563" y="181.74" style="stroke: #000000; stroke-width: 0.6"/>
      </g>
     </g>
     <g id="text_12">
      <!-- 2.0 -->
      <g transform="translate(26.256563 184.968047) scale(0.09 -0.09)">
       <defs>
        <path id="Helvetica-32" d="M 200 0 
Q 231 578 439 1006 
Q 647 1434 1250 1784 
L 1850 2131 
Q 2253 2366 2416 2531 
Q 2672 2791 2672 3125 
Q 2672 3516 2437 3745 
Q 2203 3975 1813 3975 
Q 1234 3975 1013 3538 
Q 894 3303 881 2888 
L 309 2888 
Q 319 3472 525 3841 
Q 891 4491 1816 4491 
Q 2584 4491 2939 4075 
Q 3294 3659 3294 3150 
Q 3294 2613 2916 2231 
Q 2697 2009 2131 1694 
L 1703 1456 
Q 1397 1288 1222 1134 
Q 909 863 828 531 
L 3272 531 
L 3272 0 
L 200 0 
z
" transform="scale(0.015625)"/>
       </defs>
       <use xlink:href="#Helvetica-32"/>
       <use xlink:href="#Helvetica-2e" transform="translate(55.615234 0)"/>
       <use xlink:href="#Helvetica-30" transform="translate(83.398438 0)"/>
      </g>
     </g>
    </g>
    <g id="ytick_7">
     <g id="line2d_12">
      <g>
       <use xlink:href="#m2beeea14d1" x="42.266563" y="156.948" style="stroke: #000000; stroke-width: 0.6"/>
      </g>
     </g>
     <g id="text_13">
      <!-- 2.5 -->
      <g transform="translate(26.256563 160.176047) scale(0.09 -0.09)">
       <use xlink:href="#Helvetica-32"/>
       <use xlink:href="#Helvetica-2e" transform="translate(55.615234 0)"/>
       <use xlink:href="#Helvetica-35" transform="translate(83.398438 0)"/>
      </g>
     </g>
    </g>
    <g id="ytick_8">
     <g id="line2d_13">
      <g>
       <use xlink:href="#m2beeea14d1" x="42.266563" y="132.156" style="stroke: #000000; stroke-width: 0.6"/>
      </g>
     </g>
     <g id="text_14">
      <!-- 3.0 -->
      <g transform="translate(26.256563 135.384047) scale(0.09 -0.09)">
       <defs>
        <path id="Helvetica-33" d="M 1663 -122 
Q 869 -122 511 314 
Q 153 750 153 1375 
L 741 1375 
Q 778 941 903 744 
Q 1122 391 1694 391 
Q 2138 391 2406 628 
Q 2675 866 2675 1241 
Q 2675 1703 2392 1887 
Q 2109 2072 1606 2072 
Q 1550 2072 1492 2070 
Q 1434 2069 1375 2066 
L 1375 2563 
Q 1463 2553 1522 2550 
Q 1581 2547 1650 2547 
Q 1966 2547 2169 2647 
Q 2525 2822 2525 3272 
Q 2525 3606 2287 3787 
Q 2050 3969 1734 3969 
Q 1172 3969 956 3594 
Q 838 3388 822 3006 
L 266 3006 
Q 266 3506 466 3856 
Q 809 4481 1675 4481 
Q 2359 4481 2734 4176 
Q 3109 3872 3109 3294 
Q 3109 2881 2888 2625 
Q 2750 2466 2531 2375 
Q 2884 2278 3082 2001 
Q 3281 1725 3281 1325 
Q 3281 684 2859 281 
Q 2438 -122 1663 -122 
z
" transform="scale(0.015625)"/>
       </defs>
       <use xlink:href="#Helvetica-33"/>
       <use xlink:href="#Helvetica-2e" transform="translate(55.615234 0)"/>
       <use xlink:href="#Helvetica-30" transform="translate(83.398438 0)"/>
      </g>
     </g>
    </g>
    <g id="ytick_9">
     <g id="line2d_14">
      <g>
       <use xlink:href="#m2beeea14d1" x="42.266563" y="107.364" style="stroke: #000000; stroke-width: 0.6"/>
      </g>
     </g>
     <g id="text_15">
      <!-- 3.5 -->
      <g transform="translate(26.256563 110.592047) scale(0.09 -0.09)">
       <use xlink:href="#Helvetica-33"/>
       <use xlink:href="#Helvetica-2e" transform="translate(55.615234 0)"/>
       <use xlink:href="#Helvetica-35" transform="translate(83.398438 0)"/>
      </g>
     </g>
    </g>
    <g id="ytick_10">
     <g id="line2d_15">
      <g>
       <use xlink:href="#m2beeea14d1" x="42.266563" y="82.572" style="stroke: #000000; stroke-width: 0.6"/>
      </g>
     </g>
     <g id="text_16">
      <!-- 4.0 -->
      <g transform="translate(26.256563 85.800047) scale(0.09 -0.09)">
       <defs>
        <path id="Helvetica-34" d="M 2116 1584 
L 2116 3613 
L 681 1584 
L 2116 1584 
z
M 2125 0 
L 2125 1094 
L 163 1094 
L 163 1644 
L 2213 4488 
L 2688 4488 
L 2688 1584 
L 3347 1584 
L 3347 1094 
L 2688 1094 
L 2688 0 
L 2125 0 
z
" transform="scale(0.015625)"/>
       </defs>
       <use xlink:href="#Helvetica-34"/>
       <use xlink:href="#Helvetica-2e" transform="translate(55.615234 0)"/>
       <use xlink:href="#Helvetica-30" transform="translate(83.398438 0)"/>
      </g>
     </g>
    </g>
    <g id="text_17">
     <!-- frequency  $\omega(k)$ -->
     <g transform="translate(14.8 229.886) rotate(-90) scale(0.1 -0.1)">
      <defs>
       <path id="Helvetica-66" d="M 553 3856 
Q 566 4206 675 4369 
Q 872 4656 1434 4656 
Q 1488 4656 1544 4653 
Q 1600 4650 1672 4644 
L 1672 4131 
Q 1584 4138 1545 4139 
Q 1506 4141 1472 4141 
Q 1216 4141 1166 4008 
Q 1116 3875 1116 3331 
L 1672 3331 
L 1672 2888 
L 1109 2888 
L 1109 0 
L 553 0 
L 553 2888 
L 88 2888 
L 88 3331 
L 553 3331 
L 553 3856 
z
" transform="scale(0.015625)"/>
       <path id="Helvetica-71" d="M 775 1628 
Q 775 1194 897 900 
Q 1113 378 1669 378 
Q 2256 378 2478 928 
Q 2600 1231 2600 1703 
Q 2600 2138 2466 2428 
Q 2238 2925 1663 2925 
Q 1297 2925 1036 2608 
Q 775 2291 775 1628 
z
M 1606 3422 
Q 2022 3422 2306 3213 
Q 2463 3100 2606 2881 
L 2606 3347 
L 3141 3347 
L 3141 -1334 
L 2575 -1334 
L 2575 384 
Q 2434 159 2186 26 
Q 1938 -106 1566 -106 
Q 1031 -106 609 312 
Q 188 731 188 1588 
Q 188 2391 583 2906 
Q 978 3422 1606 3422 
z
" transform="scale(0.015625)"/>
       <path id="Helvetica-75" d="M 975 3347 
L 975 1125 
Q 975 869 1056 706 
Q 1206 406 1616 406 
Q 2203 406 2416 931 
Q 2531 1213 2531 1703 
L 2531 3347 
L 3094 3347 
L 3094 0 
L 2563 0 
L 2569 494 
Q 2459 303 2297 172 
Q 1975 -91 1516 -91 
Q 800 -91 541 388 
Q 400 644 400 1072 
L 400 3347 
L 975 3347 
z
M 1747 3428 
L 1747 3428 
z
" transform="scale(0.015625)"/>
       <path id="DejaVuSans-Oblique-3c9" d="M 1369 -91 
Q 72 -91 434 1766 
Q 575 2500 1256 3500 
L 1875 3500 
Q 1231 2500 1088 1750 
Q 819 397 1519 397 
Q 2166 397 2478 2078 
L 3009 2078 
Q 2669 388 3316 397 
Q 4013 403 4275 1750 
Q 4419 2500 4169 3500 
L 4788 3500 
Q 5075 2500 4934 1766 
Q 4578 -94 3278 -91 
Q 2428 -88 2503 844 
Q 2194 -91 1369 -91 
z
" transform="scale(0.015625)"/>
       <path id="DejaVuSans-28" d="M 1984 4856 
Q 1566 4138 1362 3434 
Q 1159 2731 1159 2009 
Q 1159 1288 1364 580 
Q 1569 -128 1984 -844 
L 1484 -844 
Q 1016 -109 783 600 
Q 550 1309 550 2009 
Q 550 2706 781 3412 
Q 1013 4119 1484 4856 
L 1984 4856 
z
" transform="scale(0.015625)"/>
       <path id="DejaVuSans-29" d="M 513 4856 
L 1013 4856 
Q 1481 4119 1714 3412 
Q 1947 2706 1947 2009 
Q 1947 1309 1714 600 
Q 1481 -109 1013 -844 
L 513 -844 
Q 928 -128 1133 580 
Q 1338 1288 1338 2009 
Q 1338 2731 1133 3434 
Q 928 4138 513 4856 
z
" transform="scale(0.015625)"/>
      </defs>
      <use xlink:href="#Helvetica-66" transform="translate(0 0.015625)"/>
      <use xlink:href="#Helvetica-72" transform="translate(27.783203 0.015625)"/>
      <use xlink:href="#Helvetica-65" transform="translate(61.083984 0.015625)"/>
      <use xlink:href="#Helvetica-71" transform="translate(116.699219 0.015625)"/>
      <use xlink:href="#Helvetica-75" transform="translate(172.314453 0.015625)"/>
      <use xlink:href="#Helvetica-65" transform="translate(227.929688 0.015625)"/>
      <use xlink:href="#Helvetica-6e" transform="translate(283.544922 0.015625)"/>
      <use xlink:href="#Helvetica-63" transform="translate(339.160156 0.015625)"/>
      <use xlink:href="#Helvetica-79" transform="translate(389.160156 0.015625)"/>
      <use xlink:href="#Helvetica-20" transform="translate(439.160156 0.015625)"/>
      <use xlink:href="#Helvetica-20" transform="translate(466.943359 0.015625)"/>
      <use xlink:href="#DejaVuSans-Oblique-3c9" transform="translate(494.726562 0.015625)"/>
      <use xlink:href="#DejaVuSans-28" transform="translate(578.466797 0.015625)"/>
      <use xlink:href="#DejaVuSans-Oblique-6b" transform="translate(617.480469 0.015625)"/>
      <use xlink:href="#DejaVuSans-29" transform="translate(675.390625 0.015625)"/>
     </g>
    </g>
   </g>
   <g id="line2d_16">
    <path d="M 42.266563 125.13527 
L 211.801844 280.517592 
L 212.653781 280.517592 
L 382.189063 125.13527 
L 382.189063 125.13527 
" clip-path="url(#pf5fbbdd107)" style="fill: none; stroke: #000000; stroke-width: 1.2; stroke-linecap: square"/>
   </g>
   <g id="line2d_17">
    <path d="M 42.266563 116.226817 
L 110.42145 178.882466 
L 137.683405 204.228781 
L 155.574063 221.157718 
L 168.353104 233.533656 
L 178.576337 243.713038 
L 187.095698 252.473453 
L 194.763123 260.655836 
L 201.578611 268.243281 
L 207.542164 275.193992 
L 211.801844 280.378146 
L 212.653781 280.378146 
L 218.617333 273.17417 
L 224.580886 266.314113 
L 231.396375 258.808526 
L 239.063799 250.696655 
L 248.435096 241.138671 
L 259.510266 230.201739 
L 272.289307 217.904361 
L 289.328029 201.83519 
L 313.182239 179.669907 
L 353.223235 142.806514 
L 382.189063 116.226817 
L 382.189063 116.226817 
" clip-path="url(#pf5fbbdd107)" style="fill: none; stroke-dasharray: 4.44,1.92; stroke-dashoffset: 0; stroke: #000000; stroke-width: 1.2"/>
   </g>
   <g id="patch_3">
    <path d="M 42.266563 305.7 
L 42.266563 82.572 
" style="fill: none; stroke: #000000; stroke-width: 0.6; stroke-linejoin: miter; stroke-linecap: square"/>
   </g>
   <g id="patch_4">
    <path d="M 42.266563 305.7 
L 382.189063 305.7 
" style="fill: none; stroke: #000000; stroke-width: 0.6; stroke-linejoin: miter; stroke-linecap: square"/>
   </g>
   <g id="patch_5">
    <path d="M 239.277986 253.330664 
Q 239.277986 253.294149 239.277986 253.257633 
" style="fill: none; stroke: #000000; stroke-width: 0.7; stroke-linecap: round"/>
    <path d="M 241.277986 249.330664 
L 239.277986 253.330664 
L 237.277986 249.330664 
" style="fill: none; stroke: #000000; stroke-width: 0.7; stroke-linecap: round"/>
    <path d="M 237.277986 257.257633 
L 239.277986 253.257633 
L 241.277986 257.257633 
" style="fill: none; stroke: #000000; stroke-width: 0.7; stroke-linecap: round"/>
   </g>
   <g id="text_18">
    <!--   commensurability -->
    <g transform="translate(241.983003 250.988124) scale(0.08 -0.08)">
     <defs>
      <path id="Helvetica-62" d="M 369 4606 
L 916 4606 
L 916 2941 
Q 1100 3181 1356 3307 
Q 1613 3434 1913 3434 
Q 2538 3434 2927 3004 
Q 3316 2575 3316 1738 
Q 3316 944 2931 419 
Q 2547 -106 1866 -106 
Q 1484 -106 1222 78 
Q 1066 188 888 428 
L 888 0 
L 369 0 
L 369 4606 
z
M 1831 391 
Q 2288 391 2514 753 
Q 2741 1116 2741 1709 
Q 2741 2238 2514 2584 
Q 2288 2931 1847 2931 
Q 1463 2931 1173 2647 
Q 884 2363 884 1709 
Q 884 1238 1003 944 
Q 1225 391 1831 391 
z
" transform="scale(0.015625)"/>
     </defs>
     <use xlink:href="#Helvetica-20"/>
     <use xlink:href="#Helvetica-20" transform="translate(27.783203 0)"/>
     <use xlink:href="#Helvetica-63" transform="translate(55.566406 0)"/>
     <use xlink:href="#Helvetica-6f" transform="translate(105.566406 0)"/>
     <use xlink:href="#Helvetica-6d" transform="translate(161.181641 0)"/>
     <use xlink:href="#Helvetica-6d" transform="translate(244.482422 0)"/>
     <use xlink:href="#Helvetica-65" transform="translate(327.783203 0)"/>
     <use xlink:href="#Helvetica-6e" transform="translate(383.398438 0)"/>
     <use xlink:href="#Helvetica-73" transform="translate(439.013672 0)"/>
     <use xlink:href="#Helvetica-75" transform="translate(489.013672 0)"/>
     <use xlink:href="#Helvetica-72" transform="translate(544.628906 0)"/>
     <use xlink:href="#Helvetica-61" transform="translate(577.929688 0)"/>
     <use xlink:href="#Helvetica-62" transform="translate(633.544922 0)"/>
     <use xlink:href="#Helvetica-69" transform="translate(689.160156 0)"/>
     <use xlink:href="#Helvetica-6c" transform="translate(711.376953 0)"/>
     <use xlink:href="#Helvetica-69" transform="translate(733.59375 0)"/>
     <use xlink:href="#Helvetica-74" transform="translate(755.810547 0)"/>
     <use xlink:href="#Helvetica-79" transform="translate(783.59375 0)"/>
    </g>
    <!--   splitting -->
    <g transform="translate(241.983003 259.589624) scale(0.08 -0.08)">
     <use xlink:href="#Helvetica-20"/>
     <use xlink:href="#Helvetica-20" transform="translate(27.783203 0)"/>
     <use xlink:href="#Helvetica-73" transform="translate(55.566406 0)"/>
     <use xlink:href="#Helvetica-70" transform="translate(105.566406 0)"/>
     <use xlink:href="#Helvetica-6c" transform="translate(161.181641 0)"/>
     <use xlink:href="#Helvetica-69" transform="translate(183.398438 0)"/>
     <use xlink:href="#Helvetica-74" transform="translate(205.615234 0)"/>
     <use xlink:href="#Helvetica-74" transform="translate(233.398438 0)"/>
     <use xlink:href="#Helvetica-69" transform="translate(261.181641 0)"/>
     <use xlink:href="#Helvetica-6e" transform="translate(283.398438 0)"/>
     <use xlink:href="#Helvetica-67" transform="translate(339.013672 0)"/>
    </g>
   </g>
   <g id="text_19">
    <!--   doublet (2-fold) -->
    <g transform="translate(179.462891 298.2624) scale(0.09 -0.09)">
     <defs>
      <path id="Helvetica-64" d="M 769 1634 
Q 769 1097 997 734 
Q 1225 372 1728 372 
Q 2119 372 2370 708 
Q 2622 1044 2622 1672 
Q 2622 2306 2362 2611 
Q 2103 2916 1722 2916 
Q 1297 2916 1033 2591 
Q 769 2266 769 1634 
z
M 1616 3406 
Q 2000 3406 2259 3244 
Q 2409 3150 2600 2916 
L 2600 4606 
L 3141 4606 
L 3141 0 
L 2634 0 
L 2634 466 
Q 2438 156 2169 18 
Q 1900 -119 1553 -119 
Q 994 -119 584 351 
Q 175 822 175 1603 
Q 175 2334 548 2870 
Q 922 3406 1616 3406 
z
" transform="scale(0.015625)"/>
     </defs>
     <use xlink:href="#Helvetica-20"/>
     <use xlink:href="#Helvetica-20" transform="translate(27.783203 0)"/>
     <use xlink:href="#Helvetica-64" transform="translate(55.566406 0)"/>
     <use xlink:href="#Helvetica-6f" transform="translate(111.181641 0)"/>
     <use xlink:href="#Helvetica-75" transform="translate(166.796875 0)"/>
     <use xlink:href="#Helvetica-62" transform="translate(222.412109 0)"/>
     <use xlink:href="#Helvetica-6c" transform="translate(278.027344 0)"/>
     <use xlink:href="#Helvetica-65" transform="translate(300.244141 0)"/>
     <use xlink:href="#Helvetica-74" transform="translate(355.859375 0)"/>
     <use xlink:href="#Helvetica-20" transform="translate(383.642578 0)"/>
     <use xlink:href="#Helvetica-28" transform="translate(411.425781 0)"/>
     <use xlink:href="#Helvetica-32" transform="translate(444.726562 0)"/>
     <use xlink:href="#Helvetica-2d" transform="translate(500.341797 0)"/>
     <use xlink:href="#Helvetica-66" transform="translate(533.642578 0)"/>
     <use xlink:href="#Helvetica-6f" transform="translate(561.425781 0)"/>
     <use xlink:href="#Helvetica-6c" transform="translate(617.041016 0)"/>
     <use xlink:href="#Helvetica-64" transform="translate(639.257812 0)"/>
     <use xlink:href="#Helvetica-29" transform="translate(694.873047 0)"/>
    </g>
   </g>
   <g id="text_20">
    <!-- (a)  2D torus  $T^2$:  Goldstone doublet (2-fold) -->
    <g transform="translate(104.042813 76.572) scale(0.11 -0.11)">
     <defs>
      <path id="Helvetica-44" d="M 2250 531 
Q 2566 531 2769 597 
Q 3131 719 3363 1066 
Q 3547 1344 3628 1778 
Q 3675 2038 3675 2259 
Q 3675 3113 3336 3584 
Q 2997 4056 2244 4056 
L 1141 4056 
L 1141 531 
L 2250 531 
z
M 516 4591 
L 2375 4591 
Q 3322 4591 3844 3919 
Q 4309 3313 4309 2366 
Q 4309 1634 4034 1044 
Q 3550 0 2369 0 
L 516 0 
L 516 4591 
z
" transform="scale(0.015625)"/>
      <path id="DejaVuSans-Oblique-54" d="M 378 4666 
L 4325 4666 
L 4225 4134 
L 2559 4134 
L 1759 0 
L 1125 0 
L 1925 4134 
L 275 4134 
L 378 4666 
z
" transform="scale(0.015625)"/>
      <path id="Helvetica-3a" d="M 709 3303 
L 1363 3303 
L 1363 2622 
L 709 2622 
L 709 3303 
z
M 709 681 
L 1363 681 
L 1363 0 
L 709 0 
L 709 681 
z
" transform="scale(0.015625)"/>
      <path id="Helvetica-47" d="M 2472 4709 
Q 3119 4709 3591 4459 
Q 4275 4100 4428 3200 
L 3813 3200 
Q 3700 3703 3347 3933 
Q 2994 4163 2456 4163 
Q 1819 4163 1383 3684 
Q 947 3206 947 2259 
Q 947 1441 1306 927 
Q 1666 413 2478 413 
Q 3100 413 3508 773 
Q 3916 1134 3925 1941 
L 2488 1941 
L 2488 2456 
L 4503 2456 
L 4503 0 
L 4103 0 
L 3953 591 
Q 3638 244 3394 109 
Q 2984 -122 2353 -122 
Q 1538 -122 950 406 
Q 309 1069 309 2225 
Q 309 3378 934 4059 
Q 1528 4709 2472 4709 
z
M 2369 4716 
L 2369 4716 
z
" transform="scale(0.015625)"/>
     </defs>
     <use xlink:href="#Helvetica-28" transform="translate(0 0.765625)"/>
     <use xlink:href="#Helvetica-61" transform="translate(33.300781 0.765625)"/>
     <use xlink:href="#Helvetica-29" transform="translate(88.916016 0.765625)"/>
     <use xlink:href="#Helvetica-20" transform="translate(122.216797 0.765625)"/>
     <use xlink:href="#Helvetica-20" transform="translate(150 0.765625)"/>
     <use xlink:href="#Helvetica-32" transform="translate(177.783203 0.765625)"/>
     <use xlink:href="#Helvetica-44" transform="translate(233.398438 0.765625)"/>
     <use xlink:href="#Helvetica-20" transform="translate(305.615234 0.765625)"/>
     <use xlink:href="#Helvetica-74" transform="translate(333.398438 0.765625)"/>
     <use xlink:href="#Helvetica-6f" transform="translate(361.181641 0.765625)"/>
     <use xlink:href="#Helvetica-72" transform="translate(416.796875 0.765625)"/>
     <use xlink:href="#Helvetica-75" transform="translate(450.097656 0.765625)"/>
     <use xlink:href="#Helvetica-73" transform="translate(505.712891 0.765625)"/>
     <use xlink:href="#Helvetica-20" transform="translate(555.712891 0.765625)"/>
     <use xlink:href="#Helvetica-20" transform="translate(583.496094 0.765625)"/>
     <use xlink:href="#DejaVuSans-Oblique-54" transform="translate(611.279297 0.765625)"/>
     <use xlink:href="#DejaVuSans-32" transform="translate(679.380052 39.046875) scale(0.7)"/>
     <use xlink:href="#Helvetica-3a" transform="translate(726.65056 0.765625)"/>
     <use xlink:href="#Helvetica-20" transform="translate(754.433763 0.765625)"/>
     <use xlink:href="#Helvetica-20" transform="translate(782.216966 0.765625)"/>
     <use xlink:href="#Helvetica-47" transform="translate(810.000169 0.765625)"/>
     <use xlink:href="#Helvetica-6f" transform="translate(887.783372 0.765625)"/>
     <use xlink:href="#Helvetica-6c" transform="translate(943.398607 0.765625)"/>
     <use xlink:href="#Helvetica-64" transform="translate(965.615404 0.765625)"/>
     <use xlink:href="#Helvetica-73" transform="translate(1021.230638 0.765625)"/>
     <use xlink:href="#Helvetica-74" transform="translate(1071.230638 0.765625)"/>
     <use xlink:href="#Helvetica-6f" transform="translate(1099.013841 0.765625)"/>
     <use xlink:href="#Helvetica-6e" transform="translate(1154.629076 0.765625)"/>
     <use xlink:href="#Helvetica-65" transform="translate(1210.24431 0.765625)"/>
     <use xlink:href="#Helvetica-20" transform="translate(1265.859544 0.765625)"/>
     <use xlink:href="#Helvetica-64" transform="translate(1293.642747 0.765625)"/>
     <use xlink:href="#Helvetica-6f" transform="translate(1349.257982 0.765625)"/>
     <use xlink:href="#Helvetica-75" transform="translate(1404.873216 0.765625)"/>
     <use xlink:href="#Helvetica-62" transform="translate(1460.488451 0.765625)"/>
     <use xlink:href="#Helvetica-6c" transform="translate(1516.103685 0.765625)"/>
     <use xlink:href="#Helvetica-65" transform="translate(1538.320482 0.765625)"/>
     <use xlink:href="#Helvetica-74" transform="translate(1593.935716 0.765625)"/>
     <use xlink:href="#Helvetica-20" transform="translate(1621.718919 0.765625)"/>
     <use xlink:href="#Helvetica-28" transform="translate(1649.502122 0.765625)"/>
     <use xlink:href="#Helvetica-32" transform="translate(1682.802904 0.765625)"/>
     <use xlink:href="#Helvetica-2d" transform="translate(1738.418138 0.765625)"/>
     <use xlink:href="#Helvetica-66" transform="translate(1771.718919 0.765625)"/>
     <use xlink:href="#Helvetica-6f" transform="translate(1799.502122 0.765625)"/>
     <use xlink:href="#Helvetica-6c" transform="translate(1855.117357 0.765625)"/>
     <use xlink:href="#Helvetica-64" transform="translate(1877.334154 0.765625)"/>
     <use xlink:href="#Helvetica-29" transform="translate(1932.949388 0.765625)"/>
    </g>
   </g>
   <g id="legend_1">
    <g id="patch_6">
     <path d="M 154.913438 111.94075 
L 269.542188 111.94075 
L 269.542188 86.572 
L 154.913438 86.572 
z
" style="fill: #ffffff; stroke: #000000; stroke-linejoin: miter"/>
    </g>
    <g id="line2d_18">
     <path d="M 158.113438 92.71075 
L 166.113438 92.71075 
L 174.113438 92.71075 
" style="fill: none; stroke: #000000; stroke-width: 1.2; stroke-linecap: square"/>
    </g>
    <g id="text_21">
     <!-- lower Goldstone branch -->
     <g transform="translate(180.513438 95.51075) scale(0.08 -0.08)">
      <use xlink:href="#Helvetica-6c"/>
      <use xlink:href="#Helvetica-6f" transform="translate(22.216797 0)"/>
      <use xlink:href="#Helvetica-77" transform="translate(77.832031 0)"/>
      <use xlink:href="#Helvetica-65" transform="translate(150.048828 0)"/>
      <use xlink:href="#Helvetica-72" transform="translate(205.664062 0)"/>
      <use xlink:href="#Helvetica-20" transform="translate(238.964844 0)"/>
      <use xlink:href="#Helvetica-47" transform="translate(266.748047 0)"/>
      <use xlink:href="#Helvetica-6f" transform="translate(344.53125 0)"/>
      <use xlink:href="#Helvetica-6c" transform="translate(400.146484 0)"/>
      <use xlink:href="#Helvetica-64" transform="translate(422.363281 0)"/>
      <use xlink:href="#Helvetica-73" transform="translate(477.978516 0)"/>
      <use xlink:href="#Helvetica-74" transform="translate(527.978516 0)"/>
      <use xlink:href="#Helvetica-6f" transform="translate(555.761719 0)"/>
      <use xlink:href="#Helvetica-6e" transform="translate(611.376953 0)"/>
      <use xlink:href="#Helvetica-65" transform="translate(666.992188 0)"/>
      <use xlink:href="#Helvetica-20" transform="translate(722.607422 0)"/>
      <use xlink:href="#Helvetica-62" transform="translate(750.390625 0)"/>
      <use xlink:href="#Helvetica-72" transform="translate(806.005859 0)"/>
      <use xlink:href="#Helvetica-61" transform="translate(839.306641 0)"/>
      <use xlink:href="#Helvetica-6e" transform="translate(894.921875 0)"/>
      <use xlink:href="#Helvetica-63" transform="translate(950.537109 0)"/>
      <use xlink:href="#Helvetica-68" transform="translate(1000.537109 0)"/>
     </g>
    </g>
    <g id="line2d_19">
     <path d="M 158.113438 104.27325 
L 166.113438 104.27325 
L 174.113438 104.27325 
" style="fill: none; stroke-dasharray: 4.44,1.92; stroke-dashoffset: 0; stroke: #000000; stroke-width: 1.2"/>
    </g>
    <g id="text_22">
     <!-- upper Goldstone branch -->
     <g transform="translate(180.513438 107.07325) scale(0.08 -0.08)">
      <use xlink:href="#Helvetica-75"/>
      <use xlink:href="#Helvetica-70" transform="translate(55.615234 0)"/>
      <use xlink:href="#Helvetica-70" transform="translate(111.230469 0)"/>
      <use xlink:href="#Helvetica-65" transform="translate(166.845703 0)"/>
      <use xlink:href="#Helvetica-72" transform="translate(222.460938 0)"/>
      <use xlink:href="#Helvetica-20" transform="translate(255.761719 0)"/>
      <use xlink:href="#Helvetica-47" transform="translate(283.544922 0)"/>
      <use xlink:href="#Helvetica-6f" transform="translate(361.328125 0)"/>
      <use xlink:href="#Helvetica-6c" transform="translate(416.943359 0)"/>
      <use xlink:href="#Helvetica-64" transform="translate(439.160156 0)"/>
      <use xlink:href="#Helvetica-73" transform="translate(494.775391 0)"/>
      <use xlink:href="#Helvetica-74" transform="translate(544.775391 0)"/>
      <use xlink:href="#Helvetica-6f" transform="translate(572.558594 0)"/>
      <use xlink:href="#Helvetica-6e" transform="translate(628.173828 0)"/>
      <use xlink:href="#Helvetica-65" transform="translate(683.789062 0)"/>
      <use xlink:href="#Helvetica-20" transform="translate(739.404297 0)"/>
      <use xlink:href="#Helvetica-62" transform="translate(767.1875 0)"/>
      <use xlink:href="#Helvetica-72" transform="translate(822.802734 0)"/>
      <use xlink:href="#Helvetica-61" transform="translate(856.103516 0)"/>
      <use xlink:href="#Helvetica-6e" transform="translate(911.71875 0)"/>
      <use xlink:href="#Helvetica-63" transform="translate(967.333984 0)"/>
      <use xlink:href="#Helvetica-68" transform="translate(1017.333984 0)"/>
     </g>
    </g>
   </g>
  </g>
  <g id="axes_2">
   <g id="patch_7">
    <path d="M 432.866562 305.7 
L 772.789062 305.7 
L 772.789062 82.572 
L 432.866562 82.572 
z
" style="fill: #ffffff"/>
   </g>
   <g id="matplotlib.axis_3">
    <g id="xtick_6">
     <g id="line2d_20">
      <g>
       <use xlink:href="#m24f4bfdf72" x="432.866562" y="305.7" style="stroke: #000000; stroke-width: 0.6"/>
      </g>
     </g>
     <g id="text_23">
      <!-- $-\pi$ -->
      <g transform="translate(426.386562 315.656094) scale(0.09 -0.09)">
       <use xlink:href="#DejaVuSans-2212" transform="translate(0 0.3125)"/>
       <use xlink:href="#DejaVuSans-Oblique-3c0" transform="translate(83.789062 0.3125)"/>
      </g>
     </g>
    </g>
    <g id="xtick_7">
     <g id="line2d_21">
      <g>
       <use xlink:href="#m24f4bfdf72" x="517.847187" y="305.7" style="stroke: #000000; stroke-width: 0.6"/>
      </g>
     </g>
     <g id="text_24">
      <!-- $-\pi/2$ -->
      <g transform="translate(507.137187 315.656094) scale(0.09 -0.09)">
       <use xlink:href="#DejaVuSans-2212" transform="translate(0 0.78125)"/>
       <use xlink:href="#DejaVuSans-Oblique-3c0" transform="translate(83.789062 0.78125)"/>
       <use xlink:href="#DejaVuSans-2f" transform="translate(143.994141 0.78125)"/>
       <use xlink:href="#DejaVuSans-32" transform="translate(174.060547 0.78125)"/>
      </g>
     </g>
    </g>
    <g id="xtick_8">
     <g id="line2d_22">
      <g>
       <use xlink:href="#m24f4bfdf72" x="602.827812" y="305.7" style="stroke: #000000; stroke-width: 0.6"/>
      </g>
     </g>
     <g id="text_25">
      <!-- $\Gamma$ -->
      <g transform="translate(600.307812 315.656094) scale(0.09 -0.09)">
       <use xlink:href="#DejaVuSans-393" transform="translate(0 0.09375)"/>
      </g>
     </g>
    </g>
    <g id="xtick_9">
     <g id="line2d_23">
      <g>
       <use xlink:href="#m24f4bfdf72" x="687.808437" y="305.7" style="stroke: #000000; stroke-width: 0.6"/>
      </g>
     </g>
     <g id="text_26">
      <!-- $\pi/2$ -->
      <g transform="translate(680.878438 315.656094) scale(0.09 -0.09)">
       <use xlink:href="#DejaVuSans-Oblique-3c0" transform="translate(0 0.78125)"/>
       <use xlink:href="#DejaVuSans-2f" transform="translate(60.205078 0.78125)"/>
       <use xlink:href="#DejaVuSans-32" transform="translate(90.271484 0.78125)"/>
      </g>
     </g>
    </g>
    <g id="xtick_10">
     <g id="line2d_24">
      <g>
       <use xlink:href="#m24f4bfdf72" x="772.789062" y="305.7" style="stroke: #000000; stroke-width: 0.6"/>
      </g>
     </g>
     <g id="text_27">
      <!-- $\pi$ -->
      <g transform="translate(770.044062 315.656094) scale(0.09 -0.09)">
       <use xlink:href="#DejaVuSans-Oblique-3c0" transform="translate(0 0.3125)"/>
      </g>
     </g>
    </g>
    <g id="text_28">
     <!-- wavevector  $k$ -->
     <g transform="translate(571.827812 328.705469) scale(0.1 -0.1)">
      <use xlink:href="#Helvetica-77" transform="translate(0 0.015625)"/>
      <use xlink:href="#Helvetica-61" transform="translate(72.216797 0.015625)"/>
      <use xlink:href="#Helvetica-76" transform="translate(127.832031 0.015625)"/>
      <use xlink:href="#Helvetica-65" transform="translate(177.832031 0.015625)"/>
      <use xlink:href="#Helvetica-76" transform="translate(233.447266 0.015625)"/>
      <use xlink:href="#Helvetica-65" transform="translate(283.447266 0.015625)"/>
      <use xlink:href="#Helvetica-63" transform="translate(339.0625 0.015625)"/>
      <use xlink:href="#Helvetica-74" transform="translate(389.0625 0.015625)"/>
      <use xlink:href="#Helvetica-6f" transform="translate(416.845703 0.015625)"/>
      <use xlink:href="#Helvetica-72" transform="translate(472.460938 0.015625)"/>
      <use xlink:href="#Helvetica-20" transform="translate(505.761719 0.015625)"/>
      <use xlink:href="#Helvetica-20" transform="translate(533.544922 0.015625)"/>
      <use xlink:href="#DejaVuSans-Oblique-6b" transform="translate(561.328125 0.015625)"/>
     </g>
    </g>
   </g>
   <g id="matplotlib.axis_4">
    <g id="ytick_11">
     <g id="line2d_25">
      <g>
       <use xlink:href="#m2beeea14d1" x="432.866562" y="305.7" style="stroke: #000000; stroke-width: 0.6"/>
      </g>
     </g>
     <g id="text_29">
      <!-- −0.5 -->
      <g transform="translate(411.6 308.928047) scale(0.09 -0.09)">
       <use xlink:href="#Helvetica-2212"/>
       <use xlink:href="#Helvetica-30" transform="translate(58.398438 0)"/>
       <use xlink:href="#Helvetica-2e" transform="translate(114.013672 0)"/>
       <use xlink:href="#Helvetica-35" transform="translate(141.796875 0)"/>
      </g>
     </g>
    </g>
    <g id="ytick_12">
     <g id="line2d_26">
      <g>
       <use xlink:href="#m2beeea14d1" x="432.866562" y="280.908" style="stroke: #000000; stroke-width: 0.6"/>
      </g>
     </g>
     <g id="text_30">
      <!-- 0.0 -->
      <g transform="translate(416.856562 284.136047) scale(0.09 -0.09)">
       <use xlink:href="#Helvetica-30"/>
       <use xlink:href="#Helvetica-2e" transform="translate(55.615234 0)"/>
       <use xlink:href="#Helvetica-30" transform="translate(83.398438 0)"/>
      </g>
     </g>
    </g>
    <g id="ytick_13">
     <g id="line2d_27">
      <g>
       <use xlink:href="#m2beeea14d1" x="432.866562" y="256.116" style="stroke: #000000; stroke-width: 0.6"/>
      </g>
     </g>
     <g id="text_31">
      <!-- 0.5 -->
      <g transform="translate(416.856562 259.344047) scale(0.09 -0.09)">
       <use xlink:href="#Helvetica-30"/>
       <use xlink:href="#Helvetica-2e" transform="translate(55.615234 0)"/>
       <use xlink:href="#Helvetica-35" transform="translate(83.398438 0)"/>
      </g>
     </g>
    </g>
    <g id="ytick_14">
     <g id="line2d_28">
      <g>
       <use xlink:href="#m2beeea14d1" x="432.866562" y="231.324" style="stroke: #000000; stroke-width: 0.6"/>
      </g>
     </g>
     <g id="text_32">
      <!-- 1.0 -->
      <g transform="translate(416.856562 234.552047) scale(0.09 -0.09)">
       <use xlink:href="#Helvetica-31"/>
       <use xlink:href="#Helvetica-2e" transform="translate(55.615234 0)"/>
       <use xlink:href="#Helvetica-30" transform="translate(83.398438 0)"/>
      </g>
     </g>
    </g>
    <g id="ytick_15">
     <g id="line2d_29">
      <g>
       <use xlink:href="#m2beeea14d1" x="432.866562" y="206.532" style="stroke: #000000; stroke-width: 0.6"/>
      </g>
     </g>
     <g id="text_33">
      <!-- 1.5 -->
      <g transform="translate(416.856562 209.760047) scale(0.09 -0.09)">
       <use xlink:href="#Helvetica-31"/>
       <use xlink:href="#Helvetica-2e" transform="translate(55.615234 0)"/>
       <use xlink:href="#Helvetica-35" transform="translate(83.398438 0)"/>
      </g>
     </g>
    </g>
    <g id="ytick_16">
     <g id="line2d_30">
      <g>
       <use xlink:href="#m2beeea14d1" x="432.866562" y="181.74" style="stroke: #000000; stroke-width: 0.6"/>
      </g>
     </g>
     <g id="text_34">
      <!-- 2.0 -->
      <g transform="translate(416.856562 184.968047) scale(0.09 -0.09)">
       <use xlink:href="#Helvetica-32"/>
       <use xlink:href="#Helvetica-2e" transform="translate(55.615234 0)"/>
       <use xlink:href="#Helvetica-30" transform="translate(83.398438 0)"/>
      </g>
     </g>
    </g>
    <g id="ytick_17">
     <g id="line2d_31">
      <g>
       <use xlink:href="#m2beeea14d1" x="432.866562" y="156.948" style="stroke: #000000; stroke-width: 0.6"/>
      </g>
     </g>
     <g id="text_35">
      <!-- 2.5 -->
      <g transform="translate(416.856562 160.176047) scale(0.09 -0.09)">
       <use xlink:href="#Helvetica-32"/>
       <use xlink:href="#Helvetica-2e" transform="translate(55.615234 0)"/>
       <use xlink:href="#Helvetica-35" transform="translate(83.398438 0)"/>
      </g>
     </g>
    </g>
    <g id="ytick_18">
     <g id="line2d_32">
      <g>
       <use xlink:href="#m2beeea14d1" x="432.866562" y="132.156" style="stroke: #000000; stroke-width: 0.6"/>
      </g>
     </g>
     <g id="text_36">
      <!-- 3.0 -->
      <g transform="translate(416.856562 135.384047) scale(0.09 -0.09)">
       <use xlink:href="#Helvetica-33"/>
       <use xlink:href="#Helvetica-2e" transform="translate(55.615234 0)"/>
       <use xlink:href="#Helvetica-30" transform="translate(83.398438 0)"/>
      </g>
     </g>
    </g>
    <g id="ytick_19">
     <g id="line2d_33">
      <g>
       <use xlink:href="#m2beeea14d1" x="432.866562" y="107.364" style="stroke: #000000; stroke-width: 0.6"/>
      </g>
     </g>
     <g id="text_37">
      <!-- 3.5 -->
      <g transform="translate(416.856562 110.592047) scale(0.09 -0.09)">
       <use xlink:href="#Helvetica-33"/>
       <use xlink:href="#Helvetica-2e" transform="translate(55.615234 0)"/>
       <use xlink:href="#Helvetica-35" transform="translate(83.398438 0)"/>
      </g>
     </g>
    </g>
    <g id="ytick_20">
     <g id="line2d_34">
      <g>
       <use xlink:href="#m2beeea14d1" x="432.866562" y="82.572" style="stroke: #000000; stroke-width: 0.6"/>
      </g>
     </g>
     <g id="text_38">
      <!-- 4.0 -->
      <g transform="translate(416.856562 85.800047) scale(0.09 -0.09)">
       <use xlink:href="#Helvetica-34"/>
       <use xlink:href="#Helvetica-2e" transform="translate(55.615234 0)"/>
       <use xlink:href="#Helvetica-30" transform="translate(83.398438 0)"/>
      </g>
     </g>
    </g>
    <g id="text_39">
     <!-- frequency  $\omega(k)$ -->
     <g transform="translate(405.4 229.886) rotate(-90) scale(0.1 -0.1)">
      <use xlink:href="#Helvetica-66" transform="translate(0 0.015625)"/>
      <use xlink:href="#Helvetica-72" transform="translate(27.783203 0.015625)"/>
      <use xlink:href="#Helvetica-65" transform="translate(61.083984 0.015625)"/>
      <use xlink:href="#Helvetica-71" transform="translate(116.699219 0.015625)"/>
      <use xlink:href="#Helvetica-75" transform="translate(172.314453 0.015625)"/>
      <use xlink:href="#Helvetica-65" transform="translate(227.929688 0.015625)"/>
      <use xlink:href="#Helvetica-6e" transform="translate(283.544922 0.015625)"/>
      <use xlink:href="#Helvetica-63" transform="translate(339.160156 0.015625)"/>
      <use xlink:href="#Helvetica-79" transform="translate(389.160156 0.015625)"/>
      <use xlink:href="#Helvetica-20" transform="translate(439.160156 0.015625)"/>
      <use xlink:href="#Helvetica-20" transform="translate(466.943359 0.015625)"/>
      <use xlink:href="#DejaVuSans-Oblique-3c9" transform="translate(494.726562 0.015625)"/>
      <use xlink:href="#DejaVuSans-28" transform="translate(578.466797 0.015625)"/>
      <use xlink:href="#DejaVuSans-Oblique-6b" transform="translate(617.480469 0.015625)"/>
      <use xlink:href="#DejaVuSans-29" transform="translate(675.390625 0.015625)"/>
     </g>
    </g>
   </g>
   <g id="line2d_35">
    <path d="M 432.866562 125.13527 
L 602.401844 280.517592 
L 603.253781 280.517592 
L 772.789062 125.13527 
L 772.789062 125.13527 
" clip-path="url(#pdbc73e05f8)" style="fill: none; stroke: #000000; stroke-width: 1.4; stroke-linecap: square"/>
   </g>
   <g id="patch_8">
    <path d="M 432.866562 305.7 
L 432.866562 82.572 
" style="fill: none; stroke: #000000; stroke-width: 0.6; stroke-linejoin: miter; stroke-linecap: square"/>
   </g>
   <g id="patch_9">
    <path d="M 432.866562 305.7 
L 772.789062 305.7 
" style="fill: none; stroke: #000000; stroke-width: 0.6; stroke-linejoin: miter; stroke-linecap: square"/>
   </g>
   <g id="text_40">
    <!--   1-fold -->
    <g transform="translate(589.071875 298.2624) scale(0.09 -0.09)">
     <use xlink:href="#Helvetica-20"/>
     <use xlink:href="#Helvetica-20" transform="translate(27.783203 0)"/>
     <use xlink:href="#Helvetica-31" transform="translate(55.566406 0)"/>
     <use xlink:href="#Helvetica-2d" transform="translate(111.181641 0)"/>
     <use xlink:href="#Helvetica-66" transform="translate(144.482422 0)"/>
     <use xlink:href="#Helvetica-6f" transform="translate(172.265625 0)"/>
     <use xlink:href="#Helvetica-6c" transform="translate(227.880859 0)"/>
     <use xlink:href="#Helvetica-64" transform="translate(250.097656 0)"/>
    </g>
   </g>
   <g id="text_41">
    <!-- (b)  1D cycle  $C_n$:  Goldstone (1-fold) -->
    <g transform="translate(513.837812 76.572) scale(0.11 -0.11)">
     <defs>
      <path id="DejaVuSans-Oblique-43" d="M 4447 4306 
L 4319 3641 
Q 4019 3944 3683 4091 
Q 3347 4238 2956 4238 
Q 2422 4238 2017 3981 
Q 1613 3725 1319 3200 
Q 1131 2863 1032 2486 
Q 934 2109 934 1728 
Q 934 1091 1264 756 
Q 1594 422 2222 422 
Q 2656 422 3056 561 
Q 3456 700 3834 978 
L 3688 231 
Q 3316 72 2936 -9 
Q 2556 -91 2175 -91 
Q 1278 -91 773 396 
Q 269 884 269 1753 
Q 269 2309 461 2846 
Q 653 3384 1013 3828 
Q 1394 4300 1883 4525 
Q 2372 4750 3022 4750 
Q 3422 4750 3780 4639 
Q 4138 4528 4447 4306 
z
" transform="scale(0.015625)"/>
      <path id="DejaVuSans-Oblique-6e" d="M 3566 2113 
L 3156 0 
L 2578 0 
L 2988 2091 
Q 3016 2238 3031 2350 
Q 3047 2463 3047 2528 
Q 3047 2791 2881 2937 
Q 2716 3084 2419 3084 
Q 1956 3084 1622 2776 
Q 1288 2469 1184 1941 
L 800 0 
L 225 0 
L 903 3500 
L 1478 3500 
L 1363 2950 
Q 1603 3253 1940 3418 
Q 2278 3584 2650 3584 
Q 3113 3584 3367 3334 
Q 3622 3084 3622 2631 
Q 3622 2519 3608 2391 
Q 3594 2263 3566 2113 
z
" transform="scale(0.015625)"/>
     </defs>
     <use xlink:href="#Helvetica-28" transform="translate(0 0.78125)"/>
     <use xlink:href="#Helvetica-62" transform="translate(33.300781 0.78125)"/>
     <use xlink:href="#Helvetica-29" transform="translate(88.916016 0.78125)"/>
     <use xlink:href="#Helvetica-20" transform="translate(122.216797 0.78125)"/>
     <use xlink:href="#Helvetica-20" transform="translate(150 0.78125)"/>
     <use xlink:href="#Helvetica-31" transform="translate(177.783203 0.78125)"/>
     <use xlink:href="#Helvetica-44" transform="translate(233.398438 0.78125)"/>
     <use xlink:href="#Helvetica-20" transform="translate(305.615234 0.78125)"/>
     <use xlink:href="#Helvetica-63" transform="translate(333.398438 0.78125)"/>
     <use xlink:href="#Helvetica-79" transform="translate(383.398438 0.78125)"/>
     <use xlink:href="#Helvetica-63" transform="translate(433.398438 0.78125)"/>
     <use xlink:href="#Helvetica-6c" transform="translate(483.398438 0.78125)"/>
     <use xlink:href="#Helvetica-65" transform="translate(505.615234 0.78125)"/>
     <use xlink:href="#Helvetica-20" transform="translate(561.230469 0.78125)"/>
     <use xlink:href="#Helvetica-20" transform="translate(589.013672 0.78125)"/>
     <use xlink:href="#DejaVuSans-Oblique-43" transform="translate(616.796875 0.78125)"/>
     <use xlink:href="#DejaVuSans-Oblique-6e" transform="translate(686.621094 -15.625) scale(0.7)"/>
     <use xlink:href="#Helvetica-3a" transform="translate(733.720703 0.78125)"/>
     <use xlink:href="#Helvetica-20" transform="translate(761.503906 0.78125)"/>
     <use xlink:href="#Helvetica-20" transform="translate(789.287109 0.78125)"/>
     <use xlink:href="#Helvetica-47" transform="translate(817.070312 0.78125)"/>
     <use xlink:href="#Helvetica-6f" transform="translate(894.853516 0.78125)"/>
     <use xlink:href="#Helvetica-6c" transform="translate(950.46875 0.78125)"/>
     <use xlink:href="#Helvetica-64" transform="translate(972.685547 0.78125)"/>
     <use xlink:href="#Helvetica-73" transform="translate(1028.300781 0.78125)"/>
     <use xlink:href="#Helvetica-74" transform="translate(1078.300781 0.78125)"/>
     <use xlink:href="#Helvetica-6f" transform="translate(1106.083984 0.78125)"/>
     <use xlink:href="#Helvetica-6e" transform="translate(1161.699219 0.78125)"/>
     <use xlink:href="#Helvetica-65" transform="translate(1217.314453 0.78125)"/>
     <use xlink:href="#Helvetica-20" transform="translate(1272.929688 0.78125)"/>
     <use xlink:href="#Helvetica-28" transform="translate(1300.712891 0.78125)"/>
     <use xlink:href="#Helvetica-31" transform="translate(1334.013672 0.78125)"/>
     <use xlink:href="#Helvetica-2d" transform="translate(1389.628906 0.78125)"/>
     <use xlink:href="#Helvetica-66" transform="translate(1422.929688 0.78125)"/>
     <use xlink:href="#Helvetica-6f" transform="translate(1450.712891 0.78125)"/>
     <use xlink:href="#Helvetica-6c" transform="translate(1506.328125 0.78125)"/>
     <use xlink:href="#Helvetica-64" transform="translate(1528.544922 0.78125)"/>
     <use xlink:href="#Helvetica-29" transform="translate(1584.160156 0.78125)"/>
    </g>
   </g>
   <g id="legend_2">
    <g id="patch_10">
     <path d="M 556.854063 100.37825 
L 648.801563 100.37825 
L 648.801563 86.572 
L 556.854063 86.572 
z
" style="fill: #ffffff; stroke: #000000; stroke-linejoin: miter"/>
    </g>
    <g id="line2d_36">
     <path d="M 560.054063 92.71075 
L 568.054063 92.71075 
L 576.054063 92.71075 
" style="fill: none; stroke: #000000; stroke-width: 1.4; stroke-linecap: square"/>
    </g>
    <g id="text_42">
     <!-- Goldstone branch -->
     <g transform="translate(582.454063 95.51075) scale(0.08 -0.08)">
      <use xlink:href="#Helvetica-47"/>
      <use xlink:href="#Helvetica-6f" transform="translate(77.783203 0)"/>
      <use xlink:href="#Helvetica-6c" transform="translate(133.398438 0)"/>
      <use xlink:href="#Helvetica-64" transform="translate(155.615234 0)"/>
      <use xlink:href="#Helvetica-73" transform="translate(211.230469 0)"/>
      <use xlink:href="#Helvetica-74" transform="translate(261.230469 0)"/>
      <use xlink:href="#Helvetica-6f" transform="translate(289.013672 0)"/>
      <use xlink:href="#Helvetica-6e" transform="translate(344.628906 0)"/>
      <use xlink:href="#Helvetica-65" transform="translate(400.244141 0)"/>
      <use xlink:href="#Helvetica-20" transform="translate(455.859375 0)"/>
      <use xlink:href="#Helvetica-62" transform="translate(483.642578 0)"/>
      <use xlink:href="#Helvetica-72" transform="translate(539.257812 0)"/>
      <use xlink:href="#Helvetica-61" transform="translate(572.558594 0)"/>
      <use xlink:href="#Helvetica-6e" transform="translate(628.173828 0)"/>
      <use xlink:href="#Helvetica-63" transform="translate(683.789062 0)"/>
      <use xlink:href="#Helvetica-68" transform="translate(733.789062 0)"/>
     </g>
    </g>
   </g>
  </g>
  <g id="text_43">
   <!-- Theorem T-V5b-T  —  Pre-Objective Goldstone on translation-invariant graphs -->
   <g transform="translate(182.64125 16.0425) scale(0.12 -0.12)">
    <defs>
     <path id="Helvetica-54" d="M 3828 4591 
L 3828 4044 
L 2281 4044 
L 2281 0 
L 1650 0 
L 1650 4044 
L 103 4044 
L 103 4591 
L 3828 4591 
z
" transform="scale(0.015625)"/>
     <path id="Helvetica-56" d="M 850 4591 
L 2169 681 
L 3472 4591 
L 4169 4591 
L 2494 0 
L 1834 0 
L 163 4591 
L 850 4591 
z
" transform="scale(0.015625)"/>
     <path id="Helvetica-2014" d="M 753 2000 
L 5644 2000 
L 5644 1541 
L 753 1541 
L 753 2000 
z
" transform="scale(0.015625)"/>
     <path id="Helvetica-50" d="M 547 4591 
L 2613 4591 
Q 3225 4591 3600 4245 
Q 3975 3900 3975 3275 
Q 3975 2738 3640 2339 
Q 3306 1941 2613 1941 
L 1169 1941 
L 1169 0 
L 547 0 
L 547 4591 
z
M 3347 3272 
Q 3347 3778 2972 3959 
Q 2766 4056 2406 4056 
L 1169 4056 
L 1169 2466 
L 2406 2466 
Q 2825 2466 3086 2644 
Q 3347 2822 3347 3272 
z
" transform="scale(0.015625)"/>
     <path id="Helvetica-4f" d="M 2469 4716 
Q 3684 4716 4269 3934 
Q 4725 3325 4725 2375 
Q 4725 1347 4203 666 
Q 3591 -134 2456 -134 
Q 1397 -134 791 566 
Q 250 1241 250 2272 
Q 250 3203 713 3866 
Q 1306 4716 2469 4716 
z
M 2531 422 
Q 3353 422 3720 1011 
Q 4088 1600 4088 2366 
Q 4088 3175 3664 3669 
Q 3241 4163 2506 4163 
Q 1794 4163 1344 3673 
Q 894 3184 894 2231 
Q 894 1469 1280 945 
Q 1666 422 2531 422 
z
M 2488 4716 
L 2488 4716 
z
" transform="scale(0.015625)"/>
     <path id="Helvetica-6a" d="M 975 3941 
L 413 3941 
L 413 4591 
L 975 4591 
L 975 3941 
z
M -119 -847 
Q 259 -834 336 -779 
Q 413 -725 413 -438 
L 413 3331 
L 975 3331 
L 975 -497 
Q 975 -863 856 -1044 
Q 659 -1350 109 -1350 
Q 69 -1350 23 -1347 
Q -22 -1344 -119 -1334 
L -119 -847 
z
" transform="scale(0.015625)"/>
    </defs>
    <use xlink:href="#Helvetica-54"/>
    <use xlink:href="#Helvetica-68" transform="translate(61.083984 0)"/>
    <use xlink:href="#Helvetica-65" transform="translate(116.699219 0)"/>
    <use xlink:href="#Helvetica-6f" transform="translate(172.314453 0)"/>
    <use xlink:href="#Helvetica-72" transform="translate(227.929688 0)"/>
    <use xlink:href="#Helvetica-65" transform="translate(261.230469 0)"/>
    <use xlink:href="#Helvetica-6d" transform="translate(316.845703 0)"/>
    <use xlink:href="#Helvetica-20" transform="translate(400.146484 0)"/>
    <use xlink:href="#Helvetica-54" transform="translate(427.929688 0)"/>
    <use xlink:href="#Helvetica-2d" transform="translate(489.013672 0)"/>
    <use xlink:href="#Helvetica-56" transform="translate(522.314453 0)"/>
    <use xlink:href="#Helvetica-35" transform="translate(589.013672 0)"/>
    <use xlink:href="#Helvetica-62" transform="translate(644.628906 0)"/>
    <use xlink:href="#Helvetica-2d" transform="translate(700.244141 0)"/>
    <use xlink:href="#Helvetica-54" transform="translate(733.544922 0)"/>
    <use xlink:href="#Helvetica-20" transform="translate(794.628906 0)"/>
    <use xlink:href="#Helvetica-20" transform="translate(822.412109 0)"/>
    <use xlink:href="#Helvetica-2014" transform="translate(850.195312 0)"/>
    <use xlink:href="#Helvetica-20" transform="translate(950.195312 0)"/>
    <use xlink:href="#Helvetica-20" transform="translate(977.978516 0)"/>
    <use xlink:href="#Helvetica-50" transform="translate(1005.761719 0)"/>
    <use xlink:href="#Helvetica-72" transform="translate(1072.460938 0)"/>
    <use xlink:href="#Helvetica-65" transform="translate(1105.761719 0)"/>
    <use xlink:href="#Helvetica-2d" transform="translate(1161.376953 0)"/>
    <use xlink:href="#Helvetica-4f" transform="translate(1194.677734 0)"/>
    <use xlink:href="#Helvetica-62" transform="translate(1272.460938 0)"/>
    <use xlink:href="#Helvetica-6a" transform="translate(1328.076172 0)"/>
    <use xlink:href="#Helvetica-65" transform="translate(1350.292969 0)"/>
    <use xlink:href="#Helvetica-63" transform="translate(1405.908203 0)"/>
    <use xlink:href="#Helvetica-74" transform="translate(1455.908203 0)"/>
    <use xlink:href="#Helvetica-69" transform="translate(1483.691406 0)"/>
    <use xlink:href="#Helvetica-76" transform="translate(1505.908203 0)"/>
    <use xlink:href="#Helvetica-65" transform="translate(1555.908203 0)"/>
    <use xlink:href="#Helvetica-20" transform="translate(1611.523438 0)"/>
    <use xlink:href="#Helvetica-47" transform="translate(1639.306641 0)"/>
    <use xlink:href="#Helvetica-6f" transform="translate(1717.089844 0)"/>
    <use xlink:href="#Helvetica-6c" transform="translate(1772.705078 0)"/>
    <use xlink:href="#Helvetica-64" transform="translate(1794.921875 0)"/>
    <use xlink:href="#Helvetica-73" transform="translate(1850.537109 0)"/>
    <use xlink:href="#Helvetica-74" transform="translate(1900.537109 0)"/>
    <use xlink:href="#Helvetica-6f" transform="translate(1928.320312 0)"/>
    <use xlink:href="#Helvetica-6e" transform="translate(1983.935547 0)"/>
    <use xlink:href="#Helvetica-65" transform="translate(2039.550781 0)"/>
    <use xlink:href="#Helvetica-20" transform="translate(2095.166016 0)"/>
    <use xlink:href="#Helvetica-6f" transform="translate(2122.949219 0)"/>
    <use xlink:href="#Helvetica-6e" transform="translate(2178.564453 0)"/>
    <use xlink:href="#Helvetica-20" transform="translate(2234.179688 0)"/>
    <use xlink:href="#Helvetica-74" transform="translate(2261.962891 0)"/>
    <use xlink:href="#Helvetica-72" transform="translate(2289.746094 0)"/>
    <use xlink:href="#Helvetica-61" transform="translate(2323.046875 0)"/>
    <use xlink:href="#Helvetica-6e" transform="translate(2378.662109 0)"/>
    <use xlink:href="#Helvetica-73" transform="translate(2434.277344 0)"/>
    <use xlink:href="#Helvetica-6c" transform="translate(2484.277344 0)"/>
    <use xlink:href="#Helvetica-61" transform="translate(2506.494141 0)"/>
    <use xlink:href="#Helvetica-74" transform="translate(2562.109375 0)"/>
    <use xlink:href="#Helvetica-69" transform="translate(2589.892578 0)"/>
    <use xlink:href="#Helvetica-6f" transform="translate(2612.109375 0)"/>
    <use xlink:href="#Helvetica-6e" transform="translate(2667.724609 0)"/>
    <use xlink:href="#Helvetica-2d" transform="translate(2723.339844 0)"/>
    <use xlink:href="#Helvetica-69" transform="translate(2756.640625 0)"/>
    <use xlink:href="#Helvetica-6e" transform="translate(2778.857422 0)"/>
    <use xlink:href="#Helvetica-76" transform="translate(2834.472656 0)"/>
    <use xlink:href="#Helvetica-61" transform="translate(2884.472656 0)"/>
    <use xlink:href="#Helvetica-72" transform="translate(2940.087891 0)"/>
    <use xlink:href="#Helvetica-69" transform="translate(2973.388672 0)"/>
    <use xlink:href="#Helvetica-61" transform="translate(2995.605469 0)"/>
    <use xlink:href="#Helvetica-6e" transform="translate(3051.220703 0)"/>
    <use xlink:href="#Helvetica-74" transform="translate(3106.835938 0)"/>
    <use xlink:href="#Helvetica-20" transform="translate(3134.619141 0)"/>
    <use xlink:href="#Helvetica-67" transform="translate(3162.402344 0)"/>
    <use xlink:href="#Helvetica-72" transform="translate(3218.017578 0)"/>
    <use xlink:href="#Helvetica-61" transform="translate(3251.318359 0)"/>
    <use xlink:href="#Helvetica-70" transform="translate(3306.933594 0)"/>
    <use xlink:href="#Helvetica-68" transform="translate(3362.548828 0)"/>
    <use xlink:href="#Helvetica-73" transform="translate(3418.164062 0)"/>
   </g>
   <!-- (nodal count = 2 universal across graph classes) -->
   <g transform="translate(261.824375 29.196) scale(0.12 -0.12)">
    <defs>
     <path id="Helvetica-3d" d="M 3547 2569 
L 3547 2044 
L 288 2044 
L 288 2569 
L 3547 2569 
z
M 3547 1228 
L 3547 694 
L 288 694 
L 288 1228 
L 3547 1228 
z
" transform="scale(0.015625)"/>
    </defs>
    <use xlink:href="#Helvetica-28"/>
    <use xlink:href="#Helvetica-6e" transform="translate(33.300781 0)"/>
    <use xlink:href="#Helvetica-6f" transform="translate(88.916016 0)"/>
    <use xlink:href="#Helvetica-64" transform="translate(144.53125 0)"/>
    <use xlink:href="#Helvetica-61" transform="translate(200.146484 0)"/>
    <use xlink:href="#Helvetica-6c" transform="translate(255.761719 0)"/>
    <use xlink:href="#Helvetica-20" transform="translate(277.978516 0)"/>
    <use xlink:href="#Helvetica-63" transform="translate(305.761719 0)"/>
    <use xlink:href="#Helvetica-6f" transform="translate(355.761719 0)"/>
    <use xlink:href="#Helvetica-75" transform="translate(411.376953 0)"/>
    <use xlink:href="#Helvetica-6e" transform="translate(466.992188 0)"/>
    <use xlink:href="#Helvetica-74" transform="translate(522.607422 0)"/>
    <use xlink:href="#Helvetica-20" transform="translate(550.390625 0)"/>
    <use xlink:href="#Helvetica-3d" transform="translate(578.173828 0)"/>
    <use xlink:href="#Helvetica-20" transform="translate(636.572266 0)"/>
    <use xlink:href="#Helvetica-32" transform="translate(664.355469 0)"/>
    <use xlink:href="#Helvetica-20" transform="translate(719.970703 0)"/>
    <use xlink:href="#Helvetica-75" transform="translate(747.753906 0)"/>
    <use xlink:href="#Helvetica-6e" transform="translate(803.369141 0)"/>
    <use xlink:href="#Helvetica-69" transform="translate(858.984375 0)"/>
    <use xlink:href="#Helvetica-76" transform="translate(881.201172 0)"/>
    <use xlink:href="#Helvetica-65" transform="translate(931.201172 0)"/>
    <use xlink:href="#Helvetica-72" transform="translate(986.816406 0)"/>
    <use xlink:href="#Helvetica-73" transform="translate(1020.117188 0)"/>
    <use xlink:href="#Helvetica-61" transform="translate(1070.117188 0)"/>
    <use xlink:href="#Helvetica-6c" transform="translate(1125.732422 0)"/>
    <use xlink:href="#Helvetica-20" transform="translate(1147.949219 0)"/>
    <use xlink:href="#Helvetica-61" transform="translate(1175.732422 0)"/>
    <use xlink:href="#Helvetica-63" transform="translate(1231.347656 0)"/>
    <use xlink:href="#Helvetica-72" transform="translate(1281.347656 0)"/>
    <use xlink:href="#Helvetica-6f" transform="translate(1314.648438 0)"/>
    <use xlink:href="#Helvetica-73" transform="translate(1370.263672 0)"/>
    <use xlink:href="#Helvetica-73" transform="translate(1420.263672 0)"/>
    <use xlink:href="#Helvetica-20" transform="translate(1470.263672 0)"/>
    <use xlink:href="#Helvetica-67" transform="translate(1498.046875 0)"/>
    <use xlink:href="#Helvetica-72" transform="translate(1553.662109 0)"/>
    <use xlink:href="#Helvetica-61" transform="translate(1586.962891 0)"/>
    <use xlink:href="#Helvetica-70" transform="translate(1642.578125 0)"/>
    <use xlink:href="#Helvetica-68" transform="translate(1698.193359 0)"/>
    <use xlink:href="#Helvetica-20" transform="translate(1753.808594 0)"/>
    <use xlink:href="#Helvetica-63" transform="translate(1781.591797 0)"/>
    <use xlink:href="#Helvetica-6c" transform="translate(1831.591797 0)"/>
    <use xlink:href="#Helvetica-61" transform="translate(1853.808594 0)"/>
    <use xlink:href="#Helvetica-73" transform="translate(1909.423828 0)"/>
    <use xlink:href="#Helvetica-73" transform="translate(1959.423828 0)"/>
    <use xlink:href="#Helvetica-65" transform="translate(2009.423828 0)"/>
    <use xlink:href="#Helvetica-73" transform="translate(2065.039062 0)"/>
    <use xlink:href="#Helvetica-29" transform="translate(2115.039062 0)"/>
   </g>
  </g>
 </g>
 <defs>
  <clipPath id="pf5fbbdd107">
   <rect x="42.266563" y="82.572" width="339.9225" height="223.128"/>
  </clipPath>
  <clipPath id="pdbc73e05f8">
   <rect x="432.866562" y="82.572" width="339.9225" height="223.128"/>
  </clipPath>
 </defs>
</svg>
